G04 Layer: BottomLayer*
G04 EasyEDA v6.3.53, 2020-06-17T01:54:55+02:00*
G04 e9d571a3f1504c91a96fab9e56f28b91,9eabfb72a9474bef872f988307f0334b,10*
G04 Gerber Generator version 0.2*
G04 Scale: 100 percent, Rotated: No, Reflected: No *
G04 Dimensions in millimeters *
G04 leading zeros omitted , absolute positions ,3 integer and 3 decimal *
%FSLAX33Y33*%
%MOMM*%
G90*
G71D02*

%ADD11C,1.270000*%
%ADD12C,0.381000*%
%ADD14C,0.609600*%
%ADD20C,1.999996*%
%ADD21R,1.999996X1.999996*%
%ADD22C,1.574800*%
%ADD23R,1.574800X1.574800*%
%ADD24C,1.799996*%
%ADD25C,1.524000*%
%ADD26C,1.499997*%
%ADD27C,0.599999*%

%LPD*%
G36*
G01X40033Y70329D02*
G01X27242Y70329D01*
G01X27227Y70328D01*
G01X27211Y70324D01*
G01X27197Y70318D01*
G01X27183Y70310D01*
G01X27171Y70300D01*
G01X23875Y67045D01*
G01X23865Y67034D01*
G01X23857Y67021D01*
G01X23851Y67007D01*
G01X23847Y66992D01*
G01X23845Y66977D01*
G01X23842Y66926D01*
G01X23837Y66875D01*
G01X23829Y66824D01*
G01X23820Y66774D01*
G01X23808Y66724D01*
G01X23795Y66674D01*
G01X23779Y66625D01*
G01X23762Y66577D01*
G01X23742Y66529D01*
G01X23721Y66483D01*
G01X23698Y66437D01*
G01X23673Y66392D01*
G01X23646Y66349D01*
G01X23617Y66306D01*
G01X23587Y66265D01*
G01X23555Y66225D01*
G01X23521Y66186D01*
G01X23512Y66174D01*
G01X23504Y66161D01*
G01X23499Y66147D01*
G01X23496Y66133D01*
G01X23495Y66118D01*
G01X23496Y66103D01*
G01X23499Y66089D01*
G01X23504Y66075D01*
G01X23511Y66063D01*
G01X23519Y66051D01*
G01X23530Y66041D01*
G01X23541Y66032D01*
G01X23554Y66025D01*
G01X23567Y66020D01*
G01X23582Y66017D01*
G01X23596Y66016D01*
G01X33883Y66016D01*
G01X33898Y66017D01*
G01X33912Y66020D01*
G01X33925Y66025D01*
G01X33938Y66032D01*
G01X33950Y66041D01*
G01X33960Y66051D01*
G01X33969Y66063D01*
G01X33976Y66075D01*
G01X33981Y66089D01*
G01X33984Y66103D01*
G01X33985Y66118D01*
G01X33984Y66133D01*
G01X33980Y66147D01*
G01X33975Y66161D01*
G01X33968Y66174D01*
G01X33958Y66186D01*
G01X33925Y66225D01*
G01X33893Y66265D01*
G01X33862Y66306D01*
G01X33833Y66349D01*
G01X33781Y66437D01*
G01X33758Y66483D01*
G01X33737Y66530D01*
G01X33717Y66577D01*
G01X33700Y66626D01*
G01X33684Y66675D01*
G01X33671Y66724D01*
G01X33659Y66774D01*
G01X33650Y66825D01*
G01X33643Y66876D01*
G01X33637Y66927D01*
G01X33634Y66978D01*
G01X33633Y67029D01*
G01X33634Y67080D01*
G01X33637Y67131D01*
G01X33642Y67181D01*
G01X33649Y67231D01*
G01X33658Y67281D01*
G01X33670Y67330D01*
G01X33683Y67379D01*
G01X33698Y67427D01*
G01X33715Y67475D01*
G01X33734Y67522D01*
G01X33754Y67568D01*
G01X33777Y67613D01*
G01X33801Y67658D01*
G01X33828Y67701D01*
G01X33856Y67743D01*
G01X33885Y67784D01*
G01X33916Y67824D01*
G01X33949Y67863D01*
G01X33983Y67900D01*
G01X34019Y67936D01*
G01X34056Y67970D01*
G01X34095Y68003D01*
G01X34135Y68034D01*
G01X34176Y68064D01*
G01X34218Y68092D01*
G01X34261Y68118D01*
G01X34306Y68142D01*
G01X34351Y68165D01*
G01X34397Y68185D01*
G01X34444Y68204D01*
G01X34492Y68221D01*
G01X34540Y68236D01*
G01X34589Y68250D01*
G01X34638Y68261D01*
G01X34688Y68270D01*
G01X34738Y68277D01*
G01X34789Y68282D01*
G01X34839Y68285D01*
G01X34890Y68286D01*
G01X34940Y68285D01*
G01X34991Y68282D01*
G01X35041Y68277D01*
G01X35091Y68270D01*
G01X35141Y68261D01*
G01X35190Y68250D01*
G01X35239Y68236D01*
G01X35288Y68221D01*
G01X35335Y68204D01*
G01X35382Y68185D01*
G01X35428Y68165D01*
G01X35474Y68142D01*
G01X35518Y68118D01*
G01X35604Y68064D01*
G01X35645Y68034D01*
G01X35684Y68003D01*
G01X35723Y67970D01*
G01X35760Y67936D01*
G01X35796Y67900D01*
G01X35830Y67863D01*
G01X35863Y67824D01*
G01X35894Y67784D01*
G01X35924Y67743D01*
G01X35952Y67701D01*
G01X35978Y67658D01*
G01X36002Y67613D01*
G01X36025Y67568D01*
G01X36046Y67522D01*
G01X36065Y67475D01*
G01X36071Y67461D01*
G01X36080Y67448D01*
G01X36090Y67437D01*
G01X36102Y67427D01*
G01X36115Y67419D01*
G01X36129Y67414D01*
G01X36144Y67410D01*
G01X36160Y67409D01*
G01X36175Y67410D01*
G01X36190Y67414D01*
G01X36204Y67419D01*
G01X36217Y67427D01*
G01X36229Y67437D01*
G01X36240Y67448D01*
G01X36248Y67461D01*
G01X36255Y67475D01*
G01X36274Y67522D01*
G01X36294Y67568D01*
G01X36317Y67613D01*
G01X36341Y67658D01*
G01X36367Y67701D01*
G01X36395Y67743D01*
G01X36425Y67784D01*
G01X36456Y67824D01*
G01X36489Y67863D01*
G01X36523Y67900D01*
G01X36559Y67936D01*
G01X36596Y67970D01*
G01X36635Y68003D01*
G01X36675Y68034D01*
G01X36716Y68064D01*
G01X36758Y68091D01*
G01X36801Y68118D01*
G01X36846Y68142D01*
G01X36891Y68165D01*
G01X36937Y68185D01*
G01X36984Y68204D01*
G01X37032Y68221D01*
G01X37080Y68236D01*
G01X37129Y68250D01*
G01X37178Y68261D01*
G01X37228Y68270D01*
G01X37278Y68277D01*
G01X37329Y68282D01*
G01X37379Y68285D01*
G01X37430Y68286D01*
G01X37480Y68285D01*
G01X37531Y68282D01*
G01X37581Y68277D01*
G01X37631Y68270D01*
G01X37681Y68261D01*
G01X37730Y68250D01*
G01X37779Y68236D01*
G01X37828Y68221D01*
G01X37875Y68204D01*
G01X37922Y68185D01*
G01X37968Y68165D01*
G01X38014Y68142D01*
G01X38058Y68118D01*
G01X38144Y68064D01*
G01X38185Y68034D01*
G01X38224Y68003D01*
G01X38263Y67970D01*
G01X38300Y67936D01*
G01X38336Y67900D01*
G01X38370Y67863D01*
G01X38403Y67824D01*
G01X38434Y67784D01*
G01X38464Y67743D01*
G01X38492Y67701D01*
G01X38518Y67658D01*
G01X38542Y67613D01*
G01X38565Y67568D01*
G01X38586Y67522D01*
G01X38605Y67475D01*
G01X38611Y67461D01*
G01X38620Y67448D01*
G01X38630Y67437D01*
G01X38642Y67427D01*
G01X38655Y67419D01*
G01X38669Y67414D01*
G01X38684Y67410D01*
G01X38700Y67409D01*
G01X38715Y67410D01*
G01X38730Y67414D01*
G01X38744Y67419D01*
G01X38757Y67427D01*
G01X38769Y67437D01*
G01X38780Y67448D01*
G01X38788Y67461D01*
G01X38795Y67475D01*
G01X38814Y67522D01*
G01X38834Y67568D01*
G01X38857Y67613D01*
G01X38881Y67658D01*
G01X38907Y67701D01*
G01X38935Y67743D01*
G01X38965Y67784D01*
G01X38996Y67824D01*
G01X39029Y67863D01*
G01X39063Y67900D01*
G01X39099Y67936D01*
G01X39136Y67970D01*
G01X39175Y68003D01*
G01X39215Y68034D01*
G01X39256Y68064D01*
G01X39298Y68091D01*
G01X39341Y68118D01*
G01X39386Y68142D01*
G01X39431Y68165D01*
G01X39477Y68185D01*
G01X39524Y68204D01*
G01X39572Y68221D01*
G01X39620Y68236D01*
G01X39669Y68250D01*
G01X39718Y68261D01*
G01X39768Y68270D01*
G01X39818Y68277D01*
G01X39869Y68282D01*
G01X39919Y68285D01*
G01X39970Y68286D01*
G01X40020Y68285D01*
G01X40071Y68282D01*
G01X40121Y68277D01*
G01X40171Y68270D01*
G01X40221Y68261D01*
G01X40270Y68250D01*
G01X40319Y68236D01*
G01X40368Y68221D01*
G01X40415Y68204D01*
G01X40462Y68185D01*
G01X40508Y68165D01*
G01X40554Y68142D01*
G01X40598Y68118D01*
G01X40684Y68064D01*
G01X40725Y68034D01*
G01X40764Y68003D01*
G01X40803Y67970D01*
G01X40840Y67936D01*
G01X40876Y67900D01*
G01X40910Y67863D01*
G01X40943Y67824D01*
G01X40974Y67784D01*
G01X41004Y67743D01*
G01X41032Y67701D01*
G01X41058Y67658D01*
G01X41082Y67613D01*
G01X41105Y67568D01*
G01X41126Y67522D01*
G01X41145Y67475D01*
G01X41151Y67457D01*
G01X41169Y67405D01*
G01X41184Y67353D01*
G01X41197Y67300D01*
G01X41207Y67246D01*
G01X41216Y67193D01*
G01X41221Y67138D01*
G01X41225Y67084D01*
G01X41226Y67029D01*
G01X41225Y66975D01*
G01X41221Y66921D01*
G01X41216Y66866D01*
G01X41207Y66813D01*
G01X41197Y66759D01*
G01X41184Y66706D01*
G01X41169Y66654D01*
G01X41151Y66602D01*
G01X41145Y66584D01*
G01X41125Y66536D01*
G01X41104Y66488D01*
G01X41080Y66442D01*
G01X41055Y66396D01*
G01X41028Y66351D01*
G01X40998Y66308D01*
G01X40968Y66266D01*
G01X40935Y66225D01*
G01X40901Y66186D01*
G01X40892Y66174D01*
G01X40884Y66161D01*
G01X40879Y66147D01*
G01X40876Y66133D01*
G01X40875Y66118D01*
G01X40876Y66103D01*
G01X40879Y66089D01*
G01X40884Y66075D01*
G01X40891Y66063D01*
G01X40899Y66051D01*
G01X40910Y66041D01*
G01X40921Y66032D01*
G01X40934Y66025D01*
G01X40948Y66020D01*
G01X40962Y66017D01*
G01X40976Y66016D01*
G01X41503Y66016D01*
G01X41518Y66017D01*
G01X41532Y66020D01*
G01X41545Y66025D01*
G01X41558Y66032D01*
G01X41570Y66041D01*
G01X41580Y66051D01*
G01X41589Y66063D01*
G01X41596Y66075D01*
G01X41601Y66089D01*
G01X41604Y66103D01*
G01X41605Y66118D01*
G01X41604Y66133D01*
G01X41600Y66147D01*
G01X41595Y66161D01*
G01X41588Y66174D01*
G01X41578Y66186D01*
G01X41541Y66229D01*
G01X41506Y66273D01*
G01X41473Y66319D01*
G01X41442Y66367D01*
G01X41413Y66416D01*
G01X41387Y66466D01*
G01X41946Y66466D01*
G01X41946Y66118D01*
G01X41947Y66103D01*
G01X41950Y66089D01*
G01X41955Y66075D01*
G01X41962Y66063D01*
G01X41971Y66051D01*
G01X41981Y66041D01*
G01X41993Y66032D01*
G01X42006Y66025D01*
G01X42019Y66020D01*
G01X42033Y66017D01*
G01X42048Y66016D01*
G01X42972Y66016D01*
G01X42986Y66017D01*
G01X43000Y66020D01*
G01X43014Y66025D01*
G01X43026Y66032D01*
G01X43038Y66041D01*
G01X43048Y66051D01*
G01X43057Y66063D01*
G01X43064Y66075D01*
G01X43069Y66089D01*
G01X43072Y66103D01*
G01X43073Y66118D01*
G01X43073Y66466D01*
G01X43633Y66466D01*
G01X43606Y66416D01*
G01X43577Y66367D01*
G01X43546Y66319D01*
G01X43513Y66273D01*
G01X43478Y66229D01*
G01X43441Y66186D01*
G01X43432Y66174D01*
G01X43424Y66161D01*
G01X43419Y66147D01*
G01X43416Y66133D01*
G01X43415Y66118D01*
G01X43416Y66103D01*
G01X43419Y66089D01*
G01X43424Y66075D01*
G01X43431Y66063D01*
G01X43439Y66051D01*
G01X43450Y66041D01*
G01X43461Y66032D01*
G01X43474Y66025D01*
G01X43488Y66020D01*
G01X43502Y66017D01*
G01X43516Y66016D01*
G01X43748Y66016D01*
G01X43763Y66017D01*
G01X43777Y66020D01*
G01X43791Y66025D01*
G01X43803Y66032D01*
G01X43815Y66041D01*
G01X43825Y66051D01*
G01X43834Y66063D01*
G01X43841Y66075D01*
G01X43846Y66089D01*
G01X43849Y66103D01*
G01X43850Y66118D01*
G01X43850Y66473D01*
G01X43849Y66489D01*
G01X43845Y66505D01*
G01X43838Y66520D01*
G01X43845Y66535D01*
G01X43849Y66551D01*
G01X43850Y66568D01*
G01X43850Y67491D01*
G01X43849Y67508D01*
G01X43845Y67524D01*
G01X43838Y67539D01*
G01X43845Y67554D01*
G01X43849Y67570D01*
G01X43850Y67586D01*
G01X43850Y70227D01*
G01X43849Y70242D01*
G01X43846Y70256D01*
G01X43841Y70270D01*
G01X43834Y70282D01*
G01X43825Y70294D01*
G01X43815Y70304D01*
G01X43803Y70313D01*
G01X43791Y70320D01*
G01X43777Y70325D01*
G01X43763Y70328D01*
G01X43748Y70329D01*
G01X41069Y70329D01*
G01X41052Y70328D01*
G01X41037Y70324D01*
G01X41022Y70317D01*
G01X40978Y70296D01*
G01X40933Y70276D01*
G01X40887Y70259D01*
G01X40840Y70244D01*
G01X40793Y70231D01*
G01X40745Y70221D01*
G01X40697Y70213D01*
G01X40648Y70207D01*
G01X40600Y70203D01*
G01X40551Y70202D01*
G01X40502Y70203D01*
G01X40453Y70207D01*
G01X40404Y70213D01*
G01X40356Y70221D01*
G01X40308Y70231D01*
G01X40261Y70244D01*
G01X40214Y70259D01*
G01X40168Y70276D01*
G01X40123Y70296D01*
G01X40080Y70317D01*
G01X40065Y70324D01*
G01X40049Y70328D01*
G01X40033Y70329D01*
G37*

%LPC*%
G36*
G01X41946Y67593D02*
G01X41946Y68153D01*
G01X41899Y68128D01*
G01X41852Y68100D01*
G01X41807Y68071D01*
G01X41763Y68040D01*
G01X41721Y68008D01*
G01X41680Y67973D01*
G01X41640Y67937D01*
G01X41602Y67899D01*
G01X41566Y67859D01*
G01X41531Y67818D01*
G01X41499Y67776D01*
G01X41468Y67732D01*
G01X41439Y67687D01*
G01X41412Y67640D01*
G01X41387Y67593D01*
G01X41946Y67593D01*
G37*
G36*
G01X43121Y68128D02*
G01X43073Y68153D01*
G01X43073Y67593D01*
G01X43633Y67593D01*
G01X43608Y67640D01*
G01X43581Y67687D01*
G01X43552Y67732D01*
G01X43521Y67776D01*
G01X43488Y67818D01*
G01X43453Y67859D01*
G01X43417Y67899D01*
G01X43379Y67937D01*
G01X43339Y67973D01*
G01X43298Y68008D01*
G01X43256Y68040D01*
G01X43212Y68071D01*
G01X43167Y68100D01*
G01X43121Y68128D01*
G37*

%LPD*%
G36*
G01X29012Y85823D02*
G01X2540Y85823D01*
G01X2471Y85822D01*
G01X2402Y85819D01*
G01X2333Y85814D01*
G01X2264Y85806D01*
G01X2196Y85797D01*
G01X2128Y85786D01*
G01X2060Y85772D01*
G01X1993Y85757D01*
G01X1926Y85739D01*
G01X1860Y85720D01*
G01X1795Y85698D01*
G01X1730Y85675D01*
G01X1666Y85649D01*
G01X1602Y85622D01*
G01X1540Y85593D01*
G01X1478Y85561D01*
G01X1418Y85528D01*
G01X1358Y85494D01*
G01X1300Y85457D01*
G01X1242Y85419D01*
G01X1186Y85379D01*
G01X1131Y85337D01*
G01X1078Y85294D01*
G01X1025Y85249D01*
G01X974Y85202D01*
G01X925Y85154D01*
G01X877Y85105D01*
G01X830Y85054D01*
G01X785Y85001D01*
G01X742Y84948D01*
G01X700Y84893D01*
G01X660Y84837D01*
G01X622Y84779D01*
G01X585Y84721D01*
G01X551Y84661D01*
G01X518Y84601D01*
G01X486Y84539D01*
G01X457Y84477D01*
G01X430Y84413D01*
G01X404Y84349D01*
G01X381Y84284D01*
G01X359Y84219D01*
G01X340Y84153D01*
G01X322Y84086D01*
G01X307Y84019D01*
G01X293Y83951D01*
G01X282Y83883D01*
G01X273Y83815D01*
G01X265Y83746D01*
G01X260Y83677D01*
G01X257Y83608D01*
G01X256Y83539D01*
G01X256Y68299D01*
G01X257Y68231D01*
G01X260Y68162D01*
G01X265Y68093D01*
G01X273Y68024D01*
G01X282Y67956D01*
G01X293Y67888D01*
G01X307Y67820D01*
G01X322Y67753D01*
G01X340Y67686D01*
G01X359Y67620D01*
G01X381Y67555D01*
G01X404Y67490D01*
G01X430Y67426D01*
G01X457Y67362D01*
G01X486Y67300D01*
G01X518Y67238D01*
G01X551Y67178D01*
G01X585Y67118D01*
G01X622Y67060D01*
G01X660Y67002D01*
G01X700Y66946D01*
G01X742Y66891D01*
G01X785Y66838D01*
G01X830Y66785D01*
G01X877Y66734D01*
G01X925Y66685D01*
G01X974Y66637D01*
G01X1025Y66590D01*
G01X1078Y66545D01*
G01X1131Y66502D01*
G01X1186Y66460D01*
G01X1242Y66420D01*
G01X1300Y66382D01*
G01X1358Y66345D01*
G01X1418Y66311D01*
G01X1478Y66278D01*
G01X1540Y66246D01*
G01X1602Y66217D01*
G01X1666Y66190D01*
G01X1730Y66164D01*
G01X1795Y66141D01*
G01X1860Y66119D01*
G01X1926Y66100D01*
G01X1993Y66082D01*
G01X2060Y66067D01*
G01X2128Y66053D01*
G01X2196Y66042D01*
G01X2264Y66033D01*
G01X2333Y66025D01*
G01X2402Y66020D01*
G01X2471Y66017D01*
G01X2540Y66016D01*
G01X4338Y66016D01*
G01X4352Y66017D01*
G01X4366Y66020D01*
G01X4380Y66025D01*
G01X4393Y66032D01*
G01X4404Y66041D01*
G01X4415Y66051D01*
G01X4423Y66063D01*
G01X4430Y66075D01*
G01X4435Y66089D01*
G01X4438Y66103D01*
G01X4439Y66118D01*
G01X4438Y66134D01*
G01X4434Y66150D01*
G01X4427Y66166D01*
G01X4418Y66180D01*
G01X4416Y66183D01*
G01X4406Y66194D01*
G01X4394Y66204D01*
G01X4380Y66212D01*
G01X4366Y66218D01*
G01X4351Y66222D01*
G01X4335Y66223D01*
G01X4148Y66223D01*
G01X4125Y66224D01*
G01X4102Y66227D01*
G01X4079Y66232D01*
G01X4057Y66239D01*
G01X4036Y66249D01*
G01X4015Y66260D01*
G01X3996Y66272D01*
G01X3978Y66287D01*
G01X3961Y66303D01*
G01X3946Y66321D01*
G01X3933Y66339D01*
G01X3924Y66351D01*
G01X3914Y66361D01*
G01X3902Y66370D01*
G01X3890Y66376D01*
G01X3876Y66381D01*
G01X3862Y66384D01*
G01X3848Y66385D01*
G01X3833Y66384D01*
G01X3819Y66381D01*
G01X3806Y66376D01*
G01X3793Y66370D01*
G01X3782Y66361D01*
G01X3771Y66351D01*
G01X3763Y66339D01*
G01X3749Y66321D01*
G01X3734Y66303D01*
G01X3717Y66287D01*
G01X3699Y66272D01*
G01X3680Y66260D01*
G01X3660Y66249D01*
G01X3638Y66239D01*
G01X3616Y66232D01*
G01X3594Y66227D01*
G01X3571Y66224D01*
G01X3548Y66223D01*
G01X2548Y66223D01*
G01X2524Y66224D01*
G01X2501Y66227D01*
G01X2477Y66233D01*
G01X2455Y66240D01*
G01X2433Y66250D01*
G01X2413Y66261D01*
G01X2393Y66275D01*
G01X2375Y66290D01*
G01X2358Y66307D01*
G01X2343Y66325D01*
G01X2330Y66344D01*
G01X2318Y66365D01*
G01X2308Y66387D01*
G01X2301Y66409D01*
G01X2296Y66432D01*
G01X2292Y66456D01*
G01X2291Y66479D01*
G01X2291Y67580D01*
G01X2292Y67604D01*
G01X2296Y67629D01*
G01X2302Y67653D01*
G01X2310Y67677D01*
G01X2321Y67700D01*
G01X2334Y67721D01*
G01X2349Y67741D01*
G01X2365Y67760D01*
G01X2384Y67777D01*
G01X2394Y67787D01*
G01X2404Y67799D01*
G01X2411Y67812D01*
G01X2416Y67826D01*
G01X2419Y67840D01*
G01X2420Y67855D01*
G01X2419Y67870D01*
G01X2416Y67884D01*
G01X2411Y67898D01*
G01X2404Y67911D01*
G01X2394Y67923D01*
G01X2384Y67933D01*
G01X2365Y67950D01*
G01X2349Y67969D01*
G01X2334Y67989D01*
G01X2321Y68010D01*
G01X2310Y68033D01*
G01X2302Y68056D01*
G01X2296Y68081D01*
G01X2292Y68106D01*
G01X2291Y68130D01*
G01X2291Y69238D01*
G01X2290Y69253D01*
G01X2287Y69267D01*
G01X2282Y69281D01*
G01X2275Y69294D01*
G01X2266Y69306D01*
G01X2255Y69316D01*
G01X2243Y69325D01*
G01X2248Y69325D01*
G01X2262Y69326D01*
G01X2276Y69329D01*
G01X2290Y69334D01*
G01X2302Y69341D01*
G01X2314Y69349D01*
G01X2324Y69359D01*
G01X2333Y69371D01*
G01X2346Y69390D01*
G01X2361Y69407D01*
G01X2378Y69423D01*
G01X2396Y69438D01*
G01X2415Y69450D01*
G01X2436Y69461D01*
G01X2457Y69471D01*
G01X2479Y69478D01*
G01X2502Y69483D01*
G01X2525Y69486D01*
G01X2548Y69487D01*
G01X3548Y69487D01*
G01X3571Y69486D01*
G01X3594Y69483D01*
G01X3616Y69478D01*
G01X3638Y69471D01*
G01X3660Y69461D01*
G01X3680Y69450D01*
G01X3699Y69438D01*
G01X3717Y69423D01*
G01X3734Y69407D01*
G01X3749Y69389D01*
G01X3763Y69371D01*
G01X3771Y69359D01*
G01X3782Y69349D01*
G01X3793Y69340D01*
G01X3806Y69334D01*
G01X3819Y69329D01*
G01X3833Y69326D01*
G01X3848Y69325D01*
G01X3862Y69326D01*
G01X3876Y69329D01*
G01X3890Y69334D01*
G01X3902Y69340D01*
G01X3914Y69349D01*
G01X3924Y69359D01*
G01X3933Y69371D01*
G01X3946Y69389D01*
G01X3961Y69407D01*
G01X3978Y69423D01*
G01X3996Y69438D01*
G01X4015Y69450D01*
G01X4036Y69461D01*
G01X4057Y69471D01*
G01X4079Y69478D01*
G01X4102Y69483D01*
G01X4125Y69486D01*
G01X4148Y69487D01*
G01X4171Y69487D01*
G01X4186Y69488D01*
G01X4200Y69491D01*
G01X4213Y69496D01*
G01X4226Y69503D01*
G01X4238Y69512D01*
G01X4248Y69522D01*
G01X4257Y69534D01*
G01X4264Y69546D01*
G01X4269Y69560D01*
G01X4272Y69574D01*
G01X4273Y69589D01*
G01X4273Y69908D01*
G01X5365Y69908D01*
G01X5344Y69867D01*
G01X5321Y69827D01*
G01X5296Y69788D01*
G01X5270Y69750D01*
G01X5241Y69713D01*
G01X5211Y69678D01*
G01X5180Y69644D01*
G01X5170Y69632D01*
G01X5162Y69618D01*
G01X5156Y69604D01*
G01X5152Y69589D01*
G01X5151Y69573D01*
G01X5152Y69559D01*
G01X5155Y69545D01*
G01X5160Y69531D01*
G01X5167Y69518D01*
G01X5175Y69507D01*
G01X5185Y69497D01*
G01X5197Y69488D01*
G01X5209Y69481D01*
G01X5223Y69476D01*
G01X5245Y69468D01*
G01X5266Y69458D01*
G01X5286Y69446D01*
G01X5305Y69433D01*
G01X5323Y69418D01*
G01X5339Y69401D01*
G01X5354Y69383D01*
G01X5367Y69364D01*
G01X5378Y69343D01*
G01X5387Y69322D01*
G01X5395Y69300D01*
G01X5400Y69277D01*
G01X5403Y69254D01*
G01X5404Y69231D01*
G01X5404Y68130D01*
G01X5403Y68105D01*
G01X5399Y68080D01*
G01X5397Y68059D01*
G01X5398Y68043D01*
G01X5402Y68028D01*
G01X5408Y68013D01*
G01X5416Y68000D01*
G01X5427Y67987D01*
G01X5806Y67609D01*
G01X5817Y67599D01*
G01X5830Y67591D01*
G01X5844Y67585D01*
G01X5858Y67581D01*
G01X5893Y67573D01*
G01X5927Y67563D01*
G01X5960Y67551D01*
G01X5992Y67537D01*
G01X6023Y67521D01*
G01X6054Y67503D01*
G01X6083Y67483D01*
G01X6111Y67462D01*
G01X6137Y67438D01*
G01X6162Y67414D01*
G01X6185Y67387D01*
G01X6207Y67359D01*
G01X6227Y67330D01*
G01X6245Y67300D01*
G01X6261Y67268D01*
G01X6275Y67236D01*
G01X6287Y67203D01*
G01X6296Y67169D01*
G01X6304Y67135D01*
G01X6310Y67100D01*
G01X6313Y67065D01*
G01X6314Y67029D01*
G01X6313Y66996D01*
G01X6310Y66962D01*
G01X6305Y66928D01*
G01X6298Y66895D01*
G01X6289Y66862D01*
G01X6277Y66830D01*
G01X6264Y66799D01*
G01X6250Y66769D01*
G01X6233Y66739D01*
G01X6215Y66711D01*
G01X6194Y66683D01*
G01X6173Y66657D01*
G01X6150Y66633D01*
G01X6125Y66609D01*
G01X6099Y66588D01*
G01X6071Y66568D01*
G01X6043Y66549D01*
G01X6013Y66532D01*
G01X5983Y66518D01*
G01X5952Y66505D01*
G01X5920Y66494D01*
G01X5887Y66484D01*
G01X5854Y66477D01*
G01X5820Y66472D01*
G01X5786Y66469D01*
G01X5753Y66468D01*
G01X5719Y66469D01*
G01X5685Y66472D01*
G01X5651Y66477D01*
G01X5618Y66485D01*
G01X5585Y66494D01*
G01X5553Y66505D01*
G01X5535Y66510D01*
G01X5517Y66511D01*
G01X5501Y66510D01*
G01X5486Y66507D01*
G01X5471Y66501D01*
G01X5458Y66492D01*
G01X5446Y66482D01*
G01X5435Y66470D01*
G01X5427Y66457D01*
G01X5421Y66442D01*
G01X5417Y66427D01*
G01X5410Y66394D01*
G01X5401Y66361D01*
G01X5391Y66328D01*
G01X5378Y66297D01*
G01X5363Y66266D01*
G01X5347Y66236D01*
G01X5329Y66207D01*
G01X5309Y66180D01*
G01X5300Y66166D01*
G01X5293Y66150D01*
G01X5289Y66134D01*
G01X5288Y66118D01*
G01X5289Y66103D01*
G01X5292Y66089D01*
G01X5297Y66075D01*
G01X5304Y66063D01*
G01X5313Y66051D01*
G01X5323Y66041D01*
G01X5334Y66032D01*
G01X5347Y66025D01*
G01X5361Y66020D01*
G01X5375Y66017D01*
G01X5389Y66016D01*
G01X9932Y66016D01*
G01X9946Y66017D01*
G01X9961Y66020D01*
G01X9974Y66025D01*
G01X9987Y66032D01*
G01X9999Y66041D01*
G01X10009Y66051D01*
G01X10018Y66063D01*
G01X10024Y66075D01*
G01X10030Y66089D01*
G01X10033Y66103D01*
G01X10034Y66118D01*
G01X10033Y66132D01*
G01X10029Y66147D01*
G01X10024Y66161D01*
G01X10017Y66174D01*
G01X10008Y66185D01*
G01X9997Y66196D01*
G01X9985Y66204D01*
G01X9972Y66211D01*
G01X9958Y66216D01*
G01X9925Y66226D01*
G01X9894Y66238D01*
G01X9863Y66252D01*
G01X9834Y66269D01*
G01X9806Y66288D01*
G01X9779Y66309D01*
G01X9754Y66332D01*
G01X9024Y67063D01*
G01X9012Y67074D01*
G01X8998Y67082D01*
G01X8983Y67088D01*
G01X8968Y67092D01*
G01X8952Y67093D01*
G01X7871Y67093D01*
G01X7847Y67094D01*
G01X7823Y67097D01*
G01X7800Y67103D01*
G01X7778Y67110D01*
G01X7756Y67120D01*
G01X7736Y67131D01*
G01X7716Y67145D01*
G01X7698Y67160D01*
G01X7681Y67177D01*
G01X7666Y67195D01*
G01X7652Y67214D01*
G01X7641Y67235D01*
G01X7631Y67257D01*
G01X7624Y67279D01*
G01X7618Y67302D01*
G01X7615Y67326D01*
G01X7614Y67349D01*
G01X7614Y69250D01*
G01X7615Y69273D01*
G01X7618Y69297D01*
G01X7624Y69320D01*
G01X7631Y69342D01*
G01X7641Y69364D01*
G01X7652Y69385D01*
G01X7666Y69404D01*
G01X7681Y69422D01*
G01X7698Y69439D01*
G01X7716Y69454D01*
G01X7736Y69468D01*
G01X7756Y69479D01*
G01X7778Y69489D01*
G01X7800Y69496D01*
G01X7823Y69502D01*
G01X7847Y69505D01*
G01X7871Y69506D01*
G01X9071Y69506D01*
G01X9094Y69505D01*
G01X9118Y69502D01*
G01X9141Y69496D01*
G01X9163Y69489D01*
G01X9185Y69479D01*
G01X9206Y69468D01*
G01X9225Y69454D01*
G01X9243Y69439D01*
G01X9260Y69422D01*
G01X9275Y69404D01*
G01X9289Y69385D01*
G01X9300Y69364D01*
G01X9310Y69342D01*
G01X9317Y69320D01*
G01X9323Y69297D01*
G01X9326Y69273D01*
G01X9327Y69250D01*
G01X9327Y68066D01*
G01X9328Y68050D01*
G01X9332Y68035D01*
G01X9338Y68020D01*
G01X9347Y68007D01*
G01X9357Y67994D01*
G01X10226Y67125D01*
G01X10238Y67115D01*
G01X10252Y67107D01*
G01X10266Y67101D01*
G01X10282Y67097D01*
G01X10298Y67096D01*
G01X10746Y67096D01*
G01X10761Y67097D01*
G01X10775Y67100D01*
G01X10789Y67105D01*
G01X10801Y67112D01*
G01X10813Y67120D01*
G01X10823Y67131D01*
G01X10832Y67142D01*
G01X10839Y67155D01*
G01X10844Y67169D01*
G01X10847Y67183D01*
G01X10848Y67197D01*
G01X10847Y67212D01*
G01X10844Y67226D01*
G01X10838Y67240D01*
G01X10828Y67266D01*
G01X10820Y67294D01*
G01X10816Y67321D01*
G01X10814Y67349D01*
G01X10814Y67761D01*
G01X11307Y67761D01*
G01X11307Y67197D01*
G01X11308Y67183D01*
G01X11311Y67169D01*
G01X11316Y67155D01*
G01X11323Y67142D01*
G01X11332Y67131D01*
G01X11342Y67120D01*
G01X11354Y67112D01*
G01X11366Y67105D01*
G01X11380Y67100D01*
G01X11394Y67097D01*
G01X11409Y67096D01*
G01X11932Y67096D01*
G01X11947Y67097D01*
G01X11961Y67100D01*
G01X11975Y67105D01*
G01X11987Y67112D01*
G01X11999Y67120D01*
G01X12009Y67131D01*
G01X12018Y67142D01*
G01X12025Y67155D01*
G01X12030Y67169D01*
G01X12033Y67183D01*
G01X12034Y67197D01*
G01X12034Y67761D01*
G01X12527Y67761D01*
G01X12527Y67349D01*
G01X12526Y67321D01*
G01X12521Y67294D01*
G01X12513Y67266D01*
G01X12503Y67240D01*
G01X12497Y67226D01*
G01X12494Y67212D01*
G01X12493Y67197D01*
G01X12494Y67183D01*
G01X12497Y67169D01*
G01X12502Y67155D01*
G01X12509Y67142D01*
G01X12518Y67131D01*
G01X12528Y67120D01*
G01X12540Y67112D01*
G01X12552Y67105D01*
G01X12566Y67100D01*
G01X12580Y67097D01*
G01X12595Y67096D01*
G01X13007Y67096D01*
G01X13022Y67097D01*
G01X13036Y67100D01*
G01X13050Y67105D01*
G01X13062Y67112D01*
G01X13074Y67120D01*
G01X13084Y67131D01*
G01X13093Y67142D01*
G01X13100Y67155D01*
G01X13105Y67169D01*
G01X13108Y67183D01*
G01X13109Y67197D01*
G01X13108Y67212D01*
G01X13105Y67226D01*
G01X13099Y67240D01*
G01X13089Y67266D01*
G01X13081Y67294D01*
G01X13077Y67321D01*
G01X13075Y67349D01*
G01X13075Y67761D01*
G01X13568Y67761D01*
G01X13568Y67197D01*
G01X13569Y67183D01*
G01X13572Y67169D01*
G01X13577Y67155D01*
G01X13584Y67142D01*
G01X13593Y67131D01*
G01X13603Y67120D01*
G01X13615Y67112D01*
G01X13627Y67105D01*
G01X13641Y67100D01*
G01X13655Y67097D01*
G01X13670Y67096D01*
G01X14194Y67096D01*
G01X14208Y67097D01*
G01X14222Y67100D01*
G01X14236Y67105D01*
G01X14248Y67112D01*
G01X14260Y67120D01*
G01X14270Y67131D01*
G01X14279Y67142D01*
G01X14286Y67155D01*
G01X14291Y67169D01*
G01X14294Y67183D01*
G01X14295Y67197D01*
G01X14295Y67761D01*
G01X14788Y67761D01*
G01X14788Y67418D01*
G01X14789Y67403D01*
G01X14792Y67389D01*
G01X14797Y67375D01*
G01X14804Y67363D01*
G01X14813Y67351D01*
G01X14823Y67341D01*
G01X14835Y67332D01*
G01X14848Y67325D01*
G01X14861Y67320D01*
G01X14875Y67317D01*
G01X14890Y67316D01*
G01X14906Y67317D01*
G01X14921Y67321D01*
G01X14936Y67327D01*
G01X14949Y67335D01*
G01X14962Y67346D01*
G01X15309Y67693D01*
G01X15319Y67705D01*
G01X15327Y67719D01*
G01X15334Y67733D01*
G01X15337Y67749D01*
G01X15339Y67765D01*
G01X15339Y69315D01*
G01X15340Y69347D01*
G01X15343Y69379D01*
G01X15349Y69411D01*
G01X15357Y69441D01*
G01X15367Y69472D01*
G01X15379Y69501D01*
G01X15393Y69530D01*
G01X15410Y69557D01*
G01X15428Y69583D01*
G01X15448Y69608D01*
G01X15469Y69632D01*
G01X16485Y70648D01*
G01X16509Y70669D01*
G01X16534Y70689D01*
G01X16560Y70708D01*
G01X16587Y70724D01*
G01X16616Y70738D01*
G01X16645Y70750D01*
G01X16676Y70760D01*
G01X16707Y70768D01*
G01X16738Y70774D01*
G01X16770Y70777D01*
G01X16802Y70779D01*
G01X18479Y70779D01*
G01X18495Y70780D01*
G01X18511Y70784D01*
G01X18525Y70790D01*
G01X18539Y70798D01*
G01X18551Y70808D01*
G01X18878Y71135D01*
G01X18888Y71147D01*
G01X18896Y71160D01*
G01X18902Y71175D01*
G01X18906Y71191D01*
G01X18907Y71207D01*
G01X18907Y71220D01*
G01X18909Y71262D01*
G01X18913Y71303D01*
G01X18921Y71343D01*
G01X18923Y71365D01*
G01X18922Y71380D01*
G01X18919Y71394D01*
G01X18914Y71408D01*
G01X18907Y71420D01*
G01X18898Y71432D01*
G01X18888Y71442D01*
G01X18877Y71451D01*
G01X18864Y71458D01*
G01X18850Y71463D01*
G01X18836Y71466D01*
G01X18822Y71467D01*
G01X18803Y71465D01*
G01X18785Y71460D01*
G01X18752Y71448D01*
G01X18718Y71438D01*
G01X18684Y71431D01*
G01X18649Y71425D01*
G01X18615Y71422D01*
G01X18580Y71421D01*
G01X18542Y71422D01*
G01X18505Y71426D01*
G01X18469Y71432D01*
G01X18433Y71441D01*
G01X18397Y71452D01*
G01X18362Y71465D01*
G01X18329Y71480D01*
G01X18296Y71498D01*
G01X18264Y71518D01*
G01X18251Y71525D01*
G01X18237Y71531D01*
G01X18223Y71534D01*
G01X18207Y71535D01*
G01X17301Y71535D01*
G01X17286Y71534D01*
G01X17271Y71531D01*
G01X17257Y71525D01*
G01X17244Y71518D01*
G01X17212Y71498D01*
G01X17180Y71480D01*
G01X17146Y71465D01*
G01X17111Y71452D01*
G01X17076Y71441D01*
G01X17039Y71432D01*
G01X17003Y71426D01*
G01X16966Y71422D01*
G01X16929Y71421D01*
G01X16895Y71422D01*
G01X16861Y71425D01*
G01X16827Y71430D01*
G01X16794Y71437D01*
G01X16762Y71447D01*
G01X16730Y71458D01*
G01X16698Y71471D01*
G01X16668Y71485D01*
G01X16638Y71502D01*
G01X16610Y71521D01*
G01X16582Y71541D01*
G01X16556Y71562D01*
G01X16508Y71610D01*
G01X16487Y71636D01*
G01X16467Y71664D01*
G01X16448Y71692D01*
G01X16432Y71722D01*
G01X16417Y71752D01*
G01X16404Y71783D01*
G01X16393Y71815D01*
G01X16384Y71848D01*
G01X16376Y71881D01*
G01X16371Y71915D01*
G01X16368Y71949D01*
G01X16367Y71982D01*
G01X16368Y72016D01*
G01X16371Y72050D01*
G01X16376Y72084D01*
G01X16384Y72117D01*
G01X16393Y72149D01*
G01X16404Y72182D01*
G01X16417Y72213D01*
G01X16432Y72243D01*
G01X16448Y72273D01*
G01X16467Y72301D01*
G01X16487Y72329D01*
G01X16508Y72355D01*
G01X16556Y72403D01*
G01X16582Y72424D01*
G01X16610Y72444D01*
G01X16638Y72463D01*
G01X16668Y72480D01*
G01X16698Y72494D01*
G01X16730Y72507D01*
G01X16762Y72518D01*
G01X16794Y72528D01*
G01X16827Y72535D01*
G01X16861Y72540D01*
G01X16895Y72543D01*
G01X16929Y72544D01*
G01X16966Y72543D01*
G01X17003Y72539D01*
G01X17039Y72533D01*
G01X17076Y72524D01*
G01X17111Y72513D01*
G01X17146Y72500D01*
G01X17180Y72485D01*
G01X17212Y72467D01*
G01X17244Y72447D01*
G01X17257Y72440D01*
G01X17271Y72434D01*
G01X17286Y72431D01*
G01X17301Y72430D01*
G01X18207Y72430D01*
G01X18223Y72431D01*
G01X18237Y72434D01*
G01X18251Y72440D01*
G01X18264Y72447D01*
G01X18296Y72467D01*
G01X18329Y72485D01*
G01X18362Y72500D01*
G01X18397Y72513D01*
G01X18433Y72524D01*
G01X18469Y72533D01*
G01X18505Y72539D01*
G01X18542Y72543D01*
G01X18580Y72544D01*
G01X18617Y72543D01*
G01X18654Y72539D01*
G01X18690Y72533D01*
G01X18727Y72524D01*
G01X18762Y72513D01*
G01X18797Y72500D01*
G01X18831Y72485D01*
G01X18863Y72467D01*
G01X18895Y72447D01*
G01X18908Y72440D01*
G01X18922Y72434D01*
G01X18937Y72431D01*
G01X18952Y72430D01*
G01X22857Y72430D01*
G01X22871Y72431D01*
G01X22886Y72434D01*
G01X22899Y72439D01*
G01X22912Y72446D01*
G01X22923Y72454D01*
G01X22934Y72465D01*
G01X22942Y72476D01*
G01X22949Y72489D01*
G01X22954Y72503D01*
G01X22958Y72517D01*
G01X22959Y72531D01*
G01X22959Y78967D01*
G01X22960Y78999D01*
G01X22963Y79031D01*
G01X22969Y79063D01*
G01X22977Y79093D01*
G01X22987Y79124D01*
G01X22999Y79153D01*
G01X23013Y79182D01*
G01X23030Y79209D01*
G01X23048Y79235D01*
G01X23068Y79260D01*
G01X23089Y79284D01*
G01X23296Y79490D01*
G01X23306Y79502D01*
G01X23315Y79516D01*
G01X23321Y79530D01*
G01X23324Y79546D01*
G01X23326Y79562D01*
G01X23325Y79576D01*
G01X23322Y79590D01*
G01X23316Y79604D01*
G01X23310Y79617D01*
G01X23301Y79628D01*
G01X23291Y79639D01*
G01X23279Y79647D01*
G01X23266Y79654D01*
G01X23253Y79659D01*
G01X23239Y79662D01*
G01X23224Y79663D01*
G01X19841Y79663D01*
G01X19826Y79662D01*
G01X19811Y79659D01*
G01X19797Y79653D01*
G01X19784Y79646D01*
G01X19752Y79626D01*
G01X19720Y79608D01*
G01X19686Y79593D01*
G01X19651Y79580D01*
G01X19616Y79569D01*
G01X19579Y79560D01*
G01X19543Y79554D01*
G01X19506Y79550D01*
G01X19469Y79549D01*
G01X19431Y79550D01*
G01X19394Y79554D01*
G01X19358Y79560D01*
G01X19322Y79569D01*
G01X19286Y79580D01*
G01X19251Y79593D01*
G01X19218Y79608D01*
G01X19185Y79626D01*
G01X19153Y79646D01*
G01X19140Y79653D01*
G01X19126Y79659D01*
G01X19112Y79662D01*
G01X19096Y79663D01*
G01X18190Y79663D01*
G01X18175Y79662D01*
G01X18160Y79659D01*
G01X18146Y79653D01*
G01X18133Y79646D01*
G01X18101Y79626D01*
G01X18069Y79608D01*
G01X18035Y79593D01*
G01X18000Y79580D01*
G01X17965Y79569D01*
G01X17928Y79560D01*
G01X17892Y79554D01*
G01X17855Y79550D01*
G01X17818Y79549D01*
G01X17780Y79550D01*
G01X17743Y79554D01*
G01X17707Y79560D01*
G01X17671Y79569D01*
G01X17635Y79580D01*
G01X17600Y79593D01*
G01X17567Y79608D01*
G01X17534Y79626D01*
G01X17502Y79646D01*
G01X17489Y79653D01*
G01X17475Y79659D01*
G01X17461Y79662D01*
G01X17445Y79663D01*
G01X14808Y79663D01*
G01X14793Y79662D01*
G01X14779Y79659D01*
G01X14766Y79654D01*
G01X14753Y79647D01*
G01X14741Y79639D01*
G01X14731Y79628D01*
G01X14722Y79617D01*
G01X14715Y79604D01*
G01X14710Y79590D01*
G01X14707Y79576D01*
G01X14706Y79562D01*
G01X14706Y79333D01*
G01X14705Y79309D01*
G01X14702Y79285D01*
G01X14696Y79262D01*
G01X14689Y79240D01*
G01X14679Y79218D01*
G01X14668Y79198D01*
G01X14654Y79178D01*
G01X14639Y79160D01*
G01X14622Y79143D01*
G01X14604Y79128D01*
G01X14585Y79114D01*
G01X14564Y79103D01*
G01X14542Y79093D01*
G01X14520Y79086D01*
G01X14497Y79080D01*
G01X14473Y79077D01*
G01X14450Y79076D01*
G01X12651Y79076D01*
G01X12637Y79075D01*
G01X12623Y79072D01*
G01X12609Y79067D01*
G01X12596Y79060D01*
G01X12585Y79051D01*
G01X12574Y79041D01*
G01X12566Y79029D01*
G01X12559Y79017D01*
G01X12554Y79003D01*
G01X12551Y78989D01*
G01X12550Y78974D01*
G01X12550Y77798D01*
G01X12551Y77782D01*
G01X12555Y77766D01*
G01X12561Y77752D01*
G01X12569Y77738D01*
G01X12579Y77726D01*
G01X12687Y77619D01*
G01X12699Y77608D01*
G01X12712Y77600D01*
G01X12727Y77594D01*
G01X12742Y77590D01*
G01X12758Y77589D01*
G01X14450Y77589D01*
G01X14473Y77588D01*
G01X14497Y77585D01*
G01X14520Y77579D01*
G01X14542Y77572D01*
G01X14564Y77562D01*
G01X14585Y77551D01*
G01X14604Y77537D01*
G01X14623Y77522D01*
G01X14639Y77505D01*
G01X14654Y77487D01*
G01X14668Y77468D01*
G01X14679Y77447D01*
G01X14689Y77425D01*
G01X14696Y77403D01*
G01X14702Y77380D01*
G01X14705Y77356D01*
G01X14706Y77333D01*
G01X14706Y76133D01*
G01X14705Y76109D01*
G01X14702Y76085D01*
G01X14696Y76062D01*
G01X14689Y76040D01*
G01X14679Y76018D01*
G01X14668Y75997D01*
G01X14654Y75978D01*
G01X14639Y75960D01*
G01X14623Y75943D01*
G01X14604Y75928D01*
G01X14585Y75914D01*
G01X14564Y75903D01*
G01X14542Y75893D01*
G01X14520Y75886D01*
G01X14497Y75880D01*
G01X14473Y75877D01*
G01X14450Y75876D01*
G01X13773Y75876D01*
G01X13758Y75875D01*
G01X13744Y75872D01*
G01X13730Y75867D01*
G01X13718Y75860D01*
G01X13706Y75851D01*
G01X13696Y75841D01*
G01X13687Y75829D01*
G01X13680Y75817D01*
G01X13675Y75803D01*
G01X13672Y75789D01*
G01X13671Y75774D01*
G01X13672Y75758D01*
G01X13678Y75712D01*
G01X13680Y75665D01*
G01X13678Y75622D01*
G01X13673Y75578D01*
G01X13665Y75535D01*
G01X13662Y75512D01*
G01X13663Y75497D01*
G01X13666Y75483D01*
G01X13671Y75469D01*
G01X13678Y75456D01*
G01X13687Y75444D01*
G01X13698Y75434D01*
G01X13710Y75425D01*
G01X13723Y75418D01*
G01X13754Y75404D01*
G01X13784Y75387D01*
G01X13813Y75369D01*
G01X13841Y75349D01*
G01X13868Y75327D01*
G01X13893Y75304D01*
G01X13917Y75279D01*
G01X13939Y75253D01*
G01X13959Y75226D01*
G01X13978Y75197D01*
G01X13995Y75167D01*
G01X14010Y75136D01*
G01X14024Y75105D01*
G01X14035Y75072D01*
G01X14044Y75039D01*
G01X14052Y75006D01*
G01X14057Y74972D01*
G01X14060Y74938D01*
G01X14061Y74903D01*
G01X14060Y74866D01*
G01X14056Y74829D01*
G01X14050Y74793D01*
G01X14041Y74757D01*
G01X14030Y74721D01*
G01X14017Y74686D01*
G01X14002Y74652D01*
G01X13984Y74620D01*
G01X13964Y74588D01*
G01X13957Y74575D01*
G01X13951Y74561D01*
G01X13948Y74546D01*
G01X13947Y74531D01*
G01X13947Y72149D01*
G01X13948Y72135D01*
G01X13951Y72121D01*
G01X13956Y72107D01*
G01X13963Y72094D01*
G01X13971Y72083D01*
G01X13982Y72072D01*
G01X13993Y72064D01*
G01X14006Y72057D01*
G01X14020Y72052D01*
G01X14034Y72049D01*
G01X14048Y72048D01*
G01X14064Y72049D01*
G01X14080Y72053D01*
G01X14095Y72059D01*
G01X14109Y72067D01*
G01X14121Y72078D01*
G01X14131Y72090D01*
G01X14139Y72104D01*
G01X14156Y72135D01*
G01X14174Y72164D01*
G01X14194Y72193D01*
G01X14215Y72220D01*
G01X14239Y72245D01*
G01X14264Y72270D01*
G01X14290Y72292D01*
G01X14317Y72313D01*
G01X14346Y72332D01*
G01X14376Y72350D01*
G01X14407Y72365D01*
G01X14439Y72379D01*
G01X14472Y72390D01*
G01X14505Y72400D01*
G01X14539Y72407D01*
G01X14573Y72413D01*
G01X14608Y72416D01*
G01X14643Y72417D01*
G01X14677Y72416D01*
G01X14711Y72413D01*
G01X14745Y72407D01*
G01X14778Y72400D01*
G01X14812Y72391D01*
G01X14844Y72379D01*
G01X14876Y72366D01*
G01X14906Y72351D01*
G01X14936Y72334D01*
G01X14965Y72315D01*
G01X14992Y72295D01*
G01X15018Y72272D01*
G01X15043Y72249D01*
G01X15066Y72224D01*
G01X15088Y72197D01*
G01X15108Y72169D01*
G01X15126Y72140D01*
G01X15143Y72110D01*
G01X15158Y72079D01*
G01X15164Y72066D01*
G01X15173Y72054D01*
G01X15183Y72043D01*
G01X15195Y72034D01*
G01X15208Y72027D01*
G01X15222Y72022D01*
G01X15236Y72019D01*
G01X15251Y72018D01*
G01X15274Y72021D01*
G01X15317Y72029D01*
G01X15361Y72034D01*
G01X15405Y72036D01*
G01X15438Y72035D01*
G01X15472Y72032D01*
G01X15506Y72027D01*
G01X15539Y72020D01*
G01X15572Y72010D01*
G01X15604Y71999D01*
G01X15635Y71986D01*
G01X15665Y71972D01*
G01X15695Y71955D01*
G01X15723Y71936D01*
G01X15751Y71916D01*
G01X15777Y71895D01*
G01X15802Y71871D01*
G01X15825Y71847D01*
G01X15846Y71821D01*
G01X15867Y71793D01*
G01X15885Y71765D01*
G01X15902Y71735D01*
G01X15916Y71705D01*
G01X15929Y71674D01*
G01X15941Y71641D01*
G01X15950Y71609D01*
G01X15957Y71576D01*
G01X15962Y71542D01*
G01X15965Y71508D01*
G01X15966Y71474D01*
G01X15965Y71438D01*
G01X15961Y71402D01*
G01X15955Y71366D01*
G01X15947Y71331D01*
G01X15937Y71296D01*
G01X15924Y71262D01*
G01X15909Y71229D01*
G01X15892Y71197D01*
G01X15873Y71166D01*
G01X15853Y71136D01*
G01X15842Y71120D01*
G01X15836Y71102D01*
G01X15826Y71070D01*
G01X15813Y71040D01*
G01X15799Y71010D01*
G01X15782Y70982D01*
G01X15764Y70954D01*
G01X15743Y70929D01*
G01X15721Y70904D01*
G01X14968Y70152D01*
G01X14958Y70140D01*
G01X14950Y70127D01*
G01X14944Y70113D01*
G01X14940Y70099D01*
G01X14932Y70065D01*
G01X14923Y70031D01*
G01X14911Y69999D01*
G01X14897Y69967D01*
G01X14881Y69936D01*
G01X14864Y69905D01*
G01X14844Y69877D01*
G01X14823Y69849D01*
G01X14800Y69823D01*
G01X14776Y69798D01*
G01X14750Y69775D01*
G01X14722Y69753D01*
G01X14694Y69733D01*
G01X14664Y69715D01*
G01X14633Y69699D01*
G01X14601Y69685D01*
G01X14588Y69678D01*
G01X14575Y69670D01*
G01X14555Y69648D01*
G01X14548Y69635D01*
G01X14542Y69621D01*
G01X14539Y69606D01*
G01X14538Y69591D01*
G01X14539Y69575D01*
G01X14543Y69559D01*
G01X14549Y69545D01*
G01X14558Y69531D01*
G01X14568Y69519D01*
G01X14580Y69508D01*
G01X14594Y69500D01*
G01X14609Y69494D01*
G01X14631Y69486D01*
G01X14652Y69476D01*
G01X14672Y69464D01*
G01X14690Y69451D01*
G01X14708Y69436D01*
G01X14724Y69419D01*
G01X14739Y69401D01*
G01X14751Y69382D01*
G01X14762Y69361D01*
G01X14772Y69340D01*
G01X14779Y69318D01*
G01X14784Y69296D01*
G01X14787Y69273D01*
G01X14788Y69250D01*
G01X14788Y68838D01*
G01X14295Y68838D01*
G01X14295Y69571D01*
G01X14294Y69585D01*
G01X14291Y69599D01*
G01X14286Y69613D01*
G01X14279Y69625D01*
G01X14271Y69637D01*
G01X14261Y69647D01*
G01X14249Y69656D01*
G01X14237Y69663D01*
G01X14223Y69668D01*
G01X14183Y69682D01*
G01X14144Y69699D01*
G01X14112Y69716D01*
G01X14081Y69735D01*
G01X14052Y69756D01*
G01X14023Y69778D01*
G01X13997Y69803D01*
G01X13971Y69829D01*
G01X13948Y69857D01*
G01X13927Y69886D01*
G01X13907Y69916D01*
G01X13889Y69948D01*
G01X13874Y69981D01*
G01X13867Y69994D01*
G01X13858Y70006D01*
G01X13848Y70016D01*
G01X13836Y70025D01*
G01X13824Y70032D01*
G01X13810Y70037D01*
G01X13795Y70041D01*
G01X13781Y70042D01*
G01X13765Y70040D01*
G01X13749Y70037D01*
G01X13735Y70031D01*
G01X13721Y70022D01*
G01X13709Y70012D01*
G01X13699Y70000D01*
G01X13677Y69972D01*
G01X13654Y69946D01*
G01X13629Y69921D01*
G01X13602Y69898D01*
G01X13575Y69877D01*
G01X13545Y69857D01*
G01X13515Y69839D01*
G01X13484Y69823D01*
G01X13452Y69809D01*
G01X13418Y69797D01*
G01X13385Y69788D01*
G01X13350Y69780D01*
G01X13316Y69775D01*
G01X13281Y69771D01*
G01X13246Y69770D01*
G01X13211Y69771D01*
G01X13177Y69774D01*
G01X13143Y69780D01*
G01X13109Y69787D01*
G01X13076Y69796D01*
G01X13043Y69808D01*
G01X13012Y69821D01*
G01X12981Y69837D01*
G01X12951Y69854D01*
G01X12922Y69873D01*
G01X12894Y69894D01*
G01X12868Y69916D01*
G01X12843Y69940D01*
G01X12820Y69965D01*
G01X12798Y69992D01*
G01X12778Y70020D01*
G01X12760Y70049D01*
G01X12752Y70062D01*
G01X12741Y70073D01*
G01X12729Y70082D01*
G01X12716Y70090D01*
G01X12702Y70096D01*
G01X12688Y70099D01*
G01X12672Y70100D01*
G01X12657Y70099D01*
G01X12641Y70095D01*
G01X12626Y70089D01*
G01X12613Y70081D01*
G01X12601Y70070D01*
G01X12419Y69888D01*
G01X12395Y69867D01*
G01X12370Y69847D01*
G01X12344Y69828D01*
G01X12317Y69812D01*
G01X12288Y69798D01*
G01X12259Y69786D01*
G01X12229Y69776D01*
G01X12198Y69768D01*
G01X12166Y69762D01*
G01X12135Y69759D01*
G01X12103Y69757D01*
G01X8293Y69757D01*
G01X8261Y69759D01*
G01X8229Y69762D01*
G01X8198Y69768D01*
G01X8167Y69776D01*
G01X8136Y69786D01*
G01X8107Y69798D01*
G01X8078Y69812D01*
G01X8051Y69828D01*
G01X8025Y69847D01*
G01X8000Y69867D01*
G01X7976Y69888D01*
G01X6960Y70904D01*
G01X6939Y70928D01*
G01X6919Y70953D01*
G01X6901Y70979D01*
G01X6884Y71006D01*
G01X6870Y71035D01*
G01X6858Y71064D01*
G01X6848Y71095D01*
G01X6840Y71125D01*
G01X6834Y71157D01*
G01X6831Y71189D01*
G01X6830Y71220D01*
G01X6830Y72009D01*
G01X6828Y72025D01*
G01X6825Y72041D01*
G01X6818Y72055D01*
G01X6810Y72069D01*
G01X6800Y72081D01*
G01X6486Y72395D01*
G01X6474Y72405D01*
G01X6460Y72413D01*
G01X6446Y72419D01*
G01X6430Y72423D01*
G01X6414Y72424D01*
G01X5775Y72424D01*
G01X5760Y72423D01*
G01X5746Y72420D01*
G01X5732Y72415D01*
G01X5719Y72408D01*
G01X5689Y72389D01*
G01X5658Y72372D01*
G01X5625Y72358D01*
G01X5592Y72345D01*
G01X5558Y72335D01*
G01X5544Y72330D01*
G01X5531Y72323D01*
G01X5519Y72314D01*
G01X5509Y72304D01*
G01X5500Y72292D01*
G01X5493Y72279D01*
G01X5487Y72266D01*
G01X5484Y72251D01*
G01X5483Y72236D01*
G01X5484Y72222D01*
G01X5487Y72207D01*
G01X5493Y72194D01*
G01X5500Y72181D01*
G01X5509Y72169D01*
G01X5519Y72159D01*
G01X5531Y72150D01*
G01X5544Y72143D01*
G01X5558Y72138D01*
G01X5590Y72129D01*
G01X5622Y72117D01*
G01X5653Y72103D01*
G01X5683Y72087D01*
G01X5712Y72070D01*
G01X5740Y72051D01*
G01X5767Y72030D01*
G01X5792Y72008D01*
G01X5816Y71984D01*
G01X5838Y71959D01*
G01X5859Y71932D01*
G01X5879Y71905D01*
G01X5896Y71876D01*
G01X5912Y71846D01*
G01X5926Y71815D01*
G01X5326Y71815D01*
G01X5326Y72213D01*
G01X5325Y72228D01*
G01X5322Y72242D01*
G01X5317Y72256D01*
G01X5310Y72268D01*
G01X5301Y72280D01*
G01X5291Y72290D01*
G01X5279Y72299D01*
G01X5266Y72306D01*
G01X5253Y72311D01*
G01X5239Y72314D01*
G01X5224Y72315D01*
G01X4401Y72315D01*
G01X4387Y72314D01*
G01X4373Y72311D01*
G01X4359Y72306D01*
G01X4346Y72299D01*
G01X4335Y72290D01*
G01X4325Y72280D01*
G01X4316Y72268D01*
G01X4309Y72256D01*
G01X4304Y72242D01*
G01X4301Y72228D01*
G01X4300Y72213D01*
G01X4300Y71815D01*
G01X3700Y71815D01*
G01X3714Y71846D01*
G01X3730Y71876D01*
G01X3747Y71905D01*
G01X3766Y71932D01*
G01X3787Y71959D01*
G01X3810Y71984D01*
G01X3834Y72008D01*
G01X3859Y72030D01*
G01X3886Y72051D01*
G01X3914Y72070D01*
G01X3943Y72087D01*
G01X3973Y72103D01*
G01X4004Y72117D01*
G01X4035Y72129D01*
G01X4068Y72138D01*
G01X4081Y72143D01*
G01X4094Y72150D01*
G01X4106Y72159D01*
G01X4117Y72169D01*
G01X4126Y72181D01*
G01X4133Y72194D01*
G01X4138Y72207D01*
G01X4141Y72222D01*
G01X4142Y72236D01*
G01X4141Y72251D01*
G01X4138Y72266D01*
G01X4133Y72279D01*
G01X4126Y72292D01*
G01X4117Y72304D01*
G01X4106Y72314D01*
G01X4094Y72323D01*
G01X4081Y72330D01*
G01X4068Y72335D01*
G01X4034Y72345D01*
G01X4002Y72357D01*
G01X3971Y72371D01*
G01X3940Y72387D01*
G01X3910Y72405D01*
G01X3882Y72425D01*
G01X3855Y72446D01*
G01X3829Y72469D01*
G01X3805Y72494D01*
G01X3782Y72520D01*
G01X3761Y72548D01*
G01X3742Y72576D01*
G01X3725Y72606D01*
G01X3709Y72637D01*
G01X3696Y72669D01*
G01X3684Y72701D01*
G01X3674Y72735D01*
G01X3667Y72768D01*
G01X3662Y72803D01*
G01X3658Y72837D01*
G01X3657Y72871D01*
G01X3659Y72909D01*
G01X3662Y72946D01*
G01X3663Y72959D01*
G01X3662Y72974D01*
G01X3659Y72988D01*
G01X3654Y73001D01*
G01X3647Y73014D01*
G01X3638Y73026D01*
G01X3628Y73036D01*
G01X3616Y73045D01*
G01X3604Y73052D01*
G01X3590Y73057D01*
G01X3576Y73060D01*
G01X3562Y73061D01*
G01X3541Y73059D01*
G01X3522Y73053D01*
G01X3479Y73036D01*
G01X3436Y73022D01*
G01X3391Y73011D01*
G01X3346Y73001D01*
G01X3301Y72995D01*
G01X3255Y72991D01*
G01X3210Y72990D01*
G01X3169Y72991D01*
G01X3128Y72994D01*
G01X3087Y72999D01*
G01X3047Y73006D01*
G01X3007Y73016D01*
G01X2968Y73027D01*
G01X2929Y73040D01*
G01X2891Y73055D01*
G01X2854Y73072D01*
G01X2818Y73091D01*
G01X2783Y73112D01*
G01X2749Y73134D01*
G01X2716Y73159D01*
G01X2684Y73184D01*
G01X2654Y73212D01*
G01X2625Y73241D01*
G01X2598Y73271D01*
G01X2572Y73303D01*
G01X2548Y73336D01*
G01X2525Y73370D01*
G01X2504Y73405D01*
G01X2485Y73441D01*
G01X2468Y73478D01*
G01X2453Y73516D01*
G01X2440Y73555D01*
G01X2429Y73594D01*
G01X2420Y73634D01*
G01X2412Y73674D01*
G01X2407Y73715D01*
G01X2404Y73755D01*
G01X2403Y73796D01*
G01X2404Y73837D01*
G01X2407Y73878D01*
G01X2412Y73918D01*
G01X2420Y73959D01*
G01X2429Y73998D01*
G01X2440Y74038D01*
G01X2453Y74076D01*
G01X2468Y74114D01*
G01X2485Y74151D01*
G01X2504Y74188D01*
G01X2525Y74223D01*
G01X2548Y74257D01*
G01X2572Y74290D01*
G01X2598Y74322D01*
G01X2625Y74352D01*
G01X2654Y74381D01*
G01X2684Y74408D01*
G01X2716Y74434D01*
G01X2749Y74458D01*
G01X2783Y74481D01*
G01X2818Y74502D01*
G01X2854Y74520D01*
G01X2891Y74538D01*
G01X2929Y74553D01*
G01X2968Y74566D01*
G01X3007Y74577D01*
G01X3047Y74586D01*
G01X3087Y74594D01*
G01X3128Y74599D01*
G01X3169Y74602D01*
G01X3210Y74603D01*
G01X3252Y74602D01*
G01X3294Y74598D01*
G01X3336Y74593D01*
G01X3377Y74585D01*
G01X3418Y74575D01*
G01X3459Y74563D01*
G01X3499Y74549D01*
G01X3538Y74533D01*
G01X3576Y74515D01*
G01X3613Y74495D01*
G01X3649Y74473D01*
G01X3662Y74466D01*
G01X3675Y74461D01*
G01X3690Y74457D01*
G01X3704Y74456D01*
G01X3719Y74457D01*
G01X3734Y74461D01*
G01X3748Y74466D01*
G01X3761Y74474D01*
G01X3773Y74483D01*
G01X3783Y74494D01*
G01X3806Y74520D01*
G01X3830Y74544D01*
G01X3855Y74567D01*
G01X3882Y74589D01*
G01X3911Y74608D01*
G01X3940Y74626D01*
G01X3971Y74642D01*
G01X4002Y74656D01*
G01X4035Y74668D01*
G01X4068Y74678D01*
G01X4081Y74683D01*
G01X4094Y74690D01*
G01X4106Y74699D01*
G01X4117Y74709D01*
G01X4126Y74721D01*
G01X4133Y74734D01*
G01X4138Y74747D01*
G01X4141Y74762D01*
G01X4142Y74776D01*
G01X4141Y74791D01*
G01X4138Y74806D01*
G01X4133Y74819D01*
G01X4126Y74832D01*
G01X4117Y74844D01*
G01X4106Y74854D01*
G01X4094Y74863D01*
G01X4081Y74870D01*
G01X4068Y74875D01*
G01X4034Y74885D01*
G01X4002Y74897D01*
G01X3971Y74911D01*
G01X3940Y74927D01*
G01X3910Y74945D01*
G01X3882Y74965D01*
G01X3855Y74986D01*
G01X3829Y75009D01*
G01X3805Y75034D01*
G01X3782Y75060D01*
G01X3761Y75088D01*
G01X3742Y75116D01*
G01X3725Y75146D01*
G01X3709Y75177D01*
G01X3696Y75209D01*
G01X3684Y75241D01*
G01X3674Y75275D01*
G01X3667Y75308D01*
G01X3662Y75343D01*
G01X3658Y75377D01*
G01X3657Y75411D01*
G01X3659Y75457D01*
G01X3665Y75501D01*
G01X3666Y75518D01*
G01X3665Y75532D01*
G01X3662Y75546D01*
G01X3657Y75560D01*
G01X3650Y75573D01*
G01X3641Y75584D01*
G01X3631Y75595D01*
G01X3619Y75603D01*
G01X3607Y75610D01*
G01X3593Y75615D01*
G01X3579Y75618D01*
G01X3564Y75619D01*
G01X3549Y75618D01*
G01X3508Y75614D01*
G01X3467Y75612D01*
G01X3433Y75613D01*
G01X3399Y75616D01*
G01X3365Y75621D01*
G01X3332Y75628D01*
G01X3300Y75638D01*
G01X3268Y75649D01*
G01X3236Y75662D01*
G01X3206Y75676D01*
G01X3176Y75693D01*
G01X3148Y75712D01*
G01X3120Y75732D01*
G01X3094Y75753D01*
G01X3046Y75801D01*
G01X3025Y75827D01*
G01X3005Y75855D01*
G01X2986Y75883D01*
G01X2970Y75913D01*
G01X2955Y75943D01*
G01X2942Y75974D01*
G01X2931Y76006D01*
G01X2922Y76039D01*
G01X2914Y76072D01*
G01X2909Y76106D01*
G01X2906Y76140D01*
G01X2905Y76173D01*
G01X2906Y76211D01*
G01X2910Y76248D01*
G01X2916Y76284D01*
G01X2925Y76320D01*
G01X2936Y76356D01*
G01X2949Y76391D01*
G01X2964Y76424D01*
G01X2982Y76457D01*
G01X3002Y76489D01*
G01X3010Y76502D01*
G01X3015Y76516D01*
G01X3018Y76531D01*
G01X3020Y76546D01*
G01X3020Y77190D01*
G01X3021Y77222D01*
G01X3024Y77254D01*
G01X3030Y77286D01*
G01X3038Y77317D01*
G01X3049Y77348D01*
G01X3061Y77378D01*
G01X3066Y77392D01*
G01X3070Y77406D01*
G01X3071Y77421D01*
G01X3070Y77435D01*
G01X3066Y77450D01*
G01X3061Y77463D01*
G01X3054Y77476D01*
G01X3045Y77488D01*
G01X3035Y77498D01*
G01X3023Y77507D01*
G01X3010Y77514D01*
G01X2996Y77519D01*
G01X2956Y77531D01*
G01X2916Y77545D01*
G01X2877Y77561D01*
G01X2840Y77580D01*
G01X2803Y77600D01*
G01X2767Y77622D01*
G01X2733Y77646D01*
G01X2699Y77672D01*
G01X2667Y77699D01*
G01X2637Y77728D01*
G01X2608Y77759D01*
G01X2581Y77791D01*
G01X2556Y77824D01*
G01X2532Y77859D01*
G01X2510Y77895D01*
G01X2490Y77932D01*
G01X2472Y77970D01*
G01X2456Y78009D01*
G01X2442Y78048D01*
G01X2430Y78089D01*
G01X2420Y78130D01*
G01X2413Y78171D01*
G01X2407Y78213D01*
G01X2404Y78254D01*
G01X2403Y78296D01*
G01X2404Y78337D01*
G01X2407Y78378D01*
G01X2412Y78419D01*
G01X2420Y78459D01*
G01X2429Y78499D01*
G01X2440Y78538D01*
G01X2453Y78577D01*
G01X2468Y78614D01*
G01X2485Y78652D01*
G01X2504Y78688D01*
G01X2525Y78723D01*
G01X2548Y78757D01*
G01X2572Y78790D01*
G01X2598Y78822D01*
G01X2625Y78852D01*
G01X2654Y78881D01*
G01X2684Y78908D01*
G01X2716Y78934D01*
G01X2749Y78958D01*
G01X2783Y78981D01*
G01X2818Y79002D01*
G01X2854Y79021D01*
G01X2891Y79038D01*
G01X2929Y79053D01*
G01X2968Y79066D01*
G01X3007Y79077D01*
G01X3047Y79086D01*
G01X3087Y79094D01*
G01X3128Y79099D01*
G01X3169Y79102D01*
G01X3210Y79103D01*
G01X3255Y79102D01*
G01X3301Y79098D01*
G01X3346Y79091D01*
G01X3391Y79082D01*
G01X3436Y79071D01*
G01X3479Y79056D01*
G01X3522Y79040D01*
G01X3542Y79034D01*
G01X3562Y79032D01*
G01X3576Y79033D01*
G01X3590Y79036D01*
G01X3604Y79041D01*
G01X3617Y79048D01*
G01X3628Y79057D01*
G01X3638Y79067D01*
G01X3647Y79079D01*
G01X3654Y79091D01*
G01X3659Y79105D01*
G01X3662Y79119D01*
G01X3663Y79134D01*
G01X3662Y79147D01*
G01X3659Y79184D01*
G01X3657Y79221D01*
G01X3658Y79256D01*
G01X3662Y79290D01*
G01X3667Y79325D01*
G01X3674Y79358D01*
G01X3684Y79392D01*
G01X3696Y79424D01*
G01X3709Y79456D01*
G01X3725Y79487D01*
G01X3742Y79517D01*
G01X3761Y79545D01*
G01X3782Y79573D01*
G01X3805Y79599D01*
G01X3829Y79624D01*
G01X3855Y79647D01*
G01X3882Y79668D01*
G01X3910Y79688D01*
G01X3940Y79706D01*
G01X3971Y79722D01*
G01X4002Y79736D01*
G01X4034Y79748D01*
G01X4068Y79758D01*
G01X4081Y79763D01*
G01X4094Y79770D01*
G01X4106Y79779D01*
G01X4117Y79789D01*
G01X4126Y79801D01*
G01X4133Y79814D01*
G01X4138Y79827D01*
G01X4141Y79842D01*
G01X4142Y79856D01*
G01X4141Y79871D01*
G01X4138Y79886D01*
G01X4133Y79899D01*
G01X4126Y79912D01*
G01X4117Y79924D01*
G01X4106Y79934D01*
G01X4094Y79943D01*
G01X4081Y79950D01*
G01X4068Y79955D01*
G01X4034Y79965D01*
G01X4002Y79977D01*
G01X3971Y79991D01*
G01X3940Y80007D01*
G01X3910Y80025D01*
G01X3882Y80045D01*
G01X3855Y80066D01*
G01X3829Y80089D01*
G01X3805Y80114D01*
G01X3782Y80140D01*
G01X3761Y80168D01*
G01X3742Y80196D01*
G01X3725Y80226D01*
G01X3709Y80257D01*
G01X3696Y80289D01*
G01X3684Y80321D01*
G01X3674Y80355D01*
G01X3667Y80388D01*
G01X3662Y80423D01*
G01X3658Y80457D01*
G01X3657Y80491D01*
G01X3659Y80533D01*
G01X3664Y80575D01*
G01X3671Y80616D01*
G01X3680Y80648D01*
G01X3690Y80681D01*
G01X3703Y80712D01*
G01X3717Y80743D01*
G01X3734Y80773D01*
G01X3752Y80801D01*
G01X3771Y80829D01*
G01X3793Y80855D01*
G01X3816Y80880D01*
G01X3840Y80904D01*
G01X3866Y80926D01*
G01X3893Y80946D01*
G01X3921Y80965D01*
G01X3951Y80982D01*
G01X3981Y80997D01*
G01X4012Y81010D01*
G01X4045Y81022D01*
G01X4077Y81031D01*
G01X4110Y81038D01*
G01X4144Y81044D01*
G01X4178Y81047D01*
G01X4193Y81049D01*
G01X4207Y81053D01*
G01X4221Y81060D01*
G01X4234Y81068D01*
G01X4245Y81079D01*
G01X4255Y81091D01*
G01X4262Y81104D01*
G01X4268Y81118D01*
G01X4271Y81133D01*
G01X4273Y81148D01*
G01X4273Y81308D01*
G01X5514Y81308D01*
G01X5530Y81309D01*
G01X5545Y81313D01*
G01X5560Y81319D01*
G01X5573Y81327D01*
G01X5586Y81338D01*
G01X5935Y81687D01*
G01X5945Y81699D01*
G01X5953Y81712D01*
G01X5959Y81726D01*
G01X5963Y81740D01*
G01X5971Y81775D01*
G01X5981Y81808D01*
G01X5993Y81842D01*
G01X6007Y81874D01*
G01X6023Y81905D01*
G01X6041Y81936D01*
G01X6061Y81965D01*
G01X6082Y81993D01*
G01X6106Y82019D01*
G01X6131Y82044D01*
G01X6157Y82067D01*
G01X6185Y82089D01*
G01X6214Y82109D01*
G01X6244Y82126D01*
G01X6276Y82142D01*
G01X6308Y82156D01*
G01X6341Y82168D01*
G01X6375Y82178D01*
G01X6409Y82186D01*
G01X6444Y82191D01*
G01X6479Y82195D01*
G01X6515Y82196D01*
G01X6548Y82195D01*
G01X6582Y82192D01*
G01X6616Y82187D01*
G01X6649Y82180D01*
G01X6682Y82170D01*
G01X6714Y82159D01*
G01X6745Y82146D01*
G01X6775Y82132D01*
G01X6805Y82115D01*
G01X6833Y82096D01*
G01X6861Y82076D01*
G01X6887Y82055D01*
G01X6912Y82031D01*
G01X6935Y82007D01*
G01X6956Y81981D01*
G01X6977Y81953D01*
G01X6995Y81925D01*
G01X7012Y81895D01*
G01X7026Y81865D01*
G01X7039Y81834D01*
G01X7051Y81801D01*
G01X7060Y81769D01*
G01X7067Y81736D01*
G01X7072Y81702D01*
G01X7075Y81668D01*
G01X7076Y81634D01*
G01X7074Y81593D01*
G01X7070Y81552D01*
G01X7062Y81512D01*
G01X7060Y81490D01*
G01X7061Y81475D01*
G01X7064Y81461D01*
G01X7069Y81447D01*
G01X7076Y81435D01*
G01X7085Y81423D01*
G01X7095Y81413D01*
G01X7107Y81404D01*
G01X7119Y81397D01*
G01X7133Y81392D01*
G01X7147Y81389D01*
G01X7162Y81388D01*
G01X7180Y81390D01*
G01X7199Y81395D01*
G01X7232Y81407D01*
G01X7265Y81416D01*
G01X7299Y81424D01*
G01X7334Y81429D01*
G01X7369Y81433D01*
G01X7404Y81434D01*
G01X7437Y81433D01*
G01X7471Y81430D01*
G01X7505Y81425D01*
G01X7538Y81418D01*
G01X7571Y81408D01*
G01X7603Y81397D01*
G01X7634Y81384D01*
G01X7664Y81370D01*
G01X7694Y81353D01*
G01X7722Y81334D01*
G01X7750Y81314D01*
G01X7776Y81293D01*
G01X7801Y81269D01*
G01X7824Y81245D01*
G01X7845Y81219D01*
G01X7866Y81191D01*
G01X7884Y81163D01*
G01X7901Y81133D01*
G01X7915Y81103D01*
G01X7928Y81072D01*
G01X7940Y81039D01*
G01X7949Y81007D01*
G01X7956Y80974D01*
G01X7961Y80940D01*
G01X7964Y80906D01*
G01X7965Y80872D01*
G01X7964Y80837D01*
G01X7961Y80802D01*
G01X7955Y80767D01*
G01X7947Y80733D01*
G01X7938Y80699D01*
G01X7926Y80666D01*
G01X7912Y80634D01*
G01X7896Y80602D01*
G01X7878Y80572D01*
G01X7858Y80543D01*
G01X7836Y80515D01*
G01X7813Y80488D01*
G01X7788Y80463D01*
G01X7762Y80440D01*
G01X7734Y80419D01*
G01X7705Y80399D01*
G01X7674Y80381D01*
G01X7643Y80365D01*
G01X7611Y80351D01*
G01X7577Y80339D01*
G01X7544Y80329D01*
G01X7509Y80321D01*
G01X7495Y80317D01*
G01X7481Y80311D01*
G01X7468Y80303D01*
G01X7457Y80293D01*
G01X6069Y78905D01*
G01X6047Y78885D01*
G01X6023Y78866D01*
G01X5999Y78848D01*
G01X5973Y78833D01*
G01X5946Y78819D01*
G01X5919Y78806D01*
G01X5890Y78796D01*
G01X5861Y78788D01*
G01X5832Y78781D01*
G01X5802Y78777D01*
G01X5772Y78775D01*
G01X5753Y78772D01*
G01X5736Y78767D01*
G01X5720Y78758D01*
G01X5689Y78739D01*
G01X5658Y78722D01*
G01X5626Y78708D01*
G01X5592Y78695D01*
G01X5558Y78685D01*
G01X5544Y78680D01*
G01X5531Y78673D01*
G01X5519Y78664D01*
G01X5509Y78654D01*
G01X5500Y78642D01*
G01X5493Y78629D01*
G01X5487Y78616D01*
G01X5484Y78601D01*
G01X5483Y78586D01*
G01X5484Y78572D01*
G01X5487Y78557D01*
G01X5493Y78544D01*
G01X5500Y78531D01*
G01X5509Y78519D01*
G01X5519Y78509D01*
G01X5531Y78500D01*
G01X5544Y78493D01*
G01X5558Y78488D01*
G01X5591Y78478D01*
G01X5623Y78466D01*
G01X5655Y78452D01*
G01X5686Y78436D01*
G01X5715Y78418D01*
G01X5744Y78398D01*
G01X5771Y78377D01*
G01X5796Y78354D01*
G01X5821Y78329D01*
G01X5843Y78303D01*
G01X5864Y78275D01*
G01X5884Y78247D01*
G01X5901Y78217D01*
G01X5917Y78186D01*
G01X5930Y78154D01*
G01X5942Y78122D01*
G01X5951Y78088D01*
G01X5959Y78055D01*
G01X5964Y78020D01*
G01X5967Y77986D01*
G01X5968Y77951D01*
G01X5967Y77917D01*
G01X5964Y77883D01*
G01X5959Y77848D01*
G01X5951Y77815D01*
G01X5942Y77781D01*
G01X5930Y77749D01*
G01X5917Y77717D01*
G01X5901Y77686D01*
G01X5884Y77656D01*
G01X5864Y77628D01*
G01X5843Y77600D01*
G01X5821Y77574D01*
G01X5796Y77549D01*
G01X5771Y77526D01*
G01X5744Y77505D01*
G01X5715Y77485D01*
G01X5686Y77467D01*
G01X5655Y77451D01*
G01X5623Y77437D01*
G01X5591Y77425D01*
G01X5558Y77415D01*
G01X5544Y77410D01*
G01X5531Y77403D01*
G01X5519Y77394D01*
G01X5509Y77384D01*
G01X5500Y77372D01*
G01X5493Y77359D01*
G01X5487Y77346D01*
G01X5484Y77331D01*
G01X5483Y77316D01*
G01X5484Y77302D01*
G01X5487Y77287D01*
G01X5493Y77274D01*
G01X5500Y77261D01*
G01X5509Y77249D01*
G01X5519Y77239D01*
G01X5531Y77230D01*
G01X5544Y77223D01*
G01X5558Y77218D01*
G01X5591Y77208D01*
G01X5623Y77196D01*
G01X5655Y77182D01*
G01X5686Y77166D01*
G01X5715Y77148D01*
G01X5744Y77128D01*
G01X5771Y77107D01*
G01X5796Y77084D01*
G01X5821Y77059D01*
G01X5843Y77033D01*
G01X5864Y77005D01*
G01X5884Y76977D01*
G01X5901Y76947D01*
G01X5917Y76916D01*
G01X5930Y76884D01*
G01X5942Y76852D01*
G01X5951Y76818D01*
G01X5959Y76785D01*
G01X5964Y76750D01*
G01X5967Y76716D01*
G01X5968Y76681D01*
G01X5967Y76647D01*
G01X5964Y76613D01*
G01X5959Y76578D01*
G01X5951Y76545D01*
G01X5942Y76511D01*
G01X5930Y76479D01*
G01X5917Y76447D01*
G01X5901Y76416D01*
G01X5884Y76386D01*
G01X5864Y76358D01*
G01X5843Y76330D01*
G01X5821Y76304D01*
G01X5796Y76279D01*
G01X5771Y76256D01*
G01X5744Y76235D01*
G01X5715Y76215D01*
G01X5686Y76197D01*
G01X5655Y76181D01*
G01X5623Y76167D01*
G01X5591Y76155D01*
G01X5558Y76145D01*
G01X5544Y76140D01*
G01X5531Y76133D01*
G01X5519Y76124D01*
G01X5509Y76114D01*
G01X5500Y76102D01*
G01X5493Y76089D01*
G01X5487Y76076D01*
G01X5484Y76061D01*
G01X5483Y76046D01*
G01X5484Y76032D01*
G01X5487Y76017D01*
G01X5493Y76004D01*
G01X5500Y75991D01*
G01X5509Y75979D01*
G01X5519Y75969D01*
G01X5531Y75960D01*
G01X5544Y75953D01*
G01X5558Y75948D01*
G01X5592Y75938D01*
G01X5625Y75925D01*
G01X5658Y75911D01*
G01X5689Y75894D01*
G01X5719Y75875D01*
G01X5732Y75868D01*
G01X5746Y75863D01*
G01X5760Y75860D01*
G01X5775Y75859D01*
G01X7785Y75859D01*
G01X7817Y75857D01*
G01X7848Y75854D01*
G01X7880Y75848D01*
G01X7911Y75840D01*
G01X7941Y75830D01*
G01X7970Y75818D01*
G01X7999Y75804D01*
G01X8026Y75788D01*
G01X8052Y75769D01*
G01X8077Y75749D01*
G01X8101Y75728D01*
G01X9244Y74585D01*
G01X9265Y74561D01*
G01X9285Y74536D01*
G01X9304Y74510D01*
G01X9320Y74483D01*
G01X9334Y74454D01*
G01X9346Y74425D01*
G01X9357Y74394D01*
G01X9364Y74364D01*
G01X9370Y74332D01*
G01X9373Y74300D01*
G01X9375Y74268D01*
G01X9375Y72482D01*
G01X9376Y72467D01*
G01X9379Y72452D01*
G01X9385Y72438D01*
G01X9392Y72425D01*
G01X9412Y72393D01*
G01X9430Y72360D01*
G01X9445Y72327D01*
G01X9458Y72292D01*
G01X9469Y72256D01*
G01X9478Y72220D01*
G01X9484Y72184D01*
G01X9488Y72147D01*
G01X9489Y72109D01*
G01X9488Y72076D01*
G01X9485Y72042D01*
G01X9480Y72008D01*
G01X9473Y71975D01*
G01X9464Y71942D01*
G01X9452Y71910D01*
G01X9439Y71879D01*
G01X9425Y71849D01*
G01X9408Y71819D01*
G01X9390Y71791D01*
G01X9369Y71763D01*
G01X9348Y71737D01*
G01X9325Y71713D01*
G01X9300Y71689D01*
G01X9274Y71668D01*
G01X9246Y71648D01*
G01X9218Y71629D01*
G01X9188Y71612D01*
G01X9158Y71598D01*
G01X9127Y71585D01*
G01X9095Y71574D01*
G01X9062Y71564D01*
G01X9029Y71557D01*
G01X8995Y71552D01*
G01X8961Y71549D01*
G01X8928Y71548D01*
G01X8888Y71550D01*
G01X8850Y71554D01*
G01X8811Y71560D01*
G01X8773Y71570D01*
G01X8736Y71582D01*
G01X8700Y71597D01*
G01X8679Y71603D01*
G01X8658Y71605D01*
G01X8644Y71604D01*
G01X8630Y71601D01*
G01X8616Y71596D01*
G01X8603Y71589D01*
G01X8592Y71581D01*
G01X8581Y71570D01*
G01X8573Y71559D01*
G01X8566Y71546D01*
G01X8561Y71532D01*
G01X8558Y71518D01*
G01X8557Y71504D01*
G01X8558Y71488D01*
G01X8562Y71472D01*
G01X8568Y71458D01*
G01X8576Y71444D01*
G01X8586Y71432D01*
G01X8702Y71316D01*
G01X8714Y71306D01*
G01X8728Y71298D01*
G01X8742Y71292D01*
G01X8758Y71288D01*
G01X8774Y71287D01*
G01X9535Y71287D01*
G01X9549Y71288D01*
G01X9563Y71291D01*
G01X9577Y71296D01*
G01X9590Y71303D01*
G01X9601Y71311D01*
G01X9612Y71322D01*
G01X9620Y71333D01*
G01X9627Y71346D01*
G01X9632Y71360D01*
G01X9635Y71374D01*
G01X9636Y71388D01*
G01X9635Y71405D01*
G01X9631Y71421D01*
G01X9620Y71456D01*
G01X9612Y71492D01*
G01X9606Y71528D01*
G01X9602Y71565D01*
G01X9601Y71601D01*
G01X9602Y71636D01*
G01X9605Y71670D01*
G01X9611Y71705D01*
G01X9618Y71738D01*
G01X9628Y71772D01*
G01X9639Y71804D01*
G01X9653Y71836D01*
G01X9668Y71867D01*
G01X9686Y71897D01*
G01X9705Y71925D01*
G01X9726Y71953D01*
G01X9749Y71979D01*
G01X9773Y72004D01*
G01X9799Y72027D01*
G01X9826Y72048D01*
G01X9854Y72068D01*
G01X9884Y72086D01*
G01X9914Y72102D01*
G01X9946Y72116D01*
G01X9978Y72128D01*
G01X10011Y72138D01*
G01X10025Y72143D01*
G01X10038Y72150D01*
G01X10050Y72159D01*
G01X10060Y72169D01*
G01X10069Y72181D01*
G01X10077Y72194D01*
G01X10082Y72207D01*
G01X10085Y72222D01*
G01X10086Y72236D01*
G01X10085Y72251D01*
G01X10082Y72266D01*
G01X10077Y72279D01*
G01X10069Y72292D01*
G01X10060Y72304D01*
G01X10050Y72314D01*
G01X10038Y72323D01*
G01X10025Y72330D01*
G01X10011Y72335D01*
G01X9978Y72345D01*
G01X9946Y72357D01*
G01X9914Y72371D01*
G01X9884Y72387D01*
G01X9854Y72405D01*
G01X9826Y72425D01*
G01X9799Y72446D01*
G01X9773Y72469D01*
G01X9749Y72494D01*
G01X9726Y72520D01*
G01X9705Y72548D01*
G01X9686Y72576D01*
G01X9668Y72606D01*
G01X9653Y72637D01*
G01X9639Y72669D01*
G01X9628Y72701D01*
G01X9618Y72735D01*
G01X9611Y72768D01*
G01X9605Y72803D01*
G01X9602Y72837D01*
G01X9601Y72871D01*
G01X9602Y72906D01*
G01X9605Y72940D01*
G01X9611Y72975D01*
G01X9618Y73008D01*
G01X9628Y73042D01*
G01X9639Y73074D01*
G01X9653Y73106D01*
G01X9668Y73137D01*
G01X9686Y73167D01*
G01X9705Y73195D01*
G01X9726Y73223D01*
G01X9749Y73249D01*
G01X9773Y73274D01*
G01X9799Y73297D01*
G01X9826Y73318D01*
G01X9854Y73338D01*
G01X9884Y73356D01*
G01X9914Y73372D01*
G01X9946Y73386D01*
G01X9978Y73398D01*
G01X10011Y73408D01*
G01X10025Y73413D01*
G01X10038Y73420D01*
G01X10050Y73429D01*
G01X10060Y73439D01*
G01X10069Y73451D01*
G01X10077Y73464D01*
G01X10082Y73477D01*
G01X10085Y73492D01*
G01X10086Y73506D01*
G01X10085Y73521D01*
G01X10082Y73536D01*
G01X10077Y73549D01*
G01X10069Y73562D01*
G01X10060Y73574D01*
G01X10050Y73584D01*
G01X10038Y73593D01*
G01X10025Y73600D01*
G01X10011Y73605D01*
G01X9978Y73615D01*
G01X9946Y73627D01*
G01X9914Y73641D01*
G01X9884Y73657D01*
G01X9854Y73675D01*
G01X9826Y73695D01*
G01X9799Y73716D01*
G01X9773Y73739D01*
G01X9749Y73764D01*
G01X9726Y73790D01*
G01X9705Y73818D01*
G01X9686Y73846D01*
G01X9668Y73876D01*
G01X9653Y73907D01*
G01X9639Y73939D01*
G01X9628Y73971D01*
G01X9618Y74005D01*
G01X9611Y74038D01*
G01X9605Y74073D01*
G01X9602Y74107D01*
G01X9601Y74141D01*
G01X9602Y74176D01*
G01X9605Y74210D01*
G01X9611Y74245D01*
G01X9618Y74278D01*
G01X9628Y74312D01*
G01X9639Y74344D01*
G01X9653Y74376D01*
G01X9668Y74407D01*
G01X9686Y74437D01*
G01X9705Y74465D01*
G01X9726Y74493D01*
G01X9749Y74519D01*
G01X9773Y74544D01*
G01X9799Y74567D01*
G01X9826Y74588D01*
G01X9854Y74608D01*
G01X9884Y74626D01*
G01X9914Y74642D01*
G01X9946Y74656D01*
G01X9978Y74668D01*
G01X10011Y74678D01*
G01X10025Y74683D01*
G01X10038Y74690D01*
G01X10050Y74699D01*
G01X10060Y74709D01*
G01X10069Y74721D01*
G01X10077Y74734D01*
G01X10082Y74747D01*
G01X10085Y74762D01*
G01X10086Y74776D01*
G01X10085Y74791D01*
G01X10082Y74806D01*
G01X10077Y74819D01*
G01X10069Y74832D01*
G01X10060Y74844D01*
G01X10050Y74854D01*
G01X10038Y74863D01*
G01X10025Y74870D01*
G01X10011Y74875D01*
G01X9977Y74885D01*
G01X9944Y74898D01*
G01X9912Y74912D01*
G01X9880Y74929D01*
G01X9850Y74948D01*
G01X9837Y74955D01*
G01X9823Y74960D01*
G01X9809Y74963D01*
G01X9794Y74964D01*
G01X9563Y74964D01*
G01X9531Y74966D01*
G01X9499Y74969D01*
G01X9468Y74975D01*
G01X9437Y74983D01*
G01X9406Y74993D01*
G01X9377Y75005D01*
G01X9348Y75019D01*
G01X9321Y75035D01*
G01X9295Y75054D01*
G01X9270Y75074D01*
G01X9246Y75095D01*
G01X8611Y75730D01*
G01X8590Y75754D01*
G01X8570Y75779D01*
G01X8552Y75805D01*
G01X8535Y75832D01*
G01X8521Y75861D01*
G01X8509Y75890D01*
G01X8499Y75921D01*
G01X8491Y75951D01*
G01X8485Y75983D01*
G01X8482Y76015D01*
G01X8481Y76046D01*
G01X8481Y76817D01*
G01X8479Y76832D01*
G01X8476Y76847D01*
G01X8471Y76861D01*
G01X8463Y76874D01*
G01X8443Y76906D01*
G01X8425Y76939D01*
G01X8410Y76972D01*
G01X8397Y77007D01*
G01X8386Y77043D01*
G01X8377Y77079D01*
G01X8371Y77115D01*
G01X8367Y77152D01*
G01X8366Y77189D01*
G01X8367Y77223D01*
G01X8370Y77257D01*
G01X8375Y77291D01*
G01X8383Y77324D01*
G01X8392Y77356D01*
G01X8403Y77389D01*
G01X8416Y77420D01*
G01X8431Y77450D01*
G01X8447Y77480D01*
G01X8466Y77508D01*
G01X8486Y77536D01*
G01X8507Y77562D01*
G01X8555Y77610D01*
G01X8581Y77631D01*
G01X8609Y77651D01*
G01X8637Y77670D01*
G01X8667Y77687D01*
G01X8697Y77701D01*
G01X8729Y77714D01*
G01X8761Y77725D01*
G01X8793Y77735D01*
G01X8826Y77742D01*
G01X8860Y77747D01*
G01X8894Y77750D01*
G01X8928Y77751D01*
G01X8961Y77750D01*
G01X8995Y77747D01*
G01X9029Y77742D01*
G01X9062Y77735D01*
G01X9095Y77725D01*
G01X9127Y77714D01*
G01X9158Y77701D01*
G01X9188Y77687D01*
G01X9218Y77670D01*
G01X9246Y77651D01*
G01X9274Y77631D01*
G01X9300Y77610D01*
G01X9325Y77586D01*
G01X9348Y77562D01*
G01X9369Y77536D01*
G01X9390Y77508D01*
G01X9408Y77480D01*
G01X9425Y77450D01*
G01X9439Y77420D01*
G01X9452Y77389D01*
G01X9464Y77356D01*
G01X9473Y77324D01*
G01X9480Y77291D01*
G01X9485Y77257D01*
G01X9488Y77223D01*
G01X9489Y77189D01*
G01X9488Y77152D01*
G01X9484Y77115D01*
G01X9478Y77079D01*
G01X9469Y77043D01*
G01X9458Y77007D01*
G01X9445Y76972D01*
G01X9430Y76938D01*
G01X9412Y76906D01*
G01X9392Y76874D01*
G01X9385Y76861D01*
G01X9379Y76847D01*
G01X9376Y76832D01*
G01X9375Y76817D01*
G01X9375Y76274D01*
G01X9376Y76258D01*
G01X9380Y76242D01*
G01X9386Y76228D01*
G01X9394Y76214D01*
G01X9404Y76202D01*
G01X9718Y75888D01*
G01X9730Y75878D01*
G01X9744Y75870D01*
G01X9758Y75864D01*
G01X9774Y75860D01*
G01X9790Y75859D01*
G01X9794Y75859D01*
G01X9809Y75860D01*
G01X9823Y75863D01*
G01X9837Y75868D01*
G01X9850Y75875D01*
G01X9880Y75894D01*
G01X9912Y75911D01*
G01X9944Y75925D01*
G01X9977Y75938D01*
G01X10011Y75948D01*
G01X10025Y75953D01*
G01X10038Y75960D01*
G01X10050Y75969D01*
G01X10060Y75979D01*
G01X10069Y75991D01*
G01X10077Y76004D01*
G01X10082Y76017D01*
G01X10085Y76032D01*
G01X10086Y76046D01*
G01X10085Y76061D01*
G01X10082Y76076D01*
G01X10077Y76089D01*
G01X10069Y76102D01*
G01X10060Y76114D01*
G01X10050Y76124D01*
G01X10038Y76133D01*
G01X10025Y76140D01*
G01X10011Y76145D01*
G01X9978Y76155D01*
G01X9946Y76167D01*
G01X9914Y76181D01*
G01X9884Y76197D01*
G01X9854Y76215D01*
G01X9826Y76235D01*
G01X9799Y76256D01*
G01X9773Y76279D01*
G01X9749Y76304D01*
G01X9726Y76330D01*
G01X9705Y76358D01*
G01X9686Y76386D01*
G01X9668Y76416D01*
G01X9653Y76447D01*
G01X9639Y76479D01*
G01X9628Y76511D01*
G01X9618Y76545D01*
G01X9611Y76578D01*
G01X9605Y76613D01*
G01X9602Y76647D01*
G01X9601Y76681D01*
G01X9602Y76716D01*
G01X9605Y76750D01*
G01X9611Y76785D01*
G01X9618Y76818D01*
G01X9628Y76852D01*
G01X9639Y76884D01*
G01X9653Y76916D01*
G01X9668Y76947D01*
G01X9686Y76977D01*
G01X9705Y77005D01*
G01X9726Y77033D01*
G01X9749Y77059D01*
G01X9773Y77084D01*
G01X9799Y77107D01*
G01X9826Y77128D01*
G01X9854Y77148D01*
G01X9884Y77166D01*
G01X9914Y77182D01*
G01X9946Y77196D01*
G01X9978Y77208D01*
G01X10011Y77218D01*
G01X10025Y77223D01*
G01X10038Y77230D01*
G01X10050Y77239D01*
G01X10060Y77249D01*
G01X10069Y77261D01*
G01X10077Y77274D01*
G01X10082Y77287D01*
G01X10085Y77302D01*
G01X10086Y77316D01*
G01X10085Y77331D01*
G01X10082Y77346D01*
G01X10077Y77359D01*
G01X10069Y77372D01*
G01X10060Y77384D01*
G01X10050Y77394D01*
G01X10038Y77403D01*
G01X10025Y77410D01*
G01X10011Y77415D01*
G01X9978Y77425D01*
G01X9946Y77437D01*
G01X9914Y77451D01*
G01X9884Y77467D01*
G01X9854Y77485D01*
G01X9826Y77505D01*
G01X9799Y77526D01*
G01X9773Y77549D01*
G01X9749Y77574D01*
G01X9726Y77600D01*
G01X9705Y77628D01*
G01X9686Y77656D01*
G01X9668Y77686D01*
G01X9653Y77717D01*
G01X9639Y77749D01*
G01X9628Y77781D01*
G01X9618Y77815D01*
G01X9611Y77848D01*
G01X9605Y77883D01*
G01X9602Y77917D01*
G01X9601Y77951D01*
G01X9602Y77986D01*
G01X9605Y78020D01*
G01X9611Y78055D01*
G01X9618Y78088D01*
G01X9628Y78122D01*
G01X9639Y78154D01*
G01X9653Y78186D01*
G01X9668Y78217D01*
G01X9686Y78247D01*
G01X9705Y78275D01*
G01X9726Y78303D01*
G01X9749Y78329D01*
G01X9773Y78354D01*
G01X9799Y78377D01*
G01X9826Y78398D01*
G01X9854Y78418D01*
G01X9884Y78436D01*
G01X9914Y78452D01*
G01X9946Y78466D01*
G01X9978Y78478D01*
G01X10011Y78488D01*
G01X10025Y78493D01*
G01X10038Y78500D01*
G01X10050Y78509D01*
G01X10060Y78519D01*
G01X10069Y78531D01*
G01X10077Y78544D01*
G01X10082Y78557D01*
G01X10085Y78572D01*
G01X10086Y78586D01*
G01X10085Y78601D01*
G01X10082Y78616D01*
G01X10077Y78629D01*
G01X10069Y78642D01*
G01X10060Y78654D01*
G01X10050Y78664D01*
G01X10038Y78673D01*
G01X10025Y78680D01*
G01X10011Y78685D01*
G01X9978Y78695D01*
G01X9946Y78707D01*
G01X9914Y78721D01*
G01X9884Y78737D01*
G01X9854Y78755D01*
G01X9826Y78775D01*
G01X9799Y78796D01*
G01X9773Y78819D01*
G01X9749Y78844D01*
G01X9726Y78870D01*
G01X9705Y78898D01*
G01X9686Y78926D01*
G01X9668Y78956D01*
G01X9653Y78987D01*
G01X9639Y79019D01*
G01X9628Y79051D01*
G01X9618Y79085D01*
G01X9611Y79118D01*
G01X9605Y79153D01*
G01X9602Y79187D01*
G01X9601Y79221D01*
G01X9602Y79256D01*
G01X9605Y79290D01*
G01X9611Y79325D01*
G01X9618Y79358D01*
G01X9628Y79392D01*
G01X9639Y79424D01*
G01X9653Y79456D01*
G01X9668Y79487D01*
G01X9686Y79517D01*
G01X9705Y79545D01*
G01X9726Y79573D01*
G01X9749Y79599D01*
G01X9773Y79624D01*
G01X9799Y79647D01*
G01X9826Y79668D01*
G01X9854Y79688D01*
G01X9884Y79706D01*
G01X9914Y79722D01*
G01X9946Y79736D01*
G01X9978Y79748D01*
G01X10011Y79758D01*
G01X10025Y79763D01*
G01X10038Y79770D01*
G01X10050Y79779D01*
G01X10060Y79789D01*
G01X10069Y79801D01*
G01X10077Y79814D01*
G01X10082Y79827D01*
G01X10085Y79842D01*
G01X10086Y79856D01*
G01X10085Y79871D01*
G01X10082Y79886D01*
G01X10077Y79899D01*
G01X10069Y79912D01*
G01X10060Y79924D01*
G01X10050Y79934D01*
G01X10038Y79943D01*
G01X10025Y79950D01*
G01X10011Y79955D01*
G01X9978Y79965D01*
G01X9946Y79977D01*
G01X9914Y79991D01*
G01X9884Y80007D01*
G01X9854Y80025D01*
G01X9826Y80045D01*
G01X9799Y80066D01*
G01X9773Y80089D01*
G01X9749Y80114D01*
G01X9726Y80140D01*
G01X9705Y80168D01*
G01X9686Y80196D01*
G01X9668Y80226D01*
G01X9653Y80257D01*
G01X9639Y80289D01*
G01X9628Y80321D01*
G01X9618Y80355D01*
G01X9611Y80388D01*
G01X9605Y80423D01*
G01X9602Y80457D01*
G01X9601Y80491D01*
G01X9602Y80525D01*
G01X9605Y80559D01*
G01X9610Y80592D01*
G01X9617Y80625D01*
G01X9626Y80657D01*
G01X9637Y80689D01*
G01X9650Y80720D01*
G01X9665Y80750D01*
G01X9681Y80779D01*
G01X9699Y80808D01*
G01X9719Y80835D01*
G01X9741Y80861D01*
G01X9764Y80885D01*
G01X9788Y80908D01*
G01X9814Y80930D01*
G01X9841Y80950D01*
G01X9870Y80968D01*
G01X9899Y80984D01*
G01X9929Y80999D01*
G01X9960Y81012D01*
G01X9992Y81023D01*
G01X10024Y81032D01*
G01X10057Y81039D01*
G01X10090Y81044D01*
G01X10124Y81047D01*
G01X10157Y81048D01*
G01X11355Y81048D01*
G01X11389Y81047D01*
G01X11423Y81044D01*
G01X11457Y81039D01*
G01X11490Y81031D01*
G01X11523Y81022D01*
G01X11538Y81019D01*
G01X11554Y81017D01*
G01X11568Y81018D01*
G01X11583Y81021D01*
G01X11596Y81027D01*
G01X11609Y81034D01*
G01X11620Y81042D01*
G01X11631Y81052D01*
G01X11639Y81064D01*
G01X11646Y81077D01*
G01X11651Y81090D01*
G01X11654Y81104D01*
G01X11656Y81119D01*
G01X11656Y81253D01*
G01X11657Y81285D01*
G01X11660Y81317D01*
G01X11666Y81349D01*
G01X11674Y81379D01*
G01X11684Y81410D01*
G01X11696Y81439D01*
G01X11710Y81468D01*
G01X11727Y81495D01*
G01X11745Y81521D01*
G01X11765Y81546D01*
G01X11786Y81570D01*
G01X12294Y82078D01*
G01X12324Y82104D01*
G01X12355Y82128D01*
G01X12389Y82150D01*
G01X12402Y82159D01*
G01X12414Y82170D01*
G01X12424Y82183D01*
G01X12432Y82197D01*
G01X12450Y82192D01*
G01X12470Y82190D01*
G01X12496Y82193D01*
G01X12533Y82202D01*
G01X12572Y82207D01*
G01X12611Y82209D01*
G01X12981Y82209D01*
G01X12995Y82210D01*
G01X13009Y82213D01*
G01X13023Y82218D01*
G01X13035Y82225D01*
G01X13047Y82233D01*
G01X13057Y82244D01*
G01X13066Y82255D01*
G01X13073Y82268D01*
G01X13078Y82282D01*
G01X13081Y82296D01*
G01X13082Y82310D01*
G01X13081Y82325D01*
G01X13078Y82340D01*
G01X13072Y82354D01*
G01X13065Y82367D01*
G01X13055Y82379D01*
G01X13044Y82389D01*
G01X13027Y82405D01*
G01X13011Y82421D01*
G01X12997Y82439D01*
G01X12984Y82458D01*
G01X12973Y82479D01*
G01X12964Y82500D01*
G01X12957Y82521D01*
G01X12952Y82544D01*
G01X12949Y82567D01*
G01X12948Y82589D01*
G01X12948Y83001D01*
G01X13441Y83001D01*
G01X13441Y82310D01*
G01X13442Y82296D01*
G01X13445Y82282D01*
G01X13450Y82268D01*
G01X13457Y82255D01*
G01X13466Y82244D01*
G01X13476Y82233D01*
G01X13488Y82225D01*
G01X13501Y82218D01*
G01X13514Y82213D01*
G01X13528Y82210D01*
G01X13543Y82209D01*
G01X14067Y82209D01*
G01X14081Y82210D01*
G01X14095Y82213D01*
G01X14109Y82218D01*
G01X14121Y82225D01*
G01X14133Y82233D01*
G01X14143Y82244D01*
G01X14152Y82255D01*
G01X14159Y82268D01*
G01X14164Y82282D01*
G01X14167Y82296D01*
G01X14168Y82310D01*
G01X14168Y83001D01*
G01X14661Y83001D01*
G01X14661Y82589D01*
G01X14660Y82567D01*
G01X14657Y82544D01*
G01X14652Y82521D01*
G01X14645Y82500D01*
G01X14636Y82479D01*
G01X14625Y82458D01*
G01X14613Y82439D01*
G01X14598Y82421D01*
G01X14582Y82405D01*
G01X14565Y82389D01*
G01X14554Y82379D01*
G01X14545Y82367D01*
G01X14537Y82354D01*
G01X14532Y82340D01*
G01X14528Y82325D01*
G01X14527Y82310D01*
G01X14528Y82296D01*
G01X14531Y82282D01*
G01X14536Y82268D01*
G01X14543Y82255D01*
G01X14552Y82244D01*
G01X14562Y82233D01*
G01X14574Y82225D01*
G01X14587Y82218D01*
G01X14600Y82213D01*
G01X14614Y82210D01*
G01X14629Y82209D01*
G01X16180Y82209D01*
G01X16195Y82210D01*
G01X16209Y82213D01*
G01X16223Y82218D01*
G01X16235Y82225D01*
G01X16247Y82233D01*
G01X16257Y82244D01*
G01X16266Y82255D01*
G01X16273Y82268D01*
G01X16278Y82282D01*
G01X16281Y82296D01*
G01X16282Y82310D01*
G01X16281Y82325D01*
G01X16278Y82340D01*
G01X16272Y82354D01*
G01X16265Y82367D01*
G01X16255Y82379D01*
G01X16244Y82389D01*
G01X16227Y82405D01*
G01X16211Y82421D01*
G01X16197Y82439D01*
G01X16184Y82458D01*
G01X16173Y82479D01*
G01X16164Y82500D01*
G01X16157Y82521D01*
G01X16152Y82544D01*
G01X16149Y82567D01*
G01X16148Y82589D01*
G01X16148Y84490D01*
G01X16149Y84513D01*
G01X16152Y84537D01*
G01X16158Y84560D01*
G01X16165Y84582D01*
G01X16175Y84604D01*
G01X16186Y84625D01*
G01X16200Y84644D01*
G01X16215Y84662D01*
G01X16232Y84679D01*
G01X16250Y84694D01*
G01X16270Y84708D01*
G01X16290Y84719D01*
G01X16312Y84729D01*
G01X16334Y84736D01*
G01X16357Y84742D01*
G01X16381Y84745D01*
G01X16405Y84746D01*
G01X17605Y84746D01*
G01X17628Y84745D01*
G01X17652Y84742D01*
G01X17675Y84736D01*
G01X17697Y84729D01*
G01X17719Y84719D01*
G01X17740Y84708D01*
G01X17759Y84694D01*
G01X17777Y84679D01*
G01X17794Y84662D01*
G01X17809Y84644D01*
G01X17823Y84625D01*
G01X17834Y84604D01*
G01X17844Y84582D01*
G01X17851Y84560D01*
G01X17857Y84537D01*
G01X17860Y84513D01*
G01X17861Y84490D01*
G01X17861Y82589D01*
G01X17860Y82567D01*
G01X17857Y82544D01*
G01X17852Y82521D01*
G01X17845Y82500D01*
G01X17836Y82479D01*
G01X17825Y82458D01*
G01X17812Y82439D01*
G01X17798Y82421D01*
G01X17782Y82405D01*
G01X17765Y82389D01*
G01X17754Y82379D01*
G01X17745Y82367D01*
G01X17737Y82354D01*
G01X17732Y82340D01*
G01X17728Y82325D01*
G01X17727Y82310D01*
G01X17728Y82296D01*
G01X17731Y82282D01*
G01X17736Y82268D01*
G01X17743Y82255D01*
G01X17752Y82244D01*
G01X17762Y82233D01*
G01X17774Y82225D01*
G01X17787Y82218D01*
G01X17800Y82213D01*
G01X17814Y82210D01*
G01X17829Y82209D01*
G01X18987Y82209D01*
G01X19003Y82210D01*
G01X19019Y82214D01*
G01X19033Y82220D01*
G01X19047Y82228D01*
G01X19059Y82238D01*
G01X20977Y84156D01*
G01X20988Y84169D01*
G01X20997Y84184D01*
G01X21003Y84201D01*
G01X21017Y84245D01*
G01X21032Y84289D01*
G01X21050Y84333D01*
G01X21069Y84375D01*
G01X21090Y84417D01*
G01X21113Y84458D01*
G01X21138Y84497D01*
G01X21165Y84536D01*
G01X21193Y84573D01*
G01X21224Y84609D01*
G01X21255Y84643D01*
G01X21288Y84676D01*
G01X21323Y84708D01*
G01X21359Y84737D01*
G01X21396Y84766D01*
G01X21434Y84792D01*
G01X21474Y84817D01*
G01X21515Y84840D01*
G01X21556Y84861D01*
G01X21599Y84881D01*
G01X21642Y84898D01*
G01X21687Y84914D01*
G01X21731Y84927D01*
G01X21777Y84938D01*
G01X21823Y84948D01*
G01X21869Y84955D01*
G01X21915Y84960D01*
G01X21962Y84963D01*
G01X22009Y84964D01*
G01X22058Y84963D01*
G01X22108Y84960D01*
G01X22157Y84954D01*
G01X22206Y84946D01*
G01X22255Y84935D01*
G01X22303Y84922D01*
G01X22317Y84919D01*
G01X22332Y84918D01*
G01X22348Y84919D01*
G01X22363Y84923D01*
G01X22378Y84929D01*
G01X22391Y84937D01*
G01X22404Y84948D01*
G01X22835Y85380D01*
G01X22859Y85401D01*
G01X22884Y85421D01*
G01X22910Y85440D01*
G01X22937Y85456D01*
G01X22966Y85470D01*
G01X22995Y85482D01*
G01X23026Y85492D01*
G01X23057Y85500D01*
G01X23088Y85506D01*
G01X23120Y85509D01*
G01X23152Y85511D01*
G01X28948Y85511D01*
G01X28963Y85512D01*
G01X28979Y85515D01*
G01X28993Y85521D01*
G01X29007Y85530D01*
G01X29019Y85540D01*
G01X29029Y85552D01*
G01X29037Y85565D01*
G01X29066Y85616D01*
G01X29097Y85665D01*
G01X29104Y85678D01*
G01X29109Y85692D01*
G01X29113Y85707D01*
G01X29114Y85721D01*
G01X29113Y85736D01*
G01X29110Y85750D01*
G01X29104Y85764D01*
G01X29098Y85776D01*
G01X29089Y85788D01*
G01X29079Y85798D01*
G01X29067Y85807D01*
G01X29054Y85814D01*
G01X29041Y85819D01*
G01X29027Y85822D01*
G01X29012Y85823D01*
G37*

%LPC*%
G36*
G01X9071Y84746D02*
G01X7871Y84746D01*
G01X7847Y84745D01*
G01X7823Y84742D01*
G01X7800Y84736D01*
G01X7778Y84729D01*
G01X7756Y84719D01*
G01X7736Y84708D01*
G01X7716Y84694D01*
G01X7698Y84679D01*
G01X7681Y84662D01*
G01X7666Y84644D01*
G01X7652Y84625D01*
G01X7641Y84604D01*
G01X7631Y84582D01*
G01X7624Y84560D01*
G01X7618Y84537D01*
G01X7615Y84513D01*
G01X7614Y84490D01*
G01X7614Y84321D01*
G01X7613Y84305D01*
G01X7609Y84289D01*
G01X7603Y84275D01*
G01X7595Y84261D01*
G01X7584Y84249D01*
G01X7572Y84239D01*
G01X7559Y84230D01*
G01X7544Y84224D01*
G01X7529Y84220D01*
G01X7495Y84214D01*
G01X7462Y84205D01*
G01X7429Y84195D01*
G01X7397Y84182D01*
G01X7366Y84167D01*
G01X7336Y84151D01*
G01X7307Y84133D01*
G01X7279Y84113D01*
G01X7252Y84091D01*
G01X7227Y84068D01*
G01X7203Y84043D01*
G01X7181Y84017D01*
G01X7160Y83989D01*
G01X7141Y83960D01*
G01X7124Y83931D01*
G01X7109Y83900D01*
G01X7096Y83868D01*
G01X7084Y83836D01*
G01X7075Y83803D01*
G01X7068Y83769D01*
G01X7062Y83735D01*
G01X7059Y83701D01*
G01X7058Y83666D01*
G01X7059Y83632D01*
G01X7062Y83598D01*
G01X7068Y83564D01*
G01X7075Y83530D01*
G01X7084Y83497D01*
G01X7096Y83465D01*
G01X7109Y83433D01*
G01X7124Y83402D01*
G01X7141Y83373D01*
G01X7160Y83344D01*
G01X7181Y83316D01*
G01X7203Y83290D01*
G01X7227Y83265D01*
G01X7252Y83242D01*
G01X7279Y83220D01*
G01X7307Y83200D01*
G01X7336Y83182D01*
G01X7366Y83166D01*
G01X7397Y83151D01*
G01X7429Y83138D01*
G01X7462Y83128D01*
G01X7495Y83119D01*
G01X7529Y83113D01*
G01X7544Y83109D01*
G01X7559Y83103D01*
G01X7572Y83094D01*
G01X7584Y83084D01*
G01X7595Y83072D01*
G01X7603Y83058D01*
G01X7609Y83044D01*
G01X7613Y83028D01*
G01X7614Y83012D01*
G01X7614Y82589D01*
G01X7615Y82566D01*
G01X7618Y82542D01*
G01X7624Y82519D01*
G01X7631Y82497D01*
G01X7641Y82475D01*
G01X7652Y82454D01*
G01X7666Y82435D01*
G01X7681Y82417D01*
G01X7698Y82400D01*
G01X7716Y82385D01*
G01X7736Y82371D01*
G01X7756Y82360D01*
G01X7778Y82350D01*
G01X7800Y82343D01*
G01X7823Y82337D01*
G01X7847Y82334D01*
G01X7871Y82333D01*
G01X9071Y82333D01*
G01X9094Y82334D01*
G01X9118Y82337D01*
G01X9141Y82343D01*
G01X9163Y82350D01*
G01X9185Y82360D01*
G01X9206Y82371D01*
G01X9225Y82385D01*
G01X9243Y82400D01*
G01X9260Y82417D01*
G01X9275Y82435D01*
G01X9289Y82454D01*
G01X9300Y82475D01*
G01X9310Y82497D01*
G01X9317Y82519D01*
G01X9323Y82542D01*
G01X9326Y82566D01*
G01X9327Y82589D01*
G01X9327Y84490D01*
G01X9326Y84513D01*
G01X9323Y84537D01*
G01X9317Y84560D01*
G01X9310Y84582D01*
G01X9300Y84604D01*
G01X9289Y84625D01*
G01X9275Y84644D01*
G01X9260Y84662D01*
G01X9243Y84679D01*
G01X9225Y84694D01*
G01X9206Y84708D01*
G01X9185Y84719D01*
G01X9163Y84729D01*
G01X9141Y84736D01*
G01X9118Y84742D01*
G01X9094Y84745D01*
G01X9071Y84746D01*
G37*
G36*
G01X18753Y78359D02*
G01X18707Y78360D01*
G01X18660Y78359D01*
G01X18613Y78356D01*
G01X18566Y78351D01*
G01X18520Y78344D01*
G01X18474Y78334D01*
G01X18429Y78323D01*
G01X18384Y78309D01*
G01X18340Y78294D01*
G01X18296Y78276D01*
G01X18254Y78257D01*
G01X18212Y78236D01*
G01X18171Y78213D01*
G01X18131Y78188D01*
G01X18093Y78161D01*
G01X18056Y78133D01*
G01X18020Y78103D01*
G01X17985Y78071D01*
G01X17952Y78038D01*
G01X17920Y78003D01*
G01X17890Y77967D01*
G01X17862Y77930D01*
G01X17835Y77892D01*
G01X17810Y77852D01*
G01X17787Y77811D01*
G01X17766Y77769D01*
G01X17747Y77727D01*
G01X17729Y77683D01*
G01X17714Y77639D01*
G01X17700Y77594D01*
G01X17689Y77549D01*
G01X17679Y77503D01*
G01X17672Y77457D01*
G01X17667Y77410D01*
G01X17664Y77363D01*
G01X17663Y77316D01*
G01X17664Y77270D01*
G01X17667Y77223D01*
G01X17672Y77176D01*
G01X17679Y77130D01*
G01X17689Y77084D01*
G01X17700Y77039D01*
G01X17714Y76994D01*
G01X17729Y76950D01*
G01X17747Y76906D01*
G01X17766Y76864D01*
G01X17787Y76822D01*
G01X17810Y76781D01*
G01X17835Y76741D01*
G01X17862Y76703D01*
G01X17890Y76666D01*
G01X17920Y76630D01*
G01X17952Y76595D01*
G01X17985Y76562D01*
G01X18020Y76530D01*
G01X18056Y76500D01*
G01X18093Y76472D01*
G01X18131Y76445D01*
G01X18171Y76420D01*
G01X18212Y76397D01*
G01X18254Y76376D01*
G01X18296Y76357D01*
G01X18340Y76339D01*
G01X18384Y76324D01*
G01X18429Y76310D01*
G01X18474Y76299D01*
G01X18520Y76289D01*
G01X18566Y76282D01*
G01X18613Y76277D01*
G01X18660Y76274D01*
G01X18707Y76273D01*
G01X18753Y76274D01*
G01X18800Y76277D01*
G01X18847Y76282D01*
G01X18893Y76289D01*
G01X18939Y76299D01*
G01X18984Y76310D01*
G01X19029Y76324D01*
G01X19073Y76339D01*
G01X19117Y76357D01*
G01X19160Y76376D01*
G01X19201Y76397D01*
G01X19242Y76420D01*
G01X19282Y76445D01*
G01X19320Y76472D01*
G01X19357Y76500D01*
G01X19393Y76530D01*
G01X19428Y76562D01*
G01X19461Y76595D01*
G01X19493Y76630D01*
G01X19523Y76666D01*
G01X19551Y76703D01*
G01X19578Y76741D01*
G01X19603Y76781D01*
G01X19626Y76822D01*
G01X19647Y76864D01*
G01X19667Y76906D01*
G01X19684Y76950D01*
G01X19699Y76994D01*
G01X19713Y77039D01*
G01X19724Y77084D01*
G01X19734Y77130D01*
G01X19741Y77176D01*
G01X19746Y77223D01*
G01X19749Y77270D01*
G01X19751Y77316D01*
G01X19749Y77363D01*
G01X19746Y77410D01*
G01X19741Y77457D01*
G01X19734Y77503D01*
G01X19724Y77549D01*
G01X19713Y77594D01*
G01X19699Y77639D01*
G01X19684Y77683D01*
G01X19667Y77727D01*
G01X19647Y77769D01*
G01X19626Y77811D01*
G01X19603Y77852D01*
G01X19578Y77892D01*
G01X19551Y77930D01*
G01X19523Y77967D01*
G01X19493Y78003D01*
G01X19461Y78038D01*
G01X19428Y78071D01*
G01X19393Y78103D01*
G01X19357Y78133D01*
G01X19320Y78161D01*
G01X19282Y78188D01*
G01X19242Y78213D01*
G01X19201Y78236D01*
G01X19160Y78257D01*
G01X19117Y78276D01*
G01X19073Y78294D01*
G01X19029Y78309D01*
G01X18984Y78323D01*
G01X18939Y78334D01*
G01X18893Y78344D01*
G01X18847Y78351D01*
G01X18800Y78356D01*
G01X18753Y78359D01*
G37*
G36*
G01X18753Y75819D02*
G01X18707Y75820D01*
G01X18660Y75819D01*
G01X18613Y75816D01*
G01X18566Y75811D01*
G01X18520Y75804D01*
G01X18474Y75794D01*
G01X18429Y75783D01*
G01X18384Y75769D01*
G01X18340Y75754D01*
G01X18296Y75736D01*
G01X18254Y75717D01*
G01X18212Y75696D01*
G01X18171Y75673D01*
G01X18131Y75648D01*
G01X18093Y75621D01*
G01X18056Y75593D01*
G01X18020Y75563D01*
G01X17985Y75531D01*
G01X17952Y75498D01*
G01X17920Y75463D01*
G01X17890Y75427D01*
G01X17862Y75390D01*
G01X17835Y75352D01*
G01X17810Y75312D01*
G01X17787Y75271D01*
G01X17766Y75229D01*
G01X17747Y75187D01*
G01X17729Y75143D01*
G01X17714Y75099D01*
G01X17700Y75054D01*
G01X17689Y75009D01*
G01X17679Y74963D01*
G01X17672Y74917D01*
G01X17667Y74870D01*
G01X17664Y74823D01*
G01X17663Y74776D01*
G01X17664Y74730D01*
G01X17667Y74683D01*
G01X17672Y74636D01*
G01X17679Y74590D01*
G01X17689Y74544D01*
G01X17700Y74499D01*
G01X17714Y74454D01*
G01X17729Y74410D01*
G01X17747Y74366D01*
G01X17766Y74324D01*
G01X17787Y74282D01*
G01X17810Y74241D01*
G01X17835Y74201D01*
G01X17862Y74163D01*
G01X17890Y74126D01*
G01X17920Y74090D01*
G01X17952Y74055D01*
G01X17985Y74022D01*
G01X18020Y73990D01*
G01X18056Y73960D01*
G01X18093Y73932D01*
G01X18131Y73905D01*
G01X18171Y73880D01*
G01X18212Y73857D01*
G01X18254Y73836D01*
G01X18296Y73817D01*
G01X18340Y73799D01*
G01X18384Y73784D01*
G01X18429Y73770D01*
G01X18474Y73759D01*
G01X18520Y73749D01*
G01X18566Y73742D01*
G01X18613Y73737D01*
G01X18660Y73734D01*
G01X18707Y73733D01*
G01X18753Y73734D01*
G01X18800Y73737D01*
G01X18847Y73742D01*
G01X18893Y73749D01*
G01X18939Y73759D01*
G01X18984Y73770D01*
G01X19029Y73784D01*
G01X19073Y73799D01*
G01X19117Y73817D01*
G01X19160Y73836D01*
G01X19201Y73857D01*
G01X19242Y73880D01*
G01X19282Y73905D01*
G01X19320Y73932D01*
G01X19357Y73960D01*
G01X19393Y73990D01*
G01X19428Y74022D01*
G01X19461Y74055D01*
G01X19493Y74090D01*
G01X19523Y74126D01*
G01X19551Y74163D01*
G01X19578Y74201D01*
G01X19603Y74241D01*
G01X19626Y74282D01*
G01X19647Y74324D01*
G01X19667Y74366D01*
G01X19684Y74410D01*
G01X19699Y74454D01*
G01X19713Y74499D01*
G01X19724Y74544D01*
G01X19734Y74590D01*
G01X19741Y74636D01*
G01X19746Y74683D01*
G01X19749Y74730D01*
G01X19751Y74776D01*
G01X19749Y74823D01*
G01X19746Y74870D01*
G01X19741Y74917D01*
G01X19734Y74963D01*
G01X19724Y75009D01*
G01X19713Y75054D01*
G01X19699Y75099D01*
G01X19684Y75143D01*
G01X19667Y75187D01*
G01X19647Y75229D01*
G01X19626Y75271D01*
G01X19603Y75312D01*
G01X19578Y75352D01*
G01X19551Y75390D01*
G01X19523Y75427D01*
G01X19493Y75463D01*
G01X19461Y75498D01*
G01X19428Y75531D01*
G01X19393Y75563D01*
G01X19357Y75593D01*
G01X19320Y75621D01*
G01X19282Y75648D01*
G01X19242Y75673D01*
G01X19201Y75696D01*
G01X19160Y75717D01*
G01X19117Y75736D01*
G01X19073Y75754D01*
G01X19029Y75769D01*
G01X18984Y75783D01*
G01X18939Y75794D01*
G01X18893Y75804D01*
G01X18847Y75811D01*
G01X18800Y75816D01*
G01X18753Y75819D01*
G37*
G36*
G01X16954Y78360D02*
G01X15379Y78360D01*
G01X15356Y78359D01*
G01X15332Y78356D01*
G01X15309Y78351D01*
G01X15287Y78343D01*
G01X15265Y78334D01*
G01X15244Y78322D01*
G01X15225Y78309D01*
G01X15206Y78293D01*
G01X15190Y78277D01*
G01X15174Y78259D01*
G01X15161Y78239D01*
G01X15150Y78218D01*
G01X15140Y78197D01*
G01X15132Y78174D01*
G01X15127Y78151D01*
G01X15124Y78128D01*
G01X15123Y78104D01*
G01X15123Y76529D01*
G01X15124Y76505D01*
G01X15127Y76482D01*
G01X15132Y76459D01*
G01X15140Y76436D01*
G01X15150Y76415D01*
G01X15161Y76394D01*
G01X15174Y76374D01*
G01X15190Y76356D01*
G01X15206Y76340D01*
G01X15225Y76324D01*
G01X15244Y76311D01*
G01X15265Y76299D01*
G01X15287Y76290D01*
G01X15309Y76282D01*
G01X15332Y76277D01*
G01X15356Y76274D01*
G01X15379Y76273D01*
G01X16954Y76273D01*
G01X16978Y76274D01*
G01X17001Y76277D01*
G01X17024Y76282D01*
G01X17047Y76290D01*
G01X17068Y76299D01*
G01X17089Y76311D01*
G01X17109Y76324D01*
G01X17127Y76340D01*
G01X17144Y76356D01*
G01X17159Y76374D01*
G01X17172Y76394D01*
G01X17184Y76415D01*
G01X17193Y76436D01*
G01X17201Y76459D01*
G01X17206Y76482D01*
G01X17209Y76505D01*
G01X17211Y76529D01*
G01X17211Y78104D01*
G01X17209Y78128D01*
G01X17206Y78151D01*
G01X17201Y78174D01*
G01X17193Y78197D01*
G01X17184Y78218D01*
G01X17172Y78239D01*
G01X17159Y78259D01*
G01X17144Y78277D01*
G01X17127Y78293D01*
G01X17109Y78309D01*
G01X17089Y78322D01*
G01X17068Y78334D01*
G01X17047Y78343D01*
G01X17024Y78351D01*
G01X17001Y78356D01*
G01X16978Y78359D01*
G01X16954Y78360D01*
G37*
G36*
G01X16213Y75819D02*
G01X16167Y75820D01*
G01X16120Y75819D01*
G01X16073Y75816D01*
G01X16026Y75811D01*
G01X15980Y75804D01*
G01X15934Y75794D01*
G01X15889Y75783D01*
G01X15844Y75769D01*
G01X15800Y75754D01*
G01X15756Y75736D01*
G01X15714Y75717D01*
G01X15672Y75696D01*
G01X15631Y75673D01*
G01X15591Y75648D01*
G01X15553Y75621D01*
G01X15516Y75593D01*
G01X15480Y75563D01*
G01X15445Y75531D01*
G01X15412Y75498D01*
G01X15380Y75463D01*
G01X15350Y75427D01*
G01X15322Y75390D01*
G01X15295Y75352D01*
G01X15270Y75312D01*
G01X15247Y75271D01*
G01X15226Y75229D01*
G01X15207Y75187D01*
G01X15189Y75143D01*
G01X15174Y75099D01*
G01X15160Y75054D01*
G01X15149Y75009D01*
G01X15139Y74963D01*
G01X15132Y74917D01*
G01X15127Y74870D01*
G01X15124Y74823D01*
G01X15123Y74776D01*
G01X15124Y74730D01*
G01X15127Y74683D01*
G01X15132Y74636D01*
G01X15139Y74590D01*
G01X15149Y74544D01*
G01X15160Y74499D01*
G01X15174Y74454D01*
G01X15189Y74410D01*
G01X15207Y74366D01*
G01X15226Y74324D01*
G01X15247Y74282D01*
G01X15270Y74241D01*
G01X15295Y74201D01*
G01X15322Y74163D01*
G01X15350Y74126D01*
G01X15380Y74090D01*
G01X15412Y74055D01*
G01X15445Y74022D01*
G01X15480Y73990D01*
G01X15516Y73960D01*
G01X15553Y73932D01*
G01X15591Y73905D01*
G01X15631Y73880D01*
G01X15672Y73857D01*
G01X15714Y73836D01*
G01X15756Y73817D01*
G01X15800Y73799D01*
G01X15844Y73784D01*
G01X15889Y73770D01*
G01X15934Y73759D01*
G01X15980Y73749D01*
G01X16026Y73742D01*
G01X16073Y73737D01*
G01X16120Y73734D01*
G01X16167Y73733D01*
G01X16213Y73734D01*
G01X16260Y73737D01*
G01X16307Y73742D01*
G01X16353Y73749D01*
G01X16399Y73759D01*
G01X16444Y73770D01*
G01X16489Y73784D01*
G01X16533Y73799D01*
G01X16577Y73817D01*
G01X16620Y73836D01*
G01X16661Y73857D01*
G01X16702Y73880D01*
G01X16742Y73905D01*
G01X16780Y73932D01*
G01X16817Y73960D01*
G01X16853Y73990D01*
G01X16888Y74022D01*
G01X16921Y74055D01*
G01X16953Y74090D01*
G01X16983Y74126D01*
G01X17011Y74163D01*
G01X17038Y74201D01*
G01X17063Y74241D01*
G01X17086Y74282D01*
G01X17107Y74324D01*
G01X17127Y74366D01*
G01X17144Y74410D01*
G01X17159Y74454D01*
G01X17173Y74499D01*
G01X17184Y74544D01*
G01X17194Y74590D01*
G01X17201Y74636D01*
G01X17206Y74683D01*
G01X17209Y74730D01*
G01X17211Y74776D01*
G01X17209Y74823D01*
G01X17206Y74870D01*
G01X17201Y74917D01*
G01X17194Y74963D01*
G01X17184Y75009D01*
G01X17173Y75054D01*
G01X17159Y75099D01*
G01X17144Y75143D01*
G01X17127Y75187D01*
G01X17107Y75229D01*
G01X17086Y75271D01*
G01X17063Y75312D01*
G01X17038Y75352D01*
G01X17011Y75390D01*
G01X16983Y75427D01*
G01X16953Y75463D01*
G01X16921Y75498D01*
G01X16888Y75531D01*
G01X16853Y75563D01*
G01X16817Y75593D01*
G01X16780Y75621D01*
G01X16742Y75648D01*
G01X16702Y75673D01*
G01X16661Y75696D01*
G01X16620Y75717D01*
G01X16577Y75736D01*
G01X16533Y75754D01*
G01X16489Y75769D01*
G01X16444Y75783D01*
G01X16399Y75794D01*
G01X16353Y75804D01*
G01X16307Y75811D01*
G01X16260Y75816D01*
G01X16213Y75819D01*
G37*
G36*
G01X4300Y71388D02*
G01X4273Y71388D01*
G01X4273Y70785D01*
G01X5365Y70785D01*
G01X5338Y70837D01*
G01X5308Y70887D01*
G01X5298Y70874D01*
G01X5286Y70863D01*
G01X5272Y70854D01*
G01X5257Y70847D01*
G01X5241Y70843D01*
G01X5224Y70842D01*
G01X4401Y70842D01*
G01X4387Y70843D01*
G01X4373Y70846D01*
G01X4359Y70851D01*
G01X4346Y70858D01*
G01X4335Y70867D01*
G01X4325Y70877D01*
G01X4316Y70888D01*
G01X4309Y70901D01*
G01X4304Y70915D01*
G01X4301Y70929D01*
G01X4300Y70943D01*
G01X4300Y71388D01*
G37*
G36*
G01X2146Y69908D02*
G01X1054Y69908D01*
G01X1075Y69866D01*
G01X1099Y69825D01*
G01X1124Y69786D01*
G01X1151Y69747D01*
G01X1180Y69710D01*
G01X1210Y69675D01*
G01X1243Y69640D01*
G01X1276Y69608D01*
G01X1311Y69577D01*
G01X1348Y69547D01*
G01X1386Y69520D01*
G01X1425Y69494D01*
G01X1466Y69470D01*
G01X1507Y69448D01*
G01X1549Y69427D01*
G01X1593Y69409D01*
G01X1637Y69393D01*
G01X1682Y69379D01*
G01X1727Y69367D01*
G01X1773Y69357D01*
G01X1819Y69350D01*
G01X1866Y69344D01*
G01X1913Y69341D01*
G01X1960Y69340D01*
G01X2194Y69340D01*
G01X2182Y69348D01*
G01X2172Y69359D01*
G01X2163Y69370D01*
G01X2156Y69383D01*
G01X2150Y69397D01*
G01X2147Y69412D01*
G01X2146Y69426D01*
G01X2146Y69908D01*
G37*
G36*
G01X2146Y71353D02*
G01X1960Y71353D01*
G01X1913Y71352D01*
G01X1866Y71349D01*
G01X1819Y71343D01*
G01X1773Y71335D01*
G01X1727Y71326D01*
G01X1682Y71314D01*
G01X1637Y71300D01*
G01X1593Y71284D01*
G01X1549Y71265D01*
G01X1507Y71245D01*
G01X1466Y71223D01*
G01X1425Y71199D01*
G01X1386Y71173D01*
G01X1348Y71146D01*
G01X1311Y71116D01*
G01X1276Y71085D01*
G01X1242Y71052D01*
G01X1210Y71018D01*
G01X1180Y70983D01*
G01X1151Y70945D01*
G01X1124Y70907D01*
G01X1099Y70867D01*
G01X1075Y70827D01*
G01X1054Y70785D01*
G01X2146Y70785D01*
G01X2146Y71353D01*
G37*
G36*
G01X2146Y82753D02*
G01X1960Y82753D01*
G01X1913Y82752D01*
G01X1866Y82749D01*
G01X1819Y82743D01*
G01X1773Y82735D01*
G01X1727Y82726D01*
G01X1682Y82714D01*
G01X1637Y82700D01*
G01X1593Y82684D01*
G01X1549Y82665D01*
G01X1507Y82645D01*
G01X1465Y82623D01*
G01X1425Y82599D01*
G01X1386Y82573D01*
G01X1348Y82546D01*
G01X1311Y82516D01*
G01X1276Y82485D01*
G01X1242Y82452D01*
G01X1210Y82418D01*
G01X1180Y82383D01*
G01X1151Y82345D01*
G01X1124Y82307D01*
G01X1098Y82267D01*
G01X1075Y82227D01*
G01X1054Y82185D01*
G01X2146Y82185D01*
G01X2146Y82753D01*
G37*
G36*
G01X4459Y82753D02*
G01X4273Y82753D01*
G01X4273Y82185D01*
G01X5365Y82185D01*
G01X5343Y82227D01*
G01X5320Y82267D01*
G01X5295Y82307D01*
G01X5268Y82345D01*
G01X5239Y82383D01*
G01X5208Y82418D01*
G01X5176Y82452D01*
G01X5142Y82485D01*
G01X5107Y82516D01*
G01X5071Y82546D01*
G01X5033Y82573D01*
G01X4994Y82599D01*
G01X4953Y82623D01*
G01X4912Y82645D01*
G01X4869Y82665D01*
G01X4826Y82684D01*
G01X4782Y82700D01*
G01X4737Y82714D01*
G01X4692Y82726D01*
G01X4646Y82735D01*
G01X4599Y82743D01*
G01X4553Y82749D01*
G01X4506Y82752D01*
G01X4459Y82753D01*
G37*
G36*
G01X2146Y81308D02*
G01X1054Y81308D01*
G01X1075Y81266D01*
G01X1098Y81225D01*
G01X1124Y81186D01*
G01X1151Y81147D01*
G01X1180Y81110D01*
G01X1210Y81075D01*
G01X1242Y81040D01*
G01X1276Y81008D01*
G01X1311Y80977D01*
G01X1348Y80947D01*
G01X1386Y80919D01*
G01X1425Y80894D01*
G01X1465Y80870D01*
G01X1507Y80847D01*
G01X1549Y80827D01*
G01X1593Y80809D01*
G01X1637Y80793D01*
G01X1682Y80779D01*
G01X1727Y80767D01*
G01X1773Y80757D01*
G01X1819Y80750D01*
G01X1866Y80744D01*
G01X1913Y80741D01*
G01X1960Y80740D01*
G01X2146Y80740D01*
G01X2146Y81308D01*
G37*
G36*
G01X12527Y83001D02*
G01X12034Y83001D01*
G01X12034Y82333D01*
G01X12271Y82333D01*
G01X12295Y82334D01*
G01X12319Y82338D01*
G01X12338Y82339D01*
G01X12358Y82338D01*
G01X12376Y82332D01*
G01X12383Y82345D01*
G01X12391Y82357D01*
G01X12402Y82367D01*
G01X12413Y82376D01*
G01X12432Y82390D01*
G01X12449Y82405D01*
G01X12464Y82421D01*
G01X12479Y82439D01*
G01X12491Y82459D01*
G01X12502Y82479D01*
G01X12511Y82500D01*
G01X12518Y82522D01*
G01X12523Y82544D01*
G01X12526Y82567D01*
G01X12527Y82589D01*
G01X12527Y83001D01*
G37*
G36*
G01X11307Y69506D02*
G01X11071Y69506D01*
G01X11047Y69505D01*
G01X11023Y69502D01*
G01X11000Y69496D01*
G01X10978Y69489D01*
G01X10956Y69479D01*
G01X10935Y69468D01*
G01X10916Y69454D01*
G01X10898Y69439D01*
G01X10881Y69422D01*
G01X10866Y69404D01*
G01X10852Y69385D01*
G01X10841Y69364D01*
G01X10831Y69342D01*
G01X10824Y69320D01*
G01X10818Y69297D01*
G01X10815Y69273D01*
G01X10814Y69250D01*
G01X10814Y68838D01*
G01X11307Y68838D01*
G01X11307Y69506D01*
G37*
G36*
G01X13568Y69506D02*
G01X13332Y69506D01*
G01X13308Y69505D01*
G01X13284Y69502D01*
G01X13261Y69496D01*
G01X13239Y69489D01*
G01X13217Y69479D01*
G01X13197Y69468D01*
G01X13177Y69454D01*
G01X13159Y69439D01*
G01X13142Y69422D01*
G01X13127Y69404D01*
G01X13113Y69385D01*
G01X13102Y69364D01*
G01X13092Y69342D01*
G01X13085Y69320D01*
G01X13079Y69297D01*
G01X13076Y69273D01*
G01X13075Y69250D01*
G01X13075Y68838D01*
G01X13568Y68838D01*
G01X13568Y69506D01*
G37*
G36*
G01X12271Y84746D02*
G01X12034Y84746D01*
G01X12034Y84078D01*
G01X12527Y84078D01*
G01X12527Y84490D01*
G01X12526Y84513D01*
G01X12523Y84537D01*
G01X12517Y84560D01*
G01X12510Y84582D01*
G01X12500Y84604D01*
G01X12489Y84625D01*
G01X12475Y84644D01*
G01X12460Y84662D01*
G01X12443Y84679D01*
G01X12425Y84694D01*
G01X12406Y84708D01*
G01X12385Y84719D01*
G01X12363Y84729D01*
G01X12341Y84736D01*
G01X12318Y84742D01*
G01X12294Y84745D01*
G01X12271Y84746D01*
G37*
G36*
G01X14405Y84746D02*
G01X14168Y84746D01*
G01X14168Y84078D01*
G01X14661Y84078D01*
G01X14661Y84490D01*
G01X14660Y84513D01*
G01X14657Y84537D01*
G01X14651Y84560D01*
G01X14644Y84582D01*
G01X14634Y84604D01*
G01X14623Y84625D01*
G01X14609Y84644D01*
G01X14594Y84662D01*
G01X14577Y84679D01*
G01X14559Y84694D01*
G01X14540Y84708D01*
G01X14519Y84719D01*
G01X14497Y84729D01*
G01X14475Y84736D01*
G01X14452Y84742D01*
G01X14428Y84745D01*
G01X14405Y84746D01*
G37*
G36*
G01X12271Y69506D02*
G01X12034Y69506D01*
G01X12034Y68838D01*
G01X12527Y68838D01*
G01X12527Y69250D01*
G01X12526Y69273D01*
G01X12523Y69297D01*
G01X12517Y69320D01*
G01X12510Y69342D01*
G01X12500Y69364D01*
G01X12489Y69385D01*
G01X12475Y69404D01*
G01X12460Y69422D01*
G01X12443Y69439D01*
G01X12425Y69454D01*
G01X12406Y69468D01*
G01X12385Y69479D01*
G01X12363Y69489D01*
G01X12341Y69496D01*
G01X12318Y69502D01*
G01X12294Y69505D01*
G01X12271Y69506D01*
G37*
G36*
G01X13441Y84746D02*
G01X13205Y84746D01*
G01X13181Y84745D01*
G01X13158Y84742D01*
G01X13134Y84736D01*
G01X13112Y84729D01*
G01X13090Y84719D01*
G01X13070Y84708D01*
G01X13050Y84694D01*
G01X13032Y84679D01*
G01X13015Y84662D01*
G01X13000Y84644D01*
G01X12987Y84625D01*
G01X12975Y84604D01*
G01X12965Y84582D01*
G01X12958Y84560D01*
G01X12952Y84537D01*
G01X12949Y84513D01*
G01X12948Y84490D01*
G01X12948Y84078D01*
G01X13441Y84078D01*
G01X13441Y84746D01*
G37*
G36*
G01X11307Y84746D02*
G01X11071Y84746D01*
G01X11047Y84745D01*
G01X11023Y84742D01*
G01X11000Y84736D01*
G01X10978Y84729D01*
G01X10956Y84719D01*
G01X10935Y84708D01*
G01X10916Y84694D01*
G01X10898Y84679D01*
G01X10881Y84662D01*
G01X10866Y84644D01*
G01X10852Y84625D01*
G01X10841Y84604D01*
G01X10831Y84582D01*
G01X10824Y84560D01*
G01X10818Y84537D01*
G01X10815Y84513D01*
G01X10814Y84490D01*
G01X10814Y84078D01*
G01X11307Y84078D01*
G01X11307Y84746D01*
G37*
G36*
G01X11307Y83001D02*
G01X10814Y83001D01*
G01X10814Y82589D01*
G01X10815Y82566D01*
G01X10818Y82542D01*
G01X10824Y82519D01*
G01X10831Y82497D01*
G01X10841Y82475D01*
G01X10852Y82454D01*
G01X10866Y82435D01*
G01X10881Y82417D01*
G01X10898Y82400D01*
G01X10916Y82385D01*
G01X10935Y82371D01*
G01X10956Y82360D01*
G01X10978Y82350D01*
G01X11000Y82343D01*
G01X11023Y82337D01*
G01X11047Y82334D01*
G01X11071Y82333D01*
G01X11307Y82333D01*
G01X11307Y83001D01*
G37*
G36*
G01X5926Y71388D02*
G01X5326Y71388D01*
G01X5326Y71020D01*
G01X5337Y71029D01*
G01X5350Y71036D01*
G01X5364Y71041D01*
G01X5378Y71044D01*
G01X5393Y71045D01*
G01X5412Y71045D01*
G01X5446Y71046D01*
G01X5481Y71049D01*
G01X5515Y71055D01*
G01X5548Y71062D01*
G01X5581Y71071D01*
G01X5614Y71083D01*
G01X5646Y71096D01*
G01X5676Y71112D01*
G01X5706Y71129D01*
G01X5735Y71148D01*
G01X5762Y71169D01*
G01X5788Y71192D01*
G01X5813Y71216D01*
G01X5836Y71241D01*
G01X5858Y71268D01*
G01X5877Y71297D01*
G01X5895Y71326D01*
G01X5912Y71357D01*
G01X5926Y71388D01*
G37*

%LPD*%
G36*
G01X43748Y85823D02*
G01X37611Y85823D01*
G01X37597Y85822D01*
G01X37583Y85819D01*
G01X37569Y85814D01*
G01X37556Y85807D01*
G01X37545Y85798D01*
G01X37534Y85788D01*
G01X37526Y85776D01*
G01X37519Y85764D01*
G01X37514Y85750D01*
G01X37511Y85736D01*
G01X37510Y85721D01*
G01X37511Y85707D01*
G01X37514Y85692D01*
G01X37519Y85678D01*
G01X37526Y85665D01*
G01X37554Y85621D01*
G01X37580Y85576D01*
G01X37603Y85530D01*
G01X37625Y85483D01*
G01X37644Y85434D01*
G01X37661Y85385D01*
G01X37676Y85336D01*
G01X37689Y85285D01*
G01X37700Y85234D01*
G01X37708Y85183D01*
G01X37713Y85131D01*
G01X37717Y85079D01*
G01X37718Y85027D01*
G01X37717Y84978D01*
G01X37714Y84929D01*
G01X37709Y84881D01*
G01X37702Y84832D01*
G01X37692Y84784D01*
G01X37681Y84736D01*
G01X37667Y84689D01*
G01X37652Y84642D01*
G01X37635Y84596D01*
G01X37615Y84551D01*
G01X37594Y84507D01*
G01X37571Y84463D01*
G01X37546Y84421D01*
G01X37520Y84380D01*
G01X37491Y84340D01*
G01X37461Y84301D01*
G01X37430Y84263D01*
G01X37397Y84227D01*
G01X37362Y84193D01*
G01X37326Y84159D01*
G01X37288Y84128D01*
G01X37249Y84098D01*
G01X37209Y84069D01*
G01X37168Y84043D01*
G01X37126Y84018D01*
G01X37082Y83995D01*
G01X37038Y83974D01*
G01X36993Y83954D01*
G01X36947Y83937D01*
G01X36900Y83922D01*
G01X36853Y83908D01*
G01X36805Y83897D01*
G01X36757Y83888D01*
G01X36709Y83880D01*
G01X36660Y83875D01*
G01X36611Y83872D01*
G01X36562Y83871D01*
G01X36512Y83872D01*
G01X36462Y83875D01*
G01X36413Y83881D01*
G01X36363Y83888D01*
G01X36315Y83898D01*
G01X36266Y83909D01*
G01X36218Y83923D01*
G01X36171Y83939D01*
G01X36125Y83957D01*
G01X36079Y83977D01*
G01X36034Y83998D01*
G01X35990Y84022D01*
G01X35947Y84047D01*
G01X35906Y84075D01*
G01X35865Y84104D01*
G01X35826Y84135D01*
G01X35789Y84167D01*
G01X35752Y84201D01*
G01X35717Y84237D01*
G01X35684Y84274D01*
G01X35653Y84312D01*
G01X35623Y84352D01*
G01X35594Y84393D01*
G01X35568Y84436D01*
G01X35543Y84479D01*
G01X35521Y84523D01*
G01X35513Y84537D01*
G01X35502Y84550D01*
G01X35490Y84560D01*
G01X35476Y84569D01*
G01X35461Y84575D01*
G01X35446Y84579D01*
G01X35429Y84580D01*
G01X31194Y84581D01*
G01X31178Y84579D01*
G01X31162Y84576D01*
G01X31147Y84569D01*
G01X31133Y84561D01*
G01X31121Y84550D01*
G01X31111Y84537D01*
G01X31103Y84523D01*
G01X31080Y84479D01*
G01X31055Y84436D01*
G01X31029Y84394D01*
G01X31001Y84352D01*
G01X30971Y84313D01*
G01X30939Y84274D01*
G01X30906Y84237D01*
G01X30871Y84201D01*
G01X30835Y84167D01*
G01X30797Y84135D01*
G01X30758Y84104D01*
G01X30717Y84075D01*
G01X30676Y84048D01*
G01X30633Y84022D01*
G01X30589Y83998D01*
G01X30544Y83977D01*
G01X30499Y83957D01*
G01X30452Y83939D01*
G01X30405Y83923D01*
G01X30357Y83909D01*
G01X30309Y83898D01*
G01X30260Y83888D01*
G01X30211Y83881D01*
G01X30161Y83875D01*
G01X30111Y83872D01*
G01X30062Y83871D01*
G01X30012Y83872D01*
G01X29963Y83875D01*
G01X29914Y83880D01*
G01X29865Y83888D01*
G01X29817Y83897D01*
G01X29769Y83909D01*
G01X29722Y83922D01*
G01X29675Y83938D01*
G01X29629Y83955D01*
G01X29583Y83974D01*
G01X29539Y83996D01*
G01X29495Y84019D01*
G01X29453Y84044D01*
G01X29412Y84071D01*
G01X29371Y84100D01*
G01X29332Y84130D01*
G01X29295Y84162D01*
G01X29259Y84195D01*
G01X29224Y84230D01*
G01X29191Y84267D01*
G01X29159Y84304D01*
G01X29129Y84343D01*
G01X29101Y84384D01*
G01X29074Y84425D01*
G01X29049Y84468D01*
G01X29026Y84512D01*
G01X29005Y84556D01*
G01X28999Y84569D01*
G01X28990Y84581D01*
G01X28980Y84591D01*
G01X28968Y84600D01*
G01X28955Y84607D01*
G01X28941Y84612D01*
G01X28927Y84615D01*
G01X28913Y84616D01*
G01X28234Y84616D01*
G01X28220Y84615D01*
G01X28206Y84612D01*
G01X28192Y84607D01*
G01X28179Y84600D01*
G01X28168Y84592D01*
G01X28157Y84581D01*
G01X28149Y84570D01*
G01X28142Y84557D01*
G01X28137Y84543D01*
G01X28134Y84529D01*
G01X28133Y84515D01*
G01X28133Y83133D01*
G01X28131Y83109D01*
G01X28128Y83086D01*
G01X28123Y83063D01*
G01X28115Y83040D01*
G01X28106Y83019D01*
G01X28094Y82998D01*
G01X28081Y82978D01*
G01X28066Y82960D01*
G01X28049Y82944D01*
G01X28031Y82928D01*
G01X28011Y82915D01*
G01X27990Y82903D01*
G01X27969Y82894D01*
G01X27946Y82886D01*
G01X27923Y82881D01*
G01X27900Y82878D01*
G01X27876Y82877D01*
G01X26301Y82877D01*
G01X26278Y82878D01*
G01X26254Y82881D01*
G01X26231Y82886D01*
G01X26209Y82894D01*
G01X26187Y82903D01*
G01X26166Y82915D01*
G01X26147Y82928D01*
G01X26128Y82944D01*
G01X26112Y82960D01*
G01X26096Y82978D01*
G01X26083Y82998D01*
G01X26072Y83019D01*
G01X26062Y83040D01*
G01X26054Y83063D01*
G01X26049Y83086D01*
G01X26046Y83109D01*
G01X26045Y83133D01*
G01X26045Y84515D01*
G01X26044Y84529D01*
G01X26041Y84543D01*
G01X26035Y84557D01*
G01X26029Y84570D01*
G01X26020Y84581D01*
G01X26010Y84592D01*
G01X25998Y84600D01*
G01X25985Y84607D01*
G01X25972Y84612D01*
G01X25958Y84615D01*
G01X25943Y84616D01*
G01X25528Y84616D01*
G01X25513Y84615D01*
G01X25499Y84612D01*
G01X25486Y84607D01*
G01X25473Y84600D01*
G01X25461Y84592D01*
G01X25451Y84581D01*
G01X25442Y84570D01*
G01X25435Y84557D01*
G01X25430Y84543D01*
G01X25427Y84529D01*
G01X25426Y84515D01*
G01X25428Y84496D01*
G01X25433Y84479D01*
G01X25441Y84462D01*
G01X25465Y84421D01*
G01X25487Y84379D01*
G01X25506Y84336D01*
G01X25524Y84292D01*
G01X25540Y84247D01*
G01X25554Y84202D01*
G01X25566Y84156D01*
G01X25575Y84109D01*
G01X25583Y84062D01*
G01X25588Y84015D01*
G01X25591Y83968D01*
G01X25593Y83920D01*
G01X25591Y83874D01*
G01X25588Y83827D01*
G01X25583Y83780D01*
G01X25576Y83734D01*
G01X25566Y83688D01*
G01X25555Y83643D01*
G01X25541Y83598D01*
G01X25526Y83554D01*
G01X25509Y83510D01*
G01X25489Y83468D01*
G01X25468Y83426D01*
G01X25445Y83385D01*
G01X25420Y83345D01*
G01X25393Y83307D01*
G01X25365Y83270D01*
G01X25335Y83234D01*
G01X25303Y83199D01*
G01X25270Y83166D01*
G01X25235Y83134D01*
G01X25199Y83104D01*
G01X25162Y83076D01*
G01X25124Y83049D01*
G01X25084Y83024D01*
G01X25043Y83001D01*
G01X25002Y82980D01*
G01X24959Y82961D01*
G01X24915Y82943D01*
G01X24871Y82928D01*
G01X24826Y82914D01*
G01X24781Y82903D01*
G01X24735Y82893D01*
G01X24689Y82886D01*
G01X24642Y82881D01*
G01X24595Y82878D01*
G01X24549Y82877D01*
G01X24502Y82878D01*
G01X24455Y82881D01*
G01X24408Y82886D01*
G01X24362Y82893D01*
G01X24316Y82903D01*
G01X24271Y82914D01*
G01X24226Y82928D01*
G01X24182Y82943D01*
G01X24138Y82961D01*
G01X24096Y82980D01*
G01X24054Y83001D01*
G01X24013Y83024D01*
G01X23973Y83049D01*
G01X23935Y83076D01*
G01X23898Y83104D01*
G01X23862Y83134D01*
G01X23827Y83166D01*
G01X23794Y83199D01*
G01X23762Y83234D01*
G01X23732Y83270D01*
G01X23704Y83307D01*
G01X23677Y83345D01*
G01X23652Y83385D01*
G01X23629Y83426D01*
G01X23608Y83468D01*
G01X23589Y83510D01*
G01X23571Y83554D01*
G01X23556Y83598D01*
G01X23542Y83643D01*
G01X23531Y83688D01*
G01X23521Y83734D01*
G01X23514Y83780D01*
G01X23509Y83827D01*
G01X23506Y83874D01*
G01X23505Y83920D01*
G01X23506Y83968D01*
G01X23509Y84015D01*
G01X23514Y84062D01*
G01X23522Y84109D01*
G01X23532Y84156D01*
G01X23543Y84202D01*
G01X23557Y84247D01*
G01X23573Y84292D01*
G01X23591Y84336D01*
G01X23611Y84379D01*
G01X23632Y84421D01*
G01X23656Y84462D01*
G01X23664Y84479D01*
G01X23669Y84496D01*
G01X23671Y84515D01*
G01X23670Y84529D01*
G01X23667Y84543D01*
G01X23662Y84557D01*
G01X23655Y84570D01*
G01X23646Y84581D01*
G01X23636Y84592D01*
G01X23624Y84600D01*
G01X23612Y84607D01*
G01X23598Y84612D01*
G01X23584Y84615D01*
G01X23569Y84616D01*
G01X23379Y84616D01*
G01X23363Y84615D01*
G01X23347Y84611D01*
G01X23333Y84605D01*
G01X23319Y84597D01*
G01X23307Y84587D01*
G01X23036Y84315D01*
G01X23025Y84303D01*
G01X23017Y84290D01*
G01X23011Y84275D01*
G01X23007Y84260D01*
G01X23006Y84244D01*
G01X23007Y84229D01*
G01X23010Y84215D01*
G01X23023Y84167D01*
G01X23034Y84118D01*
G01X23042Y84069D01*
G01X23048Y84020D01*
G01X23051Y83970D01*
G01X23053Y83920D01*
G01X23051Y83874D01*
G01X23048Y83827D01*
G01X23043Y83780D01*
G01X23036Y83734D01*
G01X23026Y83688D01*
G01X23015Y83643D01*
G01X23001Y83598D01*
G01X22986Y83554D01*
G01X22969Y83510D01*
G01X22949Y83468D01*
G01X22928Y83426D01*
G01X22905Y83385D01*
G01X22880Y83345D01*
G01X22853Y83307D01*
G01X22825Y83270D01*
G01X22795Y83234D01*
G01X22763Y83199D01*
G01X22730Y83166D01*
G01X22695Y83134D01*
G01X22659Y83104D01*
G01X22622Y83076D01*
G01X22584Y83049D01*
G01X22544Y83024D01*
G01X22503Y83001D01*
G01X22462Y82980D01*
G01X22419Y82961D01*
G01X22375Y82943D01*
G01X22331Y82928D01*
G01X22286Y82914D01*
G01X22241Y82903D01*
G01X22195Y82893D01*
G01X22149Y82886D01*
G01X22102Y82881D01*
G01X22055Y82878D01*
G01X22009Y82877D01*
G01X21960Y82878D01*
G01X21912Y82881D01*
G01X21863Y82887D01*
G01X21815Y82895D01*
G01X21768Y82905D01*
G01X21721Y82917D01*
G01X21674Y82931D01*
G01X21629Y82948D01*
G01X21584Y82967D01*
G01X21540Y82988D01*
G01X21497Y83010D01*
G01X21455Y83035D01*
G01X21415Y83062D01*
G01X21375Y83091D01*
G01X21337Y83121D01*
G01X21323Y83131D01*
G01X21307Y83139D01*
G01X21290Y83143D01*
G01X21272Y83145D01*
G01X21256Y83143D01*
G01X21241Y83140D01*
G01X21226Y83134D01*
G01X21212Y83125D01*
G01X21200Y83115D01*
G01X19531Y81445D01*
G01X19507Y81424D01*
G01X19482Y81404D01*
G01X19456Y81385D01*
G01X19429Y81369D01*
G01X19400Y81355D01*
G01X19371Y81343D01*
G01X19341Y81333D01*
G01X19310Y81325D01*
G01X19278Y81319D01*
G01X19246Y81316D01*
G01X19215Y81314D01*
G01X12838Y81314D01*
G01X12822Y81313D01*
G01X12806Y81309D01*
G01X12792Y81303D01*
G01X12778Y81295D01*
G01X12766Y81285D01*
G01X12579Y81098D01*
G01X12569Y81086D01*
G01X12561Y81072D01*
G01X12555Y81058D01*
G01X12551Y81042D01*
G01X12550Y81026D01*
G01X12550Y80891D01*
G01X12551Y80876D01*
G01X12554Y80862D01*
G01X12559Y80848D01*
G01X12566Y80836D01*
G01X12574Y80824D01*
G01X12585Y80814D01*
G01X12596Y80805D01*
G01X12609Y80798D01*
G01X12623Y80793D01*
G01X12637Y80790D01*
G01X12651Y80789D01*
G01X14450Y80789D01*
G01X14473Y80788D01*
G01X14497Y80785D01*
G01X14520Y80779D01*
G01X14543Y80772D01*
G01X14565Y80762D01*
G01X14586Y80750D01*
G01X14605Y80737D01*
G01X14623Y80721D01*
G01X14640Y80704D01*
G01X14655Y80686D01*
G01X14669Y80666D01*
G01X14680Y80645D01*
G01X14690Y80623D01*
G01X14696Y80609D01*
G01X14705Y80597D01*
G01X14715Y80585D01*
G01X14727Y80576D01*
G01X14740Y80568D01*
G01X14754Y80562D01*
G01X14769Y80559D01*
G01X14785Y80558D01*
G01X17445Y80558D01*
G01X17461Y80559D01*
G01X17475Y80562D01*
G01X17489Y80568D01*
G01X17502Y80575D01*
G01X17534Y80595D01*
G01X17567Y80613D01*
G01X17600Y80628D01*
G01X17635Y80641D01*
G01X17671Y80652D01*
G01X17707Y80661D01*
G01X17743Y80667D01*
G01X17780Y80671D01*
G01X17818Y80672D01*
G01X17855Y80671D01*
G01X17892Y80667D01*
G01X17928Y80661D01*
G01X17965Y80652D01*
G01X18000Y80641D01*
G01X18035Y80628D01*
G01X18069Y80613D01*
G01X18101Y80595D01*
G01X18133Y80575D01*
G01X18146Y80568D01*
G01X18160Y80562D01*
G01X18175Y80559D01*
G01X18190Y80558D01*
G01X19096Y80558D01*
G01X19112Y80559D01*
G01X19126Y80562D01*
G01X19140Y80568D01*
G01X19153Y80575D01*
G01X19185Y80595D01*
G01X19218Y80613D01*
G01X19251Y80628D01*
G01X19286Y80641D01*
G01X19322Y80652D01*
G01X19358Y80661D01*
G01X19394Y80667D01*
G01X19431Y80671D01*
G01X19469Y80672D01*
G01X19506Y80671D01*
G01X19543Y80667D01*
G01X19579Y80661D01*
G01X19616Y80652D01*
G01X19651Y80641D01*
G01X19686Y80628D01*
G01X19720Y80613D01*
G01X19752Y80595D01*
G01X19784Y80575D01*
G01X19797Y80568D01*
G01X19811Y80562D01*
G01X19826Y80559D01*
G01X19841Y80558D01*
G01X21119Y80558D01*
G01X21133Y80559D01*
G01X21147Y80562D01*
G01X21161Y80567D01*
G01X21174Y80574D01*
G01X21185Y80582D01*
G01X21195Y80593D01*
G01X21204Y80604D01*
G01X21211Y80617D01*
G01X21216Y80631D01*
G01X21219Y80645D01*
G01X21220Y80659D01*
G01X21219Y80676D01*
G01X21214Y80693D01*
G01X21207Y80709D01*
G01X21198Y80723D01*
G01X21169Y80761D01*
G01X21141Y80800D01*
G01X21116Y80840D01*
G01X21092Y80881D01*
G01X21070Y80923D01*
G01X21551Y80923D01*
G01X21551Y80659D01*
G01X21552Y80645D01*
G01X21556Y80631D01*
G01X21561Y80617D01*
G01X21568Y80604D01*
G01X21576Y80593D01*
G01X21586Y80582D01*
G01X21598Y80574D01*
G01X21611Y80567D01*
G01X21624Y80562D01*
G01X21639Y80559D01*
G01X21653Y80558D01*
G01X22364Y80558D01*
G01X22379Y80559D01*
G01X22393Y80562D01*
G01X22406Y80567D01*
G01X22419Y80574D01*
G01X22431Y80582D01*
G01X22441Y80593D01*
G01X22450Y80604D01*
G01X22457Y80617D01*
G01X22462Y80631D01*
G01X22465Y80645D01*
G01X22466Y80659D01*
G01X22466Y80923D01*
G01X22947Y80923D01*
G01X22925Y80881D01*
G01X22902Y80840D01*
G01X22876Y80800D01*
G01X22849Y80761D01*
G01X22820Y80723D01*
G01X22810Y80709D01*
G01X22803Y80693D01*
G01X22798Y80676D01*
G01X22797Y80659D01*
G01X22798Y80645D01*
G01X22801Y80631D01*
G01X22806Y80617D01*
G01X22813Y80604D01*
G01X22822Y80593D01*
G01X22832Y80582D01*
G01X22844Y80574D01*
G01X22856Y80567D01*
G01X22870Y80562D01*
G01X22884Y80559D01*
G01X22898Y80558D01*
G01X23659Y80558D01*
G01X23673Y80559D01*
G01X23687Y80562D01*
G01X23701Y80567D01*
G01X23714Y80574D01*
G01X23725Y80582D01*
G01X23735Y80593D01*
G01X23744Y80604D01*
G01X23751Y80617D01*
G01X23756Y80631D01*
G01X23759Y80645D01*
G01X23760Y80659D01*
G01X23759Y80676D01*
G01X23754Y80693D01*
G01X23747Y80709D01*
G01X23738Y80723D01*
G01X23709Y80761D01*
G01X23681Y80799D01*
G01X23656Y80839D01*
G01X23632Y80880D01*
G01X23610Y80923D01*
G01X23591Y80966D01*
G01X23573Y81010D01*
G01X23557Y81054D01*
G01X23543Y81100D01*
G01X23531Y81145D01*
G01X23522Y81192D01*
G01X23514Y81239D01*
G01X23509Y81286D01*
G01X23506Y81333D01*
G01X23505Y81380D01*
G01X23506Y81427D01*
G01X23509Y81474D01*
G01X23514Y81521D01*
G01X23521Y81567D01*
G01X23531Y81613D01*
G01X23542Y81658D01*
G01X23556Y81703D01*
G01X23571Y81747D01*
G01X23589Y81791D01*
G01X23608Y81833D01*
G01X23629Y81875D01*
G01X23652Y81916D01*
G01X23677Y81956D01*
G01X23704Y81994D01*
G01X23732Y82031D01*
G01X23762Y82067D01*
G01X23794Y82102D01*
G01X23827Y82135D01*
G01X23862Y82167D01*
G01X23898Y82197D01*
G01X23935Y82225D01*
G01X23973Y82252D01*
G01X24013Y82277D01*
G01X24054Y82300D01*
G01X24096Y82321D01*
G01X24138Y82340D01*
G01X24182Y82358D01*
G01X24226Y82373D01*
G01X24271Y82387D01*
G01X24316Y82398D01*
G01X24362Y82408D01*
G01X24408Y82415D01*
G01X24455Y82420D01*
G01X24502Y82423D01*
G01X24549Y82424D01*
G01X24595Y82423D01*
G01X24642Y82420D01*
G01X24689Y82415D01*
G01X24735Y82408D01*
G01X24781Y82398D01*
G01X24826Y82387D01*
G01X24871Y82373D01*
G01X24915Y82358D01*
G01X24959Y82340D01*
G01X25002Y82321D01*
G01X25043Y82300D01*
G01X25084Y82277D01*
G01X25124Y82252D01*
G01X25162Y82225D01*
G01X25199Y82197D01*
G01X25235Y82167D01*
G01X25270Y82135D01*
G01X25303Y82102D01*
G01X25335Y82067D01*
G01X25365Y82031D01*
G01X25393Y81994D01*
G01X25420Y81956D01*
G01X25445Y81916D01*
G01X25468Y81875D01*
G01X25489Y81833D01*
G01X25509Y81791D01*
G01X25526Y81747D01*
G01X25541Y81703D01*
G01X25555Y81658D01*
G01X25566Y81613D01*
G01X25576Y81567D01*
G01X25583Y81521D01*
G01X25588Y81474D01*
G01X25591Y81427D01*
G01X25593Y81380D01*
G01X25591Y81333D01*
G01X25588Y81286D01*
G01X25583Y81239D01*
G01X25575Y81192D01*
G01X25566Y81145D01*
G01X25554Y81100D01*
G01X25540Y81054D01*
G01X25524Y81010D01*
G01X25507Y80966D01*
G01X25487Y80923D01*
G01X25465Y80880D01*
G01X25441Y80839D01*
G01X25416Y80799D01*
G01X25389Y80761D01*
G01X25360Y80723D01*
G01X25350Y80709D01*
G01X25343Y80693D01*
G01X25338Y80676D01*
G01X25337Y80659D01*
G01X25338Y80645D01*
G01X25341Y80631D01*
G01X25346Y80617D01*
G01X25353Y80604D01*
G01X25362Y80593D01*
G01X25372Y80582D01*
G01X25384Y80574D01*
G01X25396Y80567D01*
G01X25410Y80562D01*
G01X25424Y80559D01*
G01X25438Y80558D01*
G01X25591Y80558D01*
G01X25607Y80559D01*
G01X25623Y80563D01*
G01X25637Y80569D01*
G01X25651Y80577D01*
G01X25663Y80587D01*
G01X26061Y80986D01*
G01X26072Y80998D01*
G01X26080Y81011D01*
G01X26086Y81026D01*
G01X26090Y81041D01*
G01X26091Y81057D01*
G01X26090Y81072D01*
G01X26087Y81086D01*
G01X26074Y81134D01*
G01X26064Y81183D01*
G01X26055Y81232D01*
G01X26049Y81281D01*
G01X26046Y81331D01*
G01X26045Y81380D01*
G01X26046Y81427D01*
G01X26049Y81474D01*
G01X26054Y81521D01*
G01X26061Y81567D01*
G01X26071Y81613D01*
G01X26082Y81658D01*
G01X26096Y81703D01*
G01X26111Y81747D01*
G01X26129Y81791D01*
G01X26148Y81833D01*
G01X26169Y81875D01*
G01X26192Y81916D01*
G01X26217Y81956D01*
G01X26244Y81994D01*
G01X26272Y82031D01*
G01X26302Y82067D01*
G01X26334Y82102D01*
G01X26367Y82135D01*
G01X26402Y82167D01*
G01X26438Y82197D01*
G01X26475Y82225D01*
G01X26513Y82252D01*
G01X26553Y82277D01*
G01X26594Y82300D01*
G01X26636Y82321D01*
G01X26678Y82340D01*
G01X26722Y82358D01*
G01X26766Y82373D01*
G01X26811Y82387D01*
G01X26856Y82398D01*
G01X26902Y82408D01*
G01X26948Y82415D01*
G01X26995Y82420D01*
G01X27042Y82423D01*
G01X27089Y82424D01*
G01X27135Y82423D01*
G01X27182Y82420D01*
G01X27229Y82415D01*
G01X27275Y82408D01*
G01X27321Y82398D01*
G01X27366Y82387D01*
G01X27411Y82373D01*
G01X27455Y82358D01*
G01X27499Y82340D01*
G01X27542Y82321D01*
G01X27583Y82300D01*
G01X27624Y82277D01*
G01X27664Y82252D01*
G01X27702Y82225D01*
G01X27739Y82197D01*
G01X27775Y82167D01*
G01X27810Y82135D01*
G01X27843Y82102D01*
G01X27875Y82067D01*
G01X27905Y82031D01*
G01X27933Y81994D01*
G01X27960Y81956D01*
G01X27985Y81916D01*
G01X28008Y81875D01*
G01X28029Y81833D01*
G01X28049Y81791D01*
G01X28066Y81747D01*
G01X28081Y81703D01*
G01X28095Y81658D01*
G01X28106Y81613D01*
G01X28116Y81567D01*
G01X28123Y81521D01*
G01X28128Y81474D01*
G01X28131Y81427D01*
G01X28133Y81380D01*
G01X28131Y81334D01*
G01X28128Y81287D01*
G01X28123Y81240D01*
G01X28116Y81194D01*
G01X28106Y81148D01*
G01X28095Y81103D01*
G01X28081Y81058D01*
G01X28066Y81014D01*
G01X28049Y80970D01*
G01X28029Y80928D01*
G01X28008Y80886D01*
G01X27985Y80845D01*
G01X27960Y80805D01*
G01X27933Y80767D01*
G01X27905Y80730D01*
G01X27875Y80694D01*
G01X27843Y80659D01*
G01X27810Y80626D01*
G01X27775Y80594D01*
G01X27739Y80564D01*
G01X27702Y80536D01*
G01X27664Y80509D01*
G01X27624Y80484D01*
G01X27583Y80461D01*
G01X27542Y80440D01*
G01X27499Y80421D01*
G01X27455Y80403D01*
G01X27411Y80388D01*
G01X27366Y80374D01*
G01X27321Y80363D01*
G01X27275Y80353D01*
G01X27229Y80346D01*
G01X27182Y80341D01*
G01X27135Y80338D01*
G01X27089Y80337D01*
G01X27039Y80338D01*
G01X26989Y80341D01*
G01X26940Y80347D01*
G01X26891Y80355D01*
G01X26842Y80366D01*
G01X26794Y80379D01*
G01X26780Y80382D01*
G01X26765Y80383D01*
G01X26750Y80382D01*
G01X26734Y80378D01*
G01X26719Y80372D01*
G01X26706Y80364D01*
G01X26694Y80353D01*
G01X26586Y80246D01*
G01X26576Y80234D01*
G01X26567Y80220D01*
G01X26561Y80205D01*
G01X26558Y80190D01*
G01X26556Y80174D01*
G01X26558Y80158D01*
G01X26561Y80143D01*
G01X26567Y80128D01*
G01X26576Y80114D01*
G01X26586Y80102D01*
G01X27356Y79332D01*
G01X27368Y79322D01*
G01X27382Y79314D01*
G01X27397Y79307D01*
G01X27412Y79304D01*
G01X27428Y79302D01*
G01X27450Y79305D01*
G01X27504Y79316D01*
G01X27559Y79324D01*
G01X27613Y79330D01*
G01X27668Y79334D01*
G01X27724Y79335D01*
G01X27774Y79334D01*
G01X27825Y79331D01*
G01X27875Y79326D01*
G01X27925Y79319D01*
G01X27975Y79310D01*
G01X28024Y79299D01*
G01X28073Y79285D01*
G01X28122Y79270D01*
G01X28169Y79253D01*
G01X28216Y79234D01*
G01X28262Y79214D01*
G01X28308Y79191D01*
G01X28352Y79167D01*
G01X28438Y79113D01*
G01X28479Y79083D01*
G01X28518Y79052D01*
G01X28557Y79019D01*
G01X28594Y78985D01*
G01X28630Y78949D01*
G01X28664Y78912D01*
G01X28697Y78873D01*
G01X28728Y78833D01*
G01X28758Y78792D01*
G01X28786Y78750D01*
G01X28812Y78707D01*
G01X28836Y78662D01*
G01X28859Y78617D01*
G01X28880Y78571D01*
G01X28899Y78524D01*
G01X28905Y78506D01*
G01X28923Y78454D01*
G01X28938Y78402D01*
G01X28951Y78349D01*
G01X28961Y78295D01*
G01X28970Y78242D01*
G01X28975Y78187D01*
G01X28979Y78133D01*
G01X28980Y78078D01*
G01X28979Y78024D01*
G01X28975Y77970D01*
G01X28970Y77915D01*
G01X28961Y77862D01*
G01X28951Y77808D01*
G01X28938Y77755D01*
G01X28923Y77703D01*
G01X28905Y77651D01*
G01X28899Y77633D01*
G01X28880Y77586D01*
G01X28859Y77540D01*
G01X28836Y77495D01*
G01X28812Y77450D01*
G01X28786Y77407D01*
G01X28758Y77365D01*
G01X28728Y77324D01*
G01X28697Y77284D01*
G01X28664Y77245D01*
G01X28630Y77208D01*
G01X28594Y77172D01*
G01X28557Y77138D01*
G01X28518Y77105D01*
G01X28479Y77074D01*
G01X28438Y77044D01*
G01X28352Y76990D01*
G01X28308Y76966D01*
G01X28262Y76943D01*
G01X28216Y76923D01*
G01X28169Y76904D01*
G01X28122Y76887D01*
G01X28073Y76872D01*
G01X28024Y76858D01*
G01X27975Y76847D01*
G01X27925Y76838D01*
G01X27875Y76831D01*
G01X27825Y76826D01*
G01X27774Y76823D01*
G01X27724Y76822D01*
G01X27673Y76823D01*
G01X27622Y76826D01*
G01X27572Y76831D01*
G01X27522Y76838D01*
G01X27472Y76847D01*
G01X27423Y76858D01*
G01X27374Y76872D01*
G01X27326Y76887D01*
G01X27278Y76904D01*
G01X27231Y76923D01*
G01X27185Y76943D01*
G01X27140Y76966D01*
G01X27095Y76990D01*
G01X27052Y77017D01*
G01X27010Y77044D01*
G01X26969Y77074D01*
G01X26929Y77105D01*
G01X26890Y77138D01*
G01X26853Y77172D01*
G01X26817Y77208D01*
G01X26783Y77245D01*
G01X26750Y77284D01*
G01X26719Y77324D01*
G01X26689Y77365D01*
G01X26661Y77407D01*
G01X26635Y77450D01*
G01X26611Y77495D01*
G01X26588Y77540D01*
G01X26567Y77586D01*
G01X26549Y77633D01*
G01X26542Y77647D01*
G01X26534Y77660D01*
G01X26523Y77671D01*
G01X26511Y77681D01*
G01X26498Y77689D01*
G01X26484Y77694D01*
G01X26469Y77698D01*
G01X26454Y77699D01*
G01X26438Y77698D01*
G01X26423Y77694D01*
G01X26409Y77689D01*
G01X26396Y77681D01*
G01X26384Y77671D01*
G01X26374Y77660D01*
G01X26365Y77647D01*
G01X26359Y77633D01*
G01X26340Y77586D01*
G01X26319Y77540D01*
G01X26296Y77495D01*
G01X26272Y77450D01*
G01X26246Y77407D01*
G01X26218Y77365D01*
G01X26188Y77324D01*
G01X26157Y77284D01*
G01X26124Y77245D01*
G01X26090Y77208D01*
G01X26054Y77172D01*
G01X26017Y77138D01*
G01X25978Y77105D01*
G01X25939Y77074D01*
G01X25898Y77044D01*
G01X25812Y76990D01*
G01X25768Y76966D01*
G01X25722Y76943D01*
G01X25676Y76923D01*
G01X25629Y76904D01*
G01X25582Y76887D01*
G01X25533Y76872D01*
G01X25484Y76858D01*
G01X25435Y76847D01*
G01X25385Y76838D01*
G01X25335Y76831D01*
G01X25285Y76826D01*
G01X25234Y76823D01*
G01X25184Y76822D01*
G01X25133Y76823D01*
G01X25082Y76826D01*
G01X25032Y76831D01*
G01X24981Y76838D01*
G01X24931Y76848D01*
G01X24882Y76859D01*
G01X24833Y76872D01*
G01X24784Y76887D01*
G01X24736Y76904D01*
G01X24689Y76923D01*
G01X24643Y76944D01*
G01X24598Y76967D01*
G01X24553Y76991D01*
G01X24510Y77018D01*
G01X24468Y77046D01*
G01X24426Y77076D01*
G01X24387Y77107D01*
G01X24348Y77140D01*
G01X24311Y77175D01*
G01X24275Y77211D01*
G01X24241Y77248D01*
G01X24208Y77287D01*
G01X24177Y77327D01*
G01X24147Y77368D01*
G01X24119Y77411D01*
G01X24093Y77454D01*
G01X24069Y77499D01*
G01X24046Y77544D01*
G01X24039Y77557D01*
G01X24030Y77568D01*
G01X24020Y77578D01*
G01X24009Y77587D01*
G01X23996Y77594D01*
G01X23983Y77599D01*
G01X23969Y77602D01*
G01X23954Y77603D01*
G01X23940Y77602D01*
G01X23926Y77599D01*
G01X23912Y77594D01*
G01X23899Y77587D01*
G01X23888Y77578D01*
G01X23877Y77568D01*
G01X23869Y77556D01*
G01X23862Y77543D01*
G01X23857Y77530D01*
G01X23854Y77516D01*
G01X23853Y77501D01*
G01X23853Y71982D01*
G01X23852Y71952D01*
G01X23848Y71922D01*
G01X23843Y71892D01*
G01X23836Y71862D01*
G01X23827Y71833D01*
G01X23816Y71804D01*
G01X23803Y71777D01*
G01X23788Y71750D01*
G01X23771Y71725D01*
G01X23752Y71700D01*
G01X23732Y71677D01*
G01X23711Y71656D01*
G01X23688Y71636D01*
G01X23663Y71617D01*
G01X23638Y71601D01*
G01X23611Y71586D01*
G01X23584Y71572D01*
G01X23555Y71561D01*
G01X23526Y71552D01*
G01X23497Y71545D01*
G01X23466Y71540D01*
G01X23436Y71536D01*
G01X23406Y71535D01*
G01X20096Y71535D01*
G01X20082Y71534D01*
G01X20068Y71531D01*
G01X20054Y71526D01*
G01X20041Y71519D01*
G01X20030Y71511D01*
G01X20019Y71500D01*
G01X20011Y71489D01*
G01X20004Y71476D01*
G01X19999Y71462D01*
G01X19996Y71448D01*
G01X19995Y71434D01*
G01X19996Y71417D01*
G01X20000Y71401D01*
G01X20011Y71366D01*
G01X20019Y71330D01*
G01X20025Y71294D01*
G01X20029Y71257D01*
G01X20030Y71220D01*
G01X20029Y71186D01*
G01X20026Y71151D01*
G01X20020Y71116D01*
G01X20013Y71082D01*
G01X20003Y71049D01*
G01X19991Y71016D01*
G01X19977Y70984D01*
G01X19962Y70952D01*
G01X19944Y70922D01*
G01X19925Y70893D01*
G01X19903Y70865D01*
G01X19880Y70839D01*
G01X19856Y70814D01*
G01X19830Y70791D01*
G01X19803Y70769D01*
G01X19774Y70749D01*
G01X19744Y70731D01*
G01X19722Y70715D01*
G01X19603Y70596D01*
G01X19592Y70583D01*
G01X19584Y70570D01*
G01X19578Y70555D01*
G01X19574Y70540D01*
G01X19573Y70524D01*
G01X19574Y70509D01*
G01X19578Y70494D01*
G01X19583Y70480D01*
G01X19591Y70467D01*
G01X19600Y70455D01*
G01X19611Y70444D01*
G01X19624Y70436D01*
G01X19657Y70415D01*
G01X19670Y70408D01*
G01X19684Y70402D01*
G01X19699Y70399D01*
G01X19714Y70398D01*
G01X21128Y70398D01*
G01X21144Y70399D01*
G01X21158Y70402D01*
G01X21172Y70408D01*
G01X21185Y70415D01*
G01X21217Y70435D01*
G01X21250Y70453D01*
G01X21283Y70468D01*
G01X21318Y70481D01*
G01X21354Y70492D01*
G01X21390Y70501D01*
G01X21426Y70507D01*
G01X21463Y70511D01*
G01X21501Y70512D01*
G01X21534Y70511D01*
G01X21568Y70508D01*
G01X21602Y70503D01*
G01X21635Y70496D01*
G01X21668Y70486D01*
G01X21700Y70475D01*
G01X21731Y70462D01*
G01X21761Y70448D01*
G01X21791Y70431D01*
G01X21819Y70412D01*
G01X21847Y70392D01*
G01X21873Y70371D01*
G01X21898Y70347D01*
G01X21921Y70323D01*
G01X21942Y70297D01*
G01X21963Y70269D01*
G01X21981Y70241D01*
G01X21998Y70211D01*
G01X22012Y70181D01*
G01X22025Y70150D01*
G01X22037Y70117D01*
G01X22046Y70085D01*
G01X22053Y70052D01*
G01X22058Y70018D01*
G01X22061Y69984D01*
G01X22062Y69950D01*
G01X22061Y69917D01*
G01X22058Y69883D01*
G01X22053Y69849D01*
G01X22046Y69816D01*
G01X22037Y69783D01*
G01X22025Y69751D01*
G01X22012Y69720D01*
G01X21998Y69690D01*
G01X21981Y69660D01*
G01X21963Y69632D01*
G01X21942Y69604D01*
G01X21921Y69578D01*
G01X21898Y69554D01*
G01X21873Y69530D01*
G01X21847Y69509D01*
G01X21819Y69489D01*
G01X21791Y69470D01*
G01X21761Y69453D01*
G01X21731Y69439D01*
G01X21700Y69426D01*
G01X21668Y69415D01*
G01X21635Y69405D01*
G01X21602Y69398D01*
G01X21568Y69393D01*
G01X21534Y69390D01*
G01X21501Y69389D01*
G01X21463Y69390D01*
G01X21426Y69394D01*
G01X21390Y69400D01*
G01X21354Y69409D01*
G01X21318Y69420D01*
G01X21283Y69433D01*
G01X21250Y69448D01*
G01X21217Y69466D01*
G01X21185Y69486D01*
G01X21172Y69493D01*
G01X21158Y69499D01*
G01X21144Y69502D01*
G01X21128Y69503D01*
G01X19714Y69503D01*
G01X19699Y69502D01*
G01X19684Y69499D01*
G01X19670Y69493D01*
G01X19657Y69486D01*
G01X19625Y69466D01*
G01X19593Y69448D01*
G01X19559Y69433D01*
G01X19524Y69420D01*
G01X19489Y69409D01*
G01X19452Y69400D01*
G01X19416Y69394D01*
G01X19379Y69390D01*
G01X19342Y69389D01*
G01X19306Y69390D01*
G01X19271Y69394D01*
G01X19237Y69399D01*
G01X19202Y69407D01*
G01X19169Y69416D01*
G01X19136Y69428D01*
G01X19103Y69442D01*
G01X19072Y69458D01*
G01X19042Y69476D01*
G01X19013Y69496D01*
G01X18985Y69517D01*
G01X18958Y69540D01*
G01X18933Y69565D01*
G01X18910Y69591D01*
G01X18888Y69619D01*
G01X18869Y69648D01*
G01X18851Y69678D01*
G01X18835Y69710D01*
G01X18820Y69742D01*
G01X18808Y69775D01*
G01X18798Y69809D01*
G01X18794Y69823D01*
G01X18787Y69836D01*
G01X18778Y69848D01*
G01X18768Y69859D01*
G01X18756Y69868D01*
G01X18743Y69875D01*
G01X18729Y69880D01*
G01X18715Y69883D01*
G01X18700Y69884D01*
G01X17029Y69884D01*
G01X17013Y69883D01*
G01X16997Y69879D01*
G01X16983Y69873D01*
G01X16969Y69865D01*
G01X16957Y69855D01*
G01X16782Y69679D01*
G01X16771Y69667D01*
G01X16763Y69654D01*
G01X16757Y69639D01*
G01X16753Y69624D01*
G01X16752Y69608D01*
G01X16753Y69593D01*
G01X16756Y69579D01*
G01X16761Y69565D01*
G01X16768Y69553D01*
G01X16777Y69541D01*
G01X16787Y69531D01*
G01X16799Y69522D01*
G01X16811Y69515D01*
G01X16825Y69510D01*
G01X16839Y69507D01*
G01X16854Y69506D01*
G01X17732Y69506D01*
G01X17755Y69505D01*
G01X17779Y69502D01*
G01X17802Y69496D01*
G01X17824Y69489D01*
G01X17846Y69479D01*
G01X17867Y69468D01*
G01X17886Y69454D01*
G01X17905Y69439D01*
G01X17921Y69422D01*
G01X17936Y69404D01*
G01X17950Y69385D01*
G01X17961Y69364D01*
G01X17971Y69342D01*
G01X17978Y69320D01*
G01X17984Y69297D01*
G01X17987Y69273D01*
G01X17988Y69250D01*
G01X17988Y67349D01*
G01X17987Y67326D01*
G01X17984Y67302D01*
G01X17978Y67279D01*
G01X17971Y67257D01*
G01X17961Y67235D01*
G01X17950Y67214D01*
G01X17936Y67195D01*
G01X17921Y67177D01*
G01X17905Y67160D01*
G01X17886Y67145D01*
G01X17867Y67131D01*
G01X17846Y67120D01*
G01X17824Y67110D01*
G01X17802Y67103D01*
G01X17779Y67097D01*
G01X17755Y67094D01*
G01X17732Y67093D01*
G01X16532Y67093D01*
G01X16508Y67094D01*
G01X16485Y67097D01*
G01X16461Y67103D01*
G01X16439Y67110D01*
G01X16417Y67120D01*
G01X16396Y67132D01*
G01X16377Y67145D01*
G01X16359Y67160D01*
G01X16342Y67177D01*
G01X16327Y67195D01*
G01X16313Y67215D01*
G01X16302Y67236D01*
G01X16294Y67250D01*
G01X16283Y67262D01*
G01X16271Y67272D01*
G01X16257Y67281D01*
G01X16242Y67287D01*
G01X16227Y67291D01*
G01X16211Y67292D01*
G01X16196Y67291D01*
G01X16181Y67288D01*
G01X16167Y67282D01*
G01X16154Y67275D01*
G01X16142Y67266D01*
G01X16132Y67255D01*
G01X16102Y67221D01*
G01X15213Y66332D01*
G01X15188Y66309D01*
G01X15161Y66288D01*
G01X15133Y66269D01*
G01X15104Y66252D01*
G01X15073Y66238D01*
G01X15042Y66226D01*
G01X15009Y66216D01*
G01X14995Y66211D01*
G01X14982Y66204D01*
G01X14970Y66196D01*
G01X14959Y66185D01*
G01X14950Y66174D01*
G01X14943Y66161D01*
G01X14938Y66147D01*
G01X14935Y66132D01*
G01X14934Y66118D01*
G01X14935Y66103D01*
G01X14938Y66089D01*
G01X14943Y66075D01*
G01X14950Y66063D01*
G01X14958Y66051D01*
G01X14969Y66041D01*
G01X14980Y66032D01*
G01X14993Y66025D01*
G01X15006Y66020D01*
G01X15021Y66017D01*
G01X15035Y66016D01*
G01X21583Y66016D01*
G01X21598Y66017D01*
G01X21612Y66020D01*
G01X21625Y66025D01*
G01X21638Y66032D01*
G01X21650Y66041D01*
G01X21660Y66051D01*
G01X21669Y66063D01*
G01X21676Y66075D01*
G01X21681Y66089D01*
G01X21684Y66103D01*
G01X21685Y66118D01*
G01X21684Y66133D01*
G01X21680Y66147D01*
G01X21675Y66161D01*
G01X21668Y66174D01*
G01X21658Y66186D01*
G01X21625Y66225D01*
G01X21593Y66265D01*
G01X21562Y66306D01*
G01X21533Y66349D01*
G01X21481Y66437D01*
G01X21458Y66483D01*
G01X21437Y66530D01*
G01X21417Y66577D01*
G01X21400Y66626D01*
G01X21384Y66675D01*
G01X21371Y66724D01*
G01X21359Y66774D01*
G01X21350Y66825D01*
G01X21343Y66876D01*
G01X21337Y66927D01*
G01X21334Y66978D01*
G01X21333Y67029D01*
G01X21334Y67080D01*
G01X21337Y67131D01*
G01X21342Y67182D01*
G01X21350Y67233D01*
G01X21359Y67283D01*
G01X21370Y67333D01*
G01X21384Y67382D01*
G01X21399Y67430D01*
G01X21416Y67478D01*
G01X21435Y67526D01*
G01X21456Y67572D01*
G01X21479Y67618D01*
G01X21504Y67662D01*
G01X21531Y67706D01*
G01X21559Y67748D01*
G01X21589Y67790D01*
G01X21621Y67830D01*
G01X21654Y67868D01*
G01X21689Y67905D01*
G01X21725Y67941D01*
G01X21763Y67976D01*
G01X21802Y68008D01*
G01X21842Y68040D01*
G01X21884Y68069D01*
G01X21927Y68097D01*
G01X21971Y68123D01*
G01X22015Y68147D01*
G01X22061Y68170D01*
G01X22108Y68190D01*
G01X22156Y68209D01*
G01X22204Y68225D01*
G01X22253Y68240D01*
G01X22302Y68253D01*
G01X22352Y68263D01*
G01X22402Y68272D01*
G01X22453Y68279D01*
G01X22504Y68283D01*
G01X22554Y68286D01*
G01X22570Y68287D01*
G01X22584Y68291D01*
G01X22598Y68297D01*
G01X22611Y68305D01*
G01X22623Y68315D01*
G01X26208Y71855D01*
G01X26240Y71885D01*
G01X26273Y71913D01*
G01X26307Y71939D01*
G01X26343Y71964D01*
G01X26380Y71987D01*
G01X26417Y72008D01*
G01X26456Y72028D01*
G01X26496Y72045D01*
G01X26537Y72061D01*
G01X26578Y72074D01*
G01X26620Y72086D01*
G01X26662Y72095D01*
G01X26705Y72103D01*
G01X26748Y72108D01*
G01X26791Y72111D01*
G01X26835Y72112D01*
G01X40033Y72112D01*
G01X40049Y72113D01*
G01X40065Y72117D01*
G01X40080Y72124D01*
G01X40123Y72145D01*
G01X40168Y72165D01*
G01X40214Y72182D01*
G01X40261Y72197D01*
G01X40308Y72210D01*
G01X40356Y72220D01*
G01X40404Y72228D01*
G01X40453Y72234D01*
G01X40502Y72238D01*
G01X40551Y72239D01*
G01X40600Y72238D01*
G01X40648Y72234D01*
G01X40697Y72228D01*
G01X40745Y72220D01*
G01X40793Y72210D01*
G01X40840Y72197D01*
G01X40887Y72182D01*
G01X40933Y72165D01*
G01X40978Y72145D01*
G01X41022Y72124D01*
G01X41037Y72117D01*
G01X41052Y72113D01*
G01X41069Y72112D01*
G01X43748Y72112D01*
G01X43763Y72113D01*
G01X43777Y72116D01*
G01X43791Y72121D01*
G01X43803Y72128D01*
G01X43815Y72137D01*
G01X43825Y72147D01*
G01X43834Y72159D01*
G01X43841Y72171D01*
G01X43846Y72185D01*
G01X43849Y72199D01*
G01X43850Y72214D01*
G01X43850Y75144D01*
G01X43849Y75158D01*
G01X43846Y75173D01*
G01X43841Y75186D01*
G01X43834Y75199D01*
G01X43825Y75211D01*
G01X43815Y75221D01*
G01X43803Y75229D01*
G01X43791Y75236D01*
G01X43777Y75241D01*
G01X43763Y75245D01*
G01X43748Y75246D01*
G01X43732Y75244D01*
G01X43716Y75240D01*
G01X43700Y75234D01*
G01X43687Y75224D01*
G01X43674Y75213D01*
G01X43664Y75200D01*
G01X43629Y75150D01*
G01X43592Y75100D01*
G01X43553Y75052D01*
G01X43513Y75005D01*
G01X43471Y74960D01*
G01X43428Y74916D01*
G01X43383Y74874D01*
G01X43337Y74833D01*
G01X43289Y74794D01*
G01X43240Y74757D01*
G01X43189Y74721D01*
G01X43138Y74687D01*
G01X43085Y74655D01*
G01X43031Y74625D01*
G01X42976Y74597D01*
G01X42920Y74571D01*
G01X42864Y74546D01*
G01X42806Y74524D01*
G01X42748Y74504D01*
G01X42689Y74486D01*
G01X42629Y74470D01*
G01X42569Y74456D01*
G01X42509Y74444D01*
G01X42448Y74434D01*
G01X42386Y74427D01*
G01X42325Y74421D01*
G01X42263Y74418D01*
G01X42202Y74417D01*
G01X42142Y74418D01*
G01X42082Y74421D01*
G01X42022Y74426D01*
G01X41962Y74433D01*
G01X41903Y74443D01*
G01X41844Y74454D01*
G01X41786Y74467D01*
G01X41728Y74482D01*
G01X41670Y74499D01*
G01X41613Y74518D01*
G01X41557Y74539D01*
G01X41502Y74562D01*
G01X41447Y74587D01*
G01X41393Y74614D01*
G01X41341Y74642D01*
G01X41289Y74673D01*
G01X41238Y74705D01*
G01X41189Y74738D01*
G01X41140Y74774D01*
G01X41093Y74811D01*
G01X41047Y74850D01*
G01X41003Y74890D01*
G01X40960Y74931D01*
G01X40918Y74975D01*
G01X40878Y75019D01*
G01X40839Y75065D01*
G01X40802Y75112D01*
G01X40767Y75161D01*
G01X40733Y75210D01*
G01X40701Y75261D01*
G01X40670Y75313D01*
G01X40642Y75365D01*
G01X40615Y75419D01*
G01X40590Y75474D01*
G01X40568Y75529D01*
G01X40546Y75585D01*
G01X40527Y75642D01*
G01X40510Y75700D01*
G01X40495Y75758D01*
G01X40482Y75816D01*
G01X40471Y75875D01*
G01X40461Y75934D01*
G01X40454Y75994D01*
G01X40449Y76054D01*
G01X40446Y76114D01*
G01X40445Y76173D01*
G01X40446Y76233D01*
G01X40449Y76293D01*
G01X40454Y76353D01*
G01X40461Y76413D01*
G01X40471Y76472D01*
G01X40482Y76531D01*
G01X40495Y76589D01*
G01X40510Y76647D01*
G01X40527Y76705D01*
G01X40546Y76762D01*
G01X40568Y76818D01*
G01X40590Y76873D01*
G01X40615Y76928D01*
G01X40642Y76982D01*
G01X40670Y77034D01*
G01X40701Y77086D01*
G01X40733Y77137D01*
G01X40767Y77186D01*
G01X40802Y77235D01*
G01X40839Y77282D01*
G01X40878Y77328D01*
G01X40918Y77372D01*
G01X40960Y77416D01*
G01X41003Y77457D01*
G01X41047Y77497D01*
G01X41093Y77536D01*
G01X41140Y77573D01*
G01X41189Y77609D01*
G01X41238Y77642D01*
G01X41289Y77674D01*
G01X41341Y77705D01*
G01X41393Y77733D01*
G01X41447Y77760D01*
G01X41502Y77785D01*
G01X41557Y77808D01*
G01X41613Y77829D01*
G01X41670Y77848D01*
G01X41728Y77865D01*
G01X41786Y77880D01*
G01X41844Y77893D01*
G01X41903Y77904D01*
G01X41962Y77914D01*
G01X42022Y77921D01*
G01X42082Y77926D01*
G01X42142Y77929D01*
G01X42202Y77930D01*
G01X42263Y77929D01*
G01X42325Y77926D01*
G01X42386Y77920D01*
G01X42448Y77913D01*
G01X42509Y77903D01*
G01X42569Y77891D01*
G01X42629Y77877D01*
G01X42689Y77861D01*
G01X42748Y77843D01*
G01X42806Y77823D01*
G01X42864Y77801D01*
G01X42920Y77776D01*
G01X42976Y77750D01*
G01X43031Y77722D01*
G01X43085Y77692D01*
G01X43138Y77660D01*
G01X43189Y77626D01*
G01X43240Y77590D01*
G01X43289Y77553D01*
G01X43337Y77514D01*
G01X43383Y77473D01*
G01X43428Y77431D01*
G01X43471Y77387D01*
G01X43513Y77342D01*
G01X43553Y77295D01*
G01X43592Y77247D01*
G01X43629Y77197D01*
G01X43664Y77147D01*
G01X43674Y77134D01*
G01X43687Y77122D01*
G01X43700Y77113D01*
G01X43716Y77107D01*
G01X43732Y77103D01*
G01X43748Y77101D01*
G01X43763Y77102D01*
G01X43777Y77106D01*
G01X43791Y77111D01*
G01X43803Y77118D01*
G01X43815Y77126D01*
G01X43825Y77136D01*
G01X43834Y77148D01*
G01X43841Y77161D01*
G01X43846Y77174D01*
G01X43849Y77189D01*
G01X43850Y77203D01*
G01X43850Y80260D01*
G01X43849Y80275D01*
G01X43846Y80289D01*
G01X43841Y80303D01*
G01X43834Y80315D01*
G01X43825Y80327D01*
G01X43815Y80337D01*
G01X43803Y80346D01*
G01X43791Y80353D01*
G01X43777Y80358D01*
G01X43763Y80361D01*
G01X43748Y80362D01*
G01X41450Y80362D01*
G01X41433Y80361D01*
G01X41418Y80357D01*
G01X41403Y80350D01*
G01X41359Y80329D01*
G01X41314Y80309D01*
G01X41268Y80292D01*
G01X41221Y80277D01*
G01X41174Y80264D01*
G01X41126Y80254D01*
G01X41078Y80246D01*
G01X41029Y80240D01*
G01X40981Y80236D01*
G01X40932Y80235D01*
G01X40883Y80236D01*
G01X40834Y80240D01*
G01X40785Y80246D01*
G01X40737Y80254D01*
G01X40689Y80264D01*
G01X40642Y80277D01*
G01X40595Y80292D01*
G01X40549Y80309D01*
G01X40504Y80329D01*
G01X40461Y80350D01*
G01X40446Y80357D01*
G01X40430Y80361D01*
G01X40414Y80362D01*
G01X39154Y80362D01*
G01X39110Y80363D01*
G01X39066Y80366D01*
G01X39023Y80372D01*
G01X38980Y80379D01*
G01X38937Y80389D01*
G01X38895Y80400D01*
G01X38853Y80414D01*
G01X38812Y80430D01*
G01X38772Y80448D01*
G01X38733Y80467D01*
G01X38695Y80489D01*
G01X38658Y80512D01*
G01X38623Y80537D01*
G01X38588Y80564D01*
G01X38555Y80593D01*
G01X38523Y80623D01*
G01X37417Y81729D01*
G01X37405Y81740D01*
G01X37391Y81748D01*
G01X37377Y81754D01*
G01X37361Y81758D01*
G01X37345Y81759D01*
G01X37115Y81759D01*
G01X37099Y81758D01*
G01X37084Y81754D01*
G01X37070Y81748D01*
G01X37056Y81740D01*
G01X37044Y81730D01*
G01X37032Y81740D01*
G01X37019Y81748D01*
G01X37004Y81754D01*
G01X36989Y81758D01*
G01X36974Y81759D01*
G01X36150Y81759D01*
G01X36134Y81758D01*
G01X36119Y81754D01*
G01X36104Y81748D01*
G01X36091Y81740D01*
G01X36079Y81730D01*
G01X36067Y81740D01*
G01X36053Y81748D01*
G01X36039Y81754D01*
G01X36024Y81758D01*
G01X36008Y81759D01*
G01X34612Y81759D01*
G01X34596Y81758D01*
G01X34581Y81754D01*
G01X34566Y81748D01*
G01X34552Y81740D01*
G01X34540Y81729D01*
G01X33725Y80914D01*
G01X33715Y80902D01*
G01X33706Y80888D01*
G01X33700Y80874D01*
G01X33696Y80858D01*
G01X33695Y80842D01*
G01X33695Y79437D01*
G01X33696Y79422D01*
G01X33699Y79408D01*
G01X33704Y79394D01*
G01X33711Y79382D01*
G01X33720Y79370D01*
G01X33730Y79360D01*
G01X33742Y79351D01*
G01X33755Y79344D01*
G01X33768Y79339D01*
G01X33782Y79336D01*
G01X33797Y79335D01*
G01X33804Y79335D01*
G01X33827Y79334D01*
G01X33851Y79331D01*
G01X33874Y79325D01*
G01X33896Y79318D01*
G01X33918Y79308D01*
G01X33939Y79297D01*
G01X33958Y79283D01*
G01X33976Y79268D01*
G01X33993Y79251D01*
G01X34008Y79233D01*
G01X34022Y79214D01*
G01X34033Y79193D01*
G01X34043Y79171D01*
G01X34050Y79149D01*
G01X34056Y79126D01*
G01X34059Y79102D01*
G01X34060Y79078D01*
G01X34060Y77078D01*
G01X34059Y77055D01*
G01X34056Y77031D01*
G01X34050Y77008D01*
G01X34043Y76986D01*
G01X34033Y76964D01*
G01X34022Y76943D01*
G01X34008Y76924D01*
G01X33993Y76906D01*
G01X33976Y76889D01*
G01X33958Y76874D01*
G01X33939Y76860D01*
G01X33918Y76849D01*
G01X33896Y76839D01*
G01X33874Y76832D01*
G01X33851Y76826D01*
G01X33827Y76823D01*
G01X33804Y76822D01*
G01X31804Y76822D01*
G01X31780Y76823D01*
G01X31756Y76826D01*
G01X31733Y76832D01*
G01X31711Y76839D01*
G01X31689Y76849D01*
G01X31669Y76860D01*
G01X31649Y76874D01*
G01X31631Y76889D01*
G01X31614Y76906D01*
G01X31599Y76924D01*
G01X31585Y76943D01*
G01X31574Y76964D01*
G01X31564Y76986D01*
G01X31557Y77008D01*
G01X31551Y77031D01*
G01X31548Y77055D01*
G01X31547Y77078D01*
G01X31547Y77409D01*
G01X31546Y77424D01*
G01X31543Y77438D01*
G01X31538Y77452D01*
G01X31531Y77464D01*
G01X31522Y77476D01*
G01X31512Y77486D01*
G01X31500Y77495D01*
G01X31488Y77502D01*
G01X31474Y77507D01*
G01X31460Y77510D01*
G01X31445Y77511D01*
G01X31430Y77510D01*
G01X31415Y77506D01*
G01X31401Y77501D01*
G01X31388Y77493D01*
G01X31376Y77483D01*
G01X31366Y77472D01*
G01X31357Y77459D01*
G01X31330Y77414D01*
G01X31301Y77369D01*
G01X31270Y77326D01*
G01X31238Y77285D01*
G01X31203Y77244D01*
G01X31167Y77205D01*
G01X31130Y77168D01*
G01X31090Y77132D01*
G01X31050Y77098D01*
G01X31008Y77066D01*
G01X30964Y77035D01*
G01X30920Y77007D01*
G01X30874Y76980D01*
G01X30827Y76955D01*
G01X30827Y77515D01*
G01X31445Y77515D01*
G01X31460Y77516D01*
G01X31474Y77519D01*
G01X31488Y77524D01*
G01X31500Y77531D01*
G01X31512Y77540D01*
G01X31522Y77550D01*
G01X31531Y77562D01*
G01X31538Y77574D01*
G01X31543Y77588D01*
G01X31546Y77602D01*
G01X31547Y77617D01*
G01X31547Y78540D01*
G01X31546Y78555D01*
G01X31543Y78569D01*
G01X31538Y78583D01*
G01X31531Y78595D01*
G01X31522Y78607D01*
G01X31512Y78617D01*
G01X31500Y78626D01*
G01X31488Y78633D01*
G01X31474Y78638D01*
G01X31460Y78641D01*
G01X31445Y78642D01*
G01X30827Y78642D01*
G01X30827Y79202D01*
G01X30874Y79177D01*
G01X30920Y79150D01*
G01X30964Y79121D01*
G01X31008Y79091D01*
G01X31050Y79059D01*
G01X31090Y79025D01*
G01X31130Y78989D01*
G01X31167Y78952D01*
G01X31203Y78913D01*
G01X31238Y78872D01*
G01X31270Y78831D01*
G01X31301Y78788D01*
G01X31330Y78743D01*
G01X31357Y78698D01*
G01X31366Y78685D01*
G01X31376Y78674D01*
G01X31388Y78664D01*
G01X31401Y78656D01*
G01X31415Y78651D01*
G01X31430Y78647D01*
G01X31445Y78646D01*
G01X31460Y78647D01*
G01X31474Y78650D01*
G01X31488Y78655D01*
G01X31500Y78662D01*
G01X31512Y78671D01*
G01X31522Y78681D01*
G01X31531Y78693D01*
G01X31538Y78705D01*
G01X31543Y78719D01*
G01X31546Y78733D01*
G01X31547Y78748D01*
G01X31547Y79078D01*
G01X31548Y79102D01*
G01X31551Y79126D01*
G01X31557Y79149D01*
G01X31564Y79171D01*
G01X31574Y79193D01*
G01X31585Y79214D01*
G01X31599Y79233D01*
G01X31614Y79251D01*
G01X31631Y79268D01*
G01X31649Y79283D01*
G01X31669Y79297D01*
G01X31689Y79308D01*
G01X31711Y79318D01*
G01X31733Y79325D01*
G01X31756Y79331D01*
G01X31780Y79334D01*
G01X31804Y79335D01*
G01X31810Y79335D01*
G01X31825Y79336D01*
G01X31839Y79339D01*
G01X31853Y79344D01*
G01X31865Y79351D01*
G01X31877Y79360D01*
G01X31887Y79370D01*
G01X31896Y79382D01*
G01X31903Y79394D01*
G01X31908Y79408D01*
G01X31911Y79422D01*
G01X31912Y79437D01*
G01X31912Y81253D01*
G01X31913Y81297D01*
G01X31916Y81341D01*
G01X31922Y81384D01*
G01X31929Y81427D01*
G01X31939Y81470D01*
G01X31950Y81512D01*
G01X31964Y81554D01*
G01X31980Y81595D01*
G01X31998Y81635D01*
G01X32017Y81674D01*
G01X32039Y81712D01*
G01X32062Y81749D01*
G01X32087Y81785D01*
G01X32114Y81819D01*
G01X32143Y81852D01*
G01X32173Y81884D01*
G01X33570Y83281D01*
G01X33602Y83311D01*
G01X33635Y83340D01*
G01X33670Y83367D01*
G01X33705Y83392D01*
G01X33742Y83415D01*
G01X33780Y83437D01*
G01X33819Y83456D01*
G01X33859Y83474D01*
G01X33900Y83490D01*
G01X33942Y83504D01*
G01X33984Y83515D01*
G01X34027Y83525D01*
G01X34070Y83532D01*
G01X34113Y83538D01*
G01X34157Y83541D01*
G01X34201Y83542D01*
G01X37757Y83542D01*
G01X37800Y83541D01*
G01X37844Y83538D01*
G01X37887Y83532D01*
G01X37931Y83525D01*
G01X37973Y83515D01*
G01X38015Y83504D01*
G01X38057Y83490D01*
G01X38098Y83474D01*
G01X38138Y83456D01*
G01X38177Y83437D01*
G01X38215Y83415D01*
G01X38252Y83392D01*
G01X38288Y83367D01*
G01X38322Y83340D01*
G01X38355Y83311D01*
G01X38387Y83281D01*
G01X39493Y82175D01*
G01X39505Y82164D01*
G01X39519Y82156D01*
G01X39534Y82150D01*
G01X39549Y82146D01*
G01X39565Y82145D01*
G01X40414Y82145D01*
G01X40430Y82146D01*
G01X40446Y82150D01*
G01X40461Y82157D01*
G01X40504Y82178D01*
G01X40549Y82198D01*
G01X40595Y82215D01*
G01X40642Y82230D01*
G01X40689Y82243D01*
G01X40737Y82253D01*
G01X40785Y82261D01*
G01X40834Y82267D01*
G01X40883Y82271D01*
G01X40932Y82272D01*
G01X40981Y82271D01*
G01X41029Y82267D01*
G01X41078Y82261D01*
G01X41126Y82253D01*
G01X41174Y82243D01*
G01X41221Y82230D01*
G01X41268Y82215D01*
G01X41314Y82198D01*
G01X41359Y82178D01*
G01X41403Y82157D01*
G01X41418Y82150D01*
G01X41433Y82146D01*
G01X41450Y82145D01*
G01X43748Y82145D01*
G01X43763Y82146D01*
G01X43777Y82149D01*
G01X43791Y82154D01*
G01X43803Y82161D01*
G01X43815Y82170D01*
G01X43825Y82180D01*
G01X43834Y82192D01*
G01X43841Y82204D01*
G01X43846Y82218D01*
G01X43849Y82232D01*
G01X43850Y82247D01*
G01X43850Y85721D01*
G01X43849Y85736D01*
G01X43846Y85750D01*
G01X43841Y85764D01*
G01X43834Y85776D01*
G01X43825Y85788D01*
G01X43815Y85798D01*
G01X43803Y85807D01*
G01X43791Y85814D01*
G01X43777Y85819D01*
G01X43763Y85822D01*
G01X43748Y85823D01*
G37*

%LPC*%
G36*
G01X29700Y77515D02*
G01X29140Y77515D01*
G01X29166Y77468D01*
G01X29193Y77421D01*
G01X29222Y77376D01*
G01X29253Y77332D01*
G01X29285Y77290D01*
G01X29320Y77249D01*
G01X29356Y77209D01*
G01X29394Y77171D01*
G01X29434Y77135D01*
G01X29475Y77100D01*
G01X29517Y77068D01*
G01X29561Y77037D01*
G01X29606Y77008D01*
G01X29653Y76980D01*
G01X29700Y76955D01*
G01X29700Y77515D01*
G37*
G36*
G01X29700Y78642D02*
G01X29700Y79202D01*
G01X29653Y79177D01*
G01X29606Y79149D01*
G01X29561Y79120D01*
G01X29517Y79089D01*
G01X29475Y79057D01*
G01X29434Y79022D01*
G01X29394Y78986D01*
G01X29356Y78948D01*
G01X29320Y78908D01*
G01X29285Y78867D01*
G01X29253Y78825D01*
G01X29222Y78781D01*
G01X29193Y78736D01*
G01X29166Y78689D01*
G01X29140Y78642D01*
G01X29700Y78642D01*
G37*
G36*
G01X30620Y81541D02*
G01X30575Y81564D01*
G01X30575Y81041D01*
G01X31098Y81041D01*
G01X31075Y81085D01*
G01X31050Y81129D01*
G01X31022Y81171D01*
G01X30994Y81212D01*
G01X30963Y81252D01*
G01X30931Y81290D01*
G01X30897Y81327D01*
G01X30861Y81363D01*
G01X30824Y81397D01*
G01X30786Y81429D01*
G01X30746Y81460D01*
G01X30705Y81488D01*
G01X30663Y81515D01*
G01X30620Y81541D01*
G37*
G36*
G01X29548Y81041D02*
G01X29548Y81564D01*
G01X29504Y81541D01*
G01X29460Y81515D01*
G01X29418Y81488D01*
G01X29377Y81460D01*
G01X29337Y81429D01*
G01X29299Y81397D01*
G01X29262Y81363D01*
G01X29226Y81327D01*
G01X29192Y81290D01*
G01X29160Y81252D01*
G01X29130Y81212D01*
G01X29101Y81171D01*
G01X29074Y81129D01*
G01X29049Y81085D01*
G01X29025Y81041D01*
G01X29548Y81041D01*
G37*
G36*
G01X36048Y81041D02*
G01X36048Y81564D01*
G01X36004Y81541D01*
G01X35960Y81515D01*
G01X35918Y81488D01*
G01X35877Y81460D01*
G01X35837Y81429D01*
G01X35799Y81397D01*
G01X35762Y81363D01*
G01X35726Y81327D01*
G01X35692Y81290D01*
G01X35660Y81252D01*
G01X35630Y81212D01*
G01X35601Y81171D01*
G01X35574Y81129D01*
G01X35549Y81085D01*
G01X35525Y81041D01*
G01X36048Y81041D01*
G37*
G36*
G01X37120Y81541D02*
G01X37075Y81564D01*
G01X37075Y81041D01*
G01X37598Y81041D01*
G01X37575Y81085D01*
G01X37550Y81129D01*
G01X37522Y81171D01*
G01X37494Y81212D01*
G01X37463Y81252D01*
G01X37431Y81290D01*
G01X37397Y81327D01*
G01X37361Y81363D01*
G01X37324Y81397D01*
G01X37286Y81429D01*
G01X37246Y81460D01*
G01X37205Y81488D01*
G01X37163Y81515D01*
G01X37120Y81541D01*
G37*
G36*
G01X37598Y80014D02*
G01X37075Y80014D01*
G01X37075Y79491D01*
G01X37120Y79514D01*
G01X37163Y79540D01*
G01X37205Y79567D01*
G01X37246Y79595D01*
G01X37286Y79626D01*
G01X37324Y79658D01*
G01X37361Y79692D01*
G01X37397Y79728D01*
G01X37431Y79765D01*
G01X37463Y79803D01*
G01X37494Y79843D01*
G01X37522Y79884D01*
G01X37550Y79926D01*
G01X37575Y79970D01*
G01X37598Y80014D01*
G37*
G36*
G01X29548Y80014D02*
G01X29025Y80014D01*
G01X29049Y79970D01*
G01X29074Y79926D01*
G01X29101Y79884D01*
G01X29130Y79843D01*
G01X29160Y79803D01*
G01X29192Y79765D01*
G01X29226Y79728D01*
G01X29262Y79692D01*
G01X29299Y79658D01*
G01X29337Y79626D01*
G01X29377Y79595D01*
G01X29418Y79567D01*
G01X29460Y79540D01*
G01X29504Y79514D01*
G01X29548Y79491D01*
G01X29548Y80014D01*
G37*
G36*
G01X36048Y80014D02*
G01X35525Y80014D01*
G01X35549Y79970D01*
G01X35574Y79926D01*
G01X35601Y79884D01*
G01X35630Y79843D01*
G01X35660Y79803D01*
G01X35692Y79765D01*
G01X35726Y79728D01*
G01X35762Y79692D01*
G01X35799Y79658D01*
G01X35837Y79626D01*
G01X35877Y79595D01*
G01X35918Y79567D01*
G01X35960Y79540D01*
G01X36004Y79514D01*
G01X36048Y79491D01*
G01X36048Y80014D01*
G37*
G36*
G01X31098Y80014D02*
G01X30575Y80014D01*
G01X30575Y79505D01*
G01X30593Y79500D01*
G01X30636Y79524D01*
G01X30678Y79549D01*
G01X30719Y79576D01*
G01X30758Y79604D01*
G01X30797Y79635D01*
G01X30834Y79666D01*
G01X30869Y79700D01*
G01X30904Y79735D01*
G01X30936Y79771D01*
G01X30967Y79808D01*
G01X30997Y79847D01*
G01X31025Y79887D01*
G01X31051Y79928D01*
G01X31075Y79971D01*
G01X31098Y80014D01*
G37*
G36*
G01X21551Y81838D02*
G01X21551Y82319D01*
G01X21510Y82298D01*
G01X21470Y82275D01*
G01X21431Y82250D01*
G01X21393Y82224D01*
G01X21356Y82196D01*
G01X21321Y82166D01*
G01X21287Y82135D01*
G01X21254Y82102D01*
G01X21223Y82068D01*
G01X21193Y82033D01*
G01X21165Y81996D01*
G01X21139Y81958D01*
G01X21114Y81919D01*
G01X21091Y81879D01*
G01X21070Y81838D01*
G01X21551Y81838D01*
G37*
G36*
G01X22507Y82298D02*
G01X22466Y82319D01*
G01X22466Y81838D01*
G01X22947Y81838D01*
G01X22926Y81879D01*
G01X22903Y81919D01*
G01X22878Y81958D01*
G01X22852Y81996D01*
G01X22824Y82033D01*
G01X22794Y82068D01*
G01X22763Y82102D01*
G01X22730Y82135D01*
G01X22696Y82166D01*
G01X22661Y82196D01*
G01X22624Y82224D01*
G01X22586Y82250D01*
G01X22547Y82275D01*
G01X22507Y82298D01*
G37*

%LPD*%
G54D11*
G01X32804Y78078D02*
G01X32804Y81253D01*
G01X34201Y82650D01*
G01X37757Y82650D01*
G01X39154Y81253D01*
G01X44488Y81253D01*
G01X40551Y71220D02*
G01X44742Y71220D01*
G54D12*
G01X14389Y70204D02*
G01X15405Y71220D01*
G01X15405Y71474D01*
G01X13246Y70331D02*
G01X14643Y71729D01*
G01X14643Y71855D01*
G01X4864Y66521D02*
G01X4647Y66738D01*
G01X4647Y67029D01*
G01X5753Y67029D02*
G01X4647Y68135D01*
G01X4647Y68680D01*
G54D11*
G01X22590Y67029D02*
G01X26835Y71220D01*
G01X40551Y71220D01*
G54D12*
G01X27089Y81380D02*
G01X25819Y80110D01*
G01X24549Y80110D01*
G01X23406Y78967D01*
G01X23406Y71982D01*
G01X18580Y71982D01*
G01X27089Y81380D02*
G01X25946Y80237D01*
G01X25946Y80110D01*
G01X19469Y80110D01*
G01X4813Y77951D02*
G01X4229Y77951D01*
G01X3467Y77190D01*
G01X3467Y76173D01*
G01X4813Y79221D02*
G01X5753Y79221D01*
G01X7404Y80872D01*
G01X4813Y80491D02*
G01X5372Y80491D01*
G01X6515Y81634D01*
G01X11671Y83539D02*
G01X12729Y83539D01*
G01X10756Y75411D02*
G01X9563Y75411D01*
G01X8928Y76046D01*
G01X8928Y77189D01*
G01X4813Y75411D02*
G01X7785Y75411D01*
G01X8928Y74268D01*
G01X8928Y72109D01*
G01X4813Y74141D02*
G01X7404Y74141D01*
G01X8039Y73506D01*
G01X8039Y71347D01*
G01X8547Y70839D01*
G01X11849Y70839D01*
G01X12611Y71601D01*
G01X12611Y74014D01*
G01X4813Y72871D02*
G01X6642Y72871D01*
G01X7277Y72236D01*
G01X7277Y71220D01*
G01X8293Y70204D01*
G01X12103Y70204D01*
G01X13500Y71601D01*
G01X13500Y74903D01*
G01X13500Y76732D02*
G01X13169Y76732D01*
G01X13119Y76681D01*
G01X13119Y75665D01*
G01X13500Y76732D02*
G01X12941Y76732D01*
G01X12103Y77571D01*
G01X12103Y81253D01*
G01X12611Y81761D01*
G01X16974Y81761D01*
G01X30062Y85027D02*
G01X30026Y85063D01*
G01X23152Y85063D01*
G01X22009Y83920D01*
G01X8420Y68299D02*
G01X10071Y66648D01*
G01X14897Y66648D01*
G01X15786Y67537D01*
G01X15786Y69315D01*
G01X16802Y70331D01*
G01X18707Y70331D01*
G01X19469Y71094D01*
G01X19469Y71220D01*
G01X30060Y85028D02*
G01X36562Y85027D01*
G01X25946Y80110D02*
G01X27724Y78332D01*
G01X27724Y78078D01*
G01X17818Y80110D02*
G01X13678Y80110D01*
G01X13500Y79932D01*
G01X19469Y80110D02*
G01X17818Y80110D01*
G01X16929Y71982D02*
G01X18580Y71982D01*
G01X19342Y69950D02*
G01X21501Y69950D01*
G01X12729Y83539D02*
G01X13804Y83539D01*
G01X16974Y81761D02*
G01X19215Y81761D01*
G01X21374Y83920D01*
G01X22009Y83920D01*
G54D27*
G01X10156Y80491D02*
G01X11356Y80491D01*
G01X10156Y79221D02*
G01X11356Y79221D01*
G01X10156Y77951D02*
G01X11356Y77951D01*
G01X10156Y76681D02*
G01X11356Y76681D01*
G01X10156Y75411D02*
G01X11356Y75411D01*
G01X10156Y74141D02*
G01X11356Y74141D01*
G01X10156Y72871D02*
G01X11356Y72871D01*
G01X10156Y71601D02*
G01X11356Y71601D01*
G01X4213Y80491D02*
G01X5413Y80491D01*
G01X4213Y79221D02*
G01X5413Y79221D01*
G01X4213Y77951D02*
G01X5413Y77951D01*
G01X4213Y76681D02*
G01X5413Y76681D01*
G01X4213Y75411D02*
G01X5413Y75411D01*
G01X4213Y74141D02*
G01X5413Y74141D01*
G01X4213Y72871D02*
G01X5413Y72871D01*
G01X4213Y71601D02*
G01X5413Y71601D01*
G36*
G01X17605Y84490D02*
G01X16405Y84490D01*
G01X16405Y82589D01*
G01X17605Y82589D01*
G01X17605Y84490D01*
G37*
G36*
G01X14404Y84490D02*
G01X13204Y84490D01*
G01X13204Y82589D01*
G01X14404Y82589D01*
G01X14404Y84490D01*
G37*
G36*
G01X7871Y82589D02*
G01X9071Y82589D01*
G01X9071Y84490D01*
G01X7871Y84490D01*
G01X7871Y82589D01*
G37*
G36*
G01X11071Y82589D02*
G01X12271Y82589D01*
G01X12271Y84490D01*
G01X11071Y84490D01*
G01X11071Y82589D01*
G37*
G36*
G01X7871Y67349D02*
G01X9071Y67349D01*
G01X9071Y69250D01*
G01X7871Y69250D01*
G01X7871Y67349D01*
G37*
G36*
G01X11071Y67349D02*
G01X12271Y67349D01*
G01X12271Y69250D01*
G01X11071Y69250D01*
G01X11071Y67349D01*
G37*
G36*
G01X13332Y67349D02*
G01X14532Y67349D01*
G01X14532Y69250D01*
G01X13332Y69250D01*
G01X13332Y67349D01*
G37*
G36*
G01X16532Y67349D02*
G01X17732Y67349D01*
G01X17732Y69250D01*
G01X16532Y69250D01*
G01X16532Y67349D01*
G37*
G36*
G01X4148Y68130D02*
G01X5148Y68130D01*
G01X5148Y69231D01*
G01X4148Y69231D01*
G01X4148Y68130D01*
G37*
G36*
G01X2548Y68130D02*
G01X3548Y68130D01*
G01X3548Y69231D01*
G01X2548Y69231D01*
G01X2548Y68130D01*
G37*
G36*
G01X4148Y66479D02*
G01X5148Y66479D01*
G01X5148Y67580D01*
G01X4148Y67580D01*
G01X4148Y66479D01*
G37*
G36*
G01X2548Y66479D02*
G01X3548Y66479D01*
G01X3548Y67580D01*
G01X2548Y67580D01*
G01X2548Y66479D01*
G37*
G36*
G01X12550Y77332D02*
G01X12550Y76132D01*
G01X14450Y76132D01*
G01X14450Y77332D01*
G01X12550Y77332D01*
G37*
G36*
G01X12550Y80533D02*
G01X12550Y79333D01*
G01X14450Y79333D01*
G01X14450Y80533D01*
G01X12550Y80533D01*
G37*
G54D20*
G01X42509Y67029D03*
G01X39969Y67029D03*
G01X37429Y67029D03*
G01X34889Y67029D03*
G01X22589Y67029D03*
G01X25184Y78078D03*
G01X27724Y78078D03*
G01X30264Y78078D03*
G54D21*
G01X32804Y78078D03*
G54D22*
G01X22009Y81380D03*
G01X22009Y83920D03*
G01X24549Y81380D03*
G01X24549Y83920D03*
G01X27089Y81380D03*
G54D23*
G01X27089Y83920D03*
G54D24*
G01X36562Y80528D03*
G01X30062Y80528D03*
G01X36562Y85027D03*
G01X30062Y85027D03*
G54D25*
G01X40932Y81253D03*
G01X40551Y71220D03*
G54D23*
G01X16167Y77316D03*
G54D22*
G01X18707Y77316D03*
G01X16167Y74776D03*
G01X18707Y74776D03*
G54D14*
G01X4864Y66521D03*
G01X5753Y67029D03*
G01X3086Y67283D03*
G01X3086Y68172D03*
G01X3467Y76173D03*
G01X4737Y76681D03*
G01X6515Y81634D03*
G01X7404Y80872D03*
G01X7620Y83666D03*
G01X17056Y83412D03*
G01X8928Y77189D03*
G01X8928Y72109D03*
G01X13500Y74903D03*
G01X12611Y74014D03*
G01X8420Y68299D03*
G01X17056Y68299D03*
G01X13119Y75665D03*
G01X14389Y70204D03*
G01X13246Y70331D03*
G01X15405Y71474D03*
G01X14643Y71855D03*
G01X19469Y71220D03*
G01X42202Y81253D03*
G01X43472Y81253D03*
G01X42837Y81253D03*
G01X42202Y71220D03*
G01X43472Y71220D03*
G01X42837Y71220D03*
G01X10833Y71601D03*
G01X17818Y80110D03*
G01X19469Y80110D03*
G01X16929Y71982D03*
G01X18580Y71982D03*
G01X19342Y69950D03*
G01X21501Y69950D03*
G01X11722Y68299D03*
G01X13754Y68299D03*
G01X16167Y72236D03*
G01X12729Y83539D03*
G01X17056Y80872D03*
G01X19596Y66648D03*
G01X32804Y67029D03*
G54D26*
G01X4460Y81746D02*
G01X1960Y81746D01*
G01X4460Y70346D02*
G01X1960Y70346D01*
M00*
M02*
