;Layer: Drill NPTH
;EasyEDA v6.3.53, 2020-06-17T01:54:55+02:00
;e9d571a3f1504c91a96fab9e56f28b91,9eabfb72a9474bef872f988307f0334b,10
;Gerber Generator version 0.2
M48
METRIC,LZ,000.000
;Holesize 1 = 0.551 METRIC
T01C0.551
;Holesize 2 = 1.101 METRIC
T02C1.101
;Holesize 3 = 3.000 METRIC
T03C3.000
%
G05
G90
T01
X+019078Y+064159
X+019928Y+064159
X+020778Y+064159
X+021628Y+064159
X+022478Y+064159
X+023328Y+064159
X+024178Y+064159
X+025028Y+064159
X+019078Y+065759
X+019928Y+065759
X+020778Y+065759
X+021628Y+065759
X+022478Y+065759
X+023328Y+065759
X+024178Y+065759
X+025028Y+065759
X+064785Y+064159
X+065635Y+064159
X+066485Y+064159
X+067335Y+064159
X+068185Y+064159
X+069035Y+064159
X+069885Y+064159
X+070735Y+064159
X+064785Y+065759
X+065635Y+065759
X+066485Y+065759
X+067335Y+065759
X+068185Y+065759
X+069035Y+065759
X+069885Y+065759
X+070735Y+065759
X+019078Y+042239
X+019928Y+042239
X+020778Y+042239
X+021628Y+042239
X+022478Y+042239
X+023328Y+042239
X+024178Y+042239
X+025028Y+042239
X+019078Y+043839
X+019928Y+043839
X+020778Y+043839
X+021628Y+043839
X+022478Y+043839
X+023328Y+043839
X+024178Y+043839
X+025028Y+043839
X+064785Y+042239
X+065635Y+042239
X+066485Y+042239
X+067335Y+042239
X+068185Y+042239
X+069035Y+042239
X+069885Y+042239
X+070735Y+042239
X+064785Y+043839
X+065635Y+043839
X+066485Y+043839
X+067335Y+043839
X+068185Y+043839
X+069035Y+043839
X+069885Y+043839
X+070735Y+043839
X+019078Y+020320
X+019928Y+020320
X+020778Y+020320
X+021628Y+020320
X+022478Y+020320
X+023328Y+020320
X+024178Y+020320
X+025028Y+020320
X+019078Y+021919
X+019928Y+021919
X+020778Y+021919
X+021628Y+021919
X+022478Y+021919
X+023328Y+021919
X+024178Y+021919
X+025028Y+021919
X+064785Y+020320
X+065635Y+020320
X+066485Y+020320
X+067335Y+020320
X+068185Y+020320
X+069035Y+020320
X+069885Y+020320
X+070735Y+020320
X+064785Y+021919
X+065635Y+021919
X+066485Y+021919
X+067335Y+021919
X+068185Y+021919
X+069035Y+021919
X+069885Y+021919
X+070735Y+021919
X+045707Y+078895
X+045707Y+078045
X+045707Y+077194
X+045707Y+076344
X+045707Y+075494
X+045707Y+074644
X+045707Y+073794
X+045707Y+072944
X+044107Y+078895
X+044107Y+078045
X+044107Y+077194
X+044107Y+076344
X+044107Y+075494
X+044107Y+074644
X+044107Y+073794
X+044107Y+072944
X+045707Y+056975
X+045707Y+056125
X+045707Y+055274
X+045707Y+054424
X+045707Y+053574
X+045707Y+052724
X+045707Y+051874
X+045707Y+051024
X+044107Y+056975
X+044107Y+056125
X+044107Y+055274
X+044107Y+054424
X+044107Y+053574
X+044107Y+052724
X+044107Y+051874
X+044107Y+051024
X+045707Y+035055
X+045707Y+034205
X+045707Y+033355
X+045707Y+032504
X+045707Y+031654
X+045707Y+030804
X+045707Y+029954
X+045707Y+029104
X+044107Y+035055
X+044107Y+034205
X+044107Y+033355
X+044107Y+032504
X+044107Y+031654
X+044107Y+030804
X+044107Y+029954
X+044107Y+029104
X+045707Y+013135
X+045707Y+012285
X+045707Y+011435
X+045707Y+010584
X+045707Y+009734
X+045707Y+008884
X+045707Y+008034
X+045707Y+007184
X+044107Y+013135
X+044107Y+012285
X+044107Y+011435
X+044107Y+010584
X+044107Y+009734
X+044107Y+008884
X+044107Y+008034
X+044107Y+007184
T02
X+003210Y+078296
X+003210Y+073796
T03
X+042202Y+076173
M30
