;Layer: Drill PTH
;EasyEDA v6.3.53, 2020-06-17T01:54:55+02:00
;e9d571a3f1504c91a96fab9e56f28b91,9eabfb72a9474bef872f988307f0334b,10
;Gerber Generator version 0.2
M48
METRIC,LZ,000.000
;Holesize 1 = 0.305 METRIC
T01C0.305
;Holesize 2 = 0.889 METRIC
T02C0.889
;Holesize 3 = 0.915 METRIC
T03C0.915
;Holesize 4 = 1.000 METRIC
T04C1.000
;Holesize 5 = 1.101 METRIC
T05C1.101
;Holesize 6 = 1.200 METRIC
T06C1.200
%
G05
G90
T01
X+004864Y+066521
X+005753Y+067029
X+003086Y+067283
X+003086Y+068172
X+003467Y+076173
X+004737Y+076681
X+006515Y+081634
X+007404Y+080872
X+007620Y+083666
X+017056Y+083412
X+008928Y+077189
X+008928Y+072109
X+013500Y+074903
X+012611Y+074014
X+008420Y+068299
X+017056Y+068299
X+013119Y+075665
X+014389Y+070204
X+013246Y+070331
X+015405Y+071474
X+014643Y+071855
X+019469Y+071220
X+042202Y+081253
X+043472Y+081253
X+042837Y+081253
X+042202Y+071220
X+043472Y+071220
X+042837Y+071220
X+010833Y+071601
X+017818Y+080110
X+019469Y+080110
X+016929Y+071982
X+018580Y+071982
X+019342Y+069950
X+021501Y+069950
X+011722Y+068299
X+013754Y+068299
X+016167Y+072236
X+012729Y+083539
X+017056Y+080872
X+019596Y+066648
X+032804Y+067029
T02
X+022009Y+081380
X+022009Y+083920
X+024549Y+081380
X+024549Y+083920
X+027089Y+081380
X+027089Y+083920
X+016167Y+077316
X+018707Y+077316
X+016167Y+074776
X+018707Y+074776
T03
X+040932Y+081253
X+040551Y+071220
T04
X+002359Y+081746G85X+004059Y+081746
X+002359Y+070347G85X+004059Y+070347
T05
X+025184Y+078078
X+027724Y+078078
X+030264Y+078078
X+032804Y+078078
T06
X+042510Y+067029
X+039970Y+067029
X+037430Y+067029
X+034890Y+067029
X+022590Y+067029
X+036562Y+080527
X+030062Y+080527
X+036562Y+085027
X+030062Y+085027
M30
