G04 Layer: TopLayer*
G04 EasyEDA v6.3.53, 2020-06-17T01:54:55+02:00*
G04 e9d571a3f1504c91a96fab9e56f28b91,9eabfb72a9474bef872f988307f0334b,10*
G04 Gerber Generator version 0.2*
G04 Scale: 100 percent, Rotated: No, Reflected: No *
G04 Dimensions in millimeters *
G04 leading zeros omitted , absolute positions ,3 integer and 3 decimal *
%FSLAX33Y33*%
%MOMM*%
G90*
G71D02*

%ADD11C,1.270000*%
%ADD12C,0.381000*%
%ADD13C,0.450012*%
%ADD14C,0.609600*%
%ADD15R,1.099998X0.599999*%
%ADD16R,2.499995X1.199998*%
%ADD17R,1.899996X1.199998*%
%ADD18R,1.092200X0.990600*%
%ADD19R,5.499989X1.999996*%
%ADD20C,1.999996*%
%ADD21R,1.999996X1.999996*%
%ADD22C,1.574800*%
%ADD23R,1.574800X1.574800*%
%ADD24C,1.799996*%
%ADD25C,1.524000*%
%ADD26C,1.499997*%

%LPD*%
G36*
G01X19766Y82156D02*
G01X16473Y82156D01*
G01X16457Y82155D01*
G01X16442Y82151D01*
G01X16427Y82145D01*
G01X16414Y82137D01*
G01X16401Y82126D01*
G01X15868Y81593D01*
G01X15858Y81581D01*
G01X15850Y81567D01*
G01X15844Y81553D01*
G01X15840Y81537D01*
G01X15839Y81521D01*
G01X15840Y81507D01*
G01X15843Y81493D01*
G01X15848Y81479D01*
G01X15855Y81466D01*
G01X15864Y81455D01*
G01X15874Y81445D01*
G01X15885Y81436D01*
G01X15898Y81429D01*
G01X15912Y81424D01*
G01X15926Y81421D01*
G01X15940Y81420D01*
G01X15958Y81421D01*
G01X15975Y81426D01*
G01X15991Y81433D01*
G01X16018Y81448D01*
G01X16047Y81461D01*
G01X16076Y81472D01*
G01X16106Y81481D01*
G01X16137Y81488D01*
G01X16168Y81493D01*
G01X16199Y81496D01*
G01X16230Y81497D01*
G01X16263Y81496D01*
G01X16296Y81492D01*
G01X16329Y81487D01*
G01X16361Y81479D01*
G01X16392Y81469D01*
G01X16423Y81456D01*
G01X16453Y81442D01*
G01X16482Y81426D01*
G01X16509Y81408D01*
G01X16536Y81388D01*
G01X16560Y81366D01*
G01X16572Y81356D01*
G01X16586Y81348D01*
G01X16600Y81343D01*
G01X16615Y81339D01*
G01X16630Y81338D01*
G01X16645Y81339D01*
G01X16660Y81343D01*
G01X16675Y81348D01*
G01X16688Y81356D01*
G01X16700Y81366D01*
G01X16728Y81390D01*
G01X16757Y81412D01*
G01X16788Y81432D01*
G01X16821Y81449D01*
G01X16854Y81464D01*
G01X16854Y80891D01*
G01X16813Y80891D01*
G01X16799Y80890D01*
G01X16785Y80887D01*
G01X16771Y80882D01*
G01X16758Y80875D01*
G01X16747Y80866D01*
G01X16736Y80856D01*
G01X16728Y80845D01*
G01X16721Y80832D01*
G01X16716Y80818D01*
G01X16713Y80804D01*
G01X16712Y80790D01*
G01X16712Y80041D01*
G01X16713Y80026D01*
G01X16716Y80012D01*
G01X16721Y79999D01*
G01X16728Y79986D01*
G01X16736Y79974D01*
G01X16747Y79964D01*
G01X16758Y79955D01*
G01X16771Y79948D01*
G01X16785Y79943D01*
G01X16799Y79940D01*
G01X16813Y79939D01*
G01X16854Y79939D01*
G01X16854Y79643D01*
G01X16855Y79629D01*
G01X16858Y79615D01*
G01X16863Y79601D01*
G01X16870Y79588D01*
G01X16879Y79577D01*
G01X16889Y79566D01*
G01X16901Y79558D01*
G01X16914Y79551D01*
G01X16927Y79546D01*
G01X16941Y79543D01*
G01X16956Y79542D01*
G01X17105Y79542D01*
G01X17119Y79543D01*
G01X17133Y79546D01*
G01X17147Y79551D01*
G01X17160Y79558D01*
G01X17171Y79566D01*
G01X17181Y79577D01*
G01X17190Y79588D01*
G01X17197Y79601D01*
G01X17202Y79615D01*
G01X17205Y79629D01*
G01X17206Y79643D01*
G01X17206Y79951D01*
G01X17219Y79960D01*
G01X17231Y79970D01*
G01X17241Y79982D01*
G01X17249Y79996D01*
G01X17255Y80010D01*
G01X17259Y80025D01*
G01X17260Y80041D01*
G01X17259Y80052D01*
G01X17256Y80110D01*
G01X17257Y80147D01*
G01X17261Y80184D01*
G01X17267Y80221D01*
G01X17276Y80257D01*
G01X17286Y80292D01*
G01X17300Y80327D01*
G01X17315Y80360D01*
G01X17332Y80393D01*
G01X17340Y80409D01*
G01X17345Y80426D01*
G01X17346Y80444D01*
G01X17346Y80790D01*
G01X17345Y80804D01*
G01X17342Y80818D01*
G01X17337Y80832D01*
G01X17330Y80845D01*
G01X17321Y80856D01*
G01X17311Y80866D01*
G01X17300Y80875D01*
G01X17287Y80882D01*
G01X17273Y80887D01*
G01X17259Y80890D01*
G01X17245Y80891D01*
G01X17206Y80891D01*
G01X17206Y81464D01*
G01X17240Y81449D01*
G01X17272Y81432D01*
G01X17303Y81412D01*
G01X17332Y81391D01*
G01X17360Y81367D01*
G01X17371Y81357D01*
G01X17385Y81349D01*
G01X17399Y81344D01*
G01X17414Y81340D01*
G01X17429Y81339D01*
G01X17444Y81340D01*
G01X17459Y81344D01*
G01X17473Y81349D01*
G01X17487Y81357D01*
G01X17498Y81367D01*
G01X17523Y81388D01*
G01X17550Y81408D01*
G01X17577Y81426D01*
G01X17606Y81443D01*
G01X17635Y81457D01*
G01X17666Y81469D01*
G01X17698Y81479D01*
G01X17730Y81487D01*
G01X17762Y81492D01*
G01X17795Y81496D01*
G01X17828Y81497D01*
G01X17861Y81496D01*
G01X17894Y81492D01*
G01X17926Y81487D01*
G01X17958Y81479D01*
G01X17990Y81469D01*
G01X18021Y81456D01*
G01X18051Y81442D01*
G01X18079Y81426D01*
G01X18107Y81408D01*
G01X18133Y81388D01*
G01X18158Y81366D01*
G01X18170Y81356D01*
G01X18183Y81348D01*
G01X18198Y81343D01*
G01X18212Y81339D01*
G01X18228Y81338D01*
G01X18243Y81339D01*
G01X18258Y81343D01*
G01X18272Y81348D01*
G01X18286Y81356D01*
G01X18298Y81366D01*
G01X18322Y81388D01*
G01X18349Y81408D01*
G01X18376Y81426D01*
G01X18405Y81442D01*
G01X18435Y81456D01*
G01X18466Y81469D01*
G01X18497Y81479D01*
G01X18529Y81487D01*
G01X18562Y81492D01*
G01X18595Y81496D01*
G01X18628Y81497D01*
G01X18661Y81496D01*
G01X18694Y81492D01*
G01X18726Y81487D01*
G01X18759Y81479D01*
G01X18790Y81469D01*
G01X18821Y81456D01*
G01X18851Y81442D01*
G01X18879Y81426D01*
G01X18907Y81408D01*
G01X18933Y81388D01*
G01X18958Y81366D01*
G01X18970Y81356D01*
G01X18983Y81348D01*
G01X18998Y81343D01*
G01X19013Y81339D01*
G01X19028Y81338D01*
G01X19043Y81339D01*
G01X19058Y81343D01*
G01X19072Y81348D01*
G01X19086Y81356D01*
G01X19098Y81366D01*
G01X19122Y81388D01*
G01X19149Y81408D01*
G01X19176Y81426D01*
G01X19205Y81442D01*
G01X19235Y81456D01*
G01X19266Y81469D01*
G01X19297Y81479D01*
G01X19329Y81487D01*
G01X19362Y81492D01*
G01X19395Y81496D01*
G01X19428Y81497D01*
G01X19464Y81496D01*
G01X19499Y81492D01*
G01X19534Y81485D01*
G01X19569Y81476D01*
G01X19603Y81464D01*
G01X19636Y81450D01*
G01X19650Y81444D01*
G01X19664Y81441D01*
G01X19679Y81440D01*
G01X19694Y81441D01*
G01X19708Y81444D01*
G01X19722Y81449D01*
G01X19734Y81456D01*
G01X19746Y81465D01*
G01X19756Y81475D01*
G01X19765Y81487D01*
G01X19772Y81499D01*
G01X19777Y81513D01*
G01X19780Y81527D01*
G01X19781Y81541D01*
G01X19781Y81759D01*
G01X19782Y81791D01*
G01X19786Y81822D01*
G01X19791Y81854D01*
G01X19799Y81884D01*
G01X19809Y81914D01*
G01X19821Y81944D01*
G01X19835Y81972D01*
G01X19851Y82000D01*
G01X19858Y82012D01*
G01X19863Y82026D01*
G01X19866Y82040D01*
G01X19867Y82054D01*
G01X19866Y82069D01*
G01X19863Y82083D01*
G01X19858Y82097D01*
G01X19851Y82109D01*
G01X19843Y82121D01*
G01X19832Y82131D01*
G01X19821Y82140D01*
G01X19808Y82147D01*
G01X19794Y82152D01*
G01X19780Y82155D01*
G01X19766Y82156D01*
G37*

%LPD*%
G36*
G01X22364Y82076D02*
G01X21653Y82076D01*
G01X21639Y82075D01*
G01X21624Y82072D01*
G01X21611Y82067D01*
G01X21598Y82060D01*
G01X21586Y82052D01*
G01X21576Y82041D01*
G01X21568Y82030D01*
G01X21561Y82017D01*
G01X21556Y82003D01*
G01X21552Y81989D01*
G01X21551Y81975D01*
G01X21551Y81838D01*
G01X20981Y81838D01*
G01X20965Y81836D01*
G01X20950Y81833D01*
G01X20935Y81827D01*
G01X20921Y81818D01*
G01X20909Y81808D01*
G01X20705Y81604D01*
G01X20695Y81591D01*
G01X20686Y81578D01*
G01X20680Y81563D01*
G01X20676Y81548D01*
G01X20675Y81532D01*
G01X20675Y81213D01*
G01X20677Y81195D01*
G01X20681Y81178D01*
G01X20691Y81147D01*
G01X20699Y81114D01*
G01X20705Y81082D01*
G01X20708Y81049D01*
G01X20710Y81015D01*
G01X20710Y79815D01*
G01X20709Y79784D01*
G01X20705Y79752D01*
G01X20700Y79721D01*
G01X20693Y79691D01*
G01X20684Y79661D01*
G01X20673Y79631D01*
G01X20660Y79602D01*
G01X20645Y79575D01*
G01X20628Y79548D01*
G01X20610Y79522D01*
G01X20590Y79498D01*
G01X20569Y79475D01*
G01X20546Y79453D01*
G01X20521Y79433D01*
G01X20496Y79415D01*
G01X20469Y79398D01*
G01X20441Y79383D01*
G01X20412Y79370D01*
G01X20383Y79359D01*
G01X20353Y79350D01*
G01X20322Y79343D01*
G01X20291Y79338D01*
G01X20260Y79335D01*
G01X20228Y79334D01*
G01X20195Y79335D01*
G01X20162Y79338D01*
G01X20129Y79344D01*
G01X20097Y79352D01*
G01X20066Y79362D01*
G01X20035Y79374D01*
G01X20005Y79388D01*
G01X19976Y79405D01*
G01X19949Y79423D01*
G01X19923Y79443D01*
G01X19898Y79465D01*
G01X19886Y79475D01*
G01X19873Y79482D01*
G01X19858Y79488D01*
G01X19843Y79491D01*
G01X19828Y79493D01*
G01X19813Y79491D01*
G01X19798Y79488D01*
G01X19783Y79482D01*
G01X19770Y79475D01*
G01X19758Y79465D01*
G01X19733Y79443D01*
G01X19707Y79423D01*
G01X19680Y79405D01*
G01X19651Y79388D01*
G01X19621Y79374D01*
G01X19590Y79362D01*
G01X19559Y79352D01*
G01X19527Y79344D01*
G01X19494Y79338D01*
G01X19461Y79335D01*
G01X19428Y79334D01*
G01X19395Y79335D01*
G01X19362Y79338D01*
G01X19329Y79344D01*
G01X19297Y79352D01*
G01X19266Y79362D01*
G01X19235Y79374D01*
G01X19205Y79388D01*
G01X19176Y79405D01*
G01X19149Y79423D01*
G01X19122Y79443D01*
G01X19098Y79465D01*
G01X19086Y79475D01*
G01X19072Y79482D01*
G01X19058Y79488D01*
G01X19043Y79491D01*
G01X19028Y79493D01*
G01X19013Y79491D01*
G01X18998Y79488D01*
G01X18983Y79482D01*
G01X18970Y79475D01*
G01X18958Y79465D01*
G01X18915Y79429D01*
G01X18903Y79418D01*
G01X18893Y79406D01*
G01X18885Y79393D01*
G01X18879Y79378D01*
G01X18875Y79363D01*
G01X18874Y79347D01*
G01X18875Y79331D01*
G01X18879Y79316D01*
G01X18885Y79301D01*
G01X18894Y79288D01*
G01X18904Y79275D01*
G01X19023Y79157D01*
G01X19044Y79133D01*
G01X19064Y79108D01*
G01X19083Y79082D01*
G01X19099Y79055D01*
G01X19113Y79026D01*
G01X19125Y78997D01*
G01X19136Y78966D01*
G01X19143Y78935D01*
G01X19149Y78904D01*
G01X19152Y78872D01*
G01X19154Y78840D01*
G01X19154Y78322D01*
G01X19155Y78307D01*
G01X19158Y78291D01*
G01X19164Y78277D01*
G01X19172Y78264D01*
G01X19182Y78252D01*
G01X19194Y78241D01*
G01X19207Y78233D01*
G01X19247Y78210D01*
G01X19286Y78185D01*
G01X19324Y78158D01*
G01X19361Y78130D01*
G01X19397Y78100D01*
G01X19431Y78068D01*
G01X19464Y78035D01*
G01X19495Y78000D01*
G01X19525Y77964D01*
G01X19553Y77927D01*
G01X19580Y77889D01*
G01X19604Y77849D01*
G01X19627Y77809D01*
G01X19648Y77767D01*
G01X19667Y77725D01*
G01X19685Y77681D01*
G01X19700Y77637D01*
G01X19713Y77593D01*
G01X19725Y77548D01*
G01X19734Y77502D01*
G01X19741Y77456D01*
G01X19746Y77410D01*
G01X19749Y77363D01*
G01X19751Y77316D01*
G01X19749Y77270D01*
G01X19746Y77223D01*
G01X19741Y77176D01*
G01X19734Y77130D01*
G01X19724Y77084D01*
G01X19713Y77039D01*
G01X19699Y76994D01*
G01X19684Y76950D01*
G01X19667Y76906D01*
G01X19647Y76864D01*
G01X19626Y76822D01*
G01X19603Y76781D01*
G01X19578Y76741D01*
G01X19551Y76703D01*
G01X19523Y76666D01*
G01X19493Y76630D01*
G01X19461Y76595D01*
G01X19428Y76562D01*
G01X19393Y76530D01*
G01X19357Y76500D01*
G01X19320Y76472D01*
G01X19282Y76445D01*
G01X19242Y76420D01*
G01X19201Y76397D01*
G01X19160Y76376D01*
G01X19117Y76357D01*
G01X19073Y76339D01*
G01X19029Y76324D01*
G01X18984Y76310D01*
G01X18939Y76299D01*
G01X18893Y76289D01*
G01X18847Y76282D01*
G01X18800Y76277D01*
G01X18753Y76274D01*
G01X18707Y76273D01*
G01X18660Y76274D01*
G01X18613Y76277D01*
G01X18566Y76282D01*
G01X18520Y76289D01*
G01X18474Y76299D01*
G01X18429Y76310D01*
G01X18384Y76324D01*
G01X18340Y76339D01*
G01X18296Y76357D01*
G01X18254Y76376D01*
G01X18212Y76397D01*
G01X18171Y76420D01*
G01X18131Y76445D01*
G01X18093Y76472D01*
G01X18056Y76500D01*
G01X18020Y76530D01*
G01X17985Y76562D01*
G01X17952Y76595D01*
G01X17920Y76630D01*
G01X17890Y76666D01*
G01X17862Y76703D01*
G01X17835Y76741D01*
G01X17810Y76781D01*
G01X17787Y76822D01*
G01X17766Y76864D01*
G01X17747Y76906D01*
G01X17729Y76950D01*
G01X17714Y76994D01*
G01X17700Y77039D01*
G01X17689Y77084D01*
G01X17679Y77130D01*
G01X17672Y77176D01*
G01X17667Y77223D01*
G01X17664Y77270D01*
G01X17663Y77316D01*
G01X17664Y77363D01*
G01X17667Y77410D01*
G01X17672Y77456D01*
G01X17679Y77502D01*
G01X17689Y77548D01*
G01X17700Y77593D01*
G01X17713Y77637D01*
G01X17729Y77681D01*
G01X17746Y77725D01*
G01X17765Y77767D01*
G01X17786Y77809D01*
G01X17809Y77849D01*
G01X17834Y77889D01*
G01X17860Y77927D01*
G01X17888Y77964D01*
G01X17918Y78000D01*
G01X17949Y78035D01*
G01X17982Y78068D01*
G01X18016Y78100D01*
G01X18052Y78130D01*
G01X18089Y78158D01*
G01X18127Y78185D01*
G01X18166Y78210D01*
G01X18207Y78233D01*
G01X18220Y78241D01*
G01X18231Y78252D01*
G01X18241Y78264D01*
G01X18249Y78277D01*
G01X18255Y78291D01*
G01X18258Y78307D01*
G01X18260Y78322D01*
G01X18260Y78546D01*
G01X18259Y78560D01*
G01X18255Y78574D01*
G01X18250Y78588D01*
G01X18243Y78601D01*
G01X18235Y78612D01*
G01X18224Y78623D01*
G01X18213Y78631D01*
G01X18200Y78638D01*
G01X18187Y78643D01*
G01X18172Y78646D01*
G01X18158Y78647D01*
G01X15430Y78647D01*
G01X15399Y78648D01*
G01X15369Y78652D01*
G01X15339Y78657D01*
G01X15309Y78664D01*
G01X15280Y78673D01*
G01X15252Y78684D01*
G01X15224Y78698D01*
G01X15198Y78713D01*
G01X15172Y78729D01*
G01X15148Y78748D01*
G01X15125Y78768D01*
G01X15103Y78789D01*
G01X15083Y78812D01*
G01X15065Y78837D01*
G01X15048Y78862D01*
G01X15033Y78889D01*
G01X15020Y78916D01*
G01X15009Y78945D01*
G01X15000Y78974D01*
G01X14992Y79004D01*
G01X14987Y79034D01*
G01X14984Y79064D01*
G01X14983Y79094D01*
G01X14983Y79289D01*
G01X14982Y79304D01*
G01X14979Y79318D01*
G01X14974Y79331D01*
G01X14967Y79344D01*
G01X14958Y79356D01*
G01X14948Y79366D01*
G01X14936Y79375D01*
G01X14924Y79382D01*
G01X14910Y79387D01*
G01X14896Y79390D01*
G01X14881Y79391D01*
G01X14866Y79390D01*
G01X14852Y79386D01*
G01X14838Y79381D01*
G01X14805Y79367D01*
G01X14771Y79355D01*
G01X14736Y79346D01*
G01X14701Y79339D01*
G01X14666Y79335D01*
G01X14630Y79334D01*
G01X14598Y79335D01*
G01X14567Y79338D01*
G01X14536Y79343D01*
G01X14505Y79350D01*
G01X14475Y79359D01*
G01X14446Y79370D01*
G01X14417Y79383D01*
G01X14389Y79398D01*
G01X14362Y79415D01*
G01X14337Y79433D01*
G01X14312Y79453D01*
G01X14289Y79475D01*
G01X14268Y79498D01*
G01X14248Y79522D01*
G01X14230Y79548D01*
G01X14213Y79575D01*
G01X14198Y79602D01*
G01X14185Y79631D01*
G01X14174Y79661D01*
G01X14165Y79691D01*
G01X14158Y79721D01*
G01X14152Y79752D01*
G01X14149Y79784D01*
G01X14148Y79815D01*
G01X14148Y81015D01*
G01X14150Y81049D01*
G01X14153Y81082D01*
G01X14159Y81114D01*
G01X14167Y81147D01*
G01X14177Y81178D01*
G01X14181Y81195D01*
G01X14183Y81213D01*
G01X14182Y81227D01*
G01X14179Y81241D01*
G01X14174Y81255D01*
G01X14167Y81268D01*
G01X14158Y81279D01*
G01X14148Y81290D01*
G01X14136Y81298D01*
G01X14123Y81305D01*
G01X14110Y81310D01*
G01X14096Y81313D01*
G01X14081Y81314D01*
G01X8520Y81314D01*
G01X8504Y81313D01*
G01X8488Y81309D01*
G01X8474Y81303D01*
G01X8460Y81295D01*
G01X8448Y81285D01*
G01X8253Y81090D01*
G01X8242Y81077D01*
G01X8234Y81064D01*
G01X8228Y81049D01*
G01X8224Y81034D01*
G01X8223Y81018D01*
G01X8224Y81003D01*
G01X8227Y80989D01*
G01X8232Y80975D01*
G01X8239Y80963D01*
G01X8248Y80951D01*
G01X8258Y80941D01*
G01X8270Y80932D01*
G01X8282Y80925D01*
G01X8296Y80920D01*
G01X8310Y80917D01*
G01X8325Y80916D01*
G01X9878Y80916D01*
G01X9901Y80915D01*
G01X9925Y80912D01*
G01X9948Y80906D01*
G01X9970Y80899D01*
G01X9992Y80889D01*
G01X10013Y80878D01*
G01X10032Y80864D01*
G01X10050Y80849D01*
G01X10067Y80832D01*
G01X10082Y80814D01*
G01X10096Y80795D01*
G01X10107Y80774D01*
G01X10117Y80752D01*
G01X10124Y80730D01*
G01X10130Y80707D01*
G01X10133Y80683D01*
G01X10134Y80660D01*
G01X10134Y79460D01*
G01X10133Y79436D01*
G01X10130Y79412D01*
G01X10124Y79389D01*
G01X10117Y79367D01*
G01X10107Y79345D01*
G01X10096Y79324D01*
G01X10082Y79305D01*
G01X10067Y79287D01*
G01X10050Y79270D01*
G01X10032Y79255D01*
G01X10013Y79241D01*
G01X9992Y79230D01*
G01X9970Y79220D01*
G01X9948Y79213D01*
G01X9925Y79207D01*
G01X9901Y79204D01*
G01X9878Y79203D01*
G01X9476Y79203D01*
G01X9462Y79202D01*
G01X9448Y79199D01*
G01X9434Y79194D01*
G01X9421Y79187D01*
G01X9410Y79178D01*
G01X9399Y79168D01*
G01X9391Y79156D01*
G01X9384Y79144D01*
G01X9379Y79130D01*
G01X9376Y79116D01*
G01X9375Y79101D01*
G01X9375Y79068D01*
G01X9376Y79052D01*
G01X9380Y79036D01*
G01X9386Y79022D01*
G01X9394Y79008D01*
G01X9404Y78996D01*
G01X9591Y78809D01*
G01X9603Y78799D01*
G01X9617Y78791D01*
G01X9631Y78785D01*
G01X9647Y78781D01*
G01X9663Y78780D01*
G01X10706Y78780D01*
G01X10738Y78778D01*
G01X10769Y78775D01*
G01X10801Y78769D01*
G01X10832Y78761D01*
G01X10862Y78751D01*
G01X10891Y78739D01*
G01X10920Y78725D01*
G01X10947Y78709D01*
G01X10973Y78690D01*
G01X10998Y78670D01*
G01X11022Y78649D01*
G01X11276Y78395D01*
G01X11297Y78371D01*
G01X11317Y78346D01*
G01X11336Y78320D01*
G01X11352Y78293D01*
G01X11366Y78264D01*
G01X11378Y78235D01*
G01X11389Y78204D01*
G01X11396Y78174D01*
G01X11402Y78142D01*
G01X11405Y78110D01*
G01X11407Y78078D01*
G01X11407Y76274D01*
G01X11408Y76258D01*
G01X11412Y76242D01*
G01X11418Y76228D01*
G01X11426Y76214D01*
G01X11436Y76202D01*
G01X11509Y76130D01*
G01X11521Y76119D01*
G01X11534Y76111D01*
G01X11549Y76105D01*
G01X11565Y76101D01*
G01X11581Y76100D01*
G01X11928Y76100D01*
G01X11942Y76101D01*
G01X11956Y76104D01*
G01X11970Y76109D01*
G01X11983Y76116D01*
G01X11994Y76125D01*
G01X12005Y76135D01*
G01X12013Y76146D01*
G01X12020Y76159D01*
G01X12025Y76173D01*
G01X12028Y76187D01*
G01X12029Y76201D01*
G01X12028Y76216D01*
G01X12025Y76231D01*
G01X12020Y76245D01*
G01X12006Y76277D01*
G01X11994Y76311D01*
G01X11985Y76345D01*
G01X11979Y76380D01*
G01X11975Y76415D01*
G01X11974Y76450D01*
G01X11975Y76483D01*
G01X11978Y76516D01*
G01X11984Y76549D01*
G01X11992Y76581D01*
G01X12002Y76613D01*
G01X12014Y76643D01*
G01X12028Y76673D01*
G01X12045Y76702D01*
G01X12063Y76730D01*
G01X12083Y76756D01*
G01X12105Y76781D01*
G01X12114Y76793D01*
G01X12122Y76806D01*
G01X12128Y76820D01*
G01X12131Y76835D01*
G01X12132Y76850D01*
G01X12131Y76866D01*
G01X12128Y76881D01*
G01X12122Y76895D01*
G01X12114Y76908D01*
G01X12105Y76920D01*
G01X12083Y76945D01*
G01X12063Y76971D01*
G01X12045Y76999D01*
G01X12028Y77028D01*
G01X12014Y77057D01*
G01X12002Y77088D01*
G01X11992Y77120D01*
G01X11984Y77152D01*
G01X11978Y77184D01*
G01X11975Y77217D01*
G01X11974Y77250D01*
G01X11975Y77284D01*
G01X11978Y77316D01*
G01X11984Y77349D01*
G01X11992Y77381D01*
G01X12002Y77413D01*
G01X12014Y77443D01*
G01X12028Y77473D01*
G01X12045Y77502D01*
G01X12063Y77530D01*
G01X12083Y77556D01*
G01X12105Y77581D01*
G01X12114Y77593D01*
G01X12122Y77606D01*
G01X12128Y77620D01*
G01X12131Y77635D01*
G01X12132Y77651D01*
G01X12131Y77666D01*
G01X12128Y77681D01*
G01X12122Y77695D01*
G01X12114Y77708D01*
G01X12105Y77720D01*
G01X12083Y77745D01*
G01X12063Y77771D01*
G01X12045Y77799D01*
G01X12028Y77828D01*
G01X12014Y77858D01*
G01X12002Y77888D01*
G01X11992Y77920D01*
G01X11984Y77952D01*
G01X11978Y77985D01*
G01X11975Y78017D01*
G01X11974Y78051D01*
G01X11975Y78084D01*
G01X11978Y78117D01*
G01X11984Y78149D01*
G01X11992Y78181D01*
G01X12002Y78213D01*
G01X12014Y78244D01*
G01X12028Y78273D01*
G01X12045Y78302D01*
G01X12063Y78330D01*
G01X12083Y78356D01*
G01X12105Y78381D01*
G01X12114Y78393D01*
G01X12122Y78406D01*
G01X12128Y78420D01*
G01X12131Y78435D01*
G01X12132Y78451D01*
G01X12131Y78466D01*
G01X12128Y78481D01*
G01X12122Y78495D01*
G01X12114Y78508D01*
G01X12105Y78520D01*
G01X12083Y78545D01*
G01X12063Y78571D01*
G01X12045Y78599D01*
G01X12028Y78628D01*
G01X12014Y78658D01*
G01X12002Y78688D01*
G01X11992Y78720D01*
G01X11984Y78752D01*
G01X11978Y78785D01*
G01X11975Y78818D01*
G01X11974Y78851D01*
G01X11975Y78882D01*
G01X11978Y78914D01*
G01X11983Y78945D01*
G01X11990Y78975D01*
G01X11999Y79005D01*
G01X12010Y79035D01*
G01X12023Y79064D01*
G01X12038Y79091D01*
G01X12055Y79118D01*
G01X12073Y79144D01*
G01X12093Y79168D01*
G01X12115Y79191D01*
G01X12138Y79213D01*
G01X12162Y79233D01*
G01X12188Y79251D01*
G01X12214Y79268D01*
G01X12242Y79283D01*
G01X12271Y79296D01*
G01X12300Y79307D01*
G01X12330Y79316D01*
G01X12361Y79323D01*
G01X12392Y79328D01*
G01X12424Y79331D01*
G01X12455Y79332D01*
G01X13655Y79332D01*
G01X13687Y79331D01*
G01X13718Y79328D01*
G01X13749Y79323D01*
G01X13780Y79316D01*
G01X13810Y79307D01*
G01X13839Y79296D01*
G01X13868Y79283D01*
G01X13896Y79268D01*
G01X13923Y79251D01*
G01X13948Y79233D01*
G01X13973Y79213D01*
G01X13996Y79191D01*
G01X14017Y79168D01*
G01X14037Y79144D01*
G01X14055Y79118D01*
G01X14072Y79091D01*
G01X14087Y79064D01*
G01X14100Y79035D01*
G01X14111Y79005D01*
G01X14120Y78975D01*
G01X14127Y78945D01*
G01X14133Y78914D01*
G01X14136Y78882D01*
G01X14137Y78851D01*
G01X14136Y78818D01*
G01X14132Y78785D01*
G01X14126Y78752D01*
G01X14119Y78720D01*
G01X14108Y78688D01*
G01X14096Y78658D01*
G01X14082Y78628D01*
G01X14066Y78599D01*
G01X14047Y78571D01*
G01X14027Y78545D01*
G01X14005Y78520D01*
G01X13996Y78508D01*
G01X13988Y78495D01*
G01X13982Y78481D01*
G01X13979Y78466D01*
G01X13978Y78451D01*
G01X13979Y78435D01*
G01X13982Y78420D01*
G01X13988Y78406D01*
G01X13996Y78393D01*
G01X14005Y78381D01*
G01X14027Y78356D01*
G01X14047Y78330D01*
G01X14066Y78302D01*
G01X14082Y78273D01*
G01X14096Y78244D01*
G01X14108Y78213D01*
G01X14119Y78181D01*
G01X14126Y78149D01*
G01X14132Y78117D01*
G01X14136Y78084D01*
G01X14137Y78051D01*
G01X14135Y78015D01*
G01X14131Y77979D01*
G01X14125Y77944D01*
G01X14116Y77910D01*
G01X14104Y77876D01*
G01X14090Y77843D01*
G01X14084Y77829D01*
G01X14081Y77814D01*
G01X14080Y77799D01*
G01X14081Y77785D01*
G01X14084Y77770D01*
G01X14089Y77757D01*
G01X14096Y77744D01*
G01X14104Y77733D01*
G01X14115Y77722D01*
G01X14126Y77714D01*
G01X14139Y77707D01*
G01X14153Y77702D01*
G01X14167Y77699D01*
G01X14181Y77697D01*
G01X15021Y77697D01*
G01X15036Y77699D01*
G01X15050Y77702D01*
G01X15063Y77707D01*
G01X15076Y77714D01*
G01X15088Y77722D01*
G01X15098Y77733D01*
G01X15107Y77744D01*
G01X15119Y77770D01*
G01X15122Y77785D01*
G01X15123Y77799D01*
G01X15123Y78104D01*
G01X15124Y78128D01*
G01X15127Y78151D01*
G01X15132Y78174D01*
G01X15140Y78197D01*
G01X15150Y78218D01*
G01X15161Y78239D01*
G01X15174Y78259D01*
G01X15190Y78277D01*
G01X15206Y78293D01*
G01X15225Y78309D01*
G01X15244Y78322D01*
G01X15265Y78334D01*
G01X15287Y78343D01*
G01X15309Y78351D01*
G01X15332Y78356D01*
G01X15356Y78359D01*
G01X15379Y78360D01*
G01X16954Y78360D01*
G01X16978Y78359D01*
G01X17001Y78356D01*
G01X17024Y78351D01*
G01X17047Y78343D01*
G01X17068Y78334D01*
G01X17089Y78322D01*
G01X17109Y78309D01*
G01X17127Y78293D01*
G01X17144Y78277D01*
G01X17159Y78259D01*
G01X17172Y78239D01*
G01X17184Y78218D01*
G01X17193Y78197D01*
G01X17201Y78174D01*
G01X17206Y78151D01*
G01X17209Y78128D01*
G01X17211Y78104D01*
G01X17211Y76529D01*
G01X17209Y76505D01*
G01X17206Y76482D01*
G01X17201Y76459D01*
G01X17193Y76436D01*
G01X17184Y76415D01*
G01X17172Y76394D01*
G01X17159Y76374D01*
G01X17144Y76356D01*
G01X17127Y76340D01*
G01X17109Y76324D01*
G01X17089Y76311D01*
G01X17068Y76299D01*
G01X17047Y76290D01*
G01X17024Y76282D01*
G01X17001Y76277D01*
G01X16978Y76274D01*
G01X16954Y76273D01*
G01X15548Y76273D01*
G01X15534Y76272D01*
G01X15519Y76268D01*
G01X15506Y76263D01*
G01X15493Y76256D01*
G01X15482Y76248D01*
G01X15471Y76237D01*
G01X15463Y76226D01*
G01X15456Y76213D01*
G01X15451Y76200D01*
G01X15447Y76185D01*
G01X15446Y76171D01*
G01X15448Y76155D01*
G01X15451Y76140D01*
G01X15458Y76125D01*
G01X15466Y76111D01*
G01X15476Y76099D01*
G01X15772Y75804D01*
G01X15784Y75793D01*
G01X15797Y75785D01*
G01X15812Y75779D01*
G01X15828Y75775D01*
G01X15843Y75774D01*
G01X15858Y75775D01*
G01X15872Y75778D01*
G01X15920Y75791D01*
G01X15969Y75802D01*
G01X16018Y75810D01*
G01X16067Y75816D01*
G01X16117Y75819D01*
G01X16167Y75820D01*
G01X16213Y75819D01*
G01X16260Y75816D01*
G01X16307Y75811D01*
G01X16353Y75804D01*
G01X16399Y75794D01*
G01X16444Y75783D01*
G01X16489Y75769D01*
G01X16533Y75754D01*
G01X16577Y75736D01*
G01X16620Y75717D01*
G01X16661Y75696D01*
G01X16702Y75673D01*
G01X16742Y75648D01*
G01X16780Y75621D01*
G01X16817Y75593D01*
G01X16853Y75563D01*
G01X16888Y75531D01*
G01X16921Y75498D01*
G01X16953Y75463D01*
G01X16983Y75427D01*
G01X17011Y75390D01*
G01X17038Y75352D01*
G01X17063Y75312D01*
G01X17086Y75271D01*
G01X17107Y75229D01*
G01X17127Y75187D01*
G01X17144Y75143D01*
G01X17159Y75099D01*
G01X17173Y75054D01*
G01X17184Y75009D01*
G01X17194Y74963D01*
G01X17201Y74917D01*
G01X17206Y74870D01*
G01X17209Y74823D01*
G01X17211Y74776D01*
G01X17209Y74729D01*
G01X17206Y74682D01*
G01X17201Y74635D01*
G01X17193Y74588D01*
G01X17184Y74541D01*
G01X17172Y74496D01*
G01X17158Y74450D01*
G01X17142Y74406D01*
G01X17125Y74362D01*
G01X17105Y74319D01*
G01X17083Y74276D01*
G01X17059Y74235D01*
G01X17034Y74195D01*
G01X17007Y74157D01*
G01X16978Y74119D01*
G01X16968Y74105D01*
G01X16961Y74089D01*
G01X16956Y74072D01*
G01X16955Y74055D01*
G01X16956Y74041D01*
G01X16959Y74027D01*
G01X16964Y74013D01*
G01X16971Y74000D01*
G01X16980Y73989D01*
G01X16990Y73978D01*
G01X17002Y73970D01*
G01X17014Y73963D01*
G01X17028Y73958D01*
G01X17042Y73955D01*
G01X17056Y73954D01*
G01X17817Y73954D01*
G01X17831Y73955D01*
G01X17845Y73958D01*
G01X17859Y73963D01*
G01X17872Y73970D01*
G01X17883Y73978D01*
G01X17893Y73989D01*
G01X17902Y74000D01*
G01X17909Y74013D01*
G01X17914Y74027D01*
G01X17917Y74041D01*
G01X17918Y74055D01*
G01X17917Y74072D01*
G01X17912Y74089D01*
G01X17905Y74105D01*
G01X17896Y74119D01*
G01X17867Y74157D01*
G01X17839Y74195D01*
G01X17814Y74235D01*
G01X17790Y74276D01*
G01X17768Y74319D01*
G01X17749Y74362D01*
G01X17731Y74406D01*
G01X17715Y74450D01*
G01X17701Y74496D01*
G01X17689Y74541D01*
G01X17680Y74588D01*
G01X17672Y74635D01*
G01X17667Y74682D01*
G01X17664Y74729D01*
G01X17663Y74776D01*
G01X17664Y74823D01*
G01X17667Y74870D01*
G01X17672Y74917D01*
G01X17679Y74963D01*
G01X17689Y75009D01*
G01X17700Y75054D01*
G01X17714Y75099D01*
G01X17729Y75143D01*
G01X17747Y75187D01*
G01X17766Y75229D01*
G01X17787Y75271D01*
G01X17810Y75312D01*
G01X17835Y75352D01*
G01X17862Y75390D01*
G01X17890Y75427D01*
G01X17920Y75463D01*
G01X17952Y75498D01*
G01X17985Y75531D01*
G01X18020Y75563D01*
G01X18056Y75593D01*
G01X18093Y75621D01*
G01X18131Y75648D01*
G01X18171Y75673D01*
G01X18212Y75696D01*
G01X18254Y75717D01*
G01X18296Y75736D01*
G01X18340Y75754D01*
G01X18384Y75769D01*
G01X18429Y75783D01*
G01X18474Y75794D01*
G01X18520Y75804D01*
G01X18566Y75811D01*
G01X18613Y75816D01*
G01X18660Y75819D01*
G01X18707Y75820D01*
G01X18756Y75819D01*
G01X18806Y75816D01*
G01X18855Y75810D01*
G01X18904Y75802D01*
G01X18953Y75791D01*
G01X19001Y75778D01*
G01X19015Y75775D01*
G01X19030Y75774D01*
G01X19046Y75775D01*
G01X19061Y75779D01*
G01X19076Y75785D01*
G01X19089Y75793D01*
G01X19102Y75804D01*
G01X19257Y75959D01*
G01X19280Y75980D01*
G01X19305Y76000D01*
G01X19331Y76019D01*
G01X19358Y76035D01*
G01X19387Y76049D01*
G01X19416Y76061D01*
G01X19447Y76072D01*
G01X19478Y76079D01*
G01X19509Y76085D01*
G01X19541Y76089D01*
G01X19573Y76090D01*
G01X20691Y76090D01*
G01X20705Y76091D01*
G01X20719Y76094D01*
G01X20733Y76099D01*
G01X20746Y76106D01*
G01X20757Y76114D01*
G01X20768Y76125D01*
G01X20776Y76136D01*
G01X20783Y76149D01*
G01X20788Y76163D01*
G01X20791Y76177D01*
G01X20792Y76191D01*
G01X20791Y76206D01*
G01X20788Y76221D01*
G01X20783Y76235D01*
G01X20769Y76267D01*
G01X20757Y76301D01*
G01X20748Y76335D01*
G01X20742Y76370D01*
G01X20738Y76405D01*
G01X20737Y76440D01*
G01X20738Y76473D01*
G01X20741Y76506D01*
G01X20747Y76539D01*
G01X20755Y76571D01*
G01X20765Y76602D01*
G01X20777Y76633D01*
G01X20791Y76663D01*
G01X20808Y76692D01*
G01X20826Y76719D01*
G01X20846Y76746D01*
G01X20868Y76771D01*
G01X20877Y76782D01*
G01X20885Y76796D01*
G01X20891Y76810D01*
G01X20894Y76825D01*
G01X20895Y76840D01*
G01X20894Y76856D01*
G01X20891Y76870D01*
G01X20885Y76885D01*
G01X20877Y76898D01*
G01X20868Y76910D01*
G01X20846Y76935D01*
G01X20826Y76961D01*
G01X20808Y76989D01*
G01X20791Y77017D01*
G01X20777Y77047D01*
G01X20765Y77078D01*
G01X20755Y77110D01*
G01X20747Y77142D01*
G01X20741Y77174D01*
G01X20738Y77207D01*
G01X20737Y77240D01*
G01X20738Y77273D01*
G01X20741Y77306D01*
G01X20747Y77339D01*
G01X20755Y77371D01*
G01X20765Y77403D01*
G01X20777Y77433D01*
G01X20791Y77463D01*
G01X20808Y77492D01*
G01X20826Y77520D01*
G01X20846Y77546D01*
G01X20868Y77571D01*
G01X20877Y77583D01*
G01X20885Y77596D01*
G01X20891Y77610D01*
G01X20894Y77625D01*
G01X20895Y77640D01*
G01X20894Y77656D01*
G01X20891Y77671D01*
G01X20885Y77685D01*
G01X20877Y77698D01*
G01X20868Y77710D01*
G01X20846Y77735D01*
G01X20826Y77761D01*
G01X20808Y77789D01*
G01X20791Y77818D01*
G01X20777Y77847D01*
G01X20765Y77878D01*
G01X20755Y77910D01*
G01X20747Y77942D01*
G01X20741Y77974D01*
G01X20738Y78007D01*
G01X20737Y78040D01*
G01X20738Y78073D01*
G01X20741Y78106D01*
G01X20747Y78139D01*
G01X20755Y78171D01*
G01X20765Y78203D01*
G01X20777Y78233D01*
G01X20791Y78263D01*
G01X20808Y78292D01*
G01X20826Y78320D01*
G01X20846Y78346D01*
G01X20868Y78371D01*
G01X20877Y78383D01*
G01X20885Y78396D01*
G01X20891Y78410D01*
G01X20894Y78425D01*
G01X20895Y78440D01*
G01X20894Y78456D01*
G01X20891Y78471D01*
G01X20885Y78485D01*
G01X20877Y78498D01*
G01X20868Y78510D01*
G01X20846Y78535D01*
G01X20826Y78561D01*
G01X20808Y78589D01*
G01X20791Y78618D01*
G01X20777Y78648D01*
G01X20765Y78678D01*
G01X20755Y78710D01*
G01X20747Y78742D01*
G01X20741Y78775D01*
G01X20738Y78807D01*
G01X20737Y78840D01*
G01X20738Y78872D01*
G01X20741Y78903D01*
G01X20746Y78934D01*
G01X20753Y78965D01*
G01X20762Y78995D01*
G01X20773Y79025D01*
G01X20786Y79053D01*
G01X20801Y79081D01*
G01X20818Y79108D01*
G01X20836Y79134D01*
G01X20856Y79158D01*
G01X20878Y79181D01*
G01X20901Y79203D01*
G01X20925Y79223D01*
G01X20951Y79241D01*
G01X20977Y79258D01*
G01X21005Y79272D01*
G01X21034Y79285D01*
G01X21063Y79296D01*
G01X21093Y79306D01*
G01X21124Y79313D01*
G01X21155Y79318D01*
G01X21187Y79321D01*
G01X21218Y79322D01*
G01X21706Y79322D01*
G01X21722Y79323D01*
G01X21738Y79327D01*
G01X21773Y79338D01*
G01X21809Y79345D01*
G01X21845Y79350D01*
G01X21882Y79351D01*
G01X22099Y79351D01*
G01X22115Y79352D01*
G01X22130Y79356D01*
G01X22145Y79362D01*
G01X22159Y79370D01*
G01X22171Y79381D01*
G01X22675Y79885D01*
G01X22685Y79897D01*
G01X22693Y79911D01*
G01X22700Y79925D01*
G01X22703Y79941D01*
G01X22705Y79957D01*
G01X22705Y80401D01*
G01X22704Y80416D01*
G01X22700Y80430D01*
G01X22695Y80443D01*
G01X22688Y80456D01*
G01X22680Y80468D01*
G01X22669Y80478D01*
G01X22658Y80487D01*
G01X22645Y80494D01*
G01X22632Y80499D01*
G01X22617Y80502D01*
G01X22603Y80503D01*
G01X22585Y80501D01*
G01X22567Y80496D01*
G01X22550Y80488D01*
G01X22509Y80464D01*
G01X22466Y80442D01*
G01X22466Y80923D01*
G01X22603Y80923D01*
G01X22617Y80924D01*
G01X22632Y80927D01*
G01X22645Y80932D01*
G01X22658Y80939D01*
G01X22669Y80948D01*
G01X22680Y80958D01*
G01X22688Y80970D01*
G01X22695Y80983D01*
G01X22700Y80996D01*
G01X22704Y81010D01*
G01X22705Y81025D01*
G01X22705Y81736D01*
G01X22704Y81751D01*
G01X22700Y81765D01*
G01X22695Y81778D01*
G01X22688Y81791D01*
G01X22680Y81803D01*
G01X22669Y81813D01*
G01X22658Y81822D01*
G01X22645Y81829D01*
G01X22632Y81834D01*
G01X22617Y81837D01*
G01X22603Y81838D01*
G01X22466Y81838D01*
G01X22466Y81975D01*
G01X22465Y81989D01*
G01X22462Y82003D01*
G01X22457Y82017D01*
G01X22450Y82030D01*
G01X22441Y82041D01*
G01X22431Y82052D01*
G01X22419Y82060D01*
G01X22406Y82067D01*
G01X22393Y82072D01*
G01X22379Y82075D01*
G01X22364Y82076D01*
G37*

%LPC*%
G36*
G01X21551Y80923D02*
G01X21070Y80923D01*
G01X21091Y80882D01*
G01X21114Y80842D01*
G01X21139Y80803D01*
G01X21165Y80765D01*
G01X21193Y80728D01*
G01X21223Y80693D01*
G01X21254Y80659D01*
G01X21287Y80626D01*
G01X21321Y80595D01*
G01X21356Y80565D01*
G01X21393Y80537D01*
G01X21431Y80511D01*
G01X21470Y80486D01*
G01X21510Y80463D01*
G01X21551Y80442D01*
G01X21551Y80923D01*
G37*

%LPD*%
G36*
G01X19876Y73059D02*
G01X17237Y73059D01*
G01X17223Y73058D01*
G01X17209Y73055D01*
G01X17195Y73050D01*
G01X17182Y73043D01*
G01X17171Y73035D01*
G01X17160Y73024D01*
G01X17152Y73013D01*
G01X17145Y73000D01*
G01X17140Y72986D01*
G01X17137Y72972D01*
G01X17136Y72958D01*
G01X17137Y72942D01*
G01X17141Y72926D01*
G01X17147Y72912D01*
G01X17155Y72898D01*
G01X17165Y72886D01*
G01X17245Y72807D01*
G01X17267Y72783D01*
G01X17288Y72757D01*
G01X17306Y72730D01*
G01X17323Y72702D01*
G01X17337Y72672D01*
G01X17344Y72659D01*
G01X17353Y72647D01*
G01X17363Y72637D01*
G01X17375Y72628D01*
G01X17387Y72621D01*
G01X17401Y72616D01*
G01X17415Y72613D01*
G01X17430Y72612D01*
G01X17445Y72613D01*
G01X17459Y72616D01*
G01X17473Y72621D01*
G01X17486Y72628D01*
G01X17497Y72637D01*
G01X17524Y72659D01*
G01X17551Y72679D01*
G01X17580Y72697D01*
G01X17610Y72712D01*
G01X17642Y72726D01*
G01X17642Y72154D01*
G01X17603Y72154D01*
G01X17589Y72153D01*
G01X17575Y72150D01*
G01X17561Y72145D01*
G01X17548Y72138D01*
G01X17537Y72129D01*
G01X17526Y72119D01*
G01X17518Y72107D01*
G01X17511Y72094D01*
G01X17506Y72081D01*
G01X17503Y72067D01*
G01X17502Y72052D01*
G01X17502Y71303D01*
G01X17503Y71289D01*
G01X17506Y71275D01*
G01X17511Y71261D01*
G01X17518Y71248D01*
G01X17526Y71237D01*
G01X17537Y71227D01*
G01X17548Y71218D01*
G01X17561Y71211D01*
G01X17575Y71206D01*
G01X17589Y71203D01*
G01X17603Y71202D01*
G01X17642Y71202D01*
G01X17642Y70629D01*
G01X17608Y70644D01*
G01X17576Y70661D01*
G01X17545Y70681D01*
G01X17516Y70702D01*
G01X17488Y70726D01*
G01X17476Y70736D01*
G01X17463Y70744D01*
G01X17449Y70749D01*
G01X17434Y70753D01*
G01X17419Y70754D01*
G01X17404Y70753D01*
G01X17389Y70749D01*
G01X17374Y70744D01*
G01X17361Y70736D01*
G01X17349Y70726D01*
G01X17325Y70705D01*
G01X17298Y70685D01*
G01X17271Y70667D01*
G01X17242Y70650D01*
G01X17212Y70636D01*
G01X17182Y70624D01*
G01X17150Y70614D01*
G01X17118Y70606D01*
G01X17086Y70601D01*
G01X17053Y70597D01*
G01X17020Y70596D01*
G01X16987Y70597D01*
G01X16954Y70601D01*
G01X16921Y70606D01*
G01X16889Y70614D01*
G01X16858Y70624D01*
G01X16827Y70637D01*
G01X16797Y70651D01*
G01X16768Y70667D01*
G01X16741Y70685D01*
G01X16715Y70705D01*
G01X16690Y70727D01*
G01X16678Y70737D01*
G01X16665Y70745D01*
G01X16650Y70750D01*
G01X16635Y70754D01*
G01X16620Y70755D01*
G01X16605Y70754D01*
G01X16590Y70750D01*
G01X16575Y70745D01*
G01X16562Y70737D01*
G01X16550Y70727D01*
G01X16523Y70703D01*
G01X16493Y70681D01*
G01X16462Y70661D01*
G01X16430Y70644D01*
G01X16396Y70629D01*
G01X16396Y71202D01*
G01X16437Y71202D01*
G01X16451Y71203D01*
G01X16466Y71206D01*
G01X16479Y71211D01*
G01X16492Y71218D01*
G01X16503Y71227D01*
G01X16514Y71237D01*
G01X16522Y71248D01*
G01X16529Y71261D01*
G01X16534Y71275D01*
G01X16537Y71289D01*
G01X16539Y71303D01*
G01X16539Y71538D01*
G01X16537Y71553D01*
G01X16534Y71567D01*
G01X16529Y71581D01*
G01X16521Y71594D01*
G01X16512Y71606D01*
G01X16490Y71632D01*
G01X16469Y71660D01*
G01X16450Y71688D01*
G01X16433Y71718D01*
G01X16418Y71749D01*
G01X16405Y71781D01*
G01X16393Y71813D01*
G01X16384Y71846D01*
G01X16377Y71880D01*
G01X16371Y71914D01*
G01X16368Y71948D01*
G01X16367Y71982D01*
G01X16369Y72024D01*
G01X16373Y72065D01*
G01X16381Y72106D01*
G01X16392Y72146D01*
G01X16395Y72160D01*
G01X16396Y72175D01*
G01X16396Y72323D01*
G01X16395Y72337D01*
G01X16392Y72351D01*
G01X16387Y72365D01*
G01X16380Y72378D01*
G01X16371Y72389D01*
G01X16361Y72400D01*
G01X16349Y72408D01*
G01X16337Y72415D01*
G01X16323Y72420D01*
G01X16309Y72423D01*
G01X16294Y72424D01*
G01X16146Y72424D01*
G01X16131Y72423D01*
G01X16117Y72420D01*
G01X16103Y72415D01*
G01X16091Y72408D01*
G01X16079Y72400D01*
G01X16069Y72389D01*
G01X16060Y72378D01*
G01X16053Y72365D01*
G01X16048Y72351D01*
G01X16045Y72337D01*
G01X16044Y72323D01*
G01X16044Y72154D01*
G01X16003Y72154D01*
G01X15989Y72153D01*
G01X15974Y72150D01*
G01X15961Y72145D01*
G01X15948Y72138D01*
G01X15936Y72129D01*
G01X15926Y72119D01*
G01X15918Y72107D01*
G01X15911Y72094D01*
G01X15906Y72081D01*
G01X15902Y72067D01*
G01X15901Y72052D01*
G01X15901Y71760D01*
G01X15902Y71745D01*
G01X15906Y71730D01*
G01X15911Y71716D01*
G01X15926Y71683D01*
G01X15938Y71650D01*
G01X15948Y71616D01*
G01X15956Y71581D01*
G01X15961Y71546D01*
G01X15965Y71510D01*
G01X15966Y71474D01*
G01X15965Y71438D01*
G01X15961Y71401D01*
G01X15955Y71365D01*
G01X15947Y71330D01*
G01X15943Y71303D01*
G01X15944Y71289D01*
G01X15947Y71275D01*
G01X15953Y71261D01*
G01X15959Y71249D01*
G01X15968Y71237D01*
G01X15978Y71227D01*
G01X15990Y71218D01*
G01X16002Y71211D01*
G01X16016Y71206D01*
G01X16030Y71203D01*
G01X16044Y71202D01*
G01X16044Y70629D01*
G01X16010Y70644D01*
G01X15978Y70661D01*
G01X15947Y70681D01*
G01X15917Y70703D01*
G01X15890Y70727D01*
G01X15878Y70737D01*
G01X15864Y70745D01*
G01X15850Y70750D01*
G01X15835Y70754D01*
G01X15820Y70755D01*
G01X15805Y70754D01*
G01X15790Y70750D01*
G01X15775Y70745D01*
G01X15762Y70737D01*
G01X15750Y70727D01*
G01X15725Y70705D01*
G01X15699Y70685D01*
G01X15671Y70667D01*
G01X15643Y70651D01*
G01X15613Y70637D01*
G01X15582Y70624D01*
G01X15551Y70614D01*
G01X15518Y70606D01*
G01X15486Y70601D01*
G01X15453Y70597D01*
G01X15420Y70596D01*
G01X15387Y70597D01*
G01X15354Y70601D01*
G01X15321Y70606D01*
G01X15289Y70614D01*
G01X15258Y70624D01*
G01X15227Y70637D01*
G01X15197Y70651D01*
G01X15168Y70667D01*
G01X15141Y70685D01*
G01X15114Y70705D01*
G01X15089Y70727D01*
G01X15078Y70737D01*
G01X15064Y70745D01*
G01X15050Y70750D01*
G01X15035Y70754D01*
G01X15020Y70755D01*
G01X15004Y70754D01*
G01X14990Y70750D01*
G01X14975Y70745D01*
G01X14962Y70737D01*
G01X14950Y70727D01*
G01X14915Y70697D01*
G01X14877Y70671D01*
G01X14865Y70662D01*
G01X14855Y70652D01*
G01X14846Y70640D01*
G01X14839Y70627D01*
G01X14834Y70614D01*
G01X14831Y70599D01*
G01X14830Y70585D01*
G01X14831Y70569D01*
G01X14835Y70554D01*
G01X14840Y70540D01*
G01X14848Y70527D01*
G01X14867Y70498D01*
G01X14884Y70468D01*
G01X14899Y70437D01*
G01X14913Y70406D01*
G01X14924Y70373D01*
G01X14933Y70340D01*
G01X14941Y70307D01*
G01X14946Y70273D01*
G01X14949Y70239D01*
G01X14950Y70204D01*
G01X14949Y70168D01*
G01X14945Y70131D01*
G01X14939Y70095D01*
G01X14931Y70059D01*
G01X14920Y70024D01*
G01X14907Y69990D01*
G01X14892Y69957D01*
G01X14886Y69942D01*
G01X14883Y69927D01*
G01X14882Y69912D01*
G01X14883Y69897D01*
G01X14886Y69883D01*
G01X14891Y69869D01*
G01X14898Y69857D01*
G01X14907Y69845D01*
G01X14917Y69835D01*
G01X14928Y69826D01*
G01X14941Y69819D01*
G01X14955Y69814D01*
G01X14969Y69811D01*
G01X14983Y69810D01*
G01X18605Y69810D01*
G01X18619Y69811D01*
G01X18633Y69814D01*
G01X18647Y69819D01*
G01X18659Y69826D01*
G01X18671Y69835D01*
G01X18681Y69845D01*
G01X18690Y69857D01*
G01X18697Y69869D01*
G01X18702Y69883D01*
G01X18705Y69897D01*
G01X18706Y69912D01*
G01X18705Y69928D01*
G01X18701Y69943D01*
G01X18695Y69958D01*
G01X18687Y69971D01*
G01X18676Y69983D01*
G01X18263Y70396D01*
G01X18223Y70442D01*
G01X18206Y70467D01*
G01X18190Y70493D01*
G01X18176Y70520D01*
G01X18164Y70548D01*
G01X18154Y70577D01*
G01X18148Y70592D01*
G01X18139Y70605D01*
G01X18129Y70617D01*
G01X18117Y70628D01*
G01X18103Y70636D01*
G01X18088Y70642D01*
G01X18073Y70646D01*
G01X18057Y70647D01*
G01X18036Y70645D01*
G01X18015Y70639D01*
G01X17994Y70629D01*
G01X17994Y71202D01*
G01X18031Y71202D01*
G01X18045Y71203D01*
G01X18060Y71206D01*
G01X18073Y71211D01*
G01X18086Y71218D01*
G01X18097Y71227D01*
G01X18108Y71237D01*
G01X18116Y71248D01*
G01X18123Y71261D01*
G01X18128Y71275D01*
G01X18132Y71289D01*
G01X18133Y71303D01*
G01X18133Y71610D01*
G01X18131Y71625D01*
G01X18128Y71640D01*
G01X18123Y71654D01*
G01X18115Y71667D01*
G01X18095Y71699D01*
G01X18077Y71731D01*
G01X18062Y71765D01*
G01X18049Y71800D01*
G01X18038Y71836D01*
G01X18029Y71872D01*
G01X18023Y71908D01*
G01X18019Y71945D01*
G01X18018Y71982D01*
G01X18021Y72041D01*
G01X18022Y72052D01*
G01X18021Y72068D01*
G01X18017Y72083D01*
G01X18011Y72097D01*
G01X18003Y72110D01*
G01X17994Y72122D01*
G01X17994Y72726D01*
G01X18027Y72711D01*
G01X18060Y72694D01*
G01X18091Y72674D01*
G01X18120Y72652D01*
G01X18148Y72628D01*
G01X18160Y72618D01*
G01X18173Y72611D01*
G01X18187Y72605D01*
G01X18202Y72602D01*
G01X18218Y72600D01*
G01X18233Y72602D01*
G01X18248Y72605D01*
G01X18262Y72611D01*
G01X18275Y72618D01*
G01X18287Y72628D01*
G01X18312Y72650D01*
G01X18338Y72670D01*
G01X18366Y72688D01*
G01X18395Y72705D01*
G01X18425Y72719D01*
G01X18455Y72731D01*
G01X18487Y72741D01*
G01X18519Y72749D01*
G01X18552Y72755D01*
G01X18585Y72758D01*
G01X18618Y72759D01*
G01X18651Y72758D01*
G01X18684Y72755D01*
G01X18716Y72749D01*
G01X18748Y72741D01*
G01X18780Y72731D01*
G01X18811Y72719D01*
G01X18841Y72705D01*
G01X18869Y72688D01*
G01X18897Y72670D01*
G01X18923Y72650D01*
G01X18948Y72628D01*
G01X18960Y72618D01*
G01X18973Y72611D01*
G01X18987Y72605D01*
G01X19002Y72602D01*
G01X19018Y72600D01*
G01X19033Y72602D01*
G01X19048Y72605D01*
G01X19062Y72611D01*
G01X19076Y72618D01*
G01X19087Y72628D01*
G01X19112Y72650D01*
G01X19139Y72670D01*
G01X19166Y72688D01*
G01X19195Y72705D01*
G01X19225Y72719D01*
G01X19256Y72731D01*
G01X19287Y72741D01*
G01X19319Y72749D01*
G01X19352Y72755D01*
G01X19385Y72758D01*
G01X19418Y72759D01*
G01X19451Y72758D01*
G01X19484Y72755D01*
G01X19516Y72749D01*
G01X19549Y72741D01*
G01X19580Y72731D01*
G01X19611Y72719D01*
G01X19641Y72705D01*
G01X19669Y72688D01*
G01X19697Y72670D01*
G01X19723Y72650D01*
G01X19748Y72628D01*
G01X19760Y72618D01*
G01X19773Y72611D01*
G01X19788Y72605D01*
G01X19803Y72602D01*
G01X19818Y72600D01*
G01X19833Y72602D01*
G01X19848Y72605D01*
G01X19862Y72611D01*
G01X19876Y72618D01*
G01X19888Y72628D01*
G01X19911Y72649D01*
G01X19936Y72668D01*
G01X19962Y72686D01*
G01X19990Y72702D01*
G01X20018Y72716D01*
G01X20047Y72728D01*
G01X20061Y72734D01*
G01X20074Y72743D01*
G01X20085Y72753D01*
G01X20095Y72765D01*
G01X20103Y72779D01*
G01X20108Y72793D01*
G01X20112Y72808D01*
G01X20113Y72823D01*
G01X20112Y72839D01*
G01X20108Y72854D01*
G01X20102Y72869D01*
G01X20093Y72883D01*
G01X20083Y72895D01*
G01X19948Y73030D01*
G01X19936Y73040D01*
G01X19922Y73048D01*
G01X19908Y73054D01*
G01X19892Y73058D01*
G01X19876Y73059D01*
G37*

%LPD*%
G36*
G01X13810Y70011D02*
G01X13794Y70012D01*
G01X13780Y70011D01*
G01X13766Y70008D01*
G01X13752Y70003D01*
G01X13739Y69996D01*
G01X13728Y69988D01*
G01X13717Y69977D01*
G01X13709Y69966D01*
G01X13702Y69953D01*
G01X13697Y69939D01*
G01X13694Y69925D01*
G01X13693Y69911D01*
G01X13693Y68553D01*
G01X13691Y68522D01*
G01X13688Y68490D01*
G01X13682Y68458D01*
G01X13675Y68428D01*
G01X13664Y68397D01*
G01X13652Y68368D01*
G01X13638Y68339D01*
G01X13622Y68312D01*
G01X13603Y68286D01*
G01X13583Y68261D01*
G01X13562Y68237D01*
G01X12212Y66888D01*
G01X12202Y66876D01*
G01X12194Y66862D01*
G01X12188Y66848D01*
G01X12184Y66832D01*
G01X12183Y66816D01*
G01X12184Y66802D01*
G01X12187Y66788D01*
G01X12192Y66774D01*
G01X12199Y66761D01*
G01X12207Y66750D01*
G01X12218Y66739D01*
G01X12229Y66731D01*
G01X12242Y66724D01*
G01X12256Y66719D01*
G01X12270Y66716D01*
G01X12284Y66715D01*
G01X12637Y66715D01*
G01X12653Y66716D01*
G01X12669Y66720D01*
G01X12683Y66726D01*
G01X12697Y66734D01*
G01X12709Y66744D01*
G01X13912Y67947D01*
G01X13922Y67959D01*
G01X13930Y67973D01*
G01X13937Y67987D01*
G01X13940Y68003D01*
G01X13942Y68019D01*
G01X13942Y69832D01*
G01X13940Y69847D01*
G01X13937Y69862D01*
G01X13932Y69876D01*
G01X13924Y69889D01*
G01X13904Y69922D01*
G01X13885Y69956D01*
G01X13877Y69970D01*
G01X13867Y69982D01*
G01X13855Y69993D01*
G01X13841Y70001D01*
G01X13826Y70007D01*
G01X13810Y70011D01*
G37*

%LPD*%
G36*
G01X374Y80461D02*
G01X358Y80462D01*
G01X343Y80461D01*
G01X329Y80458D01*
G01X315Y80453D01*
G01X303Y80446D01*
G01X291Y80438D01*
G01X281Y80427D01*
G01X272Y80416D01*
G01X265Y80403D01*
G01X260Y80389D01*
G01X257Y80375D01*
G01X256Y80361D01*
G01X256Y68299D01*
G01X257Y68229D01*
G01X260Y68158D01*
G01X266Y68087D01*
G01X274Y68017D01*
G01X283Y67947D01*
G01X295Y67877D01*
G01X310Y67807D01*
G01X326Y67739D01*
G01X344Y67670D01*
G01X365Y67602D01*
G01X388Y67535D01*
G01X412Y67469D01*
G01X439Y67403D01*
G01X468Y67339D01*
G01X499Y67275D01*
G01X532Y67212D01*
G01X566Y67150D01*
G01X603Y67090D01*
G01X641Y67030D01*
G01X682Y66972D01*
G01X724Y66915D01*
G01X768Y66859D01*
G01X778Y66848D01*
G01X790Y66839D01*
G01X803Y66832D01*
G01X817Y66826D01*
G01X831Y66823D01*
G01X846Y66822D01*
G01X861Y66823D01*
G01X875Y66826D01*
G01X889Y66831D01*
G01X901Y66838D01*
G01X913Y66846D01*
G01X923Y66857D01*
G01X932Y66868D01*
G01X939Y66881D01*
G01X944Y66895D01*
G01X947Y66909D01*
G01X948Y66923D01*
G01X948Y67001D01*
G01X1416Y67001D01*
G01X1416Y66658D01*
G01X1227Y66658D01*
G01X1213Y66657D01*
G01X1199Y66654D01*
G01X1185Y66649D01*
G01X1172Y66642D01*
G01X1161Y66633D01*
G01X1151Y66623D01*
G01X1142Y66611D01*
G01X1135Y66598D01*
G01X1130Y66585D01*
G01X1127Y66571D01*
G01X1126Y66556D01*
G01X1127Y66541D01*
G01X1131Y66525D01*
G01X1136Y66511D01*
G01X1145Y66497D01*
G01X1155Y66485D01*
G01X1166Y66475D01*
G01X1223Y66434D01*
G01X1281Y66394D01*
G01X1340Y66356D01*
G01X1400Y66321D01*
G01X1462Y66286D01*
G01X1524Y66254D01*
G01X1587Y66224D01*
G01X1651Y66196D01*
G01X1717Y66169D01*
G01X1782Y66145D01*
G01X1849Y66123D01*
G01X1916Y66103D01*
G01X1984Y66085D01*
G01X2052Y66069D01*
G01X2121Y66055D01*
G01X2190Y66043D01*
G01X2260Y66033D01*
G01X2329Y66026D01*
G01X2399Y66020D01*
G01X2469Y66017D01*
G01X2540Y66016D01*
G01X4338Y66016D01*
G01X4352Y66017D01*
G01X4366Y66020D01*
G01X4380Y66025D01*
G01X4393Y66032D01*
G01X4404Y66041D01*
G01X4415Y66051D01*
G01X4423Y66063D01*
G01X4430Y66075D01*
G01X4435Y66089D01*
G01X4438Y66103D01*
G01X4439Y66118D01*
G01X4438Y66134D01*
G01X4434Y66150D01*
G01X4427Y66166D01*
G01X4418Y66180D01*
G01X4397Y66209D01*
G01X4378Y66241D01*
G01X4360Y66273D01*
G01X4345Y66307D01*
G01X4332Y66341D01*
G01X4321Y66376D01*
G01X4313Y66412D01*
G01X4307Y66448D01*
G01X4303Y66485D01*
G01X4302Y66521D01*
G01X4303Y66551D01*
G01X4303Y66556D01*
G01X4302Y66571D01*
G01X4299Y66585D01*
G01X4294Y66599D01*
G01X4287Y66611D01*
G01X4278Y66623D01*
G01X4268Y66633D01*
G01X4257Y66642D01*
G01X4244Y66649D01*
G01X4230Y66654D01*
G01X4216Y66657D01*
G01X4202Y66658D01*
G01X3104Y66658D01*
G01X3079Y66659D01*
G01X3054Y66663D01*
G01X3029Y66669D01*
G01X3005Y66678D01*
G01X2982Y66689D01*
G01X2960Y66703D01*
G01X2939Y66718D01*
G01X2921Y66736D01*
G01X2910Y66745D01*
G01X2898Y66753D01*
G01X2884Y66759D01*
G01X2853Y66773D01*
G01X2822Y66788D01*
G01X2792Y66805D01*
G01X2763Y66824D01*
G01X2735Y66845D01*
G01X2709Y66867D01*
G01X2697Y66876D01*
G01X2684Y66884D01*
G01X2670Y66889D01*
G01X2656Y66892D01*
G01X2641Y66893D01*
G01X2626Y66892D01*
G01X2610Y66889D01*
G01X2596Y66883D01*
G01X2583Y66875D01*
G01X2571Y66865D01*
G01X2560Y66854D01*
G01X2552Y66841D01*
G01X2546Y66827D01*
G01X2536Y66804D01*
G01X2525Y66783D01*
G01X2512Y66763D01*
G01X2497Y66744D01*
G01X2480Y66727D01*
G01X2461Y66711D01*
G01X2442Y66698D01*
G01X2421Y66686D01*
G01X2399Y66676D01*
G01X2376Y66668D01*
G01X2352Y66662D01*
G01X2329Y66659D01*
G01X2305Y66658D01*
G01X2093Y66658D01*
G01X2093Y67001D01*
G01X2448Y67001D01*
G01X2462Y67002D01*
G01X2476Y67005D01*
G01X2490Y67010D01*
G01X2503Y67017D01*
G01X2514Y67026D01*
G01X2525Y67036D01*
G01X2533Y67048D01*
G01X2540Y67060D01*
G01X2545Y67074D01*
G01X2548Y67088D01*
G01X2549Y67102D01*
G01X2546Y67130D01*
G01X2536Y67168D01*
G01X2530Y67206D01*
G01X2526Y67245D01*
G01X2524Y67283D01*
G01X2525Y67320D01*
G01X2526Y67326D01*
G01X2525Y67341D01*
G01X2522Y67355D01*
G01X2516Y67369D01*
G01X2510Y67381D01*
G01X2501Y67393D01*
G01X2491Y67403D01*
G01X2479Y67412D01*
G01X2466Y67419D01*
G01X2453Y67424D01*
G01X2439Y67427D01*
G01X2424Y67428D01*
G01X2093Y67428D01*
G01X2093Y67901D01*
G01X2445Y67901D01*
G01X2459Y67902D01*
G01X2473Y67905D01*
G01X2487Y67910D01*
G01X2500Y67917D01*
G01X2511Y67926D01*
G01X2522Y67936D01*
G01X2530Y67948D01*
G01X2537Y67960D01*
G01X2542Y67974D01*
G01X2545Y67988D01*
G01X2546Y68003D01*
G01X2543Y68029D01*
G01X2535Y68064D01*
G01X2529Y68100D01*
G01X2525Y68136D01*
G01X2524Y68172D01*
G01X2526Y68218D01*
G01X2526Y68226D01*
G01X2525Y68241D01*
G01X2522Y68255D01*
G01X2517Y68269D01*
G01X2510Y68281D01*
G01X2502Y68293D01*
G01X2491Y68303D01*
G01X2480Y68312D01*
G01X2467Y68319D01*
G01X2453Y68324D01*
G01X2439Y68327D01*
G01X2425Y68328D01*
G01X2093Y68328D01*
G01X2093Y68671D01*
G01X2305Y68671D01*
G01X2329Y68670D01*
G01X2353Y68666D01*
G01X2377Y68661D01*
G01X2401Y68653D01*
G01X2423Y68642D01*
G01X2444Y68630D01*
G01X2464Y68616D01*
G01X2482Y68600D01*
G01X2499Y68582D01*
G01X2514Y68562D01*
G01X2525Y68550D01*
G01X2537Y68539D01*
G01X2551Y68531D01*
G01X2566Y68525D01*
G01X2581Y68521D01*
G01X2597Y68519D01*
G01X2614Y68521D01*
G01X2630Y68525D01*
G01X2646Y68532D01*
G01X2660Y68541D01*
G01X2672Y68552D01*
G01X2697Y68578D01*
G01X2724Y68602D01*
G01X2752Y68624D01*
G01X2781Y68644D01*
G01X2812Y68663D01*
G01X2844Y68679D01*
G01X2876Y68693D01*
G01X2910Y68706D01*
G01X2944Y68716D01*
G01X2979Y68724D01*
G01X3014Y68729D01*
G01X3050Y68733D01*
G01X3086Y68734D01*
G01X3121Y68733D01*
G01X3156Y68729D01*
G01X3190Y68724D01*
G01X3225Y68716D01*
G01X3259Y68707D01*
G01X3292Y68695D01*
G01X3324Y68681D01*
G01X3338Y68675D01*
G01X3352Y68672D01*
G01X3367Y68671D01*
G01X4205Y68671D01*
G01X4228Y68670D01*
G01X4252Y68667D01*
G01X4275Y68661D01*
G01X4297Y68654D01*
G01X4319Y68644D01*
G01X4340Y68633D01*
G01X4359Y68619D01*
G01X4377Y68604D01*
G01X4394Y68587D01*
G01X4409Y68569D01*
G01X4423Y68550D01*
G01X4434Y68529D01*
G01X4444Y68507D01*
G01X4451Y68485D01*
G01X4457Y68462D01*
G01X4460Y68438D01*
G01X4461Y68415D01*
G01X4461Y67815D01*
G01X4460Y67787D01*
G01X4455Y67760D01*
G01X4448Y67733D01*
G01X4438Y67707D01*
G01X4432Y67693D01*
G01X4429Y67679D01*
G01X4428Y67664D01*
G01X4429Y67650D01*
G01X4432Y67636D01*
G01X4437Y67622D01*
G01X4448Y67596D01*
G01X4455Y67569D01*
G01X4460Y67542D01*
G01X4461Y67514D01*
G01X4461Y67112D01*
G01X4462Y67098D01*
G01X4465Y67084D01*
G01X4470Y67070D01*
G01X4477Y67057D01*
G01X4486Y67046D01*
G01X4496Y67035D01*
G01X4508Y67027D01*
G01X4520Y67020D01*
G01X4534Y67015D01*
G01X4548Y67012D01*
G01X4563Y67011D01*
G01X4579Y67012D01*
G01X4594Y67016D01*
G01X4609Y67022D01*
G01X4643Y67038D01*
G01X4678Y67051D01*
G01X4714Y67063D01*
G01X4751Y67071D01*
G01X4788Y67078D01*
G01X4826Y67082D01*
G01X4864Y67083D01*
G01X4898Y67082D01*
G01X4931Y67079D01*
G01X4965Y67074D01*
G01X4998Y67066D01*
G01X5031Y67057D01*
G01X5063Y67046D01*
G01X5081Y67041D01*
G01X5099Y67040D01*
G01X5115Y67041D01*
G01X5130Y67044D01*
G01X5145Y67050D01*
G01X5158Y67059D01*
G01X5170Y67069D01*
G01X5181Y67081D01*
G01X5189Y67094D01*
G01X5195Y67109D01*
G01X5199Y67124D01*
G01X5214Y67188D01*
G01X5217Y67202D01*
G01X5218Y67216D01*
G01X5217Y67232D01*
G01X5213Y67247D01*
G01X5208Y67262D01*
G01X5200Y67275D01*
G01X5190Y67287D01*
G01X5178Y67297D01*
G01X5165Y67306D01*
G01X5151Y67312D01*
G01X5129Y67321D01*
G01X5107Y67333D01*
G01X5087Y67346D01*
G01X5068Y67361D01*
G01X5051Y67378D01*
G01X5035Y67396D01*
G01X5021Y67416D01*
G01X5009Y67437D01*
G01X4999Y67459D01*
G01X4991Y67482D01*
G01X4986Y67505D01*
G01X4982Y67529D01*
G01X4981Y67553D01*
G01X4981Y69321D01*
G01X4980Y69336D01*
G01X4977Y69350D01*
G01X4972Y69363D01*
G01X4965Y69376D01*
G01X4956Y69388D01*
G01X4946Y69398D01*
G01X4934Y69407D01*
G01X4922Y69414D01*
G01X4908Y69419D01*
G01X4894Y69422D01*
G01X4879Y69423D01*
G01X4860Y69421D01*
G01X4841Y69415D01*
G01X4795Y69398D01*
G01X4749Y69382D01*
G01X4701Y69370D01*
G01X4654Y69359D01*
G01X4605Y69351D01*
G01X4557Y69345D01*
G01X4508Y69341D01*
G01X4459Y69340D01*
G01X4273Y69340D01*
G01X4273Y69908D01*
G01X5377Y69908D01*
G01X5379Y69892D01*
G01X5383Y69877D01*
G01X5389Y69863D01*
G01X5397Y69850D01*
G01X5408Y69838D01*
G01X5420Y69829D01*
G01X5433Y69821D01*
G01X5448Y69815D01*
G01X5463Y69811D01*
G01X5478Y69810D01*
G01X10738Y69810D01*
G01X10761Y69809D01*
G01X10785Y69806D01*
G01X10808Y69800D01*
G01X10830Y69793D01*
G01X10852Y69783D01*
G01X10873Y69772D01*
G01X10892Y69758D01*
G01X10910Y69743D01*
G01X10927Y69726D01*
G01X10942Y69708D01*
G01X10956Y69689D01*
G01X10967Y69668D01*
G01X10977Y69646D01*
G01X10984Y69624D01*
G01X10990Y69601D01*
G01X10993Y69577D01*
G01X10994Y69553D01*
G01X10994Y67578D01*
G01X10995Y67564D01*
G01X10998Y67550D01*
G01X11003Y67536D01*
G01X11010Y67523D01*
G01X11019Y67512D01*
G01X11029Y67501D01*
G01X11041Y67493D01*
G01X11054Y67486D01*
G01X11067Y67481D01*
G01X11081Y67478D01*
G01X11096Y67477D01*
G01X11494Y67477D01*
G01X11510Y67478D01*
G01X11526Y67482D01*
G01X11540Y67488D01*
G01X11554Y67496D01*
G01X11566Y67506D01*
G01X12769Y68709D01*
G01X12779Y68721D01*
G01X12787Y68735D01*
G01X12794Y68749D01*
G01X12797Y68765D01*
G01X12799Y68781D01*
G01X12799Y69959D01*
G01X12797Y69974D01*
G01X12794Y69989D01*
G01X12789Y70003D01*
G01X12781Y70016D01*
G01X12761Y70048D01*
G01X12743Y70080D01*
G01X12728Y70114D01*
G01X12715Y70149D01*
G01X12704Y70185D01*
G01X12695Y70221D01*
G01X12689Y70257D01*
G01X12685Y70294D01*
G01X12684Y70331D01*
G01X12685Y70365D01*
G01X12688Y70399D01*
G01X12693Y70433D01*
G01X12701Y70466D01*
G01X12710Y70498D01*
G01X12721Y70531D01*
G01X12734Y70562D01*
G01X12749Y70592D01*
G01X12765Y70622D01*
G01X12784Y70650D01*
G01X12804Y70678D01*
G01X12825Y70704D01*
G01X12873Y70752D01*
G01X12899Y70773D01*
G01X12927Y70793D01*
G01X12955Y70812D01*
G01X12985Y70829D01*
G01X13015Y70843D01*
G01X13047Y70856D01*
G01X13079Y70867D01*
G01X13111Y70877D01*
G01X13144Y70884D01*
G01X13178Y70889D01*
G01X13212Y70892D01*
G01X13246Y70893D01*
G01X13280Y70892D01*
G01X13314Y70889D01*
G01X13348Y70883D01*
G01X13381Y70876D01*
G01X13414Y70867D01*
G01X13447Y70856D01*
G01X13478Y70842D01*
G01X13509Y70827D01*
G01X13539Y70810D01*
G01X13568Y70791D01*
G01X13595Y70771D01*
G01X13621Y70749D01*
G01X13646Y70725D01*
G01X13669Y70700D01*
G01X13691Y70673D01*
G01X13711Y70645D01*
G01X13729Y70616D01*
G01X13746Y70586D01*
G01X13760Y70555D01*
G01X13767Y70542D01*
G01X13776Y70530D01*
G01X13786Y70520D01*
G01X13798Y70511D01*
G01X13811Y70504D01*
G01X13824Y70499D01*
G01X13839Y70495D01*
G01X13854Y70494D01*
G01X13869Y70496D01*
G01X13885Y70499D01*
G01X13900Y70505D01*
G01X13913Y70514D01*
G01X13925Y70524D01*
G01X13936Y70536D01*
G01X13957Y70563D01*
G01X13980Y70590D01*
G01X14005Y70614D01*
G01X14031Y70637D01*
G01X14059Y70659D01*
G01X14087Y70678D01*
G01X14117Y70696D01*
G01X14148Y70712D01*
G01X14163Y70720D01*
G01X14175Y70730D01*
G01X14186Y70743D01*
G01X14195Y70756D01*
G01X14201Y70771D01*
G01X14205Y70787D01*
G01X14207Y70804D01*
G01X14205Y70820D01*
G01X14201Y70836D01*
G01X14195Y70851D01*
G01X14180Y70882D01*
G01X14167Y70913D01*
G01X14157Y70945D01*
G01X14149Y70977D01*
G01X14143Y71011D01*
G01X14139Y71044D01*
G01X14138Y71078D01*
G01X14138Y71587D01*
G01X14136Y71608D01*
G01X14129Y71628D01*
G01X14115Y71664D01*
G01X14103Y71701D01*
G01X14094Y71739D01*
G01X14087Y71777D01*
G01X14083Y71816D01*
G01X14081Y71854D01*
G01X14080Y71869D01*
G01X14077Y71883D01*
G01X14072Y71897D01*
G01X14065Y71909D01*
G01X14056Y71921D01*
G01X14046Y71931D01*
G01X14035Y71940D01*
G01X14022Y71947D01*
G01X14008Y71952D01*
G01X13994Y71955D01*
G01X13980Y71956D01*
G01X13964Y71955D01*
G01X13949Y71951D01*
G01X13934Y71945D01*
G01X13903Y71931D01*
G01X13871Y71920D01*
G01X13838Y71910D01*
G01X13804Y71904D01*
G01X13770Y71900D01*
G01X13736Y71899D01*
G01X11466Y71899D01*
G01X11452Y71898D01*
G01X11437Y71895D01*
G01X11424Y71890D01*
G01X11411Y71883D01*
G01X11400Y71874D01*
G01X11389Y71864D01*
G01X11381Y71852D01*
G01X11374Y71839D01*
G01X11369Y71826D01*
G01X11365Y71812D01*
G01X11364Y71797D01*
G01X11366Y71782D01*
G01X11369Y71767D01*
G01X11380Y71727D01*
G01X11388Y71685D01*
G01X11392Y71643D01*
G01X11394Y71601D01*
G01X11393Y71568D01*
G01X11390Y71534D01*
G01X11385Y71500D01*
G01X11378Y71467D01*
G01X11369Y71434D01*
G01X11357Y71402D01*
G01X11344Y71371D01*
G01X11330Y71341D01*
G01X11313Y71311D01*
G01X11295Y71283D01*
G01X11274Y71255D01*
G01X11253Y71229D01*
G01X11230Y71205D01*
G01X11205Y71181D01*
G01X11179Y71160D01*
G01X11151Y71140D01*
G01X11123Y71121D01*
G01X11093Y71104D01*
G01X11063Y71090D01*
G01X11032Y71077D01*
G01X11000Y71066D01*
G01X10967Y71056D01*
G01X10934Y71049D01*
G01X10900Y71044D01*
G01X10866Y71041D01*
G01X10833Y71040D01*
G01X10798Y71041D01*
G01X10763Y71044D01*
G01X10728Y71050D01*
G01X10694Y71057D01*
G01X10661Y71067D01*
G01X10628Y71079D01*
G01X10596Y71093D01*
G01X10564Y71108D01*
G01X10534Y71126D01*
G01X10505Y71146D01*
G01X10477Y71167D01*
G01X10451Y71190D01*
G01X10426Y71214D01*
G01X10403Y71240D01*
G01X10381Y71268D01*
G01X10361Y71296D01*
G01X10343Y71326D01*
G01X10327Y71357D01*
G01X10319Y71371D01*
G01X10309Y71384D01*
G01X10296Y71395D01*
G01X10283Y71403D01*
G01X10268Y71410D01*
G01X10252Y71413D01*
G01X10236Y71415D01*
G01X10221Y71414D01*
G01X10207Y71411D01*
G01X10193Y71406D01*
G01X10181Y71399D01*
G01X10169Y71390D01*
G01X10159Y71380D01*
G01X10150Y71368D01*
G01X10143Y71355D01*
G01X10138Y71342D01*
G01X10135Y71328D01*
G01X10134Y71313D01*
G01X10134Y71179D01*
G01X10133Y71156D01*
G01X10130Y71132D01*
G01X10124Y71109D01*
G01X10117Y71087D01*
G01X10107Y71065D01*
G01X10096Y71044D01*
G01X10082Y71025D01*
G01X10067Y71007D01*
G01X10050Y70990D01*
G01X10032Y70975D01*
G01X10013Y70961D01*
G01X9992Y70950D01*
G01X9970Y70940D01*
G01X9948Y70933D01*
G01X9925Y70927D01*
G01X9901Y70924D01*
G01X9878Y70923D01*
G01X7977Y70923D01*
G01X7954Y70924D01*
G01X7930Y70927D01*
G01X7907Y70933D01*
G01X7885Y70940D01*
G01X7863Y70950D01*
G01X7842Y70961D01*
G01X7823Y70975D01*
G01X7805Y70990D01*
G01X7788Y71007D01*
G01X7773Y71025D01*
G01X7759Y71044D01*
G01X7748Y71065D01*
G01X7738Y71087D01*
G01X7731Y71109D01*
G01X7725Y71132D01*
G01X7722Y71156D01*
G01X7721Y71179D01*
G01X7721Y72379D01*
G01X7722Y72404D01*
G01X7726Y72428D01*
G01X7731Y72451D01*
G01X7739Y72474D01*
G01X7749Y72496D01*
G01X7761Y72517D01*
G01X7775Y72537D01*
G01X7791Y72555D01*
G01X7808Y72572D01*
G01X7827Y72587D01*
G01X7847Y72601D01*
G01X7869Y72612D01*
G01X7881Y72619D01*
G01X7893Y72628D01*
G01X7903Y72638D01*
G01X7911Y72649D01*
G01X7918Y72662D01*
G01X7923Y72675D01*
G01X7926Y72689D01*
G01X7927Y72704D01*
G01X7926Y72718D01*
G01X7923Y72732D01*
G01X7918Y72746D01*
G01X7911Y72759D01*
G01X7903Y72770D01*
G01X7892Y72781D01*
G01X7881Y72789D01*
G01X7868Y72796D01*
G01X7854Y72801D01*
G01X7840Y72804D01*
G01X7826Y72805D01*
G01X7618Y72805D01*
G01X7603Y72804D01*
G01X7589Y72801D01*
G01X7575Y72796D01*
G01X7563Y72789D01*
G01X7551Y72781D01*
G01X7541Y72770D01*
G01X7532Y72759D01*
G01X7525Y72746D01*
G01X7520Y72732D01*
G01X7517Y72718D01*
G01X7516Y72704D01*
G01X7516Y71946D01*
G01X7515Y71923D01*
G01X7512Y71899D01*
G01X7506Y71876D01*
G01X7499Y71854D01*
G01X7489Y71832D01*
G01X7478Y71811D01*
G01X7464Y71792D01*
G01X7449Y71774D01*
G01X7432Y71757D01*
G01X7414Y71742D01*
G01X7395Y71728D01*
G01X7374Y71717D01*
G01X7352Y71707D01*
G01X7330Y71700D01*
G01X7307Y71694D01*
G01X7283Y71691D01*
G01X7260Y71690D01*
G01X4760Y71690D01*
G01X4736Y71691D01*
G01X4712Y71694D01*
G01X4689Y71700D01*
G01X4667Y71707D01*
G01X4645Y71717D01*
G01X4624Y71728D01*
G01X4605Y71742D01*
G01X4587Y71757D01*
G01X4570Y71774D01*
G01X4555Y71792D01*
G01X4541Y71811D01*
G01X4530Y71832D01*
G01X4520Y71854D01*
G01X4513Y71876D01*
G01X4507Y71899D01*
G01X4504Y71923D01*
G01X4503Y71946D01*
G01X4503Y71998D01*
G01X4502Y72012D01*
G01X4499Y72026D01*
G01X4494Y72040D01*
G01X4487Y72053D01*
G01X4478Y72064D01*
G01X4468Y72075D01*
G01X4456Y72083D01*
G01X4444Y72090D01*
G01X4430Y72095D01*
G01X4416Y72098D01*
G01X4401Y72099D01*
G01X2522Y72099D01*
G01X2490Y72100D01*
G01X2458Y72104D01*
G01X2427Y72110D01*
G01X2396Y72117D01*
G01X2365Y72128D01*
G01X2336Y72140D01*
G01X2307Y72154D01*
G01X2280Y72170D01*
G01X2254Y72188D01*
G01X2229Y72209D01*
G01X2206Y72230D01*
G01X1372Y73063D01*
G01X1351Y73087D01*
G01X1331Y73112D01*
G01X1313Y73138D01*
G01X1296Y73165D01*
G01X1282Y73194D01*
G01X1270Y73223D01*
G01X1260Y73254D01*
G01X1252Y73284D01*
G01X1246Y73316D01*
G01X1243Y73348D01*
G01X1242Y73379D01*
G01X1242Y75647D01*
G01X1241Y75662D01*
G01X1237Y75676D01*
G01X1232Y75689D01*
G01X1225Y75702D01*
G01X1217Y75714D01*
G01X1206Y75724D01*
G01X1195Y75733D01*
G01X1182Y75740D01*
G01X1169Y75745D01*
G01X1154Y75748D01*
G01X1140Y75749D01*
G01X739Y75749D01*
G01X715Y75750D01*
G01X691Y75753D01*
G01X668Y75759D01*
G01X646Y75766D01*
G01X624Y75776D01*
G01X604Y75787D01*
G01X584Y75801D01*
G01X566Y75816D01*
G01X549Y75833D01*
G01X534Y75851D01*
G01X520Y75870D01*
G01X509Y75891D01*
G01X499Y75913D01*
G01X492Y75935D01*
G01X486Y75958D01*
G01X483Y75982D01*
G01X482Y76005D01*
G01X482Y77205D01*
G01X483Y77229D01*
G01X486Y77253D01*
G01X492Y77276D01*
G01X499Y77298D01*
G01X509Y77320D01*
G01X520Y77340D01*
G01X534Y77360D01*
G01X549Y77378D01*
G01X566Y77395D01*
G01X584Y77410D01*
G01X604Y77424D01*
G01X624Y77435D01*
G01X646Y77445D01*
G01X668Y77452D01*
G01X691Y77458D01*
G01X715Y77461D01*
G01X739Y77462D01*
G01X2639Y77462D01*
G01X2665Y77461D01*
G01X2676Y77460D01*
G01X2690Y77461D01*
G01X2705Y77464D01*
G01X2718Y77469D01*
G01X2731Y77476D01*
G01X2742Y77485D01*
G01X2753Y77495D01*
G01X2761Y77507D01*
G01X2768Y77519D01*
G01X2773Y77533D01*
G01X2776Y77547D01*
G01X2777Y77562D01*
G01X2776Y77578D01*
G01X2773Y77593D01*
G01X2766Y77608D01*
G01X2758Y77621D01*
G01X2748Y77633D01*
G01X2736Y77644D01*
G01X2702Y77670D01*
G01X2670Y77697D01*
G01X2639Y77726D01*
G01X2610Y77757D01*
G01X2583Y77789D01*
G01X2557Y77822D01*
G01X2533Y77857D01*
G01X2511Y77893D01*
G01X2491Y77930D01*
G01X2473Y77968D01*
G01X2457Y78007D01*
G01X2442Y78047D01*
G01X2430Y78088D01*
G01X2421Y78129D01*
G01X2413Y78170D01*
G01X2407Y78212D01*
G01X2404Y78254D01*
G01X2403Y78296D01*
G01X2404Y78340D01*
G01X2408Y78384D01*
G01X2414Y78427D01*
G01X2422Y78470D01*
G01X2433Y78513D01*
G01X2445Y78555D01*
G01X2461Y78596D01*
G01X2478Y78636D01*
G01X2497Y78675D01*
G01X2519Y78713D01*
G01X2543Y78750D01*
G01X2568Y78786D01*
G01X2577Y78800D01*
G01X2584Y78815D01*
G01X2588Y78831D01*
G01X2589Y78847D01*
G01X2588Y78862D01*
G01X2585Y78876D01*
G01X2580Y78890D01*
G01X2573Y78902D01*
G01X2564Y78914D01*
G01X2554Y78924D01*
G01X2542Y78933D01*
G01X2530Y78940D01*
G01X2516Y78945D01*
G01X2502Y78948D01*
G01X2488Y78949D01*
G01X738Y78949D01*
G01X715Y78950D01*
G01X691Y78953D01*
G01X668Y78959D01*
G01X646Y78966D01*
G01X624Y78976D01*
G01X603Y78987D01*
G01X584Y79001D01*
G01X566Y79016D01*
G01X549Y79033D01*
G01X534Y79051D01*
G01X520Y79070D01*
G01X509Y79091D01*
G01X499Y79113D01*
G01X492Y79135D01*
G01X486Y79158D01*
G01X483Y79182D01*
G01X482Y79205D01*
G01X482Y80338D01*
G01X481Y80354D01*
G01X477Y80369D01*
G01X471Y80384D01*
G01X463Y80398D01*
G01X452Y80410D01*
G01X429Y80433D01*
G01X417Y80443D01*
G01X404Y80451D01*
G01X389Y80457D01*
G01X374Y80461D01*
G37*

%LPC*%
G36*
G01X2146Y71353D02*
G01X1960Y71353D01*
G01X1913Y71352D01*
G01X1866Y71349D01*
G01X1819Y71343D01*
G01X1773Y71335D01*
G01X1727Y71326D01*
G01X1682Y71314D01*
G01X1637Y71300D01*
G01X1593Y71284D01*
G01X1549Y71265D01*
G01X1507Y71245D01*
G01X1466Y71223D01*
G01X1425Y71199D01*
G01X1386Y71173D01*
G01X1348Y71146D01*
G01X1311Y71116D01*
G01X1276Y71085D01*
G01X1242Y71052D01*
G01X1210Y71018D01*
G01X1180Y70983D01*
G01X1151Y70945D01*
G01X1124Y70907D01*
G01X1099Y70867D01*
G01X1075Y70827D01*
G01X1054Y70785D01*
G01X2146Y70785D01*
G01X2146Y71353D01*
G37*
G36*
G01X4459Y71353D02*
G01X4273Y71353D01*
G01X4273Y70785D01*
G01X5365Y70785D01*
G01X5344Y70827D01*
G01X5320Y70867D01*
G01X5295Y70907D01*
G01X5268Y70945D01*
G01X5239Y70983D01*
G01X5209Y71018D01*
G01X5176Y71052D01*
G01X5143Y71085D01*
G01X5107Y71116D01*
G01X5071Y71146D01*
G01X5033Y71173D01*
G01X4994Y71199D01*
G01X4953Y71223D01*
G01X4912Y71245D01*
G01X4869Y71265D01*
G01X4826Y71284D01*
G01X4782Y71300D01*
G01X4737Y71314D01*
G01X4692Y71326D01*
G01X4646Y71335D01*
G01X4599Y71343D01*
G01X4553Y71349D01*
G01X4506Y71352D01*
G01X4459Y71353D01*
G37*
G36*
G01X2146Y69908D02*
G01X1054Y69908D01*
G01X1075Y69866D01*
G01X1099Y69825D01*
G01X1124Y69786D01*
G01X1151Y69747D01*
G01X1180Y69710D01*
G01X1210Y69675D01*
G01X1243Y69640D01*
G01X1276Y69608D01*
G01X1311Y69577D01*
G01X1348Y69547D01*
G01X1386Y69520D01*
G01X1425Y69494D01*
G01X1466Y69470D01*
G01X1507Y69448D01*
G01X1549Y69427D01*
G01X1593Y69409D01*
G01X1637Y69393D01*
G01X1682Y69379D01*
G01X1727Y69367D01*
G01X1773Y69357D01*
G01X1819Y69350D01*
G01X1866Y69344D01*
G01X1913Y69341D01*
G01X1960Y69340D01*
G01X2146Y69340D01*
G01X2146Y69908D01*
G37*
G36*
G01X1416Y67901D02*
G01X948Y67901D01*
G01X948Y67815D01*
G01X950Y67787D01*
G01X954Y67760D01*
G01X962Y67733D01*
G01X977Y67694D01*
G01X980Y67679D01*
G01X981Y67665D01*
G01X980Y67650D01*
G01X977Y67636D01*
G01X972Y67622D01*
G01X961Y67596D01*
G01X954Y67569D01*
G01X950Y67542D01*
G01X948Y67514D01*
G01X948Y67428D01*
G01X1416Y67428D01*
G01X1416Y67901D01*
G37*
G36*
G01X1416Y68671D02*
G01X1205Y68671D01*
G01X1181Y68670D01*
G01X1158Y68667D01*
G01X1135Y68661D01*
G01X1112Y68654D01*
G01X1090Y68644D01*
G01X1070Y68633D01*
G01X1050Y68619D01*
G01X1032Y68604D01*
G01X1015Y68587D01*
G01X1000Y68569D01*
G01X987Y68550D01*
G01X975Y68529D01*
G01X966Y68507D01*
G01X958Y68485D01*
G01X953Y68462D01*
G01X949Y68438D01*
G01X948Y68415D01*
G01X948Y68328D01*
G01X1416Y68328D01*
G01X1416Y68671D01*
G37*

%LPD*%
G36*
G01X29012Y85823D02*
G01X2540Y85823D01*
G01X2471Y85822D01*
G01X2402Y85819D01*
G01X2334Y85814D01*
G01X2266Y85806D01*
G01X2198Y85797D01*
G01X2130Y85786D01*
G01X2062Y85773D01*
G01X1996Y85757D01*
G01X1929Y85740D01*
G01X1863Y85721D01*
G01X1798Y85699D01*
G01X1733Y85676D01*
G01X1669Y85651D01*
G01X1606Y85624D01*
G01X1544Y85595D01*
G01X1483Y85564D01*
G01X1422Y85531D01*
G01X1363Y85497D01*
G01X1305Y85460D01*
G01X1248Y85422D01*
G01X1192Y85383D01*
G01X1137Y85341D01*
G01X1083Y85298D01*
G01X1031Y85254D01*
G01X980Y85208D01*
G01X931Y85160D01*
G01X883Y85111D01*
G01X836Y85060D01*
G01X791Y85008D01*
G01X748Y84955D01*
G01X706Y84901D01*
G01X666Y84845D01*
G01X628Y84788D01*
G01X591Y84730D01*
G01X556Y84671D01*
G01X523Y84611D01*
G01X492Y84550D01*
G01X462Y84488D01*
G01X435Y84425D01*
G01X409Y84361D01*
G01X385Y84297D01*
G01X363Y84232D01*
G01X344Y84166D01*
G01X326Y84100D01*
G01X310Y84033D01*
G01X296Y83966D01*
G01X284Y83898D01*
G01X275Y83830D01*
G01X267Y83762D01*
G01X261Y83693D01*
G01X258Y83625D01*
G01X258Y83621D01*
G01X259Y83607D01*
G01X262Y83592D01*
G01X267Y83579D01*
G01X274Y83566D01*
G01X282Y83554D01*
G01X293Y83544D01*
G01X304Y83536D01*
G01X317Y83529D01*
G01X331Y83523D01*
G01X345Y83520D01*
G01X359Y83519D01*
G01X375Y83521D01*
G01X391Y83524D01*
G01X405Y83530D01*
G01X419Y83539D01*
G01X431Y83549D01*
G01X864Y83983D01*
G01X889Y84005D01*
G01X915Y84026D01*
G01X943Y84045D01*
G01X972Y84062D01*
G01X1002Y84076D01*
G01X1033Y84089D01*
G01X1065Y84098D01*
G01X1098Y84106D01*
G01X1113Y84110D01*
G01X1128Y84117D01*
G01X1141Y84125D01*
G01X1153Y84136D01*
G01X1163Y84149D01*
G01X1171Y84163D01*
G01X1177Y84178D01*
G01X1180Y84193D01*
G01X1184Y84216D01*
G01X1190Y84239D01*
G01X1198Y84260D01*
G01X1208Y84281D01*
G01X1219Y84301D01*
G01X1233Y84320D01*
G01X1248Y84338D01*
G01X1265Y84354D01*
G01X1283Y84369D01*
G01X1302Y84381D01*
G01X1322Y84393D01*
G01X1344Y84402D01*
G01X1366Y84409D01*
G01X1388Y84414D01*
G01X1411Y84417D01*
G01X1435Y84418D01*
G01X2527Y84418D01*
G01X2550Y84417D01*
G01X2574Y84414D01*
G01X2597Y84409D01*
G01X2620Y84401D01*
G01X2641Y84391D01*
G01X2662Y84380D01*
G01X2682Y84366D01*
G01X2700Y84351D01*
G01X2717Y84334D01*
G01X2732Y84316D01*
G01X2745Y84296D01*
G01X2754Y84285D01*
G01X2764Y84274D01*
G01X2776Y84265D01*
G01X2789Y84258D01*
G01X2802Y84252D01*
G01X2817Y84249D01*
G01X2832Y84248D01*
G01X2846Y84249D01*
G01X2861Y84252D01*
G01X2875Y84258D01*
G01X2887Y84265D01*
G01X2899Y84274D01*
G01X2909Y84285D01*
G01X2918Y84296D01*
G01X2931Y84316D01*
G01X2947Y84334D01*
G01X2963Y84351D01*
G01X2982Y84366D01*
G01X3001Y84380D01*
G01X3022Y84391D01*
G01X3044Y84401D01*
G01X3066Y84409D01*
G01X3089Y84414D01*
G01X3113Y84417D01*
G01X3136Y84418D01*
G01X3346Y84418D01*
G01X3346Y83978D01*
G01X2885Y83978D01*
G01X2870Y83977D01*
G01X2856Y83974D01*
G01X2830Y83962D01*
G01X2818Y83953D01*
G01X2808Y83943D01*
G01X2799Y83931D01*
G01X2787Y83905D01*
G01X2784Y83890D01*
G01X2783Y83876D01*
G01X2783Y83457D01*
G01X2784Y83442D01*
G01X2787Y83428D01*
G01X2799Y83402D01*
G01X2808Y83390D01*
G01X2818Y83380D01*
G01X2830Y83371D01*
G01X2856Y83359D01*
G01X2870Y83356D01*
G01X2885Y83355D01*
G01X3346Y83355D01*
G01X3346Y82956D01*
G01X2997Y82956D01*
G01X2974Y82973D01*
G01X2953Y82992D01*
G01X2934Y83013D01*
G01X2918Y83036D01*
G01X2909Y83048D01*
G01X2899Y83059D01*
G01X2887Y83068D01*
G01X2875Y83075D01*
G01X2861Y83080D01*
G01X2846Y83084D01*
G01X2832Y83085D01*
G01X2817Y83084D01*
G01X2802Y83080D01*
G01X2789Y83075D01*
G01X2776Y83068D01*
G01X2764Y83059D01*
G01X2754Y83048D01*
G01X2745Y83036D01*
G01X2730Y83014D01*
G01X2712Y82993D01*
G01X2692Y82975D01*
G01X2670Y82958D01*
G01X2647Y82944D01*
G01X2624Y82934D01*
G01X2601Y82925D01*
G01X2576Y82919D01*
G01X2552Y82916D01*
G01X2527Y82915D01*
G01X2248Y82915D01*
G01X2233Y82914D01*
G01X2219Y82911D01*
G01X2205Y82905D01*
G01X2193Y82899D01*
G01X2181Y82890D01*
G01X2171Y82880D01*
G01X2162Y82868D01*
G01X2155Y82855D01*
G01X2150Y82842D01*
G01X2147Y82828D01*
G01X2146Y82813D01*
G01X2146Y82185D01*
G01X1053Y82185D01*
G01X1058Y82194D01*
G01X1080Y82235D01*
G01X1104Y82276D01*
G01X1129Y82315D01*
G01X1156Y82353D01*
G01X1185Y82389D01*
G01X1216Y82425D01*
G01X1248Y82458D01*
G01X1282Y82491D01*
G01X1317Y82521D01*
G01X1354Y82550D01*
G01X1392Y82578D01*
G01X1431Y82603D01*
G01X1471Y82627D01*
G01X1513Y82648D01*
G01X1555Y82668D01*
G01X1598Y82686D01*
G01X1642Y82702D01*
G01X1687Y82715D01*
G01X1701Y82720D01*
G01X1713Y82727D01*
G01X1725Y82736D01*
G01X1736Y82746D01*
G01X1744Y82758D01*
G01X1752Y82771D01*
G01X1757Y82784D01*
G01X1760Y82798D01*
G01X1761Y82813D01*
G01X1760Y82828D01*
G01X1757Y82842D01*
G01X1752Y82855D01*
G01X1745Y82868D01*
G01X1736Y82880D01*
G01X1726Y82890D01*
G01X1714Y82899D01*
G01X1702Y82905D01*
G01X1688Y82911D01*
G01X1674Y82914D01*
G01X1659Y82915D01*
G01X1435Y82915D01*
G01X1411Y82916D01*
G01X1388Y82919D01*
G01X1365Y82924D01*
G01X1343Y82932D01*
G01X1321Y82941D01*
G01X1301Y82952D01*
G01X1281Y82966D01*
G01X1263Y82981D01*
G01X1251Y82990D01*
G01X1238Y82997D01*
G01X1224Y83002D01*
G01X1210Y83006D01*
G01X1195Y83007D01*
G01X1179Y83005D01*
G01X1164Y83002D01*
G01X1149Y82996D01*
G01X1135Y82987D01*
G01X1123Y82977D01*
G01X895Y82749D01*
G01X885Y82737D01*
G01X877Y82723D01*
G01X871Y82709D01*
G01X867Y82693D01*
G01X866Y82677D01*
G01X866Y82239D01*
G01X867Y82225D01*
G01X870Y82210D01*
G01X875Y82196D01*
G01X882Y82183D01*
G01X891Y82172D01*
G01X902Y82161D01*
G01X891Y82151D01*
G01X882Y82139D01*
G01X875Y82126D01*
G01X870Y82113D01*
G01X867Y82098D01*
G01X866Y82083D01*
G01X866Y81409D01*
G01X867Y81395D01*
G01X870Y81381D01*
G01X875Y81367D01*
G01X882Y81355D01*
G01X890Y81343D01*
G01X901Y81333D01*
G01X912Y81324D01*
G01X925Y81317D01*
G01X939Y81312D01*
G01X953Y81309D01*
G01X967Y81308D01*
G01X2146Y81308D01*
G01X2146Y80764D01*
G01X2147Y80749D01*
G01X2150Y80735D01*
G01X2155Y80721D01*
G01X2162Y80709D01*
G01X2171Y80697D01*
G01X2181Y80687D01*
G01X2193Y80678D01*
G01X2205Y80671D01*
G01X2219Y80666D01*
G01X2233Y80663D01*
G01X2248Y80662D01*
G01X2639Y80662D01*
G01X2663Y80661D01*
G01X2687Y80657D01*
G01X2711Y80651D01*
G01X2735Y80643D01*
G01X2757Y80633D01*
G01X2778Y80621D01*
G01X2798Y80606D01*
G01X2817Y80590D01*
G01X2833Y80572D01*
G01X2849Y80552D01*
G01X2863Y80530D01*
G01X2874Y80506D01*
G01X2883Y80482D01*
G01X2890Y80457D01*
G01X2894Y80431D01*
G01X2895Y80405D01*
G01X2895Y79205D01*
G01X2894Y79187D01*
G01X2894Y79179D01*
G01X2895Y79165D01*
G01X2898Y79150D01*
G01X2903Y79137D01*
G01X2910Y79124D01*
G01X2919Y79112D01*
G01X2929Y79102D01*
G01X2941Y79094D01*
G01X2953Y79087D01*
G01X2967Y79082D01*
G01X2981Y79078D01*
G01X2996Y79077D01*
G01X3020Y79080D01*
G01X3066Y79090D01*
G01X3114Y79097D01*
G01X3162Y79102D01*
G01X3210Y79103D01*
G01X3250Y79102D01*
G01X3291Y79099D01*
G01X3332Y79094D01*
G01X3372Y79086D01*
G01X3412Y79077D01*
G01X3451Y79066D01*
G01X3490Y79053D01*
G01X3528Y79038D01*
G01X3565Y79021D01*
G01X3601Y79002D01*
G01X3636Y78981D01*
G01X3670Y78958D01*
G01X3703Y78934D01*
G01X3735Y78908D01*
G01X3765Y78881D01*
G01X3794Y78852D01*
G01X3822Y78822D01*
G01X3847Y78790D01*
G01X3872Y78757D01*
G01X3894Y78723D01*
G01X3915Y78688D01*
G01X3934Y78652D01*
G01X3951Y78614D01*
G01X3966Y78577D01*
G01X3979Y78538D01*
G01X3990Y78499D01*
G01X4000Y78459D01*
G01X4007Y78419D01*
G01X4012Y78378D01*
G01X4015Y78337D01*
G01X4016Y78296D01*
G01X4015Y78256D01*
G01X4012Y78215D01*
G01X4007Y78174D01*
G01X4000Y78134D01*
G01X3990Y78094D01*
G01X3979Y78055D01*
G01X3966Y78016D01*
G01X3951Y77978D01*
G01X3934Y77941D01*
G01X3915Y77905D01*
G01X3894Y77870D01*
G01X3872Y77836D01*
G01X3847Y77803D01*
G01X3822Y77771D01*
G01X3794Y77741D01*
G01X3765Y77712D01*
G01X3735Y77684D01*
G01X3703Y77659D01*
G01X3670Y77634D01*
G01X3636Y77612D01*
G01X3601Y77591D01*
G01X3565Y77572D01*
G01X3528Y77555D01*
G01X3490Y77540D01*
G01X3451Y77527D01*
G01X3412Y77516D01*
G01X3372Y77506D01*
G01X3332Y77499D01*
G01X3291Y77494D01*
G01X3250Y77491D01*
G01X3210Y77490D01*
G01X3164Y77491D01*
G01X3119Y77495D01*
G01X3075Y77501D01*
G01X3030Y77510D01*
G01X2987Y77521D01*
G01X2944Y77535D01*
G01X2927Y77539D01*
G01X2910Y77541D01*
G01X2896Y77540D01*
G01X2881Y77537D01*
G01X2868Y77532D01*
G01X2855Y77525D01*
G01X2843Y77516D01*
G01X2833Y77506D01*
G01X2825Y77494D01*
G01X2818Y77481D01*
G01X2813Y77468D01*
G01X2809Y77454D01*
G01X2808Y77439D01*
G01X2809Y77425D01*
G01X2812Y77411D01*
G01X2818Y77397D01*
G01X2824Y77384D01*
G01X2833Y77373D01*
G01X2849Y77352D01*
G01X2863Y77330D01*
G01X2874Y77307D01*
G01X2883Y77282D01*
G01X2890Y77257D01*
G01X2894Y77231D01*
G01X2895Y77205D01*
G01X2895Y76641D01*
G01X2896Y76627D01*
G01X2899Y76613D01*
G01X2904Y76599D01*
G01X2911Y76586D01*
G01X2920Y76575D01*
G01X2930Y76564D01*
G01X2942Y76556D01*
G01X2955Y76549D01*
G01X2968Y76544D01*
G01X2982Y76541D01*
G01X2997Y76540D01*
G01X3013Y76541D01*
G01X3028Y76545D01*
G01X3043Y76551D01*
G01X3057Y76559D01*
G01X3069Y76570D01*
G01X3093Y76593D01*
G01X3120Y76615D01*
G01X3147Y76635D01*
G01X3175Y76653D01*
G01X3205Y76670D01*
G01X3236Y76685D01*
G01X3267Y76698D01*
G01X3299Y76709D01*
G01X3332Y76718D01*
G01X3365Y76726D01*
G01X3399Y76731D01*
G01X3433Y76734D01*
G01X3467Y76735D01*
G01X3500Y76734D01*
G01X3534Y76731D01*
G01X3568Y76726D01*
G01X3601Y76719D01*
G01X3634Y76709D01*
G01X3666Y76698D01*
G01X3697Y76685D01*
G01X3727Y76671D01*
G01X3757Y76654D01*
G01X3785Y76635D01*
G01X3813Y76615D01*
G01X3839Y76594D01*
G01X3864Y76570D01*
G01X3887Y76546D01*
G01X3908Y76520D01*
G01X3929Y76492D01*
G01X3947Y76464D01*
G01X3964Y76434D01*
G01X3978Y76404D01*
G01X3991Y76373D01*
G01X4003Y76340D01*
G01X4012Y76308D01*
G01X4019Y76275D01*
G01X4024Y76241D01*
G01X4027Y76207D01*
G01X4028Y76173D01*
G01X4027Y76136D01*
G01X4023Y76099D01*
G01X4017Y76063D01*
G01X4008Y76027D01*
G01X3997Y75991D01*
G01X3984Y75956D01*
G01X3969Y75922D01*
G01X3951Y75890D01*
G01X3931Y75858D01*
G01X3924Y75845D01*
G01X3918Y75831D01*
G01X3915Y75816D01*
G01X3914Y75801D01*
G01X3914Y75766D01*
G01X3915Y75750D01*
G01X3919Y75734D01*
G01X3925Y75720D01*
G01X3933Y75706D01*
G01X3943Y75694D01*
G01X4114Y75523D01*
G01X4126Y75513D01*
G01X4140Y75504D01*
G01X4155Y75498D01*
G01X4170Y75495D01*
G01X4186Y75493D01*
G01X4401Y75493D01*
G01X4416Y75494D01*
G01X4430Y75497D01*
G01X4444Y75502D01*
G01X4456Y75509D01*
G01X4468Y75518D01*
G01X4478Y75528D01*
G01X4487Y75540D01*
G01X4494Y75553D01*
G01X4499Y75566D01*
G01X4502Y75580D01*
G01X4503Y75595D01*
G01X4503Y75646D01*
G01X4504Y75670D01*
G01X4507Y75694D01*
G01X4513Y75717D01*
G01X4520Y75739D01*
G01X4530Y75761D01*
G01X4541Y75781D01*
G01X4555Y75801D01*
G01X4570Y75819D01*
G01X4587Y75836D01*
G01X4605Y75851D01*
G01X4624Y75864D01*
G01X4645Y75876D01*
G01X4667Y75886D01*
G01X4689Y75893D01*
G01X4712Y75899D01*
G01X4736Y75902D01*
G01X4760Y75903D01*
G01X7260Y75903D01*
G01X7283Y75902D01*
G01X7307Y75899D01*
G01X7330Y75893D01*
G01X7352Y75886D01*
G01X7374Y75876D01*
G01X7395Y75864D01*
G01X7414Y75851D01*
G01X7432Y75836D01*
G01X7449Y75819D01*
G01X7464Y75801D01*
G01X7478Y75781D01*
G01X7489Y75761D01*
G01X7499Y75739D01*
G01X7506Y75717D01*
G01X7512Y75694D01*
G01X7515Y75670D01*
G01X7516Y75646D01*
G01X7516Y74446D01*
G01X7515Y74423D01*
G01X7512Y74399D01*
G01X7506Y74376D01*
G01X7499Y74354D01*
G01X7489Y74332D01*
G01X7478Y74311D01*
G01X7464Y74292D01*
G01X7449Y74274D01*
G01X7432Y74257D01*
G01X7414Y74242D01*
G01X7395Y74228D01*
G01X7374Y74217D01*
G01X7352Y74207D01*
G01X7330Y74200D01*
G01X7307Y74194D01*
G01X7283Y74191D01*
G01X7260Y74190D01*
G01X4760Y74190D01*
G01X4736Y74191D01*
G01X4712Y74194D01*
G01X4689Y74200D01*
G01X4667Y74207D01*
G01X4645Y74217D01*
G01X4624Y74228D01*
G01X4605Y74242D01*
G01X4587Y74257D01*
G01X4570Y74274D01*
G01X4555Y74292D01*
G01X4541Y74311D01*
G01X4530Y74332D01*
G01X4520Y74354D01*
G01X4513Y74376D01*
G01X4507Y74399D01*
G01X4504Y74423D01*
G01X4503Y74446D01*
G01X4503Y74498D01*
G01X4502Y74512D01*
G01X4499Y74526D01*
G01X4494Y74540D01*
G01X4487Y74553D01*
G01X4478Y74564D01*
G01X4468Y74574D01*
G01X4456Y74583D01*
G01X4444Y74590D01*
G01X4430Y74595D01*
G01X4416Y74598D01*
G01X4401Y74599D01*
G01X3959Y74599D01*
G01X3927Y74600D01*
G01X3895Y74604D01*
G01X3864Y74609D01*
G01X3833Y74617D01*
G01X3803Y74627D01*
G01X3773Y74640D01*
G01X3745Y74654D01*
G01X3717Y74670D01*
G01X3691Y74688D01*
G01X3666Y74708D01*
G01X3643Y74730D01*
G01X3150Y75222D01*
G01X3129Y75246D01*
G01X3109Y75271D01*
G01X3091Y75297D01*
G01X3074Y75324D01*
G01X3060Y75353D01*
G01X3048Y75382D01*
G01X3038Y75413D01*
G01X3030Y75443D01*
G01X3024Y75475D01*
G01X3021Y75507D01*
G01X3020Y75538D01*
G01X3020Y75781D01*
G01X3019Y75796D01*
G01X3015Y75810D01*
G01X3010Y75824D01*
G01X3003Y75836D01*
G01X2995Y75848D01*
G01X2984Y75858D01*
G01X2973Y75867D01*
G01X2960Y75874D01*
G01X2947Y75879D01*
G01X2932Y75882D01*
G01X2918Y75883D01*
G01X2903Y75882D01*
G01X2888Y75878D01*
G01X2874Y75873D01*
G01X2861Y75865D01*
G01X2849Y75856D01*
G01X2839Y75845D01*
G01X2824Y75828D01*
G01X2807Y75812D01*
G01X2789Y75798D01*
G01X2770Y75785D01*
G01X2750Y75774D01*
G01X2728Y75765D01*
G01X2707Y75758D01*
G01X2684Y75753D01*
G01X2662Y75750D01*
G01X2639Y75749D01*
G01X2237Y75749D01*
G01X2223Y75748D01*
G01X2209Y75745D01*
G01X2195Y75740D01*
G01X2182Y75733D01*
G01X2171Y75724D01*
G01X2160Y75714D01*
G01X2152Y75702D01*
G01X2145Y75689D01*
G01X2140Y75676D01*
G01X2137Y75662D01*
G01X2136Y75647D01*
G01X2136Y73607D01*
G01X2137Y73591D01*
G01X2141Y73575D01*
G01X2147Y73561D01*
G01X2155Y73547D01*
G01X2165Y73535D01*
G01X2283Y73417D01*
G01X2295Y73407D01*
G01X2309Y73398D01*
G01X2324Y73392D01*
G01X2339Y73389D01*
G01X2355Y73387D01*
G01X2369Y73388D01*
G01X2384Y73392D01*
G01X2397Y73397D01*
G01X2410Y73404D01*
G01X2421Y73412D01*
G01X2432Y73422D01*
G01X2440Y73434D01*
G01X2447Y73447D01*
G01X2452Y73460D01*
G01X2456Y73475D01*
G01X2457Y73489D01*
G01X2455Y73506D01*
G01X2451Y73523D01*
G01X2436Y73567D01*
G01X2424Y73612D01*
G01X2415Y73658D01*
G01X2408Y73704D01*
G01X2404Y73750D01*
G01X2403Y73796D01*
G01X2404Y73837D01*
G01X2407Y73878D01*
G01X2412Y73918D01*
G01X2420Y73959D01*
G01X2429Y73998D01*
G01X2440Y74038D01*
G01X2453Y74076D01*
G01X2468Y74114D01*
G01X2485Y74151D01*
G01X2504Y74188D01*
G01X2525Y74223D01*
G01X2548Y74257D01*
G01X2572Y74290D01*
G01X2598Y74322D01*
G01X2625Y74352D01*
G01X2654Y74381D01*
G01X2684Y74408D01*
G01X2716Y74434D01*
G01X2749Y74458D01*
G01X2783Y74481D01*
G01X2818Y74502D01*
G01X2854Y74520D01*
G01X2891Y74538D01*
G01X2929Y74553D01*
G01X2968Y74566D01*
G01X3007Y74577D01*
G01X3047Y74586D01*
G01X3087Y74594D01*
G01X3128Y74599D01*
G01X3169Y74602D01*
G01X3210Y74603D01*
G01X3250Y74602D01*
G01X3291Y74599D01*
G01X3332Y74594D01*
G01X3372Y74586D01*
G01X3412Y74577D01*
G01X3451Y74566D01*
G01X3490Y74553D01*
G01X3528Y74538D01*
G01X3565Y74520D01*
G01X3601Y74502D01*
G01X3636Y74481D01*
G01X3670Y74458D01*
G01X3703Y74434D01*
G01X3735Y74408D01*
G01X3765Y74381D01*
G01X3794Y74352D01*
G01X3822Y74322D01*
G01X3847Y74290D01*
G01X3872Y74257D01*
G01X3894Y74223D01*
G01X3915Y74188D01*
G01X3934Y74151D01*
G01X3951Y74114D01*
G01X3966Y74076D01*
G01X3979Y74038D01*
G01X3990Y73998D01*
G01X4000Y73959D01*
G01X4007Y73918D01*
G01X4012Y73878D01*
G01X4015Y73837D01*
G01X4016Y73796D01*
G01X4015Y73754D01*
G01X4012Y73713D01*
G01X4006Y73671D01*
G01X3999Y73630D01*
G01X3989Y73589D01*
G01X3977Y73549D01*
G01X3963Y73510D01*
G01X3948Y73471D01*
G01X3930Y73433D01*
G01X3910Y73396D01*
G01X3888Y73360D01*
G01X3865Y73326D01*
G01X3839Y73292D01*
G01X3812Y73260D01*
G01X3784Y73230D01*
G01X3754Y73201D01*
G01X3722Y73173D01*
G01X3711Y73163D01*
G01X3702Y73151D01*
G01X3695Y73138D01*
G01X3689Y73124D01*
G01X3686Y73110D01*
G01X3685Y73095D01*
G01X3686Y73081D01*
G01X3689Y73066D01*
G01X3694Y73053D01*
G01X3701Y73040D01*
G01X3710Y73028D01*
G01X3720Y73018D01*
G01X3732Y73010D01*
G01X3744Y73003D01*
G01X3758Y72998D01*
G01X3772Y72994D01*
G01X3787Y72993D01*
G01X4401Y72993D01*
G01X4416Y72994D01*
G01X4430Y72998D01*
G01X4444Y73003D01*
G01X4456Y73010D01*
G01X4468Y73018D01*
G01X4478Y73028D01*
G01X4487Y73040D01*
G01X4494Y73053D01*
G01X4499Y73066D01*
G01X4502Y73081D01*
G01X4503Y73095D01*
G01X4503Y73146D01*
G01X4504Y73170D01*
G01X4507Y73194D01*
G01X4513Y73217D01*
G01X4520Y73239D01*
G01X4530Y73261D01*
G01X4541Y73282D01*
G01X4555Y73301D01*
G01X4570Y73319D01*
G01X4587Y73336D01*
G01X4605Y73351D01*
G01X4624Y73365D01*
G01X4645Y73376D01*
G01X4667Y73386D01*
G01X4689Y73393D01*
G01X4712Y73399D01*
G01X4736Y73402D01*
G01X4760Y73403D01*
G01X6191Y73403D01*
G01X6207Y73404D01*
G01X6223Y73408D01*
G01X6238Y73414D01*
G01X6251Y73422D01*
G01X6263Y73433D01*
G01X6399Y73569D01*
G01X6422Y73590D01*
G01X6447Y73610D01*
G01X6474Y73629D01*
G01X6501Y73645D01*
G01X6530Y73659D01*
G01X6559Y73671D01*
G01X6589Y73681D01*
G01X6620Y73689D01*
G01X6652Y73695D01*
G01X6683Y73698D01*
G01X6715Y73700D01*
G01X10579Y73700D01*
G01X10610Y73698D01*
G01X10642Y73695D01*
G01X10674Y73689D01*
G01X10705Y73681D01*
G01X10735Y73671D01*
G01X10764Y73659D01*
G01X10793Y73645D01*
G01X10820Y73629D01*
G01X10846Y73610D01*
G01X10871Y73590D01*
G01X10895Y73569D01*
G01X11149Y73315D01*
G01X11170Y73291D01*
G01X11190Y73266D01*
G01X11209Y73240D01*
G01X11225Y73213D01*
G01X11239Y73184D01*
G01X11251Y73155D01*
G01X11262Y73124D01*
G01X11269Y73093D01*
G01X11275Y73062D01*
G01X11278Y73030D01*
G01X11280Y72998D01*
G01X11280Y72894D01*
G01X11281Y72880D01*
G01X11284Y72866D01*
G01X11289Y72852D01*
G01X11296Y72839D01*
G01X11304Y72828D01*
G01X11315Y72818D01*
G01X11326Y72809D01*
G01X11339Y72802D01*
G01X11353Y72797D01*
G01X11367Y72794D01*
G01X11381Y72793D01*
G01X11995Y72793D01*
G01X12009Y72794D01*
G01X12024Y72797D01*
G01X12037Y72802D01*
G01X12050Y72809D01*
G01X12061Y72818D01*
G01X12072Y72828D01*
G01X12080Y72839D01*
G01X12087Y72852D01*
G01X12092Y72866D01*
G01X12095Y72880D01*
G01X12096Y72894D01*
G01X12095Y72911D01*
G01X12091Y72927D01*
G01X12084Y72943D01*
G01X12075Y72957D01*
G01X12056Y72983D01*
G01X12039Y73009D01*
G01X12024Y73037D01*
G01X12011Y73066D01*
G01X12000Y73096D01*
G01X11990Y73127D01*
G01X11983Y73158D01*
G01X11978Y73189D01*
G01X11975Y73221D01*
G01X11974Y73252D01*
G01X11975Y73286D01*
G01X11978Y73318D01*
G01X11984Y73351D01*
G01X11992Y73383D01*
G01X12002Y73415D01*
G01X12014Y73445D01*
G01X12028Y73475D01*
G01X12045Y73504D01*
G01X12063Y73532D01*
G01X12083Y73558D01*
G01X12105Y73583D01*
G01X12114Y73595D01*
G01X12122Y73608D01*
G01X12128Y73622D01*
G01X12131Y73637D01*
G01X12132Y73653D01*
G01X12131Y73668D01*
G01X12128Y73683D01*
G01X12122Y73697D01*
G01X12114Y73710D01*
G01X12105Y73722D01*
G01X12083Y73747D01*
G01X12063Y73773D01*
G01X12045Y73801D01*
G01X12028Y73830D01*
G01X12014Y73860D01*
G01X12002Y73890D01*
G01X11992Y73922D01*
G01X11984Y73954D01*
G01X11978Y73987D01*
G01X11975Y74020D01*
G01X11974Y74053D01*
G01X11975Y74086D01*
G01X11978Y74119D01*
G01X11984Y74151D01*
G01X11992Y74183D01*
G01X12002Y74215D01*
G01X12014Y74246D01*
G01X12028Y74275D01*
G01X12045Y74304D01*
G01X12063Y74332D01*
G01X12083Y74358D01*
G01X12105Y74383D01*
G01X12114Y74395D01*
G01X12122Y74408D01*
G01X12128Y74422D01*
G01X12131Y74437D01*
G01X12132Y74453D01*
G01X12131Y74468D01*
G01X12128Y74483D01*
G01X12122Y74497D01*
G01X12114Y74510D01*
G01X12105Y74522D01*
G01X12083Y74547D01*
G01X12063Y74573D01*
G01X12045Y74601D01*
G01X12028Y74630D01*
G01X12014Y74660D01*
G01X12002Y74690D01*
G01X11992Y74722D01*
G01X11984Y74754D01*
G01X11978Y74787D01*
G01X11975Y74820D01*
G01X11974Y74853D01*
G01X11975Y74888D01*
G01X11979Y74924D01*
G01X11985Y74959D01*
G01X11995Y74994D01*
G01X12006Y75028D01*
G01X12021Y75060D01*
G01X12026Y75074D01*
G01X12029Y75089D01*
G01X12031Y75104D01*
G01X12030Y75119D01*
G01X12026Y75133D01*
G01X12021Y75146D01*
G01X12014Y75159D01*
G01X12006Y75171D01*
G01X11995Y75181D01*
G01X11984Y75190D01*
G01X11971Y75197D01*
G01X11958Y75202D01*
G01X11943Y75205D01*
G01X11929Y75206D01*
G01X11353Y75206D01*
G01X11321Y75207D01*
G01X11290Y75210D01*
G01X11258Y75216D01*
G01X11227Y75224D01*
G01X11197Y75234D01*
G01X11168Y75246D01*
G01X11139Y75260D01*
G01X11112Y75277D01*
G01X11085Y75295D01*
G01X11061Y75315D01*
G01X11037Y75337D01*
G01X10643Y75730D01*
G01X10622Y75754D01*
G01X10602Y75779D01*
G01X10584Y75805D01*
G01X10567Y75832D01*
G01X10553Y75861D01*
G01X10541Y75890D01*
G01X10531Y75921D01*
G01X10523Y75951D01*
G01X10517Y75983D01*
G01X10514Y76015D01*
G01X10513Y76046D01*
G01X10513Y77784D01*
G01X10512Y77798D01*
G01X10508Y77812D01*
G01X10503Y77826D01*
G01X10496Y77839D01*
G01X10488Y77850D01*
G01X10477Y77861D01*
G01X10466Y77869D01*
G01X10453Y77876D01*
G01X10440Y77881D01*
G01X10425Y77884D01*
G01X10411Y77885D01*
G01X10029Y77885D01*
G01X10015Y77884D01*
G01X10001Y77881D01*
G01X9987Y77876D01*
G01X9975Y77869D01*
G01X9963Y77861D01*
G01X9953Y77850D01*
G01X9944Y77839D01*
G01X9937Y77826D01*
G01X9932Y77812D01*
G01X9929Y77798D01*
G01X9928Y77784D01*
G01X9929Y77769D01*
G01X9932Y77755D01*
G01X9937Y77742D01*
G01X9944Y77729D01*
G01X9952Y77718D01*
G01X9962Y77708D01*
G01X9974Y77699D01*
G01X9986Y77692D01*
G01X10008Y77681D01*
G01X10028Y77667D01*
G01X10047Y77652D01*
G01X10064Y77635D01*
G01X10080Y77617D01*
G01X10094Y77597D01*
G01X10106Y77576D01*
G01X10116Y77554D01*
G01X10124Y77531D01*
G01X10130Y77508D01*
G01X10133Y77484D01*
G01X10134Y77459D01*
G01X10134Y76259D01*
G01X10133Y76237D01*
G01X10130Y76214D01*
G01X10125Y76192D01*
G01X10118Y76170D01*
G01X10109Y76149D01*
G01X10098Y76128D01*
G01X10086Y76109D01*
G01X10071Y76091D01*
G01X10056Y76075D01*
G01X10038Y76060D01*
G01X10020Y76046D01*
G01X10000Y76034D01*
G01X9980Y76024D01*
G01X9958Y76016D01*
G01X9944Y76010D01*
G01X9930Y76001D01*
G01X9918Y75991D01*
G01X9908Y75979D01*
G01X9900Y75965D01*
G01X9893Y75951D01*
G01X9890Y75935D01*
G01X9889Y75919D01*
G01X9890Y75904D01*
G01X9893Y75888D01*
G01X9900Y75874D01*
G01X9908Y75860D01*
G01X9918Y75848D01*
G01X9930Y75838D01*
G01X9944Y75829D01*
G01X9958Y75823D01*
G01X9980Y75815D01*
G01X10000Y75805D01*
G01X10020Y75793D01*
G01X10038Y75779D01*
G01X10056Y75764D01*
G01X10071Y75748D01*
G01X10086Y75730D01*
G01X10098Y75711D01*
G01X10109Y75690D01*
G01X10118Y75669D01*
G01X10125Y75647D01*
G01X10130Y75625D01*
G01X10133Y75602D01*
G01X10134Y75579D01*
G01X10134Y75343D01*
G01X9466Y75343D01*
G01X9466Y75901D01*
G01X9465Y75916D01*
G01X9462Y75930D01*
G01X9457Y75944D01*
G01X9450Y75956D01*
G01X9441Y75968D01*
G01X9431Y75978D01*
G01X9419Y75987D01*
G01X9407Y75994D01*
G01X9393Y75999D01*
G01X9379Y76002D01*
G01X9365Y76003D01*
G01X8491Y76003D01*
G01X8476Y76002D01*
G01X8462Y75999D01*
G01X8448Y75994D01*
G01X8436Y75987D01*
G01X8424Y75978D01*
G01X8414Y75968D01*
G01X8405Y75956D01*
G01X8398Y75944D01*
G01X8393Y75930D01*
G01X8390Y75916D01*
G01X8389Y75901D01*
G01X8389Y75343D01*
G01X7721Y75343D01*
G01X7721Y75579D01*
G01X7722Y75602D01*
G01X7725Y75625D01*
G01X7730Y75647D01*
G01X7737Y75669D01*
G01X7746Y75690D01*
G01X7757Y75711D01*
G01X7770Y75730D01*
G01X7784Y75748D01*
G01X7800Y75764D01*
G01X7817Y75779D01*
G01X7835Y75793D01*
G01X7855Y75805D01*
G01X7876Y75815D01*
G01X7897Y75823D01*
G01X7912Y75829D01*
G01X7925Y75838D01*
G01X7937Y75848D01*
G01X7947Y75860D01*
G01X7956Y75874D01*
G01X7962Y75888D01*
G01X7965Y75904D01*
G01X7967Y75919D01*
G01X7965Y75935D01*
G01X7962Y75951D01*
G01X7956Y75965D01*
G01X7947Y75979D01*
G01X7937Y75991D01*
G01X7925Y76001D01*
G01X7912Y76010D01*
G01X7897Y76016D01*
G01X7876Y76024D01*
G01X7855Y76034D01*
G01X7835Y76046D01*
G01X7817Y76060D01*
G01X7800Y76075D01*
G01X7784Y76091D01*
G01X7770Y76109D01*
G01X7757Y76128D01*
G01X7746Y76149D01*
G01X7737Y76170D01*
G01X7730Y76192D01*
G01X7725Y76214D01*
G01X7722Y76237D01*
G01X7721Y76259D01*
G01X7721Y77459D01*
G01X7722Y77483D01*
G01X7725Y77507D01*
G01X7731Y77530D01*
G01X7738Y77552D01*
G01X7748Y77574D01*
G01X7759Y77595D01*
G01X7773Y77614D01*
G01X7788Y77632D01*
G01X7805Y77649D01*
G01X7823Y77664D01*
G01X7843Y77678D01*
G01X7863Y77689D01*
G01X7885Y77699D01*
G01X7907Y77706D01*
G01X7930Y77712D01*
G01X7954Y77715D01*
G01X7978Y77716D01*
G01X8716Y77716D01*
G01X8732Y77717D01*
G01X8748Y77721D01*
G01X8783Y77732D01*
G01X8819Y77740D01*
G01X8855Y77746D01*
G01X8891Y77750D01*
G01X8928Y77751D01*
G01X8964Y77750D01*
G01X9000Y77746D01*
G01X9037Y77740D01*
G01X9072Y77732D01*
G01X9107Y77721D01*
G01X9123Y77717D01*
G01X9140Y77716D01*
G01X9246Y77716D01*
G01X9261Y77717D01*
G01X9275Y77720D01*
G01X9288Y77725D01*
G01X9301Y77732D01*
G01X9313Y77741D01*
G01X9323Y77751D01*
G01X9332Y77763D01*
G01X9338Y77775D01*
G01X9344Y77789D01*
G01X9347Y77803D01*
G01X9348Y77818D01*
G01X9346Y77833D01*
G01X9343Y77848D01*
G01X9337Y77862D01*
G01X9329Y77876D01*
G01X9320Y77888D01*
G01X9308Y77898D01*
G01X9295Y77907D01*
G01X9281Y77913D01*
G01X9251Y77925D01*
G01X9222Y77940D01*
G01X9195Y77956D01*
G01X9168Y77974D01*
G01X9143Y77994D01*
G01X9119Y78016D01*
G01X8611Y78524D01*
G01X8590Y78548D01*
G01X8570Y78573D01*
G01X8552Y78599D01*
G01X8535Y78626D01*
G01X8521Y78655D01*
G01X8509Y78684D01*
G01X8499Y78715D01*
G01X8491Y78745D01*
G01X8485Y78777D01*
G01X8482Y78809D01*
G01X8481Y78840D01*
G01X8481Y79101D01*
G01X8480Y79116D01*
G01X8476Y79130D01*
G01X8471Y79144D01*
G01X8464Y79156D01*
G01X8456Y79168D01*
G01X8445Y79178D01*
G01X8434Y79187D01*
G01X8421Y79194D01*
G01X8408Y79199D01*
G01X8393Y79202D01*
G01X8379Y79203D01*
G01X7977Y79203D01*
G01X7954Y79204D01*
G01X7930Y79207D01*
G01X7907Y79213D01*
G01X7885Y79220D01*
G01X7863Y79230D01*
G01X7842Y79241D01*
G01X7823Y79255D01*
G01X7805Y79270D01*
G01X7788Y79287D01*
G01X7773Y79305D01*
G01X7759Y79324D01*
G01X7748Y79345D01*
G01X7738Y79367D01*
G01X7731Y79389D01*
G01X7725Y79412D01*
G01X7722Y79436D01*
G01X7721Y79460D01*
G01X7721Y80246D01*
G01X7720Y80260D01*
G01X7717Y80274D01*
G01X7712Y80288D01*
G01X7705Y80301D01*
G01X7696Y80312D01*
G01X7686Y80322D01*
G01X7674Y80331D01*
G01X7662Y80338D01*
G01X7648Y80343D01*
G01X7634Y80346D01*
G01X7619Y80347D01*
G01X7603Y80346D01*
G01X7586Y80342D01*
G01X7574Y80338D01*
G01X7559Y80332D01*
G01X7546Y80323D01*
G01X7533Y80313D01*
G01X7523Y80301D01*
G01X7515Y80287D01*
G01X7508Y80272D01*
G01X7505Y80257D01*
G01X7503Y80241D01*
G01X7507Y80214D01*
G01X7514Y80181D01*
G01X7516Y80146D01*
G01X7516Y79910D01*
G01X6698Y79910D01*
G01X6698Y80403D01*
G01X6852Y80403D01*
G01X6867Y80404D01*
G01X6881Y80407D01*
G01X6894Y80412D01*
G01X6907Y80419D01*
G01X6919Y80428D01*
G01X6929Y80438D01*
G01X6938Y80450D01*
G01X6945Y80462D01*
G01X6950Y80476D01*
G01X6953Y80490D01*
G01X6954Y80505D01*
G01X6953Y80520D01*
G01X6949Y80534D01*
G01X6944Y80548D01*
G01X6937Y80561D01*
G01X6917Y80592D01*
G01X6900Y80625D01*
G01X6885Y80658D01*
G01X6872Y80692D01*
G01X6861Y80727D01*
G01X6853Y80763D01*
G01X6847Y80799D01*
G01X6843Y80836D01*
G01X6842Y80872D01*
G01X6844Y80914D01*
G01X6848Y80955D01*
G01X6856Y80995D01*
G01X6858Y81017D01*
G01X6857Y81032D01*
G01X6854Y81046D01*
G01X6849Y81060D01*
G01X6842Y81072D01*
G01X6833Y81084D01*
G01X6823Y81094D01*
G01X6812Y81103D01*
G01X6799Y81110D01*
G01X6785Y81115D01*
G01X6771Y81118D01*
G01X6757Y81119D01*
G01X6738Y81117D01*
G01X6720Y81112D01*
G01X6687Y81100D01*
G01X6653Y81090D01*
G01X6619Y81083D01*
G01X6584Y81077D01*
G01X6550Y81074D01*
G01X6515Y81073D01*
G01X6481Y81074D01*
G01X6447Y81077D01*
G01X6413Y81082D01*
G01X6380Y81089D01*
G01X6348Y81099D01*
G01X6316Y81110D01*
G01X6284Y81123D01*
G01X6254Y81137D01*
G01X6224Y81154D01*
G01X6196Y81173D01*
G01X6168Y81193D01*
G01X6142Y81214D01*
G01X6094Y81262D01*
G01X6073Y81288D01*
G01X6053Y81316D01*
G01X6034Y81344D01*
G01X6018Y81374D01*
G01X6003Y81404D01*
G01X5990Y81435D01*
G01X5979Y81467D01*
G01X5970Y81500D01*
G01X5962Y81533D01*
G01X5957Y81567D01*
G01X5954Y81601D01*
G01X5953Y81634D01*
G01X5954Y81669D01*
G01X5958Y81704D01*
G01X5963Y81739D01*
G01X5971Y81773D01*
G01X5980Y81807D01*
G01X5992Y81840D01*
G01X6006Y81872D01*
G01X6022Y81903D01*
G01X6039Y81933D01*
G01X6059Y81962D01*
G01X6080Y81990D01*
G01X6090Y82004D01*
G01X6097Y82020D01*
G01X6102Y82037D01*
G01X6103Y82054D01*
G01X6102Y82069D01*
G01X6099Y82083D01*
G01X6094Y82097D01*
G01X6087Y82109D01*
G01X6078Y82121D01*
G01X6068Y82131D01*
G01X6056Y82140D01*
G01X6044Y82147D01*
G01X6030Y82152D01*
G01X6016Y82155D01*
G01X6002Y82156D01*
G01X5238Y82156D01*
G01X5212Y82157D01*
G01X5186Y82161D01*
G01X5161Y82168D01*
G01X5137Y82177D01*
G01X5117Y82183D01*
G01X5097Y82185D01*
G01X4273Y82185D01*
G01X4273Y82855D01*
G01X4272Y82869D01*
G01X4268Y82883D01*
G01X4263Y82897D01*
G01X4256Y82909D01*
G01X4248Y82921D01*
G01X4237Y82931D01*
G01X4226Y82940D01*
G01X4213Y82947D01*
G01X4200Y82952D01*
G01X4185Y82955D01*
G01X4171Y82956D01*
G01X4019Y82956D01*
G01X4019Y83355D01*
G01X4485Y83355D01*
G01X4485Y83171D01*
G01X4484Y83148D01*
G01X4481Y83125D01*
G01X4476Y83102D01*
G01X4469Y83080D01*
G01X4459Y83059D01*
G01X4448Y83039D01*
G01X4435Y83019D01*
G01X4421Y83001D01*
G01X4405Y82985D01*
G01X4387Y82970D01*
G01X4368Y82956D01*
G01X4348Y82944D01*
G01X4335Y82936D01*
G01X4323Y82926D01*
G01X4313Y82914D01*
G01X4305Y82900D01*
G01X4299Y82886D01*
G01X4296Y82870D01*
G01X4294Y82855D01*
G01X4295Y82840D01*
G01X4298Y82826D01*
G01X4304Y82812D01*
G01X4310Y82800D01*
G01X4319Y82788D01*
G01X4329Y82778D01*
G01X4341Y82769D01*
G01X4354Y82762D01*
G01X4367Y82757D01*
G01X4381Y82754D01*
G01X4396Y82753D01*
G01X4459Y82753D01*
G01X4508Y82752D01*
G01X4557Y82748D01*
G01X4605Y82742D01*
G01X4654Y82734D01*
G01X4701Y82723D01*
G01X4749Y82710D01*
G01X4795Y82695D01*
G01X4841Y82678D01*
G01X4860Y82672D01*
G01X4879Y82670D01*
G01X4894Y82671D01*
G01X4908Y82674D01*
G01X4922Y82679D01*
G01X4934Y82686D01*
G01X4946Y82695D01*
G01X4956Y82705D01*
G01X4965Y82717D01*
G01X4972Y82729D01*
G01X4977Y82743D01*
G01X4980Y82757D01*
G01X4981Y82772D01*
G01X4981Y84412D01*
G01X4982Y84436D01*
G01X4985Y84460D01*
G01X4991Y84483D01*
G01X4998Y84505D01*
G01X5008Y84527D01*
G01X5019Y84548D01*
G01X5033Y84567D01*
G01X5048Y84585D01*
G01X5065Y84602D01*
G01X5083Y84617D01*
G01X5103Y84631D01*
G01X5123Y84642D01*
G01X5145Y84652D01*
G01X5167Y84659D01*
G01X5190Y84665D01*
G01X5214Y84668D01*
G01X5238Y84669D01*
G01X10738Y84669D01*
G01X10761Y84668D01*
G01X10785Y84665D01*
G01X10808Y84659D01*
G01X10830Y84652D01*
G01X10852Y84642D01*
G01X10873Y84631D01*
G01X10892Y84617D01*
G01X10910Y84602D01*
G01X10927Y84585D01*
G01X10942Y84567D01*
G01X10956Y84548D01*
G01X10967Y84527D01*
G01X10977Y84505D01*
G01X10984Y84483D01*
G01X10990Y84460D01*
G01X10993Y84436D01*
G01X10994Y84412D01*
G01X10994Y82412D01*
G01X10993Y82388D01*
G01X10989Y82363D01*
G01X10983Y82339D01*
G01X10980Y82325D01*
G01X10979Y82310D01*
G01X10980Y82296D01*
G01X10983Y82282D01*
G01X10988Y82268D01*
G01X10995Y82255D01*
G01X11004Y82244D01*
G01X11014Y82233D01*
G01X11026Y82225D01*
G01X11039Y82218D01*
G01X11052Y82213D01*
G01X11066Y82210D01*
G01X11081Y82209D01*
G01X14394Y82209D01*
G01X14409Y82210D01*
G01X14423Y82213D01*
G01X14437Y82218D01*
G01X14449Y82225D01*
G01X14461Y82233D01*
G01X14471Y82244D01*
G01X14480Y82255D01*
G01X14487Y82268D01*
G01X14492Y82282D01*
G01X14495Y82296D01*
G01X14496Y82310D01*
G01X14495Y82325D01*
G01X14492Y82339D01*
G01X14486Y82363D01*
G01X14482Y82388D01*
G01X14481Y82412D01*
G01X14481Y84412D01*
G01X14482Y84436D01*
G01X14485Y84460D01*
G01X14491Y84483D01*
G01X14498Y84505D01*
G01X14508Y84527D01*
G01X14519Y84548D01*
G01X14533Y84567D01*
G01X14548Y84585D01*
G01X14565Y84602D01*
G01X14583Y84617D01*
G01X14603Y84631D01*
G01X14623Y84642D01*
G01X14645Y84652D01*
G01X14667Y84659D01*
G01X14690Y84665D01*
G01X14714Y84668D01*
G01X14738Y84669D01*
G01X20238Y84669D01*
G01X20261Y84668D01*
G01X20285Y84665D01*
G01X20308Y84659D01*
G01X20330Y84652D01*
G01X20352Y84642D01*
G01X20373Y84631D01*
G01X20392Y84617D01*
G01X20410Y84602D01*
G01X20427Y84585D01*
G01X20442Y84567D01*
G01X20456Y84548D01*
G01X20467Y84527D01*
G01X20477Y84505D01*
G01X20484Y84483D01*
G01X20490Y84460D01*
G01X20493Y84436D01*
G01X20494Y84412D01*
G01X20494Y82903D01*
G01X20495Y82888D01*
G01X20498Y82874D01*
G01X20503Y82860D01*
G01X20510Y82848D01*
G01X20519Y82836D01*
G01X20529Y82826D01*
G01X20541Y82817D01*
G01X20554Y82810D01*
G01X20567Y82805D01*
G01X20581Y82802D01*
G01X20596Y82801D01*
G01X20612Y82802D01*
G01X20627Y82806D01*
G01X20642Y82812D01*
G01X20655Y82820D01*
G01X20668Y82831D01*
G01X20676Y82840D01*
G01X20700Y82861D01*
G01X20725Y82881D01*
G01X20751Y82900D01*
G01X20778Y82916D01*
G01X20807Y82930D01*
G01X20836Y82942D01*
G01X20867Y82952D01*
G01X20898Y82960D01*
G01X20929Y82966D01*
G01X20961Y82969D01*
G01X20993Y82971D01*
G01X21239Y82971D01*
G01X21253Y82972D01*
G01X21267Y82975D01*
G01X21281Y82980D01*
G01X21294Y82987D01*
G01X21305Y82995D01*
G01X21316Y83006D01*
G01X21324Y83017D01*
G01X21331Y83030D01*
G01X21336Y83044D01*
G01X21339Y83058D01*
G01X21340Y83072D01*
G01X21339Y83089D01*
G01X21335Y83105D01*
G01X21328Y83121D01*
G01X21319Y83135D01*
G01X21307Y83147D01*
G01X21272Y83181D01*
G01X21239Y83216D01*
G01X21207Y83252D01*
G01X21177Y83290D01*
G01X21148Y83329D01*
G01X21122Y83370D01*
G01X21097Y83411D01*
G01X21075Y83454D01*
G01X21054Y83498D01*
G01X21036Y83542D01*
G01X21019Y83588D01*
G01X21005Y83634D01*
G01X20993Y83681D01*
G01X20983Y83728D01*
G01X20975Y83776D01*
G01X20969Y83824D01*
G01X20966Y83872D01*
G01X20965Y83920D01*
G01X20966Y83967D01*
G01X20969Y84014D01*
G01X20974Y84061D01*
G01X20981Y84107D01*
G01X20991Y84153D01*
G01X21002Y84198D01*
G01X21016Y84243D01*
G01X21031Y84287D01*
G01X21049Y84331D01*
G01X21068Y84373D01*
G01X21089Y84415D01*
G01X21112Y84456D01*
G01X21137Y84496D01*
G01X21164Y84534D01*
G01X21192Y84571D01*
G01X21222Y84607D01*
G01X21254Y84642D01*
G01X21287Y84675D01*
G01X21322Y84707D01*
G01X21358Y84737D01*
G01X21395Y84765D01*
G01X21433Y84792D01*
G01X21473Y84817D01*
G01X21514Y84840D01*
G01X21556Y84861D01*
G01X21598Y84880D01*
G01X21642Y84898D01*
G01X21686Y84913D01*
G01X21731Y84927D01*
G01X21776Y84938D01*
G01X21822Y84948D01*
G01X21868Y84955D01*
G01X21915Y84960D01*
G01X21962Y84963D01*
G01X22009Y84964D01*
G01X22055Y84963D01*
G01X22102Y84960D01*
G01X22149Y84955D01*
G01X22195Y84948D01*
G01X22241Y84938D01*
G01X22286Y84927D01*
G01X22331Y84913D01*
G01X22375Y84898D01*
G01X22419Y84880D01*
G01X22462Y84861D01*
G01X22503Y84840D01*
G01X22544Y84817D01*
G01X22584Y84792D01*
G01X22622Y84765D01*
G01X22659Y84737D01*
G01X22695Y84707D01*
G01X22730Y84675D01*
G01X22763Y84642D01*
G01X22795Y84607D01*
G01X22825Y84571D01*
G01X22853Y84534D01*
G01X22880Y84496D01*
G01X22905Y84456D01*
G01X22928Y84415D01*
G01X22949Y84373D01*
G01X22969Y84331D01*
G01X22986Y84287D01*
G01X23001Y84243D01*
G01X23015Y84198D01*
G01X23026Y84153D01*
G01X23036Y84107D01*
G01X23043Y84061D01*
G01X23048Y84014D01*
G01X23051Y83967D01*
G01X23053Y83920D01*
G01X23051Y83872D01*
G01X23048Y83824D01*
G01X23043Y83777D01*
G01X23035Y83729D01*
G01X23025Y83682D01*
G01X23013Y83635D01*
G01X22999Y83589D01*
G01X22982Y83544D01*
G01X22964Y83500D01*
G01X22958Y83480D01*
G01X22955Y83459D01*
G01X22956Y83444D01*
G01X22959Y83430D01*
G01X22971Y83404D01*
G01X22980Y83392D01*
G01X22990Y83382D01*
G01X23002Y83373D01*
G01X23015Y83366D01*
G01X23028Y83361D01*
G01X23043Y83358D01*
G01X23057Y83357D01*
G01X23073Y83358D01*
G01X23088Y83362D01*
G01X23103Y83368D01*
G01X23117Y83377D01*
G01X23129Y83387D01*
G01X23480Y83738D01*
G01X23491Y83750D01*
G01X23499Y83764D01*
G01X23505Y83779D01*
G01X23509Y83794D01*
G01X23510Y83810D01*
G01X23510Y83820D01*
G01X23506Y83870D01*
G01X23505Y83920D01*
G01X23506Y83967D01*
G01X23509Y84014D01*
G01X23514Y84061D01*
G01X23521Y84107D01*
G01X23531Y84153D01*
G01X23542Y84198D01*
G01X23556Y84243D01*
G01X23571Y84287D01*
G01X23589Y84331D01*
G01X23608Y84373D01*
G01X23629Y84415D01*
G01X23652Y84456D01*
G01X23677Y84496D01*
G01X23704Y84534D01*
G01X23732Y84571D01*
G01X23762Y84607D01*
G01X23794Y84642D01*
G01X23827Y84675D01*
G01X23862Y84707D01*
G01X23898Y84737D01*
G01X23935Y84765D01*
G01X23973Y84792D01*
G01X24013Y84817D01*
G01X24054Y84840D01*
G01X24096Y84861D01*
G01X24138Y84880D01*
G01X24182Y84898D01*
G01X24226Y84913D01*
G01X24271Y84927D01*
G01X24316Y84938D01*
G01X24362Y84948D01*
G01X24408Y84955D01*
G01X24455Y84960D01*
G01X24502Y84963D01*
G01X24549Y84964D01*
G01X24595Y84963D01*
G01X24642Y84960D01*
G01X24689Y84955D01*
G01X24735Y84948D01*
G01X24781Y84938D01*
G01X24826Y84927D01*
G01X24871Y84913D01*
G01X24915Y84898D01*
G01X24959Y84880D01*
G01X25002Y84861D01*
G01X25043Y84840D01*
G01X25084Y84817D01*
G01X25124Y84792D01*
G01X25162Y84765D01*
G01X25199Y84737D01*
G01X25235Y84707D01*
G01X25270Y84675D01*
G01X25303Y84642D01*
G01X25335Y84607D01*
G01X25365Y84571D01*
G01X25393Y84534D01*
G01X25420Y84496D01*
G01X25445Y84456D01*
G01X25468Y84415D01*
G01X25489Y84373D01*
G01X25509Y84331D01*
G01X25526Y84287D01*
G01X25541Y84243D01*
G01X25555Y84198D01*
G01X25566Y84153D01*
G01X25576Y84107D01*
G01X25583Y84061D01*
G01X25588Y84014D01*
G01X25591Y83967D01*
G01X25593Y83920D01*
G01X25591Y83873D01*
G01X25588Y83826D01*
G01X25583Y83779D01*
G01X25575Y83732D01*
G01X25566Y83685D01*
G01X25554Y83640D01*
G01X25540Y83594D01*
G01X25524Y83550D01*
G01X25507Y83506D01*
G01X25487Y83463D01*
G01X25465Y83420D01*
G01X25441Y83379D01*
G01X25416Y83339D01*
G01X25389Y83301D01*
G01X25360Y83263D01*
G01X25350Y83249D01*
G01X25343Y83233D01*
G01X25338Y83216D01*
G01X25337Y83199D01*
G01X25338Y83185D01*
G01X25341Y83171D01*
G01X25346Y83157D01*
G01X25353Y83144D01*
G01X25362Y83133D01*
G01X25372Y83122D01*
G01X25384Y83114D01*
G01X25396Y83107D01*
G01X25410Y83102D01*
G01X25424Y83099D01*
G01X25438Y83098D01*
G01X25591Y83098D01*
G01X25607Y83099D01*
G01X25623Y83103D01*
G01X25637Y83109D01*
G01X25651Y83117D01*
G01X25663Y83127D01*
G01X26015Y83479D01*
G01X26025Y83491D01*
G01X26034Y83505D01*
G01X26040Y83519D01*
G01X26043Y83535D01*
G01X26045Y83551D01*
G01X26045Y84708D01*
G01X26046Y84732D01*
G01X26049Y84755D01*
G01X26054Y84778D01*
G01X26062Y84801D01*
G01X26072Y84822D01*
G01X26083Y84843D01*
G01X26096Y84863D01*
G01X26112Y84881D01*
G01X26128Y84897D01*
G01X26147Y84913D01*
G01X26166Y84926D01*
G01X26187Y84938D01*
G01X26209Y84947D01*
G01X26231Y84955D01*
G01X26254Y84960D01*
G01X26278Y84963D01*
G01X26301Y84964D01*
G01X27876Y84964D01*
G01X27900Y84963D01*
G01X27923Y84960D01*
G01X27946Y84955D01*
G01X27969Y84947D01*
G01X27990Y84938D01*
G01X28011Y84926D01*
G01X28031Y84913D01*
G01X28049Y84897D01*
G01X28066Y84881D01*
G01X28081Y84863D01*
G01X28094Y84843D01*
G01X28106Y84822D01*
G01X28115Y84801D01*
G01X28123Y84778D01*
G01X28128Y84755D01*
G01X28131Y84732D01*
G01X28133Y84708D01*
G01X28133Y83133D01*
G01X28131Y83109D01*
G01X28128Y83086D01*
G01X28123Y83063D01*
G01X28115Y83040D01*
G01X28106Y83019D01*
G01X28094Y82998D01*
G01X28081Y82978D01*
G01X28066Y82960D01*
G01X28049Y82944D01*
G01X28031Y82928D01*
G01X28011Y82915D01*
G01X27990Y82903D01*
G01X27969Y82894D01*
G01X27946Y82886D01*
G01X27923Y82881D01*
G01X27900Y82878D01*
G01X27876Y82877D01*
G01X26719Y82877D01*
G01X26703Y82875D01*
G01X26688Y82872D01*
G01X26673Y82865D01*
G01X26659Y82857D01*
G01X26647Y82847D01*
G01X26135Y82334D01*
G01X26111Y82313D01*
G01X26086Y82293D01*
G01X26060Y82274D01*
G01X26033Y82258D01*
G01X26004Y82244D01*
G01X25975Y82232D01*
G01X25945Y82222D01*
G01X25914Y82214D01*
G01X25882Y82208D01*
G01X25851Y82205D01*
G01X25819Y82203D01*
G01X25438Y82203D01*
G01X25424Y82202D01*
G01X25410Y82199D01*
G01X25396Y82194D01*
G01X25384Y82187D01*
G01X25372Y82179D01*
G01X25362Y82168D01*
G01X25353Y82157D01*
G01X25346Y82144D01*
G01X25341Y82130D01*
G01X25338Y82116D01*
G01X25337Y82102D01*
G01X25338Y82085D01*
G01X25343Y82068D01*
G01X25350Y82052D01*
G01X25360Y82038D01*
G01X25389Y82000D01*
G01X25416Y81962D01*
G01X25441Y81922D01*
G01X25465Y81881D01*
G01X25487Y81838D01*
G01X25507Y81795D01*
G01X25524Y81751D01*
G01X25540Y81707D01*
G01X25554Y81661D01*
G01X25566Y81615D01*
G01X25575Y81569D01*
G01X25583Y81522D01*
G01X25588Y81475D01*
G01X25591Y81428D01*
G01X25593Y81380D01*
G01X25591Y81334D01*
G01X25588Y81287D01*
G01X25583Y81241D01*
G01X25576Y81195D01*
G01X25567Y81149D01*
G01X25555Y81104D01*
G01X25542Y81060D01*
G01X25527Y81016D01*
G01X25509Y80972D01*
G01X25490Y80930D01*
G01X25469Y80888D01*
G01X25446Y80848D01*
G01X25422Y80808D01*
G01X25395Y80770D01*
G01X25367Y80733D01*
G01X25337Y80697D01*
G01X25306Y80662D01*
G01X25273Y80629D01*
G01X25239Y80597D01*
G01X25203Y80567D01*
G01X25166Y80539D01*
G01X25128Y80512D01*
G01X25089Y80487D01*
G01X25049Y80464D01*
G01X25036Y80456D01*
G01X25024Y80445D01*
G01X25014Y80433D01*
G01X25006Y80420D01*
G01X25000Y80405D01*
G01X24997Y80390D01*
G01X24996Y80375D01*
G01X24996Y79984D01*
G01X24994Y79952D01*
G01X24991Y79920D01*
G01X24985Y79888D01*
G01X24978Y79858D01*
G01X24967Y79827D01*
G01X24955Y79798D01*
G01X24941Y79769D01*
G01X24925Y79742D01*
G01X24906Y79716D01*
G01X24886Y79691D01*
G01X24865Y79667D01*
G01X24609Y79412D01*
G01X24599Y79400D01*
G01X24591Y79386D01*
G01X24585Y79372D01*
G01X24581Y79356D01*
G01X24580Y79340D01*
G01X24581Y79326D01*
G01X24584Y79312D01*
G01X24589Y79298D01*
G01X24596Y79285D01*
G01X24605Y79274D01*
G01X24615Y79264D01*
G01X24626Y79255D01*
G01X24639Y79248D01*
G01X24653Y79243D01*
G01X24667Y79240D01*
G01X24681Y79239D01*
G01X24700Y79241D01*
G01X24719Y79246D01*
G01X24768Y79264D01*
G01X24819Y79281D01*
G01X24870Y79295D01*
G01X24921Y79307D01*
G01X24973Y79317D01*
G01X25025Y79325D01*
G01X25078Y79331D01*
G01X25131Y79334D01*
G01X25184Y79335D01*
G01X25234Y79334D01*
G01X25285Y79331D01*
G01X25335Y79326D01*
G01X25385Y79319D01*
G01X25435Y79310D01*
G01X25484Y79299D01*
G01X25533Y79285D01*
G01X25582Y79270D01*
G01X25629Y79253D01*
G01X25676Y79234D01*
G01X25722Y79214D01*
G01X25768Y79191D01*
G01X25812Y79167D01*
G01X25898Y79113D01*
G01X25939Y79083D01*
G01X25978Y79052D01*
G01X26017Y79019D01*
G01X26054Y78985D01*
G01X26090Y78949D01*
G01X26124Y78912D01*
G01X26157Y78873D01*
G01X26188Y78833D01*
G01X26218Y78792D01*
G01X26246Y78750D01*
G01X26272Y78707D01*
G01X26296Y78662D01*
G01X26319Y78617D01*
G01X26340Y78571D01*
G01X26359Y78524D01*
G01X26365Y78510D01*
G01X26374Y78497D01*
G01X26384Y78486D01*
G01X26396Y78476D01*
G01X26409Y78468D01*
G01X26423Y78463D01*
G01X26438Y78459D01*
G01X26454Y78458D01*
G01X26469Y78459D01*
G01X26484Y78463D01*
G01X26498Y78468D01*
G01X26511Y78476D01*
G01X26523Y78486D01*
G01X26534Y78497D01*
G01X26542Y78510D01*
G01X26549Y78524D01*
G01X26567Y78571D01*
G01X26588Y78617D01*
G01X26611Y78662D01*
G01X26635Y78707D01*
G01X26661Y78750D01*
G01X26689Y78792D01*
G01X26719Y78833D01*
G01X26750Y78873D01*
G01X26783Y78912D01*
G01X26817Y78949D01*
G01X26853Y78985D01*
G01X26890Y79019D01*
G01X26929Y79052D01*
G01X26969Y79083D01*
G01X27010Y79113D01*
G01X27052Y79140D01*
G01X27095Y79167D01*
G01X27140Y79191D01*
G01X27185Y79214D01*
G01X27231Y79234D01*
G01X27278Y79253D01*
G01X27326Y79270D01*
G01X27374Y79285D01*
G01X27423Y79299D01*
G01X27472Y79310D01*
G01X27522Y79319D01*
G01X27572Y79326D01*
G01X27622Y79331D01*
G01X27673Y79334D01*
G01X27724Y79335D01*
G01X27774Y79334D01*
G01X27825Y79331D01*
G01X27875Y79326D01*
G01X27925Y79319D01*
G01X27975Y79310D01*
G01X28024Y79299D01*
G01X28073Y79285D01*
G01X28122Y79270D01*
G01X28169Y79253D01*
G01X28216Y79234D01*
G01X28262Y79214D01*
G01X28308Y79191D01*
G01X28352Y79167D01*
G01X28438Y79113D01*
G01X28479Y79083D01*
G01X28518Y79052D01*
G01X28557Y79019D01*
G01X28594Y78985D01*
G01X28630Y78949D01*
G01X28664Y78912D01*
G01X28697Y78873D01*
G01X28728Y78833D01*
G01X28758Y78792D01*
G01X28786Y78750D01*
G01X28812Y78707D01*
G01X28836Y78662D01*
G01X28859Y78617D01*
G01X28880Y78571D01*
G01X28899Y78524D01*
G01X28905Y78506D01*
G01X28923Y78454D01*
G01X28938Y78402D01*
G01X28951Y78349D01*
G01X28961Y78295D01*
G01X28970Y78242D01*
G01X28975Y78187D01*
G01X28979Y78133D01*
G01X28980Y78078D01*
G01X28979Y78024D01*
G01X28975Y77970D01*
G01X28970Y77915D01*
G01X28961Y77862D01*
G01X28951Y77808D01*
G01X28938Y77755D01*
G01X28923Y77703D01*
G01X28905Y77651D01*
G01X28899Y77633D01*
G01X28880Y77586D01*
G01X28859Y77540D01*
G01X28836Y77495D01*
G01X28812Y77450D01*
G01X28786Y77407D01*
G01X28758Y77365D01*
G01X28728Y77324D01*
G01X28697Y77284D01*
G01X28664Y77245D01*
G01X28630Y77208D01*
G01X28594Y77172D01*
G01X28557Y77138D01*
G01X28518Y77105D01*
G01X28479Y77074D01*
G01X28438Y77044D01*
G01X28352Y76990D01*
G01X28308Y76966D01*
G01X28262Y76943D01*
G01X28216Y76923D01*
G01X28169Y76904D01*
G01X28122Y76887D01*
G01X28073Y76872D01*
G01X28024Y76858D01*
G01X27975Y76847D01*
G01X27925Y76838D01*
G01X27875Y76831D01*
G01X27825Y76826D01*
G01X27774Y76823D01*
G01X27724Y76822D01*
G01X27673Y76823D01*
G01X27622Y76826D01*
G01X27572Y76831D01*
G01X27522Y76838D01*
G01X27472Y76847D01*
G01X27423Y76858D01*
G01X27374Y76872D01*
G01X27326Y76887D01*
G01X27278Y76904D01*
G01X27231Y76923D01*
G01X27185Y76943D01*
G01X27140Y76966D01*
G01X27095Y76990D01*
G01X27052Y77017D01*
G01X27010Y77044D01*
G01X26969Y77074D01*
G01X26929Y77105D01*
G01X26890Y77138D01*
G01X26853Y77172D01*
G01X26817Y77208D01*
G01X26783Y77245D01*
G01X26750Y77284D01*
G01X26719Y77324D01*
G01X26689Y77365D01*
G01X26661Y77407D01*
G01X26635Y77450D01*
G01X26611Y77495D01*
G01X26588Y77540D01*
G01X26567Y77586D01*
G01X26549Y77633D01*
G01X26542Y77647D01*
G01X26534Y77660D01*
G01X26523Y77671D01*
G01X26511Y77681D01*
G01X26498Y77689D01*
G01X26484Y77694D01*
G01X26469Y77698D01*
G01X26454Y77699D01*
G01X26438Y77698D01*
G01X26423Y77694D01*
G01X26409Y77689D01*
G01X26396Y77681D01*
G01X26384Y77671D01*
G01X26374Y77660D01*
G01X26365Y77647D01*
G01X26359Y77633D01*
G01X26340Y77586D01*
G01X26319Y77540D01*
G01X26296Y77495D01*
G01X26272Y77450D01*
G01X26246Y77407D01*
G01X26218Y77365D01*
G01X26188Y77324D01*
G01X26157Y77284D01*
G01X26124Y77245D01*
G01X26090Y77208D01*
G01X26054Y77172D01*
G01X26017Y77138D01*
G01X25978Y77105D01*
G01X25939Y77074D01*
G01X25898Y77044D01*
G01X25812Y76990D01*
G01X25768Y76966D01*
G01X25722Y76943D01*
G01X25676Y76923D01*
G01X25629Y76904D01*
G01X25582Y76887D01*
G01X25533Y76872D01*
G01X25484Y76858D01*
G01X25435Y76847D01*
G01X25385Y76838D01*
G01X25335Y76831D01*
G01X25285Y76826D01*
G01X25234Y76823D01*
G01X25184Y76822D01*
G01X25132Y76823D01*
G01X25080Y76826D01*
G01X25029Y76832D01*
G01X24977Y76839D01*
G01X24926Y76849D01*
G01X24876Y76860D01*
G01X24826Y76874D01*
G01X24776Y76890D01*
G01X24728Y76908D01*
G01X24680Y76927D01*
G01X24633Y76949D01*
G01X24587Y76973D01*
G01X24542Y76998D01*
G01X24498Y77026D01*
G01X24455Y77055D01*
G01X24413Y77086D01*
G01X24373Y77118D01*
G01X24334Y77153D01*
G01X24297Y77188D01*
G01X24261Y77226D01*
G01X24226Y77265D01*
G01X24194Y77305D01*
G01X24162Y77346D01*
G01X24133Y77389D01*
G01X24106Y77433D01*
G01X24080Y77478D01*
G01X24056Y77524D01*
G01X24034Y77571D01*
G01X24027Y77584D01*
G01X24019Y77596D01*
G01X24008Y77606D01*
G01X23997Y77615D01*
G01X23984Y77622D01*
G01X23970Y77627D01*
G01X23956Y77630D01*
G01X23941Y77631D01*
G01X22924Y77631D01*
G01X22910Y77630D01*
G01X22896Y77627D01*
G01X22882Y77622D01*
G01X22869Y77615D01*
G01X22858Y77607D01*
G01X22847Y77596D01*
G01X22839Y77585D01*
G01X22832Y77572D01*
G01X22827Y77558D01*
G01X22824Y77544D01*
G01X22823Y77530D01*
G01X22824Y77512D01*
G01X22829Y77495D01*
G01X22836Y77479D01*
G01X22851Y77452D01*
G01X22864Y77423D01*
G01X22874Y77394D01*
G01X22883Y77364D01*
G01X22891Y77334D01*
G01X22896Y77303D01*
G01X22899Y77272D01*
G01X22900Y77240D01*
G01X22899Y77207D01*
G01X22895Y77174D01*
G01X22889Y77142D01*
G01X22882Y77110D01*
G01X22871Y77078D01*
G01X22859Y77047D01*
G01X22845Y77017D01*
G01X22829Y76989D01*
G01X22810Y76961D01*
G01X22790Y76935D01*
G01X22768Y76910D01*
G01X22759Y76898D01*
G01X22751Y76885D01*
G01X22745Y76870D01*
G01X22742Y76856D01*
G01X22741Y76840D01*
G01X22742Y76825D01*
G01X22745Y76810D01*
G01X22751Y76796D01*
G01X22759Y76782D01*
G01X22768Y76771D01*
G01X22790Y76746D01*
G01X22810Y76719D01*
G01X22829Y76692D01*
G01X22845Y76663D01*
G01X22859Y76633D01*
G01X22871Y76602D01*
G01X22882Y76571D01*
G01X22889Y76539D01*
G01X22895Y76506D01*
G01X22899Y76473D01*
G01X22900Y76440D01*
G01X22899Y76407D01*
G01X22895Y76374D01*
G01X22890Y76342D01*
G01X22882Y76310D01*
G01X22872Y76279D01*
G01X22860Y76248D01*
G01X22845Y76218D01*
G01X22829Y76189D01*
G01X22811Y76162D01*
G01X22791Y76136D01*
G01X22769Y76111D01*
G01X22760Y76099D01*
G01X22752Y76086D01*
G01X22747Y76072D01*
G01X22743Y76057D01*
G01X22742Y76041D01*
G01X22743Y76026D01*
G01X22747Y76011D01*
G01X22752Y75997D01*
G01X22760Y75984D01*
G01X22769Y75972D01*
G01X22791Y75947D01*
G01X22811Y75921D01*
G01X22829Y75893D01*
G01X22845Y75865D01*
G01X22860Y75835D01*
G01X22872Y75804D01*
G01X22882Y75773D01*
G01X22890Y75741D01*
G01X22895Y75708D01*
G01X22899Y75676D01*
G01X22900Y75643D01*
G01X22899Y75610D01*
G01X22895Y75577D01*
G01X22889Y75544D01*
G01X22882Y75512D01*
G01X22871Y75480D01*
G01X22859Y75450D01*
G01X22845Y75420D01*
G01X22829Y75391D01*
G01X22810Y75363D01*
G01X22790Y75337D01*
G01X22768Y75312D01*
G01X22759Y75300D01*
G01X22751Y75287D01*
G01X22745Y75273D01*
G01X22742Y75258D01*
G01X22741Y75243D01*
G01X22742Y75227D01*
G01X22745Y75212D01*
G01X22751Y75198D01*
G01X22759Y75185D01*
G01X22768Y75173D01*
G01X22790Y75148D01*
G01X22810Y75122D01*
G01X22829Y75094D01*
G01X22845Y75065D01*
G01X22859Y75036D01*
G01X22871Y75005D01*
G01X22882Y74973D01*
G01X22889Y74941D01*
G01X22895Y74909D01*
G01X22899Y74876D01*
G01X22900Y74843D01*
G01X22899Y74809D01*
G01X22895Y74777D01*
G01X22889Y74744D01*
G01X22882Y74712D01*
G01X22871Y74680D01*
G01X22859Y74650D01*
G01X22845Y74620D01*
G01X22829Y74591D01*
G01X22810Y74563D01*
G01X22790Y74537D01*
G01X22768Y74512D01*
G01X22759Y74500D01*
G01X22751Y74487D01*
G01X22745Y74473D01*
G01X22742Y74458D01*
G01X22741Y74442D01*
G01X22742Y74427D01*
G01X22745Y74412D01*
G01X22751Y74398D01*
G01X22759Y74385D01*
G01X22768Y74373D01*
G01X22790Y74348D01*
G01X22810Y74322D01*
G01X22829Y74294D01*
G01X22845Y74265D01*
G01X22859Y74235D01*
G01X22871Y74205D01*
G01X22882Y74173D01*
G01X22889Y74141D01*
G01X22895Y74108D01*
G01X22899Y74076D01*
G01X22900Y74042D01*
G01X22899Y74009D01*
G01X22895Y73976D01*
G01X22889Y73944D01*
G01X22882Y73912D01*
G01X22871Y73880D01*
G01X22859Y73849D01*
G01X22845Y73820D01*
G01X22829Y73791D01*
G01X22810Y73763D01*
G01X22790Y73737D01*
G01X22768Y73712D01*
G01X22759Y73700D01*
G01X22751Y73687D01*
G01X22745Y73673D01*
G01X22742Y73658D01*
G01X22741Y73642D01*
G01X22742Y73627D01*
G01X22745Y73612D01*
G01X22751Y73598D01*
G01X22759Y73585D01*
G01X22768Y73573D01*
G01X22790Y73548D01*
G01X22810Y73522D01*
G01X22829Y73494D01*
G01X22845Y73465D01*
G01X22859Y73435D01*
G01X22871Y73405D01*
G01X22882Y73373D01*
G01X22889Y73341D01*
G01X22895Y73308D01*
G01X22899Y73275D01*
G01X22900Y73242D01*
G01X22899Y73211D01*
G01X22896Y73179D01*
G01X22890Y73148D01*
G01X22883Y73118D01*
G01X22874Y73088D01*
G01X22863Y73058D01*
G01X22850Y73029D01*
G01X22835Y73002D01*
G01X22818Y72975D01*
G01X22800Y72949D01*
G01X22780Y72925D01*
G01X22759Y72902D01*
G01X22736Y72880D01*
G01X22711Y72860D01*
G01X22686Y72842D01*
G01X22659Y72825D01*
G01X22631Y72810D01*
G01X22602Y72797D01*
G01X22573Y72786D01*
G01X22543Y72777D01*
G01X22512Y72770D01*
G01X22481Y72765D01*
G01X22450Y72762D01*
G01X22418Y72761D01*
G01X21727Y72761D01*
G01X21712Y72760D01*
G01X21698Y72757D01*
G01X21685Y72752D01*
G01X21672Y72745D01*
G01X21660Y72736D01*
G01X21650Y72726D01*
G01X21641Y72714D01*
G01X21634Y72701D01*
G01X21629Y72688D01*
G01X21626Y72674D01*
G01X21625Y72659D01*
G01X21626Y72643D01*
G01X21630Y72628D01*
G01X21636Y72613D01*
G01X21645Y72599D01*
G01X21655Y72587D01*
G01X24196Y70046D01*
G01X24208Y70036D01*
G01X24222Y70028D01*
G01X24236Y70022D01*
G01X24252Y70018D01*
G01X24268Y70017D01*
G01X35979Y70017D01*
G01X36011Y70015D01*
G01X36042Y70012D01*
G01X36074Y70006D01*
G01X36105Y69998D01*
G01X36135Y69988D01*
G01X36164Y69976D01*
G01X36193Y69962D01*
G01X36220Y69946D01*
G01X36246Y69927D01*
G01X36271Y69907D01*
G01X36295Y69886D01*
G01X37745Y68435D01*
G01X37766Y68413D01*
G01X37785Y68389D01*
G01X37803Y68364D01*
G01X37819Y68337D01*
G01X37833Y68310D01*
G01X37845Y68282D01*
G01X37856Y68253D01*
G01X37861Y68239D01*
G01X37868Y68226D01*
G01X37878Y68214D01*
G01X37888Y68204D01*
G01X37900Y68196D01*
G01X37913Y68189D01*
G01X37962Y68168D01*
G01X38010Y68144D01*
G01X38056Y68119D01*
G01X38101Y68091D01*
G01X38146Y68062D01*
G01X38189Y68031D01*
G01X38230Y67998D01*
G01X38270Y67963D01*
G01X38309Y67927D01*
G01X38346Y67889D01*
G01X38381Y67850D01*
G01X38415Y67809D01*
G01X38447Y67767D01*
G01X38477Y67723D01*
G01X38506Y67678D01*
G01X38532Y67632D01*
G01X38557Y67585D01*
G01X38579Y67537D01*
G01X38586Y67524D01*
G01X38595Y67512D01*
G01X38605Y67502D01*
G01X38617Y67493D01*
G01X38629Y67486D01*
G01X38643Y67481D01*
G01X38657Y67478D01*
G01X38672Y67477D01*
G01X38727Y67477D01*
G01X38742Y67478D01*
G01X38756Y67481D01*
G01X38770Y67486D01*
G01X38783Y67493D01*
G01X38794Y67502D01*
G01X38805Y67512D01*
G01X38813Y67524D01*
G01X38820Y67537D01*
G01X38842Y67584D01*
G01X38866Y67630D01*
G01X38892Y67675D01*
G01X38919Y67719D01*
G01X38948Y67762D01*
G01X38980Y67803D01*
G01X39012Y67843D01*
G01X39047Y67882D01*
G01X39083Y67919D01*
G01X39120Y67955D01*
G01X39159Y67990D01*
G01X39199Y68022D01*
G01X39241Y68053D01*
G01X39284Y68082D01*
G01X39328Y68110D01*
G01X39373Y68135D01*
G01X39419Y68159D01*
G01X39466Y68181D01*
G01X39514Y68200D01*
G01X39562Y68218D01*
G01X39612Y68234D01*
G01X39662Y68248D01*
G01X39712Y68259D01*
G01X39763Y68269D01*
G01X39815Y68276D01*
G01X39866Y68282D01*
G01X39918Y68285D01*
G01X39970Y68286D01*
G01X40020Y68285D01*
G01X40071Y68282D01*
G01X40121Y68277D01*
G01X40171Y68270D01*
G01X40221Y68261D01*
G01X40270Y68250D01*
G01X40319Y68236D01*
G01X40368Y68221D01*
G01X40415Y68204D01*
G01X40462Y68185D01*
G01X40508Y68165D01*
G01X40554Y68142D01*
G01X40598Y68118D01*
G01X40684Y68064D01*
G01X40725Y68034D01*
G01X40764Y68003D01*
G01X40803Y67970D01*
G01X40840Y67936D01*
G01X40876Y67900D01*
G01X40910Y67863D01*
G01X40943Y67824D01*
G01X40974Y67784D01*
G01X41004Y67743D01*
G01X41032Y67701D01*
G01X41058Y67658D01*
G01X41082Y67613D01*
G01X41105Y67568D01*
G01X41126Y67522D01*
G01X41145Y67475D01*
G01X41151Y67457D01*
G01X41169Y67405D01*
G01X41184Y67353D01*
G01X41197Y67300D01*
G01X41207Y67246D01*
G01X41216Y67193D01*
G01X41221Y67138D01*
G01X41225Y67084D01*
G01X41226Y67029D01*
G01X41225Y66975D01*
G01X41221Y66921D01*
G01X41216Y66866D01*
G01X41207Y66813D01*
G01X41197Y66759D01*
G01X41184Y66706D01*
G01X41169Y66654D01*
G01X41151Y66602D01*
G01X41145Y66584D01*
G01X41125Y66536D01*
G01X41104Y66488D01*
G01X41080Y66442D01*
G01X41055Y66396D01*
G01X41028Y66351D01*
G01X40998Y66308D01*
G01X40968Y66266D01*
G01X40935Y66225D01*
G01X40901Y66186D01*
G01X40892Y66174D01*
G01X40884Y66161D01*
G01X40879Y66147D01*
G01X40876Y66133D01*
G01X40875Y66118D01*
G01X40876Y66103D01*
G01X40879Y66089D01*
G01X40884Y66075D01*
G01X40891Y66063D01*
G01X40899Y66051D01*
G01X40910Y66041D01*
G01X40921Y66032D01*
G01X40934Y66025D01*
G01X40948Y66020D01*
G01X40962Y66017D01*
G01X40976Y66016D01*
G01X41503Y66016D01*
G01X41518Y66017D01*
G01X41532Y66020D01*
G01X41545Y66025D01*
G01X41558Y66032D01*
G01X41570Y66041D01*
G01X41580Y66051D01*
G01X41589Y66063D01*
G01X41596Y66075D01*
G01X41601Y66089D01*
G01X41604Y66103D01*
G01X41605Y66118D01*
G01X41604Y66133D01*
G01X41600Y66147D01*
G01X41595Y66161D01*
G01X41588Y66174D01*
G01X41578Y66186D01*
G01X41541Y66229D01*
G01X41506Y66273D01*
G01X41473Y66319D01*
G01X41442Y66367D01*
G01X41413Y66416D01*
G01X41387Y66466D01*
G01X41946Y66466D01*
G01X41946Y66118D01*
G01X41947Y66103D01*
G01X41950Y66089D01*
G01X41955Y66075D01*
G01X41962Y66063D01*
G01X41971Y66051D01*
G01X41981Y66041D01*
G01X41993Y66032D01*
G01X42006Y66025D01*
G01X42019Y66020D01*
G01X42033Y66017D01*
G01X42048Y66016D01*
G01X42972Y66016D01*
G01X42986Y66017D01*
G01X43000Y66020D01*
G01X43014Y66025D01*
G01X43026Y66032D01*
G01X43038Y66041D01*
G01X43048Y66051D01*
G01X43057Y66063D01*
G01X43064Y66075D01*
G01X43069Y66089D01*
G01X43072Y66103D01*
G01X43073Y66118D01*
G01X43073Y66466D01*
G01X43633Y66466D01*
G01X43606Y66416D01*
G01X43577Y66367D01*
G01X43546Y66319D01*
G01X43513Y66273D01*
G01X43478Y66229D01*
G01X43441Y66186D01*
G01X43432Y66174D01*
G01X43424Y66161D01*
G01X43419Y66147D01*
G01X43416Y66133D01*
G01X43415Y66118D01*
G01X43416Y66103D01*
G01X43419Y66089D01*
G01X43424Y66075D01*
G01X43431Y66063D01*
G01X43439Y66051D01*
G01X43450Y66041D01*
G01X43461Y66032D01*
G01X43474Y66025D01*
G01X43488Y66020D01*
G01X43502Y66017D01*
G01X43516Y66016D01*
G01X43748Y66016D01*
G01X43763Y66017D01*
G01X43777Y66020D01*
G01X43791Y66025D01*
G01X43803Y66032D01*
G01X43815Y66041D01*
G01X43825Y66051D01*
G01X43834Y66063D01*
G01X43841Y66075D01*
G01X43846Y66089D01*
G01X43849Y66103D01*
G01X43850Y66118D01*
G01X43850Y66473D01*
G01X43849Y66489D01*
G01X43845Y66505D01*
G01X43838Y66520D01*
G01X43845Y66535D01*
G01X43849Y66551D01*
G01X43850Y66568D01*
G01X43850Y67491D01*
G01X43849Y67508D01*
G01X43845Y67524D01*
G01X43838Y67539D01*
G01X43845Y67554D01*
G01X43849Y67570D01*
G01X43850Y67586D01*
G01X43850Y70227D01*
G01X43849Y70242D01*
G01X43846Y70256D01*
G01X43841Y70270D01*
G01X43834Y70282D01*
G01X43825Y70294D01*
G01X43815Y70304D01*
G01X43803Y70313D01*
G01X43791Y70320D01*
G01X43777Y70325D01*
G01X43763Y70328D01*
G01X43748Y70329D01*
G01X41069Y70329D01*
G01X41052Y70328D01*
G01X41037Y70324D01*
G01X41022Y70317D01*
G01X40978Y70296D01*
G01X40933Y70276D01*
G01X40887Y70259D01*
G01X40840Y70244D01*
G01X40793Y70231D01*
G01X40745Y70221D01*
G01X40697Y70213D01*
G01X40648Y70207D01*
G01X40600Y70203D01*
G01X40551Y70202D01*
G01X40505Y70203D01*
G01X40459Y70206D01*
G01X40414Y70211D01*
G01X40369Y70218D01*
G01X40324Y70227D01*
G01X40280Y70239D01*
G01X40236Y70252D01*
G01X40193Y70267D01*
G01X40150Y70284D01*
G01X40109Y70303D01*
G01X40068Y70324D01*
G01X40028Y70346D01*
G01X39989Y70370D01*
G01X39952Y70396D01*
G01X39916Y70424D01*
G01X39880Y70453D01*
G01X39847Y70484D01*
G01X39814Y70517D01*
G01X39784Y70550D01*
G01X39754Y70585D01*
G01X39727Y70622D01*
G01X39701Y70659D01*
G01X39676Y70698D01*
G01X39654Y70738D01*
G01X39633Y70779D01*
G01X39614Y70820D01*
G01X39597Y70863D01*
G01X39582Y70906D01*
G01X39569Y70950D01*
G01X39558Y70994D01*
G01X39548Y71039D01*
G01X39541Y71084D01*
G01X39536Y71129D01*
G01X39533Y71175D01*
G01X39532Y71220D01*
G01X39533Y71266D01*
G01X39536Y71312D01*
G01X39541Y71357D01*
G01X39548Y71402D01*
G01X39558Y71447D01*
G01X39569Y71491D01*
G01X39582Y71535D01*
G01X39597Y71578D01*
G01X39614Y71621D01*
G01X39633Y71662D01*
G01X39654Y71703D01*
G01X39676Y71743D01*
G01X39701Y71782D01*
G01X39727Y71819D01*
G01X39754Y71856D01*
G01X39784Y71891D01*
G01X39814Y71924D01*
G01X39847Y71957D01*
G01X39880Y71988D01*
G01X39916Y72017D01*
G01X39952Y72045D01*
G01X39989Y72071D01*
G01X40028Y72095D01*
G01X40068Y72117D01*
G01X40109Y72138D01*
G01X40150Y72157D01*
G01X40193Y72174D01*
G01X40236Y72189D01*
G01X40280Y72202D01*
G01X40324Y72214D01*
G01X40369Y72223D01*
G01X40414Y72230D01*
G01X40459Y72235D01*
G01X40505Y72238D01*
G01X40551Y72239D01*
G01X40600Y72238D01*
G01X40648Y72234D01*
G01X40697Y72228D01*
G01X40745Y72220D01*
G01X40793Y72210D01*
G01X40840Y72197D01*
G01X40887Y72182D01*
G01X40933Y72165D01*
G01X40978Y72145D01*
G01X41022Y72124D01*
G01X41037Y72117D01*
G01X41052Y72113D01*
G01X41069Y72112D01*
G01X43748Y72112D01*
G01X43763Y72113D01*
G01X43777Y72116D01*
G01X43791Y72121D01*
G01X43803Y72128D01*
G01X43815Y72137D01*
G01X43825Y72147D01*
G01X43834Y72159D01*
G01X43841Y72171D01*
G01X43846Y72185D01*
G01X43849Y72199D01*
G01X43850Y72214D01*
G01X43850Y75144D01*
G01X43849Y75158D01*
G01X43846Y75173D01*
G01X43841Y75186D01*
G01X43834Y75199D01*
G01X43825Y75211D01*
G01X43815Y75221D01*
G01X43803Y75229D01*
G01X43791Y75236D01*
G01X43777Y75241D01*
G01X43763Y75245D01*
G01X43748Y75246D01*
G01X43732Y75244D01*
G01X43716Y75240D01*
G01X43700Y75234D01*
G01X43687Y75224D01*
G01X43674Y75213D01*
G01X43664Y75200D01*
G01X43629Y75150D01*
G01X43592Y75100D01*
G01X43553Y75052D01*
G01X43513Y75005D01*
G01X43471Y74960D01*
G01X43428Y74916D01*
G01X43383Y74874D01*
G01X43337Y74833D01*
G01X43289Y74794D01*
G01X43240Y74757D01*
G01X43189Y74721D01*
G01X43138Y74687D01*
G01X43085Y74655D01*
G01X43031Y74625D01*
G01X42976Y74597D01*
G01X42920Y74571D01*
G01X42864Y74546D01*
G01X42806Y74524D01*
G01X42748Y74504D01*
G01X42689Y74486D01*
G01X42629Y74470D01*
G01X42569Y74456D01*
G01X42509Y74444D01*
G01X42448Y74434D01*
G01X42386Y74427D01*
G01X42325Y74421D01*
G01X42263Y74418D01*
G01X42202Y74417D01*
G01X42142Y74418D01*
G01X42082Y74421D01*
G01X42022Y74426D01*
G01X41962Y74433D01*
G01X41903Y74443D01*
G01X41844Y74454D01*
G01X41786Y74467D01*
G01X41728Y74482D01*
G01X41670Y74499D01*
G01X41613Y74518D01*
G01X41557Y74539D01*
G01X41502Y74562D01*
G01X41447Y74587D01*
G01X41393Y74614D01*
G01X41341Y74642D01*
G01X41289Y74673D01*
G01X41238Y74705D01*
G01X41189Y74738D01*
G01X41140Y74774D01*
G01X41093Y74811D01*
G01X41047Y74850D01*
G01X41003Y74890D01*
G01X40960Y74931D01*
G01X40918Y74975D01*
G01X40878Y75019D01*
G01X40839Y75065D01*
G01X40802Y75112D01*
G01X40767Y75161D01*
G01X40733Y75210D01*
G01X40701Y75261D01*
G01X40670Y75313D01*
G01X40642Y75365D01*
G01X40615Y75419D01*
G01X40590Y75474D01*
G01X40568Y75529D01*
G01X40546Y75585D01*
G01X40527Y75642D01*
G01X40510Y75700D01*
G01X40495Y75758D01*
G01X40482Y75816D01*
G01X40471Y75875D01*
G01X40461Y75934D01*
G01X40454Y75994D01*
G01X40449Y76054D01*
G01X40446Y76114D01*
G01X40445Y76173D01*
G01X40446Y76233D01*
G01X40449Y76293D01*
G01X40454Y76353D01*
G01X40461Y76413D01*
G01X40471Y76472D01*
G01X40482Y76531D01*
G01X40495Y76589D01*
G01X40510Y76647D01*
G01X40527Y76705D01*
G01X40546Y76762D01*
G01X40568Y76818D01*
G01X40590Y76873D01*
G01X40615Y76928D01*
G01X40642Y76982D01*
G01X40670Y77034D01*
G01X40701Y77086D01*
G01X40733Y77137D01*
G01X40767Y77186D01*
G01X40802Y77235D01*
G01X40839Y77282D01*
G01X40878Y77328D01*
G01X40918Y77372D01*
G01X40960Y77416D01*
G01X41003Y77457D01*
G01X41047Y77497D01*
G01X41093Y77536D01*
G01X41140Y77573D01*
G01X41189Y77609D01*
G01X41238Y77642D01*
G01X41289Y77674D01*
G01X41341Y77705D01*
G01X41393Y77733D01*
G01X41447Y77760D01*
G01X41502Y77785D01*
G01X41557Y77808D01*
G01X41613Y77829D01*
G01X41670Y77848D01*
G01X41728Y77865D01*
G01X41786Y77880D01*
G01X41844Y77893D01*
G01X41903Y77904D01*
G01X41962Y77914D01*
G01X42022Y77921D01*
G01X42082Y77926D01*
G01X42142Y77929D01*
G01X42202Y77930D01*
G01X42263Y77929D01*
G01X42325Y77926D01*
G01X42386Y77920D01*
G01X42448Y77913D01*
G01X42509Y77903D01*
G01X42569Y77891D01*
G01X42629Y77877D01*
G01X42689Y77861D01*
G01X42748Y77843D01*
G01X42806Y77823D01*
G01X42864Y77801D01*
G01X42920Y77776D01*
G01X42976Y77750D01*
G01X43031Y77722D01*
G01X43085Y77692D01*
G01X43138Y77660D01*
G01X43189Y77626D01*
G01X43240Y77590D01*
G01X43289Y77553D01*
G01X43337Y77514D01*
G01X43383Y77473D01*
G01X43428Y77431D01*
G01X43471Y77387D01*
G01X43513Y77342D01*
G01X43553Y77295D01*
G01X43592Y77247D01*
G01X43629Y77197D01*
G01X43664Y77147D01*
G01X43674Y77134D01*
G01X43687Y77122D01*
G01X43700Y77113D01*
G01X43716Y77107D01*
G01X43732Y77103D01*
G01X43748Y77101D01*
G01X43763Y77102D01*
G01X43777Y77106D01*
G01X43791Y77111D01*
G01X43803Y77118D01*
G01X43815Y77126D01*
G01X43825Y77136D01*
G01X43834Y77148D01*
G01X43841Y77161D01*
G01X43846Y77174D01*
G01X43849Y77189D01*
G01X43850Y77203D01*
G01X43850Y80260D01*
G01X43849Y80275D01*
G01X43846Y80289D01*
G01X43841Y80303D01*
G01X43834Y80315D01*
G01X43825Y80327D01*
G01X43815Y80337D01*
G01X43803Y80346D01*
G01X43791Y80353D01*
G01X43777Y80358D01*
G01X43763Y80361D01*
G01X43748Y80362D01*
G01X41450Y80362D01*
G01X41433Y80361D01*
G01X41418Y80357D01*
G01X41403Y80350D01*
G01X41359Y80329D01*
G01X41314Y80309D01*
G01X41268Y80292D01*
G01X41221Y80277D01*
G01X41174Y80264D01*
G01X41126Y80254D01*
G01X41078Y80246D01*
G01X41029Y80240D01*
G01X40981Y80236D01*
G01X40932Y80235D01*
G01X40886Y80236D01*
G01X40840Y80239D01*
G01X40795Y80244D01*
G01X40750Y80251D01*
G01X40705Y80260D01*
G01X40661Y80272D01*
G01X40617Y80285D01*
G01X40574Y80300D01*
G01X40531Y80317D01*
G01X40490Y80336D01*
G01X40449Y80357D01*
G01X40409Y80379D01*
G01X40370Y80403D01*
G01X40333Y80429D01*
G01X40297Y80457D01*
G01X40261Y80486D01*
G01X40228Y80517D01*
G01X40195Y80550D01*
G01X40165Y80583D01*
G01X40135Y80618D01*
G01X40108Y80655D01*
G01X40082Y80692D01*
G01X40057Y80731D01*
G01X40035Y80771D01*
G01X40014Y80812D01*
G01X39995Y80853D01*
G01X39978Y80896D01*
G01X39963Y80939D01*
G01X39950Y80983D01*
G01X39939Y81027D01*
G01X39929Y81072D01*
G01X39922Y81117D01*
G01X39917Y81162D01*
G01X39914Y81208D01*
G01X39913Y81253D01*
G01X39914Y81299D01*
G01X39917Y81345D01*
G01X39922Y81390D01*
G01X39929Y81435D01*
G01X39939Y81480D01*
G01X39950Y81524D01*
G01X39963Y81568D01*
G01X39978Y81611D01*
G01X39995Y81654D01*
G01X40014Y81695D01*
G01X40035Y81736D01*
G01X40057Y81776D01*
G01X40082Y81815D01*
G01X40108Y81852D01*
G01X40135Y81889D01*
G01X40165Y81924D01*
G01X40195Y81957D01*
G01X40228Y81990D01*
G01X40261Y82021D01*
G01X40297Y82050D01*
G01X40333Y82078D01*
G01X40370Y82104D01*
G01X40409Y82128D01*
G01X40449Y82150D01*
G01X40490Y82171D01*
G01X40531Y82190D01*
G01X40574Y82207D01*
G01X40617Y82222D01*
G01X40661Y82235D01*
G01X40705Y82247D01*
G01X40750Y82256D01*
G01X40795Y82263D01*
G01X40840Y82268D01*
G01X40886Y82271D01*
G01X40932Y82272D01*
G01X40981Y82271D01*
G01X41029Y82267D01*
G01X41078Y82261D01*
G01X41126Y82253D01*
G01X41174Y82243D01*
G01X41221Y82230D01*
G01X41268Y82215D01*
G01X41314Y82198D01*
G01X41359Y82178D01*
G01X41403Y82157D01*
G01X41418Y82150D01*
G01X41433Y82146D01*
G01X41450Y82145D01*
G01X43748Y82145D01*
G01X43763Y82146D01*
G01X43777Y82149D01*
G01X43791Y82154D01*
G01X43803Y82161D01*
G01X43815Y82170D01*
G01X43825Y82180D01*
G01X43834Y82192D01*
G01X43841Y82204D01*
G01X43846Y82218D01*
G01X43849Y82232D01*
G01X43850Y82247D01*
G01X43850Y85721D01*
G01X43849Y85736D01*
G01X43846Y85750D01*
G01X43841Y85764D01*
G01X43834Y85776D01*
G01X43825Y85788D01*
G01X43815Y85798D01*
G01X43803Y85807D01*
G01X43791Y85814D01*
G01X43777Y85819D01*
G01X43763Y85822D01*
G01X43748Y85823D01*
G01X37611Y85823D01*
G01X37597Y85822D01*
G01X37583Y85819D01*
G01X37569Y85814D01*
G01X37556Y85807D01*
G01X37545Y85798D01*
G01X37534Y85788D01*
G01X37526Y85776D01*
G01X37519Y85764D01*
G01X37514Y85750D01*
G01X37511Y85736D01*
G01X37510Y85721D01*
G01X37511Y85707D01*
G01X37514Y85692D01*
G01X37519Y85678D01*
G01X37526Y85665D01*
G01X37554Y85621D01*
G01X37580Y85576D01*
G01X37603Y85530D01*
G01X37625Y85483D01*
G01X37644Y85434D01*
G01X37661Y85385D01*
G01X37676Y85336D01*
G01X37689Y85285D01*
G01X37700Y85234D01*
G01X37708Y85183D01*
G01X37713Y85131D01*
G01X37717Y85079D01*
G01X37718Y85027D01*
G01X37717Y84978D01*
G01X37714Y84929D01*
G01X37709Y84881D01*
G01X37702Y84832D01*
G01X37692Y84784D01*
G01X37681Y84736D01*
G01X37667Y84689D01*
G01X37652Y84642D01*
G01X37635Y84596D01*
G01X37615Y84551D01*
G01X37594Y84507D01*
G01X37571Y84463D01*
G01X37546Y84421D01*
G01X37520Y84380D01*
G01X37491Y84340D01*
G01X37461Y84301D01*
G01X37430Y84263D01*
G01X37397Y84227D01*
G01X37362Y84193D01*
G01X37326Y84159D01*
G01X37288Y84128D01*
G01X37249Y84098D01*
G01X37209Y84069D01*
G01X37168Y84043D01*
G01X37126Y84018D01*
G01X37082Y83995D01*
G01X37038Y83974D01*
G01X36993Y83954D01*
G01X36947Y83937D01*
G01X36900Y83922D01*
G01X36853Y83908D01*
G01X36805Y83897D01*
G01X36757Y83888D01*
G01X36709Y83880D01*
G01X36660Y83875D01*
G01X36611Y83872D01*
G01X36562Y83871D01*
G01X36513Y83872D01*
G01X36464Y83875D01*
G01X36415Y83880D01*
G01X36366Y83888D01*
G01X36318Y83897D01*
G01X36270Y83908D01*
G01X36223Y83922D01*
G01X36176Y83937D01*
G01X36130Y83954D01*
G01X36085Y83974D01*
G01X36041Y83995D01*
G01X35998Y84018D01*
G01X35955Y84043D01*
G01X35914Y84069D01*
G01X35874Y84098D01*
G01X35835Y84128D01*
G01X35797Y84159D01*
G01X35761Y84193D01*
G01X35727Y84227D01*
G01X35693Y84263D01*
G01X35662Y84301D01*
G01X35632Y84340D01*
G01X35603Y84380D01*
G01X35577Y84421D01*
G01X35552Y84463D01*
G01X35529Y84507D01*
G01X35508Y84551D01*
G01X35488Y84596D01*
G01X35471Y84642D01*
G01X35456Y84689D01*
G01X35442Y84736D01*
G01X35431Y84784D01*
G01X35422Y84832D01*
G01X35414Y84881D01*
G01X35409Y84929D01*
G01X35406Y84978D01*
G01X35405Y85027D01*
G01X35406Y85079D01*
G01X35410Y85131D01*
G01X35416Y85183D01*
G01X35424Y85234D01*
G01X35434Y85285D01*
G01X35447Y85336D01*
G01X35462Y85385D01*
G01X35479Y85434D01*
G01X35498Y85483D01*
G01X35520Y85530D01*
G01X35543Y85576D01*
G01X35569Y85621D01*
G01X35597Y85665D01*
G01X35604Y85678D01*
G01X35609Y85692D01*
G01X35613Y85707D01*
G01X35614Y85721D01*
G01X35613Y85736D01*
G01X35610Y85750D01*
G01X35605Y85764D01*
G01X35598Y85776D01*
G01X35589Y85788D01*
G01X35579Y85798D01*
G01X35567Y85807D01*
G01X35554Y85814D01*
G01X35541Y85819D01*
G01X35527Y85822D01*
G01X35512Y85823D01*
G01X31111Y85823D01*
G01X31097Y85822D01*
G01X31082Y85819D01*
G01X31069Y85814D01*
G01X31056Y85807D01*
G01X31045Y85798D01*
G01X31034Y85788D01*
G01X31026Y85776D01*
G01X31019Y85764D01*
G01X31014Y85750D01*
G01X31011Y85736D01*
G01X31010Y85721D01*
G01X31011Y85707D01*
G01X31014Y85692D01*
G01X31019Y85678D01*
G01X31026Y85665D01*
G01X31054Y85621D01*
G01X31080Y85576D01*
G01X31103Y85530D01*
G01X31125Y85483D01*
G01X31144Y85434D01*
G01X31161Y85385D01*
G01X31176Y85336D01*
G01X31189Y85285D01*
G01X31199Y85234D01*
G01X31208Y85183D01*
G01X31213Y85131D01*
G01X31217Y85079D01*
G01X31218Y85027D01*
G01X31217Y84978D01*
G01X31214Y84929D01*
G01X31209Y84881D01*
G01X31201Y84832D01*
G01X31192Y84784D01*
G01X31181Y84736D01*
G01X31167Y84689D01*
G01X31152Y84642D01*
G01X31135Y84596D01*
G01X31115Y84551D01*
G01X31094Y84507D01*
G01X31071Y84463D01*
G01X31046Y84421D01*
G01X31020Y84380D01*
G01X30991Y84340D01*
G01X30961Y84301D01*
G01X30930Y84263D01*
G01X30897Y84227D01*
G01X30862Y84193D01*
G01X30826Y84159D01*
G01X30788Y84128D01*
G01X30749Y84098D01*
G01X30709Y84069D01*
G01X30668Y84043D01*
G01X30626Y84018D01*
G01X30582Y83995D01*
G01X30538Y83974D01*
G01X30493Y83954D01*
G01X30447Y83937D01*
G01X30400Y83922D01*
G01X30353Y83908D01*
G01X30305Y83897D01*
G01X30257Y83888D01*
G01X30209Y83880D01*
G01X30160Y83875D01*
G01X30111Y83872D01*
G01X30062Y83871D01*
G01X30013Y83872D01*
G01X29964Y83875D01*
G01X29915Y83880D01*
G01X29866Y83888D01*
G01X29818Y83897D01*
G01X29770Y83908D01*
G01X29723Y83922D01*
G01X29676Y83937D01*
G01X29630Y83954D01*
G01X29585Y83974D01*
G01X29541Y83995D01*
G01X29498Y84018D01*
G01X29455Y84043D01*
G01X29414Y84069D01*
G01X29374Y84098D01*
G01X29335Y84128D01*
G01X29297Y84159D01*
G01X29261Y84193D01*
G01X29227Y84227D01*
G01X29193Y84263D01*
G01X29162Y84301D01*
G01X29132Y84340D01*
G01X29103Y84380D01*
G01X29077Y84421D01*
G01X29052Y84463D01*
G01X29029Y84507D01*
G01X29008Y84551D01*
G01X28988Y84596D01*
G01X28971Y84642D01*
G01X28956Y84689D01*
G01X28942Y84736D01*
G01X28931Y84784D01*
G01X28922Y84832D01*
G01X28914Y84881D01*
G01X28909Y84929D01*
G01X28906Y84978D01*
G01X28905Y85027D01*
G01X28906Y85079D01*
G01X28910Y85131D01*
G01X28916Y85183D01*
G01X28924Y85234D01*
G01X28934Y85285D01*
G01X28947Y85336D01*
G01X28962Y85385D01*
G01X28979Y85434D01*
G01X28998Y85483D01*
G01X29020Y85530D01*
G01X29043Y85576D01*
G01X29069Y85621D01*
G01X29097Y85665D01*
G01X29104Y85678D01*
G01X29109Y85692D01*
G01X29113Y85707D01*
G01X29114Y85721D01*
G01X29113Y85736D01*
G01X29110Y85750D01*
G01X29104Y85764D01*
G01X29098Y85776D01*
G01X29089Y85788D01*
G01X29079Y85798D01*
G01X29067Y85807D01*
G01X29054Y85814D01*
G01X29041Y85819D01*
G01X29027Y85822D01*
G01X29012Y85823D01*
G37*

%LPC*%
G36*
G01X33804Y79335D02*
G01X31804Y79335D01*
G01X31780Y79334D01*
G01X31756Y79331D01*
G01X31733Y79325D01*
G01X31711Y79318D01*
G01X31689Y79308D01*
G01X31669Y79297D01*
G01X31649Y79283D01*
G01X31631Y79268D01*
G01X31614Y79251D01*
G01X31599Y79233D01*
G01X31585Y79214D01*
G01X31574Y79193D01*
G01X31564Y79171D01*
G01X31557Y79149D01*
G01X31551Y79126D01*
G01X31548Y79102D01*
G01X31547Y79078D01*
G01X31547Y78748D01*
G01X31546Y78733D01*
G01X31543Y78719D01*
G01X31538Y78705D01*
G01X31531Y78693D01*
G01X31522Y78681D01*
G01X31512Y78671D01*
G01X31500Y78662D01*
G01X31488Y78655D01*
G01X31474Y78650D01*
G01X31460Y78647D01*
G01X31445Y78646D01*
G01X31430Y78647D01*
G01X31415Y78651D01*
G01X31401Y78656D01*
G01X31388Y78664D01*
G01X31376Y78674D01*
G01X31366Y78685D01*
G01X31357Y78698D01*
G01X31330Y78743D01*
G01X31301Y78788D01*
G01X31270Y78831D01*
G01X31238Y78872D01*
G01X31203Y78913D01*
G01X31167Y78952D01*
G01X31130Y78989D01*
G01X31090Y79025D01*
G01X31050Y79059D01*
G01X31008Y79091D01*
G01X30964Y79121D01*
G01X30920Y79150D01*
G01X30874Y79177D01*
G01X30827Y79202D01*
G01X30827Y78642D01*
G01X31445Y78642D01*
G01X31460Y78641D01*
G01X31474Y78638D01*
G01X31488Y78633D01*
G01X31500Y78626D01*
G01X31512Y78617D01*
G01X31522Y78607D01*
G01X31531Y78595D01*
G01X31538Y78583D01*
G01X31543Y78569D01*
G01X31546Y78555D01*
G01X31547Y78540D01*
G01X31547Y77617D01*
G01X31546Y77602D01*
G01X31543Y77588D01*
G01X31538Y77574D01*
G01X31531Y77562D01*
G01X31522Y77550D01*
G01X31512Y77540D01*
G01X31500Y77531D01*
G01X31488Y77524D01*
G01X31474Y77519D01*
G01X31460Y77516D01*
G01X31445Y77515D01*
G01X30827Y77515D01*
G01X30827Y76955D01*
G01X30874Y76980D01*
G01X30920Y77007D01*
G01X30964Y77035D01*
G01X31008Y77066D01*
G01X31050Y77098D01*
G01X31090Y77132D01*
G01X31130Y77168D01*
G01X31167Y77205D01*
G01X31203Y77244D01*
G01X31238Y77285D01*
G01X31270Y77326D01*
G01X31301Y77369D01*
G01X31330Y77414D01*
G01X31357Y77459D01*
G01X31366Y77472D01*
G01X31376Y77483D01*
G01X31388Y77493D01*
G01X31401Y77501D01*
G01X31415Y77506D01*
G01X31430Y77510D01*
G01X31445Y77511D01*
G01X31460Y77510D01*
G01X31474Y77507D01*
G01X31488Y77502D01*
G01X31500Y77495D01*
G01X31512Y77486D01*
G01X31522Y77476D01*
G01X31531Y77464D01*
G01X31538Y77452D01*
G01X31543Y77438D01*
G01X31546Y77424D01*
G01X31547Y77409D01*
G01X31547Y77078D01*
G01X31548Y77055D01*
G01X31551Y77031D01*
G01X31557Y77008D01*
G01X31564Y76986D01*
G01X31574Y76964D01*
G01X31585Y76943D01*
G01X31599Y76924D01*
G01X31614Y76906D01*
G01X31631Y76889D01*
G01X31649Y76874D01*
G01X31669Y76860D01*
G01X31689Y76849D01*
G01X31711Y76839D01*
G01X31733Y76832D01*
G01X31756Y76826D01*
G01X31780Y76823D01*
G01X31804Y76822D01*
G01X33804Y76822D01*
G01X33827Y76823D01*
G01X33851Y76826D01*
G01X33874Y76832D01*
G01X33896Y76839D01*
G01X33918Y76849D01*
G01X33939Y76860D01*
G01X33958Y76874D01*
G01X33976Y76889D01*
G01X33993Y76906D01*
G01X34008Y76924D01*
G01X34022Y76943D01*
G01X34033Y76964D01*
G01X34043Y76986D01*
G01X34050Y77008D01*
G01X34056Y77031D01*
G01X34059Y77055D01*
G01X34060Y77078D01*
G01X34060Y79078D01*
G01X34059Y79102D01*
G01X34056Y79126D01*
G01X34050Y79149D01*
G01X34043Y79171D01*
G01X34033Y79193D01*
G01X34022Y79214D01*
G01X34008Y79233D01*
G01X33993Y79251D01*
G01X33976Y79268D01*
G01X33958Y79283D01*
G01X33939Y79297D01*
G01X33918Y79308D01*
G01X33896Y79318D01*
G01X33874Y79325D01*
G01X33851Y79331D01*
G01X33827Y79334D01*
G01X33804Y79335D01*
G37*
G36*
G01X7260Y77903D02*
G01X4760Y77903D01*
G01X4736Y77902D01*
G01X4712Y77899D01*
G01X4689Y77893D01*
G01X4667Y77886D01*
G01X4645Y77876D01*
G01X4624Y77864D01*
G01X4605Y77851D01*
G01X4587Y77836D01*
G01X4570Y77819D01*
G01X4555Y77801D01*
G01X4541Y77781D01*
G01X4530Y77761D01*
G01X4520Y77739D01*
G01X4513Y77717D01*
G01X4507Y77694D01*
G01X4504Y77670D01*
G01X4503Y77646D01*
G01X4503Y77253D01*
G01X4502Y77238D01*
G01X4499Y77224D01*
G01X4493Y77210D01*
G01X4486Y77197D01*
G01X4476Y77185D01*
G01X4465Y77174D01*
G01X4453Y77166D01*
G01X4424Y77148D01*
G01X4396Y77127D01*
G01X4369Y77106D01*
G01X4344Y77083D01*
G01X4320Y77058D01*
G01X4298Y77032D01*
G01X4277Y77004D01*
G01X4258Y76975D01*
G01X4241Y76946D01*
G01X4226Y76915D01*
G01X4213Y76883D01*
G01X4201Y76851D01*
G01X4192Y76818D01*
G01X4185Y76784D01*
G01X4179Y76750D01*
G01X4176Y76716D01*
G01X4175Y76681D01*
G01X4176Y76648D01*
G01X4179Y76614D01*
G01X4184Y76580D01*
G01X4192Y76547D01*
G01X4201Y76514D01*
G01X4212Y76482D01*
G01X4225Y76451D01*
G01X4240Y76421D01*
G01X4256Y76391D01*
G01X4275Y76363D01*
G01X4295Y76335D01*
G01X4316Y76309D01*
G01X4364Y76261D01*
G01X4390Y76240D01*
G01X4418Y76220D01*
G01X4446Y76201D01*
G01X4476Y76184D01*
G01X4506Y76170D01*
G01X4538Y76157D01*
G01X4570Y76146D01*
G01X4602Y76136D01*
G01X4635Y76129D01*
G01X4669Y76124D01*
G01X4703Y76121D01*
G01X4737Y76120D01*
G01X4774Y76121D01*
G01X4811Y76125D01*
G01X4847Y76131D01*
G01X4883Y76140D01*
G01X4919Y76151D01*
G01X4953Y76164D01*
G01X4987Y76179D01*
G01X5002Y76185D01*
G01X5017Y76189D01*
G01X5032Y76190D01*
G01X7260Y76190D01*
G01X7283Y76191D01*
G01X7307Y76194D01*
G01X7330Y76200D01*
G01X7352Y76207D01*
G01X7374Y76217D01*
G01X7395Y76228D01*
G01X7414Y76242D01*
G01X7432Y76257D01*
G01X7449Y76274D01*
G01X7464Y76292D01*
G01X7478Y76311D01*
G01X7489Y76332D01*
G01X7499Y76354D01*
G01X7506Y76376D01*
G01X7512Y76399D01*
G01X7515Y76423D01*
G01X7516Y76446D01*
G01X7516Y77646D01*
G01X7515Y77670D01*
G01X7512Y77694D01*
G01X7506Y77717D01*
G01X7499Y77739D01*
G01X7489Y77761D01*
G01X7478Y77781D01*
G01X7464Y77801D01*
G01X7449Y77819D01*
G01X7432Y77836D01*
G01X7414Y77851D01*
G01X7395Y77864D01*
G01X7374Y77876D01*
G01X7352Y77886D01*
G01X7330Y77893D01*
G01X7307Y77899D01*
G01X7283Y77902D01*
G01X7260Y77903D01*
G37*
G36*
G01X27135Y82423D02*
G01X27089Y82424D01*
G01X27042Y82423D01*
G01X26995Y82420D01*
G01X26948Y82415D01*
G01X26902Y82408D01*
G01X26856Y82398D01*
G01X26811Y82387D01*
G01X26766Y82373D01*
G01X26722Y82358D01*
G01X26678Y82340D01*
G01X26636Y82321D01*
G01X26594Y82300D01*
G01X26553Y82277D01*
G01X26513Y82252D01*
G01X26475Y82225D01*
G01X26438Y82197D01*
G01X26402Y82167D01*
G01X26367Y82135D01*
G01X26334Y82102D01*
G01X26302Y82067D01*
G01X26272Y82031D01*
G01X26244Y81994D01*
G01X26217Y81956D01*
G01X26192Y81916D01*
G01X26169Y81875D01*
G01X26148Y81833D01*
G01X26129Y81791D01*
G01X26111Y81747D01*
G01X26096Y81703D01*
G01X26082Y81658D01*
G01X26071Y81613D01*
G01X26061Y81567D01*
G01X26054Y81521D01*
G01X26049Y81474D01*
G01X26046Y81427D01*
G01X26045Y81380D01*
G01X26046Y81334D01*
G01X26049Y81287D01*
G01X26054Y81240D01*
G01X26061Y81194D01*
G01X26071Y81148D01*
G01X26082Y81103D01*
G01X26096Y81058D01*
G01X26111Y81014D01*
G01X26129Y80970D01*
G01X26148Y80928D01*
G01X26169Y80886D01*
G01X26192Y80845D01*
G01X26217Y80805D01*
G01X26244Y80767D01*
G01X26272Y80730D01*
G01X26302Y80694D01*
G01X26334Y80659D01*
G01X26367Y80626D01*
G01X26402Y80594D01*
G01X26438Y80564D01*
G01X26475Y80536D01*
G01X26513Y80509D01*
G01X26553Y80484D01*
G01X26594Y80461D01*
G01X26636Y80440D01*
G01X26678Y80421D01*
G01X26722Y80403D01*
G01X26766Y80388D01*
G01X26811Y80374D01*
G01X26856Y80363D01*
G01X26902Y80353D01*
G01X26948Y80346D01*
G01X26995Y80341D01*
G01X27042Y80338D01*
G01X27089Y80337D01*
G01X27135Y80338D01*
G01X27182Y80341D01*
G01X27229Y80346D01*
G01X27275Y80353D01*
G01X27321Y80363D01*
G01X27366Y80374D01*
G01X27411Y80388D01*
G01X27455Y80403D01*
G01X27499Y80421D01*
G01X27542Y80440D01*
G01X27583Y80461D01*
G01X27624Y80484D01*
G01X27664Y80509D01*
G01X27702Y80536D01*
G01X27739Y80564D01*
G01X27775Y80594D01*
G01X27810Y80626D01*
G01X27843Y80659D01*
G01X27875Y80694D01*
G01X27905Y80730D01*
G01X27933Y80767D01*
G01X27960Y80805D01*
G01X27985Y80845D01*
G01X28008Y80886D01*
G01X28029Y80928D01*
G01X28049Y80970D01*
G01X28066Y81014D01*
G01X28081Y81058D01*
G01X28095Y81103D01*
G01X28106Y81148D01*
G01X28116Y81194D01*
G01X28123Y81240D01*
G01X28128Y81287D01*
G01X28131Y81334D01*
G01X28133Y81380D01*
G01X28131Y81427D01*
G01X28128Y81474D01*
G01X28123Y81521D01*
G01X28116Y81567D01*
G01X28106Y81613D01*
G01X28095Y81658D01*
G01X28081Y81703D01*
G01X28066Y81747D01*
G01X28049Y81791D01*
G01X28029Y81833D01*
G01X28008Y81875D01*
G01X27985Y81916D01*
G01X27960Y81956D01*
G01X27933Y81994D01*
G01X27905Y82031D01*
G01X27875Y82067D01*
G01X27843Y82102D01*
G01X27810Y82135D01*
G01X27775Y82167D01*
G01X27739Y82197D01*
G01X27702Y82225D01*
G01X27664Y82252D01*
G01X27624Y82277D01*
G01X27583Y82300D01*
G01X27542Y82321D01*
G01X27499Y82340D01*
G01X27455Y82358D01*
G01X27411Y82373D01*
G01X27366Y82387D01*
G01X27321Y82398D01*
G01X27275Y82408D01*
G01X27229Y82415D01*
G01X27182Y82420D01*
G01X27135Y82423D01*
G37*
G36*
G01X5365Y81308D02*
G01X4273Y81308D01*
G01X4273Y80740D01*
G01X4459Y80740D01*
G01X4506Y80741D01*
G01X4553Y80744D01*
G01X4599Y80750D01*
G01X4646Y80757D01*
G01X4692Y80767D01*
G01X4737Y80779D01*
G01X4782Y80793D01*
G01X4826Y80809D01*
G01X4869Y80827D01*
G01X4912Y80847D01*
G01X4953Y80870D01*
G01X4994Y80894D01*
G01X5033Y80919D01*
G01X5071Y80947D01*
G01X5107Y80977D01*
G01X5142Y81008D01*
G01X5176Y81040D01*
G01X5208Y81075D01*
G01X5239Y81110D01*
G01X5268Y81147D01*
G01X5295Y81186D01*
G01X5320Y81225D01*
G01X5343Y81266D01*
G01X5365Y81308D01*
G37*
G36*
G01X5321Y80403D02*
G01X4760Y80403D01*
G01X4736Y80402D01*
G01X4712Y80399D01*
G01X4689Y80393D01*
G01X4667Y80386D01*
G01X4645Y80376D01*
G01X4624Y80365D01*
G01X4605Y80351D01*
G01X4587Y80336D01*
G01X4570Y80319D01*
G01X4555Y80301D01*
G01X4541Y80282D01*
G01X4530Y80261D01*
G01X4520Y80239D01*
G01X4513Y80217D01*
G01X4507Y80194D01*
G01X4504Y80170D01*
G01X4503Y80146D01*
G01X4503Y79910D01*
G01X5321Y79910D01*
G01X5321Y80403D01*
G37*
G36*
G01X5321Y79183D02*
G01X4503Y79183D01*
G01X4503Y78946D01*
G01X4504Y78923D01*
G01X4507Y78899D01*
G01X4513Y78876D01*
G01X4520Y78854D01*
G01X4530Y78832D01*
G01X4541Y78811D01*
G01X4555Y78792D01*
G01X4570Y78774D01*
G01X4587Y78757D01*
G01X4605Y78742D01*
G01X4624Y78728D01*
G01X4645Y78717D01*
G01X4667Y78707D01*
G01X4689Y78700D01*
G01X4712Y78694D01*
G01X4736Y78691D01*
G01X4760Y78690D01*
G01X5321Y78690D01*
G01X5321Y79183D01*
G37*
G36*
G01X7516Y79183D02*
G01X6698Y79183D01*
G01X6698Y78690D01*
G01X7260Y78690D01*
G01X7283Y78691D01*
G01X7307Y78694D01*
G01X7330Y78700D01*
G01X7352Y78707D01*
G01X7374Y78717D01*
G01X7395Y78728D01*
G01X7414Y78742D01*
G01X7432Y78757D01*
G01X7449Y78774D01*
G01X7464Y78792D01*
G01X7478Y78811D01*
G01X7489Y78832D01*
G01X7499Y78854D01*
G01X7506Y78876D01*
G01X7512Y78899D01*
G01X7515Y78923D01*
G01X7516Y78946D01*
G01X7516Y79183D01*
G37*
G36*
G01X10134Y74616D02*
G01X9466Y74616D01*
G01X9466Y74123D01*
G01X9878Y74123D01*
G01X9901Y74124D01*
G01X9925Y74127D01*
G01X9948Y74133D01*
G01X9970Y74140D01*
G01X9992Y74150D01*
G01X10013Y74161D01*
G01X10032Y74175D01*
G01X10050Y74190D01*
G01X10067Y74207D01*
G01X10082Y74225D01*
G01X10096Y74244D01*
G01X10107Y74265D01*
G01X10117Y74287D01*
G01X10124Y74309D01*
G01X10130Y74332D01*
G01X10133Y74356D01*
G01X10134Y74379D01*
G01X10134Y74616D01*
G37*
G36*
G01X8389Y74616D02*
G01X7721Y74616D01*
G01X7721Y74379D01*
G01X7722Y74356D01*
G01X7725Y74332D01*
G01X7731Y74309D01*
G01X7738Y74287D01*
G01X7748Y74265D01*
G01X7759Y74244D01*
G01X7773Y74225D01*
G01X7788Y74207D01*
G01X7805Y74190D01*
G01X7823Y74175D01*
G01X7843Y74161D01*
G01X7863Y74150D01*
G01X7885Y74140D01*
G01X7907Y74133D01*
G01X7930Y74127D01*
G01X7954Y74124D01*
G01X7978Y74123D01*
G01X8389Y74123D01*
G01X8389Y74616D01*
G37*
G36*
G01X29700Y77515D02*
G01X29140Y77515D01*
G01X29166Y77468D01*
G01X29193Y77421D01*
G01X29222Y77376D01*
G01X29253Y77332D01*
G01X29285Y77290D01*
G01X29320Y77249D01*
G01X29356Y77209D01*
G01X29394Y77171D01*
G01X29434Y77135D01*
G01X29475Y77100D01*
G01X29517Y77068D01*
G01X29561Y77037D01*
G01X29606Y77008D01*
G01X29653Y76980D01*
G01X29700Y76955D01*
G01X29700Y77515D01*
G37*
G36*
G01X29700Y78642D02*
G01X29700Y79202D01*
G01X29653Y79177D01*
G01X29606Y79149D01*
G01X29561Y79120D01*
G01X29517Y79089D01*
G01X29475Y79057D01*
G01X29434Y79022D01*
G01X29394Y78986D01*
G01X29356Y78948D01*
G01X29320Y78908D01*
G01X29285Y78867D01*
G01X29253Y78825D01*
G01X29222Y78781D01*
G01X29193Y78736D01*
G01X29166Y78689D01*
G01X29140Y78642D01*
G01X29700Y78642D01*
G37*
G36*
G01X41946Y67593D02*
G01X41946Y68153D01*
G01X41899Y68128D01*
G01X41852Y68100D01*
G01X41807Y68071D01*
G01X41763Y68040D01*
G01X41721Y68008D01*
G01X41680Y67973D01*
G01X41640Y67937D01*
G01X41602Y67899D01*
G01X41566Y67859D01*
G01X41531Y67818D01*
G01X41499Y67776D01*
G01X41468Y67732D01*
G01X41439Y67687D01*
G01X41412Y67640D01*
G01X41387Y67593D01*
G01X41946Y67593D01*
G37*
G36*
G01X43121Y68128D02*
G01X43073Y68153D01*
G01X43073Y67593D01*
G01X43633Y67593D01*
G01X43608Y67640D01*
G01X43581Y67687D01*
G01X43552Y67732D01*
G01X43521Y67776D01*
G01X43488Y67818D01*
G01X43453Y67859D01*
G01X43417Y67899D01*
G01X43379Y67937D01*
G01X43339Y67973D01*
G01X43298Y68008D01*
G01X43256Y68040D01*
G01X43212Y68071D01*
G01X43167Y68100D01*
G01X43121Y68128D01*
G37*
G36*
G01X30620Y81541D02*
G01X30575Y81564D01*
G01X30575Y81041D01*
G01X31098Y81041D01*
G01X31075Y81085D01*
G01X31050Y81129D01*
G01X31022Y81171D01*
G01X30994Y81212D01*
G01X30963Y81252D01*
G01X30931Y81290D01*
G01X30897Y81327D01*
G01X30861Y81363D01*
G01X30824Y81397D01*
G01X30786Y81429D01*
G01X30746Y81460D01*
G01X30705Y81488D01*
G01X30663Y81515D01*
G01X30620Y81541D01*
G37*
G36*
G01X36048Y81041D02*
G01X36048Y81564D01*
G01X36004Y81541D01*
G01X35960Y81515D01*
G01X35918Y81488D01*
G01X35877Y81460D01*
G01X35837Y81429D01*
G01X35799Y81397D01*
G01X35762Y81363D01*
G01X35726Y81327D01*
G01X35692Y81290D01*
G01X35660Y81252D01*
G01X35630Y81212D01*
G01X35601Y81171D01*
G01X35574Y81129D01*
G01X35549Y81085D01*
G01X35525Y81041D01*
G01X36048Y81041D01*
G37*
G36*
G01X29548Y81041D02*
G01X29548Y81564D01*
G01X29504Y81541D01*
G01X29460Y81515D01*
G01X29418Y81488D01*
G01X29377Y81460D01*
G01X29337Y81429D01*
G01X29299Y81397D01*
G01X29262Y81363D01*
G01X29226Y81327D01*
G01X29192Y81290D01*
G01X29160Y81252D01*
G01X29130Y81212D01*
G01X29101Y81171D01*
G01X29074Y81129D01*
G01X29049Y81085D01*
G01X29025Y81041D01*
G01X29548Y81041D01*
G37*
G36*
G01X37120Y81541D02*
G01X37075Y81564D01*
G01X37075Y81041D01*
G01X37598Y81041D01*
G01X37575Y81085D01*
G01X37550Y81129D01*
G01X37522Y81171D01*
G01X37494Y81212D01*
G01X37463Y81252D01*
G01X37431Y81290D01*
G01X37397Y81327D01*
G01X37361Y81363D01*
G01X37324Y81397D01*
G01X37286Y81429D01*
G01X37246Y81460D01*
G01X37205Y81488D01*
G01X37163Y81515D01*
G01X37120Y81541D01*
G37*
G36*
G01X37598Y80014D02*
G01X37075Y80014D01*
G01X37075Y79491D01*
G01X37120Y79514D01*
G01X37163Y79540D01*
G01X37205Y79567D01*
G01X37246Y79595D01*
G01X37286Y79626D01*
G01X37324Y79658D01*
G01X37361Y79692D01*
G01X37397Y79728D01*
G01X37431Y79765D01*
G01X37463Y79803D01*
G01X37494Y79843D01*
G01X37522Y79884D01*
G01X37550Y79926D01*
G01X37575Y79970D01*
G01X37598Y80014D01*
G37*
G36*
G01X29548Y80014D02*
G01X29025Y80014D01*
G01X29049Y79970D01*
G01X29074Y79926D01*
G01X29101Y79884D01*
G01X29130Y79843D01*
G01X29160Y79803D01*
G01X29192Y79765D01*
G01X29226Y79728D01*
G01X29262Y79692D01*
G01X29299Y79658D01*
G01X29337Y79626D01*
G01X29377Y79595D01*
G01X29418Y79567D01*
G01X29460Y79540D01*
G01X29504Y79514D01*
G01X29548Y79491D01*
G01X29548Y80014D01*
G37*
G36*
G01X36048Y80014D02*
G01X35525Y80014D01*
G01X35549Y79970D01*
G01X35574Y79926D01*
G01X35601Y79884D01*
G01X35630Y79843D01*
G01X35660Y79803D01*
G01X35692Y79765D01*
G01X35726Y79728D01*
G01X35762Y79692D01*
G01X35799Y79658D01*
G01X35837Y79626D01*
G01X35877Y79595D01*
G01X35918Y79567D01*
G01X35960Y79540D01*
G01X36004Y79514D01*
G01X36048Y79491D01*
G01X36048Y80014D01*
G37*
G36*
G01X31098Y80014D02*
G01X30575Y80014D01*
G01X30575Y79505D01*
G01X30593Y79500D01*
G01X30636Y79524D01*
G01X30678Y79549D01*
G01X30719Y79576D01*
G01X30758Y79604D01*
G01X30797Y79635D01*
G01X30834Y79666D01*
G01X30869Y79700D01*
G01X30904Y79735D01*
G01X30936Y79771D01*
G01X30967Y79808D01*
G01X30997Y79847D01*
G01X31025Y79887D01*
G01X31051Y79928D01*
G01X31075Y79971D01*
G01X31098Y80014D01*
G37*
G36*
G01X4229Y84418D02*
G01X4019Y84418D01*
G01X4019Y83978D01*
G01X4485Y83978D01*
G01X4485Y84162D01*
G01X4484Y84185D01*
G01X4481Y84209D01*
G01X4475Y84232D01*
G01X4468Y84254D01*
G01X4458Y84276D01*
G01X4447Y84297D01*
G01X4433Y84316D01*
G01X4418Y84335D01*
G01X4401Y84351D01*
G01X4383Y84367D01*
G01X4364Y84380D01*
G01X4343Y84391D01*
G01X4321Y84401D01*
G01X4299Y84409D01*
G01X4276Y84414D01*
G01X4252Y84417D01*
G01X4229Y84418D01*
G37*

%LPD*%
G36*
G01X20817Y72133D02*
G01X20801Y72135D01*
G01X20787Y72134D01*
G01X20772Y72131D01*
G01X20759Y72126D01*
G01X20746Y72119D01*
G01X20735Y72110D01*
G01X20724Y72100D01*
G01X20716Y72088D01*
G01X20709Y72075D01*
G01X20704Y72062D01*
G01X20700Y72048D01*
G01X20699Y72033D01*
G01X20699Y71078D01*
G01X20698Y71044D01*
G01X20695Y71011D01*
G01X20689Y70979D01*
G01X20681Y70946D01*
G01X20671Y70915D01*
G01X20666Y70898D01*
G01X20665Y70880D01*
G01X20665Y69823D01*
G01X20664Y69792D01*
G01X20660Y69760D01*
G01X20655Y69728D01*
G01X20647Y69698D01*
G01X20637Y69667D01*
G01X20625Y69638D01*
G01X20610Y69609D01*
G01X20594Y69582D01*
G01X20576Y69556D01*
G01X20556Y69531D01*
G01X20534Y69507D01*
G01X20524Y69497D01*
G01X20514Y69485D01*
G01X20505Y69472D01*
G01X20499Y69457D01*
G01X20495Y69441D01*
G01X20494Y69425D01*
G01X20494Y67553D01*
G01X20493Y67530D01*
G01X20490Y67506D01*
G01X20484Y67483D01*
G01X20477Y67461D01*
G01X20467Y67439D01*
G01X20456Y67418D01*
G01X20442Y67399D01*
G01X20427Y67381D01*
G01X20410Y67364D01*
G01X20392Y67349D01*
G01X20373Y67335D01*
G01X20352Y67324D01*
G01X20330Y67314D01*
G01X20308Y67307D01*
G01X20285Y67301D01*
G01X20261Y67298D01*
G01X20238Y67297D01*
G01X14738Y67297D01*
G01X14712Y67298D01*
G01X14686Y67302D01*
G01X14661Y67309D01*
G01X14637Y67318D01*
G01X14617Y67324D01*
G01X14597Y67326D01*
G01X14581Y67324D01*
G01X14566Y67321D01*
G01X14551Y67315D01*
G01X14537Y67306D01*
G01X14525Y67296D01*
G01X13419Y66189D01*
G01X13408Y66177D01*
G01X13400Y66164D01*
G01X13394Y66149D01*
G01X13390Y66134D01*
G01X13389Y66118D01*
G01X13390Y66103D01*
G01X13393Y66089D01*
G01X13398Y66075D01*
G01X13405Y66063D01*
G01X13414Y66051D01*
G01X13424Y66041D01*
G01X13436Y66032D01*
G01X13448Y66025D01*
G01X13462Y66020D01*
G01X13476Y66017D01*
G01X13491Y66016D01*
G01X21583Y66016D01*
G01X21598Y66017D01*
G01X21612Y66020D01*
G01X21625Y66025D01*
G01X21638Y66032D01*
G01X21650Y66041D01*
G01X21660Y66051D01*
G01X21669Y66063D01*
G01X21676Y66075D01*
G01X21681Y66089D01*
G01X21684Y66103D01*
G01X21685Y66118D01*
G01X21684Y66133D01*
G01X21680Y66147D01*
G01X21675Y66161D01*
G01X21668Y66174D01*
G01X21658Y66186D01*
G01X21625Y66225D01*
G01X21593Y66265D01*
G01X21562Y66306D01*
G01X21533Y66349D01*
G01X21481Y66437D01*
G01X21458Y66483D01*
G01X21437Y66530D01*
G01X21417Y66577D01*
G01X21400Y66626D01*
G01X21384Y66675D01*
G01X21371Y66724D01*
G01X21359Y66774D01*
G01X21350Y66825D01*
G01X21343Y66876D01*
G01X21337Y66927D01*
G01X21334Y66978D01*
G01X21333Y67029D01*
G01X21334Y67080D01*
G01X21337Y67131D01*
G01X21342Y67181D01*
G01X21349Y67231D01*
G01X21358Y67281D01*
G01X21370Y67330D01*
G01X21383Y67379D01*
G01X21398Y67427D01*
G01X21415Y67475D01*
G01X21434Y67522D01*
G01X21454Y67568D01*
G01X21477Y67613D01*
G01X21501Y67658D01*
G01X21528Y67701D01*
G01X21556Y67743D01*
G01X21585Y67784D01*
G01X21616Y67824D01*
G01X21649Y67863D01*
G01X21683Y67900D01*
G01X21719Y67936D01*
G01X21756Y67970D01*
G01X21795Y68003D01*
G01X21835Y68034D01*
G01X21876Y68064D01*
G01X21918Y68092D01*
G01X21961Y68118D01*
G01X22006Y68142D01*
G01X22051Y68165D01*
G01X22097Y68185D01*
G01X22144Y68204D01*
G01X22192Y68221D01*
G01X22240Y68236D01*
G01X22289Y68250D01*
G01X22338Y68261D01*
G01X22388Y68270D01*
G01X22438Y68277D01*
G01X22489Y68282D01*
G01X22539Y68285D01*
G01X22590Y68286D01*
G01X22643Y68285D01*
G01X22697Y68281D01*
G01X22751Y68276D01*
G01X22804Y68268D01*
G01X22857Y68257D01*
G01X22909Y68245D01*
G01X22961Y68230D01*
G01X23012Y68213D01*
G01X23062Y68194D01*
G01X23111Y68173D01*
G01X23160Y68149D01*
G01X23174Y68143D01*
G01X23190Y68139D01*
G01X23206Y68138D01*
G01X23224Y68140D01*
G01X23231Y68125D01*
G01X23240Y68111D01*
G01X23251Y68099D01*
G01X23265Y68089D01*
G01X23308Y68060D01*
G01X23351Y68029D01*
G01X23392Y67997D01*
G01X23432Y67962D01*
G01X23470Y67926D01*
G01X23507Y67889D01*
G01X23542Y67850D01*
G01X23575Y67809D01*
G01X23607Y67767D01*
G01X23637Y67724D01*
G01X23665Y67680D01*
G01X23691Y67634D01*
G01X23716Y67587D01*
G01X23738Y67540D01*
G01X23758Y67491D01*
G01X23776Y67442D01*
G01X23793Y67392D01*
G01X23807Y67342D01*
G01X23819Y67290D01*
G01X23829Y67239D01*
G01X23836Y67187D01*
G01X23842Y67134D01*
G01X23845Y67082D01*
G01X23846Y67029D01*
G01X23845Y66978D01*
G01X23842Y66927D01*
G01X23837Y66876D01*
G01X23829Y66825D01*
G01X23820Y66774D01*
G01X23809Y66724D01*
G01X23795Y66675D01*
G01X23780Y66626D01*
G01X23762Y66577D01*
G01X23743Y66530D01*
G01X23721Y66483D01*
G01X23698Y66437D01*
G01X23673Y66393D01*
G01X23646Y66349D01*
G01X23617Y66306D01*
G01X23587Y66265D01*
G01X23555Y66225D01*
G01X23521Y66186D01*
G01X23512Y66174D01*
G01X23504Y66161D01*
G01X23499Y66147D01*
G01X23496Y66133D01*
G01X23495Y66118D01*
G01X23496Y66103D01*
G01X23499Y66089D01*
G01X23504Y66075D01*
G01X23511Y66063D01*
G01X23519Y66051D01*
G01X23530Y66041D01*
G01X23541Y66032D01*
G01X23554Y66025D01*
G01X23567Y66020D01*
G01X23582Y66017D01*
G01X23596Y66016D01*
G01X33883Y66016D01*
G01X33898Y66017D01*
G01X33912Y66020D01*
G01X33925Y66025D01*
G01X33938Y66032D01*
G01X33950Y66041D01*
G01X33960Y66051D01*
G01X33969Y66063D01*
G01X33976Y66075D01*
G01X33981Y66089D01*
G01X33984Y66103D01*
G01X33985Y66118D01*
G01X33984Y66133D01*
G01X33980Y66147D01*
G01X33975Y66161D01*
G01X33968Y66174D01*
G01X33958Y66186D01*
G01X33925Y66225D01*
G01X33893Y66265D01*
G01X33862Y66306D01*
G01X33833Y66349D01*
G01X33781Y66437D01*
G01X33758Y66483D01*
G01X33737Y66530D01*
G01X33717Y66577D01*
G01X33700Y66626D01*
G01X33684Y66675D01*
G01X33671Y66724D01*
G01X33659Y66774D01*
G01X33650Y66825D01*
G01X33643Y66876D01*
G01X33637Y66927D01*
G01X33634Y66978D01*
G01X33633Y67029D01*
G01X33634Y67081D01*
G01X33637Y67132D01*
G01X33642Y67183D01*
G01X33650Y67234D01*
G01X33659Y67284D01*
G01X33671Y67334D01*
G01X33684Y67384D01*
G01X33699Y67432D01*
G01X33717Y67481D01*
G01X33736Y67528D01*
G01X33758Y67575D01*
G01X33781Y67621D01*
G01X33806Y67665D01*
G01X33833Y67709D01*
G01X33861Y67752D01*
G01X33892Y67793D01*
G01X33924Y67833D01*
G01X33957Y67872D01*
G01X33992Y67909D01*
G01X34029Y67945D01*
G01X34040Y67957D01*
G01X34049Y67971D01*
G01X34056Y67986D01*
G01X34060Y68002D01*
G01X34061Y68019D01*
G01X34060Y68035D01*
G01X34056Y68050D01*
G01X34050Y68065D01*
G01X34041Y68079D01*
G01X34031Y68091D01*
G01X33918Y68204D01*
G01X33906Y68214D01*
G01X33892Y68222D01*
G01X33878Y68228D01*
G01X33862Y68232D01*
G01X33846Y68233D01*
G01X23533Y68233D01*
G01X23497Y68235D01*
G01X23461Y68239D01*
G01X23426Y68246D01*
G01X23392Y68256D01*
G01X23359Y68269D01*
G01X23339Y68275D01*
G01X23319Y68277D01*
G01X23301Y68275D01*
G01X23295Y68288D01*
G01X23287Y68301D01*
G01X23277Y68312D01*
G01X23266Y68321D01*
G01X23241Y68342D01*
G01X23216Y68364D01*
G01X22107Y69474D01*
G01X22095Y69484D01*
G01X22081Y69492D01*
G01X22067Y69498D01*
G01X22051Y69502D01*
G01X22035Y69503D01*
G01X21873Y69503D01*
G01X21858Y69502D01*
G01X21843Y69499D01*
G01X21829Y69493D01*
G01X21816Y69486D01*
G01X21784Y69466D01*
G01X21752Y69448D01*
G01X21718Y69433D01*
G01X21683Y69420D01*
G01X21648Y69409D01*
G01X21611Y69400D01*
G01X21575Y69394D01*
G01X21538Y69390D01*
G01X21501Y69389D01*
G01X21467Y69390D01*
G01X21433Y69393D01*
G01X21399Y69398D01*
G01X21366Y69405D01*
G01X21334Y69415D01*
G01X21302Y69426D01*
G01X21270Y69439D01*
G01X21240Y69453D01*
G01X21210Y69470D01*
G01X21182Y69489D01*
G01X21154Y69509D01*
G01X21128Y69530D01*
G01X21080Y69578D01*
G01X21059Y69604D01*
G01X21039Y69632D01*
G01X21020Y69660D01*
G01X21004Y69690D01*
G01X20989Y69720D01*
G01X20976Y69751D01*
G01X20965Y69783D01*
G01X20956Y69816D01*
G01X20948Y69849D01*
G01X20943Y69883D01*
G01X20940Y69917D01*
G01X20939Y69950D01*
G01X20940Y69984D01*
G01X20943Y70018D01*
G01X20948Y70052D01*
G01X20956Y70085D01*
G01X20965Y70117D01*
G01X20976Y70150D01*
G01X20989Y70181D01*
G01X21004Y70211D01*
G01X21020Y70241D01*
G01X21039Y70269D01*
G01X21059Y70297D01*
G01X21080Y70323D01*
G01X21128Y70371D01*
G01X21154Y70392D01*
G01X21182Y70412D01*
G01X21210Y70431D01*
G01X21240Y70448D01*
G01X21270Y70462D01*
G01X21302Y70475D01*
G01X21334Y70486D01*
G01X21366Y70496D01*
G01X21399Y70503D01*
G01X21433Y70508D01*
G01X21467Y70511D01*
G01X21501Y70512D01*
G01X21538Y70511D01*
G01X21575Y70507D01*
G01X21611Y70501D01*
G01X21648Y70492D01*
G01X21683Y70481D01*
G01X21718Y70468D01*
G01X21752Y70453D01*
G01X21784Y70435D01*
G01X21816Y70415D01*
G01X21829Y70408D01*
G01X21843Y70402D01*
G01X21858Y70399D01*
G01X21873Y70398D01*
G01X22263Y70398D01*
G01X22294Y70396D01*
G01X22326Y70393D01*
G01X22341Y70392D01*
G01X22355Y70393D01*
G01X22369Y70396D01*
G01X22383Y70401D01*
G01X22396Y70408D01*
G01X22407Y70417D01*
G01X22417Y70427D01*
G01X22426Y70439D01*
G01X22433Y70451D01*
G01X22438Y70465D01*
G01X22441Y70479D01*
G01X22442Y70494D01*
G01X22441Y70509D01*
G01X22437Y70525D01*
G01X22431Y70540D01*
G01X22423Y70553D01*
G01X22412Y70565D01*
G01X20873Y72105D01*
G01X20861Y72115D01*
G01X20847Y72124D01*
G01X20832Y72130D01*
G01X20817Y72133D01*
G37*

%LPD*%
G54D11*
G01X47282Y81253D02*
G01X40932Y81253D01*
G01X47282Y81253D02*
G01X42837Y81253D01*
G01X47282Y71220D02*
G01X43472Y71220D01*
G54D12*
G01X1981Y83666D02*
G01X1181Y83666D01*
G01X419Y82904D01*
G01X419Y81076D01*
G01X1689Y79806D01*
G01X8928Y80060D02*
G01X8928Y78840D01*
G01X9436Y78332D01*
G01X10706Y78332D01*
G01X10960Y78078D01*
G01X10960Y76046D01*
G01X11353Y75653D01*
G01X13055Y75653D01*
G01X4864Y66521D02*
G01X5118Y66267D01*
G01X12865Y66267D01*
G01X14389Y67792D01*
G01X14389Y70204D01*
G01X5753Y67029D02*
G01X11722Y67029D01*
G01X13246Y68553D01*
G01X13246Y70331D01*
G54D11*
G01X43472Y71220D02*
G01X43218Y71220D01*
G01X40551Y71220D01*
G54D12*
G01X21501Y69950D02*
G01X22263Y69950D01*
G01X23533Y68680D01*
G01X34074Y68680D01*
G01X34889Y67865D01*
G01X34889Y67029D01*
G01X15430Y80415D02*
G01X15430Y79094D01*
G01X18453Y79094D01*
G01X18707Y78840D01*
G01X18707Y77316D01*
G01X6010Y77046D02*
G01X5101Y77046D01*
G01X4737Y76681D01*
G01X7988Y83412D02*
G01X7988Y83107D01*
G01X6515Y81634D01*
G01X17488Y83412D02*
G01X17056Y83412D01*
G01X15405Y81761D01*
G01X8293Y81761D01*
G01X7404Y80872D01*
G01X6010Y75046D02*
G01X3959Y75046D01*
G01X3467Y75538D01*
G01X3467Y76173D01*
G01X20218Y71678D02*
G01X20218Y69823D01*
G01X18948Y68553D01*
G01X17488Y68553D01*
G01X24549Y83920D02*
G01X24295Y83920D01*
G01X22898Y82523D01*
G01X20993Y82523D01*
G01X20228Y81759D01*
G01X20228Y80415D01*
G01X21818Y78840D02*
G01X21882Y78904D01*
G01X22326Y78904D01*
G01X23152Y79729D01*
G01X23152Y81761D01*
G01X24041Y82650D01*
G01X25819Y82650D01*
G01X27089Y83920D01*
G01X21818Y78040D02*
G01X22606Y78040D01*
G01X24549Y79984D01*
G01X24549Y81380D01*
G01X21818Y77240D02*
G01X22656Y78078D01*
G01X25184Y78078D01*
G01X13055Y73252D02*
G01X13754Y73252D01*
G01X14008Y73506D01*
G01X20104Y73506D01*
G01X24041Y69569D01*
G01X35979Y69569D01*
G01X37429Y68119D01*
G01X37429Y67029D01*
G01X37429Y67029D02*
G01X39969Y67029D01*
G01X1689Y76605D02*
G01X1689Y73379D01*
G01X2522Y72546D01*
G01X6009Y72546D01*
G01X18580Y71982D02*
G01X18580Y70712D01*
G01X19342Y69950D01*
G01X10833Y71601D02*
G01X10833Y72998D01*
G01X10579Y73252D01*
G01X6715Y73252D01*
G01X6009Y72546D01*
G01X10833Y72346D02*
G01X13736Y72346D01*
G01X14262Y72871D01*
G01X16548Y72871D01*
G01X16929Y72490D01*
G01X16929Y71982D01*
G01X21818Y75643D02*
G01X19573Y75643D01*
G01X18707Y74776D01*
G01X13055Y77250D02*
G01X16167Y77250D01*
G01X16167Y77316D01*
G01X16167Y74776D02*
G01X14493Y76450D01*
G01X13055Y76450D01*
G54D13*
G01X12455Y73252D02*
G01X13655Y73252D01*
G01X12455Y74053D02*
G01X13655Y74053D01*
G01X12455Y74853D02*
G01X13655Y74853D01*
G01X12455Y75653D02*
G01X13655Y75653D01*
G01X12455Y76450D02*
G01X13655Y76450D01*
G01X12455Y77250D02*
G01X13655Y77250D01*
G01X12455Y78051D02*
G01X13655Y78051D01*
G01X12455Y78851D02*
G01X13655Y78851D01*
G01X14630Y79815D02*
G01X14630Y81015D01*
G01X15430Y79815D02*
G01X15430Y81015D01*
G01X16230Y79815D02*
G01X16230Y81015D01*
G01X17030Y79815D02*
G01X17030Y81015D01*
G01X17828Y79815D02*
G01X17828Y81015D01*
G01X18628Y79815D02*
G01X18628Y81015D01*
G01X19428Y79815D02*
G01X19428Y81015D01*
G01X20228Y79815D02*
G01X20228Y81015D01*
G01X21218Y78840D02*
G01X22418Y78840D01*
G01X21218Y78040D02*
G01X22418Y78040D01*
G01X21218Y77240D02*
G01X22418Y77240D01*
G01X21218Y76440D02*
G01X22418Y76440D01*
G01X21218Y75643D02*
G01X22418Y75643D01*
G01X21218Y74843D02*
G01X22418Y74843D01*
G01X21218Y74042D02*
G01X22418Y74042D01*
G01X21218Y73242D02*
G01X22418Y73242D01*
G01X20218Y71078D02*
G01X20218Y72278D01*
G01X19418Y71078D02*
G01X19418Y72278D01*
G01X18618Y71078D02*
G01X18618Y72278D01*
G01X17818Y71078D02*
G01X17818Y72278D01*
G01X17020Y71078D02*
G01X17020Y72278D01*
G01X16220Y71078D02*
G01X16220Y72278D01*
G01X15420Y71078D02*
G01X15420Y72278D01*
G01X14620Y71078D02*
G01X14620Y72278D01*
G54D15*
G01X3655Y68115D03*
G01X3655Y67214D03*
G01X1755Y68115D03*
G01X1755Y67214D03*
G54D16*
G01X6010Y72546D03*
G01X6010Y75046D03*
G01X6010Y77046D03*
G01X6010Y79546D03*
G54D17*
G01X8928Y76860D03*
G01X8928Y80060D03*
G01X8928Y74979D03*
G01X8928Y71779D03*
G01X1689Y79805D03*
G01X1689Y76605D03*
G54D18*
G01X1981Y83666D03*
G01X3683Y83666D03*
G54D19*
G01X17488Y83412D03*
G01X7988Y83412D03*
G01X7988Y68553D03*
G01X17488Y68553D03*
G54D20*
G01X42509Y67029D03*
G01X39969Y67029D03*
G01X37429Y67029D03*
G01X34889Y67029D03*
G01X22589Y67029D03*
G01X25184Y78078D03*
G01X27724Y78078D03*
G01X30264Y78078D03*
G54D21*
G01X32804Y78078D03*
G54D22*
G01X22009Y81380D03*
G01X22009Y83920D03*
G01X24549Y81380D03*
G01X24549Y83920D03*
G01X27089Y81380D03*
G54D23*
G01X27089Y83920D03*
G54D24*
G01X36562Y80528D03*
G01X30062Y80528D03*
G01X36562Y85027D03*
G01X30062Y85027D03*
G54D25*
G01X40932Y81253D03*
G01X40551Y71220D03*
G54D23*
G01X16167Y77316D03*
G54D22*
G01X18707Y77316D03*
G01X16167Y74776D03*
G01X18707Y74776D03*
G54D14*
G01X4864Y66521D03*
G01X5753Y67029D03*
G01X3086Y67283D03*
G01X3086Y68172D03*
G01X3467Y76173D03*
G01X4737Y76681D03*
G01X6515Y81634D03*
G01X7404Y80872D03*
G01X7620Y83666D03*
G01X17056Y83412D03*
G01X8928Y77189D03*
G01X8928Y72109D03*
G01X13500Y74903D03*
G01X12611Y74014D03*
G01X8420Y68299D03*
G01X17056Y68299D03*
G01X13119Y75665D03*
G01X14389Y70204D03*
G01X13246Y70331D03*
G01X15405Y71474D03*
G01X14643Y71855D03*
G01X19469Y71220D03*
G01X42202Y81253D03*
G01X43472Y81253D03*
G01X42837Y81253D03*
G01X42202Y71220D03*
G01X43472Y71220D03*
G01X42837Y71220D03*
G01X10833Y71601D03*
G01X17818Y80110D03*
G01X19469Y80110D03*
G01X16929Y71982D03*
G01X18580Y71982D03*
G01X19342Y69950D03*
G01X21501Y69950D03*
G01X11722Y68299D03*
G01X13754Y68299D03*
G01X16167Y72236D03*
G01X12729Y83539D03*
G01X17056Y80872D03*
G01X19596Y66648D03*
G01X32804Y67029D03*
G54D26*
G01X4460Y81746D02*
G01X1960Y81746D01*
G01X4460Y70346D02*
G01X1960Y70346D01*
M00*
M02*
