G04 Layer: TopPasteMaskLayer*
G04 EasyEDA v6.3.53, 2020-06-17T01:54:55+02:00*
G04 e9d571a3f1504c91a96fab9e56f28b91,9eabfb72a9474bef872f988307f0334b,10*
G04 Gerber Generator version 0.2*
G04 Scale: 100 percent, Rotated: No, Reflected: No *
G04 Dimensions in millimeters *
G04 leading zeros omitted , absolute positions ,3 integer and 3 decimal *
%FSLAX33Y33*%
%MOMM*%
G90*
G71D02*

%ADD13C,0.450012*%
%ADD15R,1.099998X0.599999*%
%ADD16R,2.499995X1.199998*%
%ADD17R,1.899996X1.199998*%
%ADD18R,1.092200X0.990600*%
%ADD19R,5.499989X1.999996*%

%LPD*%
G54D13*
G01X12455Y73252D02*
G01X13655Y73252D01*
G01X12455Y74053D02*
G01X13655Y74053D01*
G01X12455Y74853D02*
G01X13655Y74853D01*
G01X12455Y75653D02*
G01X13655Y75653D01*
G01X12455Y76450D02*
G01X13655Y76450D01*
G01X12455Y77250D02*
G01X13655Y77250D01*
G01X12455Y78051D02*
G01X13655Y78051D01*
G01X12455Y78851D02*
G01X13655Y78851D01*
G01X14630Y79815D02*
G01X14630Y81015D01*
G01X15430Y79815D02*
G01X15430Y81015D01*
G01X16230Y79815D02*
G01X16230Y81015D01*
G01X17030Y79815D02*
G01X17030Y81015D01*
G01X17828Y79815D02*
G01X17828Y81015D01*
G01X18628Y79815D02*
G01X18628Y81015D01*
G01X19428Y79815D02*
G01X19428Y81015D01*
G01X20228Y79815D02*
G01X20228Y81015D01*
G01X21218Y78840D02*
G01X22418Y78840D01*
G01X21218Y78040D02*
G01X22418Y78040D01*
G01X21218Y77240D02*
G01X22418Y77240D01*
G01X21218Y76440D02*
G01X22418Y76440D01*
G01X21218Y75643D02*
G01X22418Y75643D01*
G01X21218Y74843D02*
G01X22418Y74843D01*
G01X21218Y74042D02*
G01X22418Y74042D01*
G01X21218Y73242D02*
G01X22418Y73242D01*
G01X20218Y71078D02*
G01X20218Y72278D01*
G01X19418Y71078D02*
G01X19418Y72278D01*
G01X18618Y71078D02*
G01X18618Y72278D01*
G01X17818Y71078D02*
G01X17818Y72278D01*
G01X17020Y71078D02*
G01X17020Y72278D01*
G01X16220Y71078D02*
G01X16220Y72278D01*
G01X15420Y71078D02*
G01X15420Y72278D01*
G01X14620Y71078D02*
G01X14620Y72278D01*
G54D15*
G01X3655Y68115D03*
G01X3655Y67214D03*
G01X1755Y68115D03*
G01X1755Y67214D03*
G54D16*
G01X6010Y72546D03*
G01X6010Y75046D03*
G01X6010Y77046D03*
G01X6010Y79546D03*
G54D17*
G01X8928Y76860D03*
G01X8928Y80060D03*
G01X8928Y74979D03*
G01X8928Y71779D03*
G01X1689Y79805D03*
G01X1689Y76605D03*
G54D18*
G01X1981Y83666D03*
G01X3683Y83666D03*
G54D19*
G01X17488Y83412D03*
G01X7988Y83412D03*
G01X7988Y68553D03*
G01X17488Y68553D03*
M00*
M02*
