G04 Layer: BoardOutline*
G04 EasyEDA v6.3.53, 2020-06-17T01:54:55+02:00*
G04 e9d571a3f1504c91a96fab9e56f28b91,9eabfb72a9474bef872f988307f0334b,10*
G04 Gerber Generator version 0.2*
G04 Scale: 100 percent, Rotated: No, Reflected: No *
G04 Dimensions in millimeters *
G04 leading zeros omitted , absolute positions ,3 integer and 3 decimal *
%FSLAX33Y33*%
%MOMM*%
G90*
G71D02*

%ADD10C,0.254000*%
G54D10*
G01X2540Y86079D02*
G01X44107Y86079D01*
G01X44107Y65759D01*
G01X2540Y65759D01*
G01X0Y83539D02*
G01X0Y68299D01*
G75*
G01X2540Y86080D02*
G03X0Y83540I0J-2540D01*
G01*
G75*
G01X0Y68300D02*
G03X2540Y65760I2540J0D01*
G01*
G01X48247Y86079D02*
G01X89814Y86079D01*
G01X89814Y65759D01*
G01X48247Y65759D01*
G01X45707Y83539D02*
G01X45707Y68299D01*
G75*
G01X48247Y86080D02*
G03X45707Y83540I0J-2540D01*
G01*
G75*
G01X45707Y68300D02*
G03X48247Y65760I2540J0D01*
G01*
G01X2540Y64159D02*
G01X44107Y64159D01*
G01X44107Y43839D01*
G01X2540Y43839D01*
G01X0Y61619D02*
G01X0Y46379D01*
G75*
G01X2540Y64160D02*
G03X0Y61620I0J-2540D01*
G01*
G75*
G01X0Y46380D02*
G03X2540Y43840I2540J0D01*
G01*
G01X48247Y64159D02*
G01X89814Y64159D01*
G01X89814Y43839D01*
G01X48247Y43839D01*
G01X45707Y61619D02*
G01X45707Y46379D01*
G75*
G01X48247Y64160D02*
G03X45707Y61620I0J-2540D01*
G01*
G75*
G01X45707Y46380D02*
G03X48247Y43840I2540J0D01*
G01*
G01X2540Y42239D02*
G01X44107Y42239D01*
G01X44107Y21919D01*
G01X2540Y21919D01*
G01X0Y39699D02*
G01X0Y24459D01*
G75*
G01X2540Y42240D02*
G03X0Y39700I0J-2540D01*
G01*
G75*
G01X0Y24460D02*
G03X2540Y21920I2540J0D01*
G01*
G01X48247Y42239D02*
G01X89814Y42239D01*
G01X89814Y21919D01*
G01X48247Y21919D01*
G01X45707Y39699D02*
G01X45707Y24459D01*
G75*
G01X48247Y42240D02*
G03X45707Y39700I0J-2540D01*
G01*
G75*
G01X45707Y24460D02*
G03X48247Y21920I2540J0D01*
G01*
G01X2540Y20320D02*
G01X44107Y20320D01*
G01X44107Y0D01*
G01X2540Y0D01*
G01X0Y17780D02*
G01X0Y2540D01*
G75*
G01X2540Y20320D02*
G03X0Y17780I0J-2540D01*
G01*
G75*
G01X0Y2540D02*
G03X2540Y0I2540J0D01*
G01*
G01X48247Y20320D02*
G01X89814Y20320D01*
G01X89814Y0D01*
G01X48247Y0D01*
G01X45707Y17780D02*
G01X45707Y2540D01*
G75*
G01X48247Y20320D02*
G03X45707Y17780I0J-2540D01*
G01*
G75*
G01X45707Y2540D02*
G03X48247Y0I2540J0D01*
G01*
G01X0Y86079D02*
G01X89814Y86079D01*
G01X89814Y0D01*
G01X0Y0D01*
G01X0Y86079D01*
G01X17953Y64159D02*
G01X17953Y65759D01*
G01X26153Y64159D02*
G01X26153Y65759D01*
G01X63660Y64159D02*
G01X63660Y65759D01*
G01X71860Y64159D02*
G01X71860Y65759D01*
G01X17953Y42239D02*
G01X17953Y43839D01*
G01X26153Y42239D02*
G01X26153Y43839D01*
G01X63660Y42239D02*
G01X63660Y43839D01*
G01X71860Y42239D02*
G01X71860Y43839D01*
G01X17953Y20320D02*
G01X17953Y21919D01*
G01X26153Y20320D02*
G01X26153Y21919D01*
G01X63660Y20320D02*
G01X63660Y21919D01*
G01X71860Y20320D02*
G01X71860Y21919D01*
G01X45707Y80020D02*
G01X44107Y80020D01*
G01X45707Y71819D02*
G01X44107Y71819D01*
G01X45707Y58100D02*
G01X44107Y58100D01*
G01X45707Y49899D02*
G01X44107Y49899D01*
G01X45707Y36180D02*
G01X44107Y36180D01*
G01X45707Y27979D02*
G01X44107Y27979D01*
G01X45707Y14260D02*
G01X44107Y14260D01*
G01X45707Y6059D02*
G01X44107Y6059D01*

%LPD*%
M00*
M02*
