G04 Layer: BottomPasteMaskLayer*
G04 EasyEDA v6.3.53, 2020-06-17T01:54:55+02:00*
G04 e9d571a3f1504c91a96fab9e56f28b91,9eabfb72a9474bef872f988307f0334b,10*
G04 Gerber Generator version 0.2*
G04 Scale: 100 percent, Rotated: No, Reflected: No *
G04 Dimensions in millimeters *
G04 leading zeros omitted , absolute positions ,3 integer and 3 decimal *
%FSLAX33Y33*%
%MOMM*%
G90*
G71D02*

%ADD27C,0.599999*%

%LPD*%
G54D27*
G01X10156Y80491D02*
G01X11356Y80491D01*
G01X10156Y79221D02*
G01X11356Y79221D01*
G01X10156Y77951D02*
G01X11356Y77951D01*
G01X10156Y76681D02*
G01X11356Y76681D01*
G01X10156Y75411D02*
G01X11356Y75411D01*
G01X10156Y74141D02*
G01X11356Y74141D01*
G01X10156Y72871D02*
G01X11356Y72871D01*
G01X10156Y71601D02*
G01X11356Y71601D01*
G01X4213Y80491D02*
G01X5413Y80491D01*
G01X4213Y79221D02*
G01X5413Y79221D01*
G01X4213Y77951D02*
G01X5413Y77951D01*
G01X4213Y76681D02*
G01X5413Y76681D01*
G01X4213Y75411D02*
G01X5413Y75411D01*
G01X4213Y74141D02*
G01X5413Y74141D01*
G01X4213Y72871D02*
G01X5413Y72871D01*
G01X4213Y71601D02*
G01X5413Y71601D01*
G36*
G01X17605Y84490D02*
G01X16405Y84490D01*
G01X16405Y82589D01*
G01X17605Y82589D01*
G01X17605Y84490D01*
G37*
G36*
G01X14404Y84490D02*
G01X13204Y84490D01*
G01X13204Y82589D01*
G01X14404Y82589D01*
G01X14404Y84490D01*
G37*
G36*
G01X7871Y82589D02*
G01X9071Y82589D01*
G01X9071Y84490D01*
G01X7871Y84490D01*
G01X7871Y82589D01*
G37*
G36*
G01X11071Y82589D02*
G01X12271Y82589D01*
G01X12271Y84490D01*
G01X11071Y84490D01*
G01X11071Y82589D01*
G37*
G36*
G01X7871Y67349D02*
G01X9071Y67349D01*
G01X9071Y69250D01*
G01X7871Y69250D01*
G01X7871Y67349D01*
G37*
G36*
G01X11071Y67349D02*
G01X12271Y67349D01*
G01X12271Y69250D01*
G01X11071Y69250D01*
G01X11071Y67349D01*
G37*
G36*
G01X13332Y67349D02*
G01X14532Y67349D01*
G01X14532Y69250D01*
G01X13332Y69250D01*
G01X13332Y67349D01*
G37*
G36*
G01X16532Y67349D02*
G01X17732Y67349D01*
G01X17732Y69250D01*
G01X16532Y69250D01*
G01X16532Y67349D01*
G37*
G36*
G01X4148Y68130D02*
G01X5148Y68130D01*
G01X5148Y69231D01*
G01X4148Y69231D01*
G01X4148Y68130D01*
G37*
G36*
G01X2548Y68130D02*
G01X3548Y68130D01*
G01X3548Y69231D01*
G01X2548Y69231D01*
G01X2548Y68130D01*
G37*
G36*
G01X4148Y66479D02*
G01X5148Y66479D01*
G01X5148Y67580D01*
G01X4148Y67580D01*
G01X4148Y66479D01*
G37*
G36*
G01X2548Y66479D02*
G01X3548Y66479D01*
G01X3548Y67580D01*
G01X2548Y67580D01*
G01X2548Y66479D01*
G37*
G36*
G01X12550Y77332D02*
G01X12550Y76132D01*
G01X14450Y76132D01*
G01X14450Y77332D01*
G01X12550Y77332D01*
G37*
G36*
G01X12550Y80533D02*
G01X12550Y79333D01*
G01X14450Y79333D01*
G01X14450Y80533D01*
G01X12550Y80533D01*
G37*
M00*
M02*
