G04 Layer: TopSolderMaskLayer*
G04 EasyEDA v6.3.53, 2020-06-17T01:54:55+02:00*
G04 e9d571a3f1504c91a96fab9e56f28b91,9eabfb72a9474bef872f988307f0334b,10*
G04 Gerber Generator version 0.2*
G04 Scale: 100 percent, Rotated: No, Reflected: No *
G04 Dimensions in millimeters *
G04 leading zeros omitted , absolute positions ,3 integer and 3 decimal *
%FSLAX33Y33*%
%MOMM*%
G90*
G71D02*

%ADD12C,0.381000*%
%ADD36C,1.703197*%
%ADD37C,0.653212*%
%ADD41C,2.203196*%
%ADD43C,1.778000*%
%ADD47C,2.003196*%
%ADD49C,1.727200*%

%LPD*%
G54D12*
G01X43787Y69442D02*
G01X40678Y69442D01*
G01X40678Y72998D02*
G01X43787Y72998D01*
G01X40997Y83031D02*
G01X44107Y83031D01*
G01X44107Y79475D02*
G01X40997Y79475D01*
G54D36*
G01X4460Y81746D02*
G01X1960Y81746D01*
G01X4460Y70346D02*
G01X1960Y70346D01*
G54D37*
G01X12455Y73252D02*
G01X13655Y73252D01*
G01X12455Y74053D02*
G01X13655Y74053D01*
G01X12455Y74853D02*
G01X13655Y74853D01*
G01X12455Y75653D02*
G01X13655Y75653D01*
G01X12455Y76450D02*
G01X13655Y76450D01*
G01X12455Y77250D02*
G01X13655Y77250D01*
G01X12455Y78051D02*
G01X13655Y78051D01*
G01X12455Y78851D02*
G01X13655Y78851D01*
G01X14630Y79815D02*
G01X14630Y81015D01*
G01X15430Y79815D02*
G01X15430Y81015D01*
G01X16230Y79815D02*
G01X16230Y81015D01*
G01X17030Y79815D02*
G01X17030Y81015D01*
G01X17828Y79815D02*
G01X17828Y81015D01*
G01X18628Y79815D02*
G01X18628Y81015D01*
G01X19428Y79815D02*
G01X19428Y81015D01*
G01X20228Y79815D02*
G01X20228Y81015D01*
G01X21218Y78840D02*
G01X22418Y78840D01*
G01X21218Y78040D02*
G01X22418Y78040D01*
G01X21218Y77240D02*
G01X22418Y77240D01*
G01X21218Y76440D02*
G01X22418Y76440D01*
G01X21218Y75643D02*
G01X22418Y75643D01*
G01X21218Y74843D02*
G01X22418Y74843D01*
G01X21218Y74042D02*
G01X22418Y74042D01*
G01X21218Y73242D02*
G01X22418Y73242D01*
G01X20218Y71078D02*
G01X20218Y72278D01*
G01X19418Y71078D02*
G01X19418Y72278D01*
G01X18618Y71078D02*
G01X18618Y72278D01*
G01X17818Y71078D02*
G01X17818Y72278D01*
G01X17020Y71078D02*
G01X17020Y72278D01*
G01X16220Y71078D02*
G01X16220Y72278D01*
G01X15420Y71078D02*
G01X15420Y72278D01*
G01X14620Y71078D02*
G01X14620Y72278D01*
G36*
G01X3002Y67713D02*
G01X3002Y68515D01*
G01X4307Y68515D01*
G01X4307Y67713D01*
G01X3002Y67713D01*
G37*
G36*
G01X3002Y66814D02*
G01X3002Y67616D01*
G01X4307Y67616D01*
G01X4307Y66814D01*
G01X3002Y66814D01*
G37*
G36*
G01X1102Y67713D02*
G01X1102Y68515D01*
G01X2407Y68515D01*
G01X2407Y67713D01*
G01X1102Y67713D01*
G37*
G36*
G01X1102Y66814D02*
G01X1102Y67616D01*
G01X2407Y67616D01*
G01X2407Y66814D01*
G01X1102Y66814D01*
G37*
G36*
G01X4658Y71845D02*
G01X4658Y73247D01*
G01X7360Y73247D01*
G01X7360Y71845D01*
G01X4658Y71845D01*
G37*
G36*
G01X4658Y74345D02*
G01X4658Y75747D01*
G01X7360Y75747D01*
G01X7360Y74345D01*
G01X4658Y74345D01*
G37*
G36*
G01X4658Y76344D02*
G01X4658Y77748D01*
G01X7360Y77748D01*
G01X7360Y76344D01*
G01X4658Y76344D01*
G37*
G36*
G01X4658Y78846D02*
G01X4658Y80248D01*
G01X7360Y80248D01*
G01X7360Y78846D01*
G01X4658Y78846D01*
G37*
G54D41*
G01X42509Y67029D03*
G01X39969Y67029D03*
G01X37429Y67029D03*
G01X34889Y67029D03*
G01X22589Y67029D03*
G01X25184Y78078D03*
G01X27724Y78078D03*
G01X30264Y78078D03*
G36*
G01X31701Y76976D02*
G01X31701Y79181D01*
G01X33906Y79181D01*
G01X33906Y76976D01*
G01X31701Y76976D01*
G37*
G54D43*
G01X22009Y81380D03*
G01X22009Y83920D03*
G01X24549Y81380D03*
G01X24549Y83920D03*
G01X27089Y81380D03*
G36*
G01X26200Y83031D02*
G01X26200Y84809D01*
G01X27978Y84809D01*
G01X27978Y83031D01*
G01X26200Y83031D01*
G37*
G36*
G01X7876Y76158D02*
G01X7876Y77560D01*
G01X9979Y77560D01*
G01X9979Y76158D01*
G01X7876Y76158D01*
G37*
G36*
G01X7876Y79359D02*
G01X7876Y80761D01*
G01X9979Y80761D01*
G01X9979Y79359D01*
G01X7876Y79359D01*
G37*
G36*
G01X7876Y74279D02*
G01X7876Y75681D01*
G01X9979Y75681D01*
G01X9979Y74279D01*
G01X7876Y74279D01*
G37*
G36*
G01X7876Y71078D02*
G01X7876Y72480D01*
G01X9979Y72480D01*
G01X9979Y71078D01*
G01X7876Y71078D01*
G37*
G36*
G01X637Y79105D02*
G01X637Y80507D01*
G01X2740Y80507D01*
G01X2740Y79105D01*
G01X637Y79105D01*
G37*
G36*
G01X637Y75904D02*
G01X637Y77306D01*
G01X2740Y77306D01*
G01X2740Y75904D01*
G01X637Y75904D01*
G37*
G36*
G01X1333Y83070D02*
G01X1333Y84263D01*
G01X2628Y84263D01*
G01X2628Y83070D01*
G01X1333Y83070D01*
G37*
G36*
G01X3035Y83070D02*
G01X3035Y84263D01*
G01X4330Y84263D01*
G01X4330Y83070D01*
G01X3035Y83070D01*
G37*
G54D47*
G01X36562Y80528D03*
G01X30062Y80528D03*
G01X36562Y85027D03*
G01X30062Y85027D03*
G36*
G01X14635Y82310D02*
G01X14635Y84515D01*
G01X20340Y84515D01*
G01X20340Y82310D01*
G01X14635Y82310D01*
G37*
G36*
G01X5135Y82310D02*
G01X5135Y84515D01*
G01X10840Y84515D01*
G01X10840Y82310D01*
G01X5135Y82310D01*
G37*
G36*
G01X5135Y67451D02*
G01X5135Y69656D01*
G01X10840Y69656D01*
G01X10840Y67451D01*
G01X5135Y67451D01*
G37*
G36*
G01X14635Y67451D02*
G01X14635Y69656D01*
G01X20340Y69656D01*
G01X20340Y67451D01*
G01X14635Y67451D01*
G37*
G54D49*
G01X40932Y81253D03*
G01X40551Y71220D03*
G36*
G01X15278Y76427D02*
G01X15278Y78205D01*
G01X17056Y78205D01*
G01X17056Y76427D01*
G01X15278Y76427D01*
G37*
G54D43*
G01X18707Y77316D03*
G01X16167Y74776D03*
G01X18707Y74776D03*
G54D12*
G75*
G01X40998Y83032D02*
G03X40998Y79476I127J-1778D01*
G01*
G75*
G01X40678Y72999D02*
G03X40678Y69443I127J-1778D01*
G01*

%LPD*%
G36*
G01X44234Y83031D02*
G01X40424Y83031D01*
G01X39789Y82396D01*
G01X39789Y82269D01*
G01X39535Y82015D01*
G01X39535Y81761D01*
G01X39408Y81634D01*
G01X39408Y80491D01*
G01X40170Y79729D01*
G01X40297Y79729D01*
G01X40424Y79602D01*
G01X40551Y79602D01*
G01X40678Y79475D01*
G01X40932Y79475D01*
G01X41059Y79348D01*
G01X42964Y79348D01*
G01X43091Y79475D01*
G01X44234Y79475D01*
G01X44234Y83031D01*
G37*

%LPD*%
G36*
G01X43914Y72998D02*
G01X40104Y72998D01*
G01X39469Y72363D01*
G01X39469Y72236D01*
G01X39215Y71982D01*
G01X39215Y71728D01*
G01X39088Y71601D01*
G01X39088Y70458D01*
G01X39850Y69696D01*
G01X39977Y69696D01*
G01X40104Y69569D01*
G01X40231Y69569D01*
G01X40358Y69442D01*
G01X40612Y69442D01*
G01X40739Y69315D01*
G01X42644Y69315D01*
G01X42771Y69442D01*
G01X43914Y69442D01*
G01X43914Y72998D01*
G37*
M00*
M02*
