G04 Layer: BottomSolderMaskLayer*
G04 EasyEDA v6.3.53, 2020-06-17T01:54:55+02:00*
G04 e9d571a3f1504c91a96fab9e56f28b91,9eabfb72a9474bef872f988307f0334b,10*
G04 Gerber Generator version 0.2*
G04 Scale: 100 percent, Rotated: No, Reflected: No *
G04 Dimensions in millimeters *
G04 leading zeros omitted , absolute positions ,3 integer and 3 decimal *
%FSLAX33Y33*%
%MOMM*%
G90*
G71D02*

%ADD12C,0.381000*%
%ADD36C,1.703197*%
%ADD41C,2.203196*%
%ADD43C,1.778000*%
%ADD47C,2.003196*%
%ADD49C,1.727200*%
%ADD50C,0.803199*%

%LPD*%
G54D12*
G01X44168Y79475D02*
G01X41059Y79475D01*
G01X41059Y83031D02*
G01X44168Y83031D01*
G01X43914Y69442D02*
G01X40805Y69442D01*
G01X40805Y72998D02*
G01X43914Y72998D01*
G54D36*
G01X4460Y81746D02*
G01X1960Y81746D01*
G01X4460Y70346D02*
G01X1960Y70346D01*
G54D50*
G01X10156Y80491D02*
G01X11356Y80491D01*
G01X10156Y79221D02*
G01X11356Y79221D01*
G01X10156Y77951D02*
G01X11356Y77951D01*
G01X10156Y76681D02*
G01X11356Y76681D01*
G01X10156Y75411D02*
G01X11356Y75411D01*
G01X10156Y74141D02*
G01X11356Y74141D01*
G01X10156Y72871D02*
G01X11356Y72871D01*
G01X10156Y71601D02*
G01X11356Y71601D01*
G01X4213Y80491D02*
G01X5413Y80491D01*
G01X4213Y79221D02*
G01X5413Y79221D01*
G01X4213Y77951D02*
G01X5413Y77951D01*
G01X4213Y76681D02*
G01X5413Y76681D01*
G01X4213Y75411D02*
G01X5413Y75411D01*
G01X4213Y74141D02*
G01X5413Y74141D01*
G01X4213Y72871D02*
G01X5413Y72871D01*
G01X4213Y71601D02*
G01X5413Y71601D01*
G54D41*
G01X42509Y67029D03*
G01X39969Y67029D03*
G01X37429Y67029D03*
G01X34889Y67029D03*
G01X22589Y67029D03*
G01X25184Y78078D03*
G01X27724Y78078D03*
G01X30264Y78078D03*
G36*
G01X31701Y76976D02*
G01X31701Y79181D01*
G01X33906Y79181D01*
G01X33906Y76976D01*
G01X31701Y76976D01*
G37*
G54D43*
G01X22009Y81380D03*
G01X22009Y83920D03*
G01X24549Y81380D03*
G01X24549Y83920D03*
G01X27089Y81380D03*
G36*
G01X26200Y83031D02*
G01X26200Y84809D01*
G01X27978Y84809D01*
G01X27978Y83031D01*
G01X26200Y83031D01*
G37*
G54D47*
G01X36562Y80528D03*
G01X30062Y80528D03*
G01X36562Y85027D03*
G01X30062Y85027D03*
G54D49*
G01X40932Y81253D03*
G01X40551Y71220D03*
G36*
G01X16304Y82488D02*
G01X16304Y84591D01*
G01X17706Y84591D01*
G01X17706Y82488D01*
G01X16304Y82488D01*
G37*
G36*
G01X13103Y82488D02*
G01X13103Y84591D01*
G01X14505Y84591D01*
G01X14505Y82488D01*
G01X13103Y82488D01*
G37*
G36*
G01X7769Y82488D02*
G01X7769Y84591D01*
G01X9171Y84591D01*
G01X9171Y82488D01*
G01X7769Y82488D01*
G37*
G36*
G01X10970Y82488D02*
G01X10970Y84591D01*
G01X12372Y84591D01*
G01X12372Y82488D01*
G01X10970Y82488D01*
G37*
G36*
G01X7769Y67248D02*
G01X7769Y69351D01*
G01X9171Y69351D01*
G01X9171Y67248D01*
G01X7769Y67248D01*
G37*
G36*
G01X10970Y67248D02*
G01X10970Y69351D01*
G01X12372Y69351D01*
G01X12372Y67248D01*
G01X10970Y67248D01*
G37*
G36*
G01X13230Y67248D02*
G01X13230Y69351D01*
G01X14632Y69351D01*
G01X14632Y67248D01*
G01X13230Y67248D01*
G37*
G36*
G01X16431Y67248D02*
G01X16431Y69351D01*
G01X17833Y69351D01*
G01X17833Y67248D01*
G01X16431Y67248D01*
G37*
G36*
G01X4046Y68028D02*
G01X4046Y69333D01*
G01X5250Y69333D01*
G01X5250Y68028D01*
G01X4046Y68028D01*
G37*
G36*
G01X2446Y68028D02*
G01X2446Y69333D01*
G01X3649Y69333D01*
G01X3649Y68028D01*
G01X2446Y68028D01*
G37*
G36*
G01X4046Y66377D02*
G01X4046Y67682D01*
G01X5250Y67682D01*
G01X5250Y66377D01*
G01X4046Y66377D01*
G37*
G36*
G01X2446Y66377D02*
G01X2446Y67682D01*
G01X3649Y67682D01*
G01X3649Y66377D01*
G01X2446Y66377D01*
G37*
G36*
G01X15278Y76427D02*
G01X15278Y78205D01*
G01X17056Y78205D01*
G01X17056Y76427D01*
G01X15278Y76427D01*
G37*
G54D43*
G01X18707Y77316D03*
G01X16167Y74776D03*
G01X18707Y74776D03*
G36*
G01X12448Y76031D02*
G01X12448Y77433D01*
G01X14551Y77433D01*
G01X14551Y76031D01*
G01X12448Y76031D01*
G37*
G36*
G01X12448Y79232D02*
G01X12448Y80634D01*
G01X14551Y80634D01*
G01X14551Y79232D01*
G01X12448Y79232D01*
G37*
G54D12*
G75*
G01X41059Y83032D02*
G03X41059Y79476I127J-1778D01*
G01*
G75*
G01X40805Y72999D02*
G03X40805Y69443I127J-1778D01*
G01*

%LPD*%
G36*
G01X44041Y72998D02*
G01X40231Y72998D01*
G01X39596Y72363D01*
G01X39596Y72236D01*
G01X39342Y71982D01*
G01X39342Y71728D01*
G01X39215Y71601D01*
G01X39215Y70458D01*
G01X39977Y69696D01*
G01X40104Y69696D01*
G01X40231Y69569D01*
G01X40358Y69569D01*
G01X40485Y69442D01*
G01X40739Y69442D01*
G01X40866Y69315D01*
G01X42771Y69315D01*
G01X42898Y69442D01*
G01X44041Y69442D01*
G01X44041Y72998D01*
G37*

%LPD*%
G36*
G01X44295Y83031D02*
G01X40485Y83031D01*
G01X39850Y82396D01*
G01X39850Y82269D01*
G01X39596Y82015D01*
G01X39596Y81761D01*
G01X39469Y81634D01*
G01X39469Y80491D01*
G01X40231Y79729D01*
G01X40358Y79729D01*
G01X40485Y79602D01*
G01X40612Y79602D01*
G01X40739Y79475D01*
G01X40993Y79475D01*
G01X41120Y79348D01*
G01X43025Y79348D01*
G01X43152Y79475D01*
G01X44295Y79475D01*
G01X44295Y83031D01*
G37*
M00*
M02*
